<svg xmlns="http://www.w3.org/2000/svg" viewBox="0 0 256 256"><defs><style>.cls-1{fill:#959595;}.cls-2{fill:#828282;}.cls-3,.cls-4{fill:none;}.cls-3{stroke:#000;stroke-linecap:round;stroke-miterlimit:10;stroke-width:4.53px;}</style></defs><title>V-Tess-parts</title><g id="Layer_7" data-name="Layer 7"><path class="cls-1" d="M53.07,89c8.32,3.68,15.73,7.94,27.27,20.73s27.7,26.76,39.46,42.56,27.92,29.77,42.91,48.36S188,235.15,199,241.92s18.85,9.22,26.17,5.66,19.14-7.46,18.48-16.5-2.6-15-12.41-24.84-17.71-35.06-26.78-55.6-26.89-57.11-40.05-71.3-31.37-35.57-44.08-43.73S91,11.9,76,8.55C60.58,5.13,45.3,3.22,31.11,16.37,19.71,27,14.24,34.27,20.41,56.54S43,84.55,53.07,89Z"/><path class="cls-2" d="M29.7,17.69C19.81,28.13,14.5,35.2,20.41,56.54c6.17,22.27,18.07,38.18,28.11,42.63,8.31,3.68,13.78,2,25.31,14.81s29.32,28.15,41.08,44,32.81,24.11,47.8,42.7S188,235.15,199,241.92s7.17,4.77,14.92,7.24c0,0,2.68-4.74,1-7.64s-5.84-17.75-12.2-21.83-27.15-19.23-32.11-24.92-66.5-60.28-66.83-64.8-2.06-7.42,3.64-12.38S138.36,85,145.79,83s16.75-5.72,16.75-5.72-24-25.37-27.9-29.73S94.26,15.14,87.09,12.84,48.68-2.33,29.7,17.69Z"/><path class="cls-3" d="M243.54,229.33c-.8-8.09-3.1-13.86-12.26-23.09-9.81-9.89-17.71-35.06-26.78-55.6s-26.89-57.11-40.05-71.3-31.37-35.57-44.08-43.73S91,11.9,76,8.55C60.58,5.13,45.08.21,30.89,13.36,19.49,23.94,11.12,33,15.78,55.36,20.5,78,28.3,90.17,38.34,94.61c8.31,3.68,21.53,4.49,33.07,17.28s28.41,31.78,42.69,45.35c16.28,15.47,33.62,24.81,48.61,43.4s26.5,32.78,36.33,41.28c4.85,4.19,14.45,7.23,15.73,7.94"/><path d="M83.91,127.45c-1.83-1.06-6.55-5.24-10.4-8.67C66.24,112.32,58,105,52.83,102.88c-4.75-1.95-15.19-10.62-22-19.29a51,51,0,0,1-7-12.56c-.43-1-.8-1.89-1.16-2.63-3.43-7-8.3-30.71-3.17-41.74C23,19,42.1,8.17,55.21,8.17c.5,0,1,0,1.49.05,14.12,1,52.9,15.43,64.17,25.17,1.74,1.5,3.78,3.23,6,5.1,8.64,7.32,26.43,22.4,27.51,26.5-1.66,2.47-12.92,13.42-34.56,32.45C101.08,113.9,87.19,125.34,83.91,127.45Z"/><path d="M55.21,10.44h0c.46,0,.91,0,1.34,0,14.64,1,52.81,16,62.84,24.63,1.75,1.51,3.81,3.26,6,5.11,5.64,4.78,12,10.2,17.39,15.18,5.67,5.29,7.95,8,8.86,9.36-3.3,3.76-14.36,14.29-33.44,31.07-16.65,14.64-29.66,25.45-34.3,28.86-2.16-1.62-6-5-8.88-7.6-7.77-6.9-15.8-14-21.33-16.31-3.88-1.59-14-9.63-21.14-18.59a49.82,49.82,0,0,1-6.68-12c-.44-1.05-.82-2-1.2-2.74-3.2-6.56-7.93-29.54-3.16-39.79C24.74,20.68,43,10.44,55.21,10.44m0-4.53C41.29,5.91,21.44,17,17.4,25.71c-5.59,12-.37,36.37,3.19,43.69,1.47,3,3.5,9.39,8.41,15.6,7,8.88,17.79,17.85,23,20,8.76,3.6,28.89,24.93,32.06,24.93h0c3-.22,71.37-59.73,72.55-64.36s-23-24.08-34.28-33.85S72,7,56.86,6c-.54,0-1.09,0-1.65,0Z"/><circle id="lt2" class="cls-4" cx="56.61" cy="44.05" r="6.04"/><circle id="lt1" class="cls-4" cx="227.6" cy="228.47" r="4.53"/></g></svg>