<svg id="Layer_2" data-name="Layer 2" xmlns="http://www.w3.org/2000/svg" viewBox="0 0 256 256"><defs><style>.cls-1{fill:#959595;}.cls-2{fill:#828282;}.cls-3,.cls-4,.cls-6,.cls-8,.cls-9{fill:none;}.cls-3,.cls-8,.cls-9{stroke:#000;}.cls-3,.cls-4,.cls-7,.cls-8,.cls-9{stroke-linecap:round;}.cls-3,.cls-4,.cls-8,.cls-9{stroke-miterlimit:10;}.cls-3{stroke-width:6.16px;}.cls-4{stroke:#696969;stroke-width:10.26px;}.cls-5{fill:#fff;}.cls-7{fill:#dedede;stroke:#dedede;stroke-linejoin:round;stroke-width:4.1px;}.cls-8{stroke-width:8.21px;}.cls-9{stroke-width:16.42px;}</style></defs><title>V-Tess-parts</title><path class="cls-1" d="M160.8,233.69s-36.94-12.32-39-18.48-12.31-53.36-16.42-55.41S78.7,155.69,74.6,149.54s-8.21-24.63-6.16-32.84S82.81,98.23,89,98.23s18.47,6.15,24.62,12.31,22.58,0,26.69-6.16S156.69,79.76,167,73.6s20.52-20.53,30.78-18.47,32.84,12.31,34.89,18.47,6.16,20.52,4.11,30.78S226.48,129,226.48,135.17c0,12.31,12.31,18.47,14.36,26.68,2,8-4.1,12.32-8.21,14.37-2.59,1.3-8.21,4.1-8.21,10.26s2.06,18.47-4.1,24.63c-5.23,5.23-8.21,16.42-8.21,20.52,0,10.27-12.32,14.37-18.47,14.37C189.53,246,160.8,233.69,160.8,233.69Z"/><path class="cls-2" d="M174.29,239.29c-7.15-2.89-13.49-5.6-13.49-5.6s-36.94-12.32-39-18.48-12.31-53.36-16.42-55.41S78.7,155.69,74.6,149.54s-8.21-24.63-6.16-32.84S82.81,98.23,89,98.23s18.47,6.15,24.62,12.31,22.58,0,26.69-6.16S156.69,79.76,167,73.6s20.52-20.53,30.78-18.47c5.13,1,13.34,4.1,20.53,7.69,0,0-50.21,45.74-53.37,86.72C160.8,202.9,174.29,239.29,174.29,239.29Z"/><path class="cls-3" d="M160.8,233.69s-35.78-12.84-39-18.48c-8.21-14.36-12.31-53.36-16.42-55.41S78.7,155.69,74.6,149.54s-8.21-24.63-6.16-32.84S82.81,98.23,89,98.23s18.47,6.15,24.62,12.31,22.58,0,26.69-6.16S156.69,79.76,167,73.6s20.52-20.53,30.78-18.47,32.84,12.31,34.89,18.47,6.16,20.52,4.11,30.78S226.48,129,226.48,135.17c0,12.31,12.31,18.47,14.36,26.68,2,8-4.1,12.32-8.21,14.37-2.59,1.3-8.21,4.1-8.21,10.26s2.06,18.47-4.1,24.63c-5.23,5.23-8.21,16.42-8.21,20.52,0,10.27-12.32,14.37-18.47,14.37C189.53,246,160.8,233.69,160.8,233.69Z"/><path class="cls-4" d="M103.33,122.86c2.08-4.16-11.63-16.18-18.47,2-6.16,16.42,6.84,19.84,10.26,16.42"/><path d="M229.55,125.93l-2.05,20.53s-85.36-8.63-96.46-26.68c-18.28-29.73,94.41-61.57,94.41-61.57s9.06,22.52,10.68,31.42S229.55,125.93,229.55,125.93Z"/><path class="cls-5" d="M37.66,55.13s8.2,4.1,8.2,12.31S35.6,96.17,35.6,110.54s2.06,34.89,10.26,49.26,18.48,30.79,24.63,32.84,14.37,1.37,15.4-3.42S89,163.9,82.81,157.75,68.44,147.48,66.39,129,78.7,96.17,86.91,96.17s24.63,6.16,28.74,12.32,57.46,0,75.94-10.26,47.2-26.68,45.15-36.95S222.37,30.5,206,26.39s-39-10.26-55.41-10.26S101.28,26.39,93.07,34.6s-32.84-2.05-32.84-2.05Z"/><circle id="h1" class="cls-6" cx="124.88" cy="177.24" r="8.21"/><circle id="h2" class="cls-6" cx="22.26" cy="23.31" r="8.21"/><path class="cls-7" d="M223.4,74.62s-24.63-22.57-34.89-26.68-51.31-6.15-51.31-6.15,14.36,12.31,16.42,16.42S137.2,52.05,122.83,50s-24.63,2-24.63,2,12.32,10.26,18.47,10.26S131,68.47,131,68.47H102.31c-6.16,0-18.48,2-18.48,2L96.15,82.83s-16.42-4.1-20.53-4.1-14.36,6.16-14.36,6.16l8.21,8.21a29.45,29.45,0,0,0-6.16,4.1c-2.05,2-4.1,8.21-4.1,8.21L55.1,93.1s-2.05,28.73,0,34.89,10.26,20.52,12.31,28.73a38,38,0,0,1,0,16.42s-4.1-16.42-10.26-18.47a21.69,21.69,0,0,0-12.31,0s8.76,24.24,13.61,25.46,13.07,13.53,17.17,13.53,12.32-2,10.27-12.31a135.23,135.23,0,0,1-2.06-22.58S72.73,149.72,71.1,145s-7.39-20.55-3.48-29S78.54,96,84.27,96.61s24.45,2.42,30.48,10.74,30.66,4.22,30.66,4.22,40-9.91,47.7-14.19S223.4,74.62,223.4,74.62Z"/><path class="cls-8" d="M37.66,55.13s8.2,4.1,8.2,12.31S35.6,96.17,35.6,110.54s2.06,34.89,10.26,49.26,18.48,30.79,24.63,32.84,14.37,1.37,15.4-3.42S89,163.9,82.81,157.75,68.44,147.48,66.39,129,78.7,96.17,86.91,96.17s24.63,6.16,28.74,12.32,57.46,0,75.94-10.26,47.2-26.68,45.15-36.95S222.37,30.5,206,26.39s-39-10.26-55.41-10.26S101.28,26.39,93.07,34.6s-32.84-2.05-32.84-2.05Z"/><g id="HairBand"><line class="cls-9" x1="36.63" y1="64.36" x2="69.47" y2="29.47"/><line class="cls-9" x1="34.58" y1="54.1" x2="59.21" y2="25.37"/><line class="cls-9" x1="20.21" y1="50" x2="53.05" y2="15.1"/><line class="cls-9" x1="12" y1="41.79" x2="40.73" y2="11"/></g></svg>