<svg xmlns="http://www.w3.org/2000/svg" viewBox="0 0 256 256"><defs><style>.cls-1{fill:#959595;}.cls-2{fill:#828282;}.cls-3,.cls-4{fill:none;}.cls-3{stroke:#000;stroke-linecap:round;stroke-miterlimit:10;stroke-width:5.32px;}</style></defs><title>V-Tess-parts</title><g id="Layer_8" data-name="Layer 8"><path class="cls-1" d="M8.54,65.12s.3,12.8,3.51,23.56,16,32.12,21.12,39.38,38.71,33.56,49.18,39.22,37.54,25.71,46.12,34.86,21.12,39.39,26.65,44.18,18.33,4.5,22.69,1.44,23.68-18.78,28.48-24.31,17.28-18.63,24.55-23.72S250.16,184,250.6,181.54s-4.38-18.61-11.21-16-13.67,5.25-18.89,13.25c0,0-20.13,13-28,14.2s-26.46,5.55-34-2.15S61.68,52.79,58.62,48.43,40.37,25.84,37,17.73s-7.46-10.31-11-8.17C13.13,17.25,8.54,65.12,8.54,65.12Z"/><path class="cls-2" d="M207,212.11c-3.14-1.7-8.43-2.76-14.25,1.32s-16.26,20.08-24.12,21.25-6.54-6.25-12.23-17.44-25.17-23.53-37.83-38.5S60.8,130.37,60.8,130.37c-5.53-4.8-26.18-33.73-31.59-45.05-4.67-9.74-5-22.54-5.55-26.46S11,43.89,11,43.89A163.55,163.55,0,0,0,8.54,65.12s.3,12.8,3.51,23.56,16,32.12,21.12,39.38,38.71,33.56,49.18,39.22,37.54,25.71,46.12,34.86,21.12,39.39,26.65,44.18,18.33,4.5,22.69,1.44,23.68-18.78,28.48-24.31c1.79-2.07,4.41-4.19,7.7-7.57Z"/><path class="cls-3" d="M9.48,52.55c.73,10.32.6,25.59,3.81,36.34s16.84,31.6,22.57,38.37c6.33,7.49,36,34.36,46.49,40s37.54,25.71,46.12,34.86,21.12,39.39,26.65,44.18,18.33,4.5,22.69,1.44,23.68-18.78,28.48-24.31,17.28-18.63,24.55-23.72S250.16,184,250.6,181.54s-4.38-18.61-11.21-16-13.67,5.25-18.89,13.25c0,0-20.13,13-28,14.2s-26,3.07-33.6-4.63S61.68,52.79,58.62,48.43,40.37,25.84,37,17.73s-13-10.36-13-10.36"/><circle id="lc2" class="cls-4" cx="21.45" cy="27.89" r="5.32"/><circle id="lc1" class="cls-4" cx="169.35" cy="223.34" r="5.32"/></g></svg>