<svg xmlns="http://www.w3.org/2000/svg" viewBox="0 0 256 256"><defs><style>.cls-1{fill:#959595;}.cls-2{fill:#828282;}.cls-3,.cls-4{fill:none;}.cls-3{stroke:#000;stroke-linejoin:round;stroke-width:6.32px;}</style></defs><title>V-Tess-parts</title><g id="Layer_12" data-name="Layer 12"><g id="RightLowerArm"><path class="cls-1" d="M38,5.38C52.2,3.68,64.61,15.65,88.93,42c46.8,50.66,69,106.21,88,119.44,6,4.19,20.27,7.28,28.15,8.27s10,2.69,14.31,6,4,17,14.45,23.49,14.3,6.05,15,11.79-5.05,6.42-5.05,6.42,4.51,5.28,1.37,11.48-9.56,1.14-9.56,1.14,6.19,3.14,3.06,9.34-9.57,1.14-9.57,1.14,4.06,1.46.92,7.65-11.48,1.38-17.67-1.76-16.68-9.65-23.56-18.52-8-18.44-16.82-27.09S88.63,133.73,49.74,87.4C11.28,41.56,6,31.43,8.53,18.61S24.6,7,38,5.38Z"/><path class="cls-2" d="M21.53,8.35s2.3,10.58,8.2,11.4S44.88,18.83,58,32.66s58,59.07,69,77.12,29.71,46.17,35.2,49.93,12.26,9.2,10.17,13.42-4.57,11.4-1.62,11.8,10.47-10.58,16.37-9.77,19.43,11.7,25.33,12.51,12.87,1.17,12.87,1.17-3.69-10.89-8.54-15.08-30.17-5.37-36.28-10.37S160.05,145,153.45,131.77s-54-80.93-68.86-94.47S54.81,6.12,46.23,6,21.53,8.35,21.53,8.35Z"/><path class="cls-3" d="M38,5.38C52.2,3.68,64.61,15.65,88.93,42c46.8,50.66,69,106.21,88,119.44,6,4.19,20.27,7.28,28.15,8.27s10,2.69,14.31,6,4,17,14.45,23.49,14.3,6.05,15,11.79-5.05,6.42-5.05,6.42,4.51,5.28,1.37,11.48-9.56,1.14-9.56,1.14,6.19,3.14,3.06,9.34-9.57,1.14-9.57,1.14,4.06,1.46.92,7.65-11.48,1.38-17.67-1.76-16.68-9.65-23.56-18.52-8-18.44-16.82-27.09S88.63,133.73,49.74,87.4C11.28,41.56,6,31.43,8.53,18.61S24.6,7,38,5.38Z"/><circle id="rla2" class="cls-4" cx="32.77" cy="14.09" r="6.32"/><circle id="rla1" class="cls-4" cx="205.4" cy="203.56" r="6.32"/></g></g></svg>