<svg xmlns="http://www.w3.org/2000/svg" viewBox="0 0 256 256"><defs><style>.cls-1{fill:#959595;}.cls-2{fill:#828282;}.cls-3,.cls-4,.cls-5{fill:none;}.cls-3{stroke:#000;stroke-width:7.12px;}.cls-3,.cls-4{stroke-linecap:round;stroke-miterlimit:10;}.cls-4{stroke:#dedede;stroke-width:9.49px;}</style></defs><title>V-Tess-parts</title><g id="Layer_11" data-name="Layer 11"><g id="RightUpperArm"><path class="cls-1" d="M72,138.18S89.81,101.78,108.51,86s67.37-63.9,82.77-71.73,28.93-12.89,40.06-5.39,19.22,28,17.4,36.71c-2.39,11.53-12.56,31.18-23,43.18-17.79,20.39-34.22,52.91-52.39,69.26-30.87,27.77-64.91,39.24-81.28,54.51-5.41,5.06-8.63,10.43-17.33,14.92-9.28,4.79-24.39,4.39-34.14,7.91C33.39,238,29.45,251.52,22,250.4c-28.27-4.26,14.86-85.11,47.09-105.9"/><path class="cls-2" d="M231.56,81.3s-4.11-7.21-11-4.29-17.61,12.34-24.95,22-38.49,49.69-59.65,65.15-55,45.27-63.51,46.41S51.69,219.3,46.34,224s-12.69,14.33-12.69,14.33,3.7-2.49,15.4-4.07c8.48-1.14,22.1-3.64,25.66-6.77,0,0,22.51-20.4,35.88-27.13s46.38-23.12,59-35.78,24.9-44.46,37.3-56S231.56,81.3,231.56,81.3Z"/><path class="cls-3" d="M69.11,144.5C40.2,163.15,4,228,16.38,244.25a78.14,78.14,0,0,0,6.4,6.22"/><path class="cls-3" d="M74.6,229.17c6.06-6,12.94-12.39,17.44-16.59,16.37-15.27,48.42-21.79,79.29-49.56,17-15.34,28.65-53.68,49.81-69.15"/><path class="cls-3" d="M58.35,167.59S97.69,94.66,114.58,77c18.42-19.28,61.19-56.13,76.7-62.68,15.92-6.73,28.93-12.89,40.06-5.39,7,4.69,8.33,5.4,12.82,14.1"/><line class="cls-4" x1="129.15" y1="59.41" x2="200.8" y2="122.85"/><circle id="rua1" class="cls-5" cx="211.05" cy="41.09" r="9.49"/><circle id="rua2" class="cls-5" cx="36.08" cy="226.72" r="7.12"/></g></g></svg>