<svg xmlns="http://www.w3.org/2000/svg" viewBox="0 0 256 256"><defs><style>.cls-1{fill:#959595;}.cls-2{fill:#828282;}.cls-3,.cls-4{fill:none;}.cls-3{stroke:#000;stroke-linecap:round;stroke-miterlimit:10;stroke-width:4.42px;}</style></defs><title>V-Tess-parts</title><g id="Layer_5" data-name="Layer 5"><path class="cls-1" d="M152,49.18c-2.6,8.49-5.87,16.16-16.94,28.82s-22.73,29.94-36.68,43.16-25.63,30.5-41.92,47.18-30.53,28.45-35.8,40-6.77,19.33-2.47,26,11.67,3.58,18.06,9.7c6.2,6,14.26,2.05,22.71-8.6s31.93-21.21,50.79-32.38S162,170.4,174.23,156s30.86-34.52,37.3-47.79,19.59-31.18,21.09-46.14c1.54-15.32,1.62-30.36-12.76-42.59-11.57-9.83-19.3-14.28-40.17-5.73S155.16,38.94,152,49.18Z"/><path class="cls-2" d="M218.41,18.29c-11.26-8.38-18.72-12.71-38.72-4.52-20.87,8.56-34.92,21.93-38.07,32.17-2.6,8.48-.37,13.59-11.43,26.25s-23.9,31.67-37.85,44.89-19.58,34.58-35.87,51.26-30.53,28.45-35.8,40-3.81,7.49-5.3,15.29c0,0,4.9,2,7.52,0S39.42,216,42.64,209.32s15.49-28.54,20.44-34,50.73-71.42,55.08-72.26,7-2.85,12.42,2.09,35.12,26.24,38,33.19S176,153.92,176,153.92s21.82-26.22,25.59-30.48,26.73-42.87,28.13-50.09S240,34.37,218.41,18.29Z"/><path class="cls-3" d="M38,250c7.74-1.71,13.07-4.61,21-14.56,8.45-10.65,31.93-21.21,50.79-32.38S162,170.4,174.23,156s30.86-34.52,37.3-47.79,19.59-31.18,21.09-46.14c1.54-15.32,4.52-30.92-9.87-43.15C211.18,9.11,198.47-.89,177.31,6.21c-21.38,7.19-33.65,25.24-36.8,35.48-2.61,8.49-4.3,21.65-15.37,34.31s-20.72,24.81-32.22,40.21c-13.12,17.57-20.16,35.45-36.45,52.13s-28.71,29.47-35.8,40c-3.51,5.18-5.35,14.83-5.88,16.16"/><path d="M187,144.58c-2.58-1.33-14.5-11-35.45-29.75-17.88-16-30.49-28.08-33.13-31.2a62.19,62.19,0,0,1,5.64-5.9c5.43-5.29,12.19-11.87,13.79-17.64,2.06-7.41,9.66-30.13,15.93-37.81C157.28,18,170,8.53,174.67,6.74a29.15,29.15,0,0,1,9.8-1.33,81.86,81.86,0,0,1,24.07,4c8,2.62,20.83,20.69,22.18,34.08,1.38,13.59-8.94,53.07-17,65-1.26,1.86-2.7,4-4.25,6.39C203.39,124.06,190.83,143.05,187,144.58Z"/><path d="M184.47,3.19V7.62a79.6,79.6,0,0,1,23.38,3.88c7.11,2.33,19.44,20,20.67,32.2,1.35,13.28-8.75,51.87-16.62,63.53-1.26,1.87-2.72,4.07-4.26,6.4-4,6-8.5,12.85-12.71,18.61-4.46,6.11-6.87,8.63-8,9.67-4-2.76-15.51-12.27-34-28.81-15.65-14-27.39-25.13-31.58-29.53,1.15-1.25,2.86-2.92,4.24-4.25C131.2,73.84,138.2,67,140,60.69c1.94-7,9.53-29.69,15.51-37,3.54-4.34,16-13.34,20-14.87a27.26,27.26,0,0,1,9-1.19V3.19m0,0a31,31,0,0,0-10.59,1.49c-5,1.89-17.93,11.43-21.83,16.2-6.94,8.5-14.75,32.89-16.35,38.62-2.48,9-20.31,21.56-19.75,24.46s66.15,62.27,70.77,62.88h.17c4.83,0,20.61-25.19,28.68-37.15s18.82-51.94,17.35-66.45c-1.37-13.57-14.46-32.93-23.69-35.95a84.06,84.06,0,0,0-24.76-4.11Z"/><circle id="rt2" class="cls-4" cx="192.7" cy="48.27" r="5.9"/><circle id="rt1" class="cls-4" cx="32.8" cy="232.67" r="5.9"/></g></svg>