<svg xmlns="http://www.w3.org/2000/svg" viewBox="0 0 256 256"><defs><style>.cls-1{fill:#fff;}.cls-2{fill:#dedede;}.cls-3,.cls-4{fill:none;}.cls-3{stroke:#000;stroke-linecap:round;stroke-linejoin:round;stroke-width:3.59px;}</style></defs><title>V-Tess-parts</title><g id="Layer_4" data-name="Layer 4"><path class="cls-1" d="M119.15,113.74c4.12-3.21,3.59-7.66,5.28-16s10.84-14.86,22.44-23.49,15.29-15.4,17.31-21.06,15.75-19.07,23.89-26.38S211.91,14.89,221.37,11s21,2,24.11,5.2,3.19,11.36.73,13.46-13,19.63-12.64,22.3S224.16,71.2,219.25,75.4s-13.59,7.07-19.39,11.39c-3.82,2.84-9.7,11.43-13.25,17l-.72,1.89a125,125,0,0,1-3.72,14c-2,5.66-13.18,17.85-17.87,23.84s-17.07,15.61-17.07,15.61a80.9,80.9,0,0,0,3.37-9.43,13.39,13.39,0,0,0-.76-6.23s-6.82,10.76-11.4,17.63S118.13,179.78,109,186.31,85.26,199.12,74.9,203.09c-1.73.66-6,2.53-6,2.53-1.59,1.19-2.54,1.73-3.24,3.1a19.1,19.1,0,0,1-9.81,8.42,24.1,24.1,0,0,0-10,6.63c-1.57,2-27.08,15-28.29,12.47s8.9-30.88,12.27-40.32,16-17.29,20.08-20.5S66.92,167,72.82,163.61s22.39-9,25.84-10.36,4.47-7.77,4.47-7.77-8,1-9.22-1.59-5.66-2-8.33-1.7-5.69,5.21-5.45-.24,6.26-8,8.6-11,9.6-10.19,13.83-12.51S115.75,116.38,119.15,113.74Z"/><path class="cls-2" d="M82.51,136.68s7.43-3.15,12.21-1,4.21,4.91,6.88,4.59,6.79-3.54,8.79-2,1.43,4.34-1.81,7.44-6.36,7.1-7,9S94.18,161,91.4,160.45A7.72,7.72,0,0,1,87,157.5s12.64-3.47,14-7.25.91-4.92-2-4.41a9.69,9.69,0,0,1-6.83-1.73,8.19,8.19,0,0,0-9.6-.36C78,146.72,82.51,136.68,82.51,136.68Z"/><path class="cls-2" d="M122.72,106.31s8.27-6.65,11.5-9.75,9.25-5.64,9.93-7.53,2.34-3,4.23-2.32-.13,6.34-2.48,9.33-7.82,10-12.05,12.3a18.76,18.76,0,0,1-8,2.36Z"/><path class="cls-2" d="M85.19,174.92s3.06-3.25,4.17-1.58-4.94,11.43-4.72,13.21-.46,3.67,2.1,2.46,24.62-12.92,31.66-21.9,29.71-37.92,30.06-42.48.92-7.34,2.81-6.66,2.43,5.12,1.86,7.9.3,9.9,1.4,11.57,16.08-16.4,17.77-24.73,8.9-30.88,11.14-34.77,1.94-13.78,5.5-14.21,3,9.57,5.85,11,16.15-8.28,22.41-16.26S230.63,35.19,234,33s8.47,1.79,8.47,1.79-11.69,24.85-14.31,28.75-9.26,15.14-22.32,19.63-19.61,22.77-21.68,29.18-14,26.51-23.37,35-12.56,11-12.56,11,3.07-10.56,2-12.23-2.89-1.46-4.24,2.32-9.52,18.31-22.78,28-34.74,22.38-46.72,26A72.83,72.83,0,0,1,55.68,206s12-6.74,18-14.58S85.19,174.92,85.19,174.92Z"/><path class="cls-2" d="M27.64,202a9.56,9.56,0,0,1,.88,5.85c-.46,3.67-2.16,12,.73,13.46s20.49-9.71,22.84-12.71S66.22,206,66.22,206a40.35,40.35,0,0,1-17,14.72c-11.28,5-23.86,14.74-27.32,15.1s-4.21-2.2-4.21-2.2Z"/><path class="cls-3" d="M186.43,80.29s.51,11.68-.05,14.45l-2.83,13.89s10.51-17.53,16.31-21.84,14.48-7.18,19.39-11.39S233.89,54.66,233.57,52s10.19-20.2,12.64-22.3,2.38-10.22-.73-13.46S230.84,7.17,221.37,11s-25.16,8.47-33.3,15.78S166.2,47.52,164.18,53.19s-5.72,12.43-17.31,21.06-20.74,15.16-22.44,23.49-2,12.9-5.28,16"/><path class="cls-3" d="M144.58,92.59s-14.19,17.07-23.65,20.93-14.13,2.62-18.37,4.94S91.08,128,88.73,131s-8.36,5.53-8.6,11,2.78.57,5.45.24,7.12-.86,8.33,1.7,9.22,1.59,9.22,1.59-1,6.45-4.47,7.77-19.93,6.93-25.84,10.36S54,172.21,49.87,175.42s-16.71,11.06-20.08,20.5-13.48,37.76-12.27,40.32,26.72-10.47,28.29-12.47a24.1,24.1,0,0,1,10-6.63,19.1,19.1,0,0,0,9.81-8.42c1.46-2.88,6.69-4.42,6.69-4.42"/><path class="cls-3" d="M86.58,172.77s-17.45,27.41-24.35,30-9.57,3-9.57,3,11.89,1.26,22.24-2.7S99.85,192.84,109,186.31s24.86-18.37,29.45-25.25,11.4-17.63,11.4-17.63a13.39,13.39,0,0,1,.76,6.23,80.9,80.9,0,0,1-3.37,9.43s12.38-9.62,17.07-15.61,15.85-18.18,17.87-23.84,3.51-15.78,3.51-15.78"/><circle id="hair1" class="cls-4" cx="237.5" cy="39.78" r="3.59"/><circle id="hair2" class="cls-4" cx="66.06" cy="189.71" r="3.59"/></g></svg>