<?xml version="1.0" encoding="utf-8"?>
<!-- Generator: Adobe Illustrator 28.1.0, SVG Export Plug-In . SVG Version: 6.00 Build 0)  -->
<svg version="1.1" id="Layer_1" xmlns="http://www.w3.org/2000/svg" xmlns:xlink="http://www.w3.org/1999/xlink" x="0px" y="0px"
	 viewBox="0 0 256 256" style="enable-background:new 0 0 256 256;" xml:space="preserve">
<style type="text/css">
	.st0{fill:#959595;}
	.st1{fill:#828282;}
	.st2{fill:none;stroke:#000000;stroke-width:2.48;stroke-linecap:round;stroke-miterlimit:10;}
	.st3{fill:none;}
</style>
<g id="Layer_3">
	<path class="st0" d="M144.2,36.9c0,0-4.1,6.6-1.6,16.5s15.7,9.9,19.8,12.4c2.7,1.6,5.8,14,9.9,27.3c1,3.2,0.8,10.7-0.8,15.7
		c-4.1,12.4-11.6,16.1-19.8,27.2c-7,9.5-12.4,26.2-12.4,38c0,21.6,6.9,22.8,10.3,34.3c0.6,2.1-4.9,5.2-6.6,7.4
		c-5,6.6-19.8,24.8-31.4,33.9c-3,2.4-7,3.3-10.7,0.8c-12.4-8.3-13.2-18.2-19-30.6c-1.7-3.6-6.8-7.7-5.2-11.9
		c5.4-14,16.9-29.4,16.3-47.1c-0.8-23.1-9.5-58.2-9.5-58.2c-4.2-12-4.2-25.1,0-37.2c3.3-9.9,19.8-15.7,28.1-22.3s5.8-35.5,5.8-35.5
		s2.6-0.7,3.3-0.8c2.4-0.5,4.1,1.7,8.3,4.1c4.1,2.5,11.6,11.6,12.4,14S144.2,36.9,144.2,36.9z"/>
	<path class="st1" d="M103,114.5c-0.8-6.6,4.1-16.5,4.1-20.7s0.8-11.6-2.5-16.5S98,57.5,103,54.2s11.6-6.6,14-11.6
		s5.8-14.9,5.8-20.6s0.8-11.6,0-14.9s-5-4.1-5-4.1s0.8,33.9-4.6,38.4s-23.3,15.2-25,17.3s-13.4,12-6.8,36s10.2,50.4,10.2,50.4
		s17.1,3.2,22,4.9s14,13.2,15.7,19.8s2.5,19.8,6.6,25.6s8.7,12,2.1,18.6s-17.3,15.7-24,17.4s-2.5,18.2-2.5,18.2s18.1-15.6,23.1-23.1
		s14.7-18.7,10.7-27.2s-5.5-11.2-5.8-18.2s0.5-26.8,4.6-32.6s7.4-15.6,17.8-24.8s10.8-21.9,11-25s-12.9-30.8-14.2-32.4
		s-5.8-3.4-7.2-4s-7.1-4.2-8-6.5s-6.6-4.8-6.6-1.5s8.3,9.1,14.9,17.3s10.7,15.7,9.9,21.4s-5,24.8-14,28.1s-36.3,9.1-40.5,4.1
		C104.6,122.2,103.2,118.4,103,114.5z"/>
	<path class="st2" d="M117.4,9.2c0,0,2.5,27.3-5.8,33.9S86.8,55.4,83.6,65.4c-4.2,12-4.2,25.1,0,37.2c0,0,8.7,35.1,9.5,58.2
		c0.6,17.9-10.3,33.4-15.6,47.5c-1.5,4.1,2.8,7.5,4.1,11.1c3.3,9.1,5.4,13.5,11.6,21.5c5.8,7.4,6.9,12.3,14,10.7
		c9.8-2.2,20.6-19.9,29.7-25.6c6.6-4.1,8.3-5,12.4-9.1c3.4-3.4,1-7.5-0.4-10.5c-3.7-8.6-9.6-13.5-9.6-32.4c0-11.8,5.4-28.5,12.4-38
		c8.2-11.1,15.7-14.9,19.8-27.2c1.6-5,1.8-12.4,0.8-15.7c-4.1-13.2-13-27.3-15.7-28.9c-4.1-2.5-11.6-0.8-14-10.7s1.6-16.5,1.6-16.5"
		/>
	<path d="M143.3,149.7c-5.1-0.4-37.9-6.6-51.3-9.1c-1.5-3.9-6.4-26-9.3-43.6c-0.8-4.4-1.1-8.9-0.7-13.4c0.2-1.8,0.2-3.7,0-5.5
		c-1.5-12.7,8.7-20.5,13.2-23.2c3.3-2,7.3-3,12.3-3c1.8,0,3.5,0.1,5.2,0.3c6.1,0.7,11.8,7.6,17,13.7l2.1,2.4c1.5,1.8,2.7,4.6,4,7.6
		c2.6,6.1,5.7,13.8,13.9,16.7c2.8,0.9,5.7,1.3,8.6,1.2c4.2-0.1,8.4-0.5,12.5-1.3c0.5,2.6,1.6,9,0.4,12.6c-0.2,0.7-0.5,1.5-0.7,2.2
		c-1.4,4.7-3.3,10.5-7.6,14.1l-0.1,0.1c-4.4,3.4-8.2,7.6-11.2,12.3c-2,3.3-3.7,6.7-5.3,10.2C145.1,146.1,144.1,148.3,143.3,149.7z
		 M106.5,54.5c-3.4-0.2-6.7,0.7-9.6,2.4c-5.5,3.7-7.1,9.9-8,18.2c-0.8,8.6,5.6,17.7,9.9,23.7l0.2,0.3c2.4,3.4,7.7,9.1,16.3,9.1
		c1.8,0,3.6-0.3,5.3-0.7c9.2-2.5,12.4-6.2,13.3-15.1c0.9-8.7-2.2-16.8-4.6-23.3c-2.8-7.4-10.6-12.9-16.6-14
		C110.6,54.7,108.5,54.5,106.5,54.5z"/>
	<path d="M107.5,53.1c1.7,0,3.4,0.1,5.1,0.3c1.8,0.3,3.5,0.9,5,2c-1.5-0.7-3.1-1.2-4.7-1.5c-2.1-0.4-4.3-0.6-6.4-0.6
		c-3.6-0.2-7.2,0.8-10.2,2.6c-5.9,3.9-7.7,10.5-8.5,19.1c-0.9,9,5.8,18.4,10.2,24.5l0.2,0.3c2.6,3.6,8.2,9.6,17.3,9.6
		c1.9,0,3.8-0.3,5.7-0.8c9.7-2.6,13.2-6.7,14.2-16.2c0.9-8.9-2.2-17.2-4.7-23.8l0.3,0.4c1.4,1.7,2.6,4.4,3.8,7.3
		c2.6,6.3,5.9,14.2,14.6,17.4c2.9,0.9,6,1.4,9,1.3c3.9,0,7.7-0.4,11.5-1.1c0.6,3.2,1.1,8,0.2,10.7c-0.2,0.7-0.5,1.5-0.7,2.3
		c-1.4,4.5-3.1,10.1-7.2,13.5l-0.1,0.1c-4.5,3.5-8.4,7.7-11.5,12.6c-2,3.3-3.8,6.8-5.3,10.3c-0.9,1.9-1.8,3.7-2.5,5
		c-6.1-0.7-32.4-5.6-49.7-8.9c-1.6-4.9-6.1-25.2-9-42.7c-0.8-4.3-1-8.7-0.7-13.1c0.2-1.9,0.2-3.9,0-5.8c-1.4-12,8.3-19.3,12.6-22
		C98.9,53.9,102.7,53,107.5,53.1L107.5,53.1 M107.5,50.5c-5.1,0-9.4,1-13,3.2c-4.8,3-15.3,11.2-13.8,24.4c0.6,5.1-1.1,7.9,0.7,19
		c2.9,17.7,8.2,42.1,9.7,44.5c0,0,48.3,9.3,52.5,9.3c0.2,0,0.3,0,0.3,0c2.1-3.1,5.1-11.2,8.5-16.6c3-4.6,6.7-8.7,11.1-12
		c5.4-4.5,7.1-12,8.8-16.9S171.7,91,171.7,91c-4.4,1-8.9,1.5-13.4,1.5c-2.8,0.1-5.6-0.3-8.2-1.2c-11.6-4.1-12.4-18.2-17.4-24
		c-5.6-6.6-12.3-15.6-19.8-16.5C111.1,50.7,109.3,50.6,107.5,50.5L107.5,50.5z M115.3,106.8c-6.7,0-11.9-3.9-15.2-8.5
		c-4.1-5.8-10.7-14.9-9.9-23.1s2.5-14,7.4-17.3c2.7-1.6,5.8-2.3,8.9-2.2c2,0,4,0.2,6,0.6c5.9,1,13.2,6.6,15.7,13.2
		c2.5,6.6,5.4,14.4,4.5,22.7c-0.8,8.1-3.3,11.6-12.4,14C118.7,106.6,117,106.8,115.3,106.8L115.3,106.8z"/>
	<path d="M105.6,251.8c-3.5-0.1-6.7-1.8-8.6-4.6c-6-7.9-8.5-13.9-11-20.2c-0.9-2.2-1.8-4.4-2.8-6.8c-0.6-1.3-1.4-2.7-2.3-4.1
		c-1.8-3-4.1-6.8-3.4-8.8c1.5-4.1,3.5-8.1,6-11.7c4.1,0.3,25.8,1.7,34,2.4c1.7,0.2,3.8,0.2,6.3,0.2c7.4,0,16.2-0.8,18.8-1
		c1.4,2.3,5.9,10.3,7.8,15.6c0.9,2.7-4.5,6.1-9.2,9.2c-4.1,2.6-8,5.1-9.6,7.9c-1,1.6-1.8,3-2.4,4.1c-3.7,6.3-3.8,6.4-16.2,15.4
		C110.6,250.9,108.1,251.7,105.6,251.8z"/>
	<path d="M84,196.8c5.4,0.4,25.5,1.7,33.2,2.4c1.8,0.2,3.9,0.2,6.4,0.2c7,0,14.8-0.6,18.1-0.9c1.7,2.9,5.6,9.9,7.3,14.7
		c0.6,1.7-5.2,5.5-8.7,7.8c-4.2,2.7-8.2,5.3-10,8.3c-1,1.6-1.8,2.9-2.5,4.1c-3.7,6.2-3.7,6.2-15.9,15c-1.8,1.4-4,2.1-6.3,2.2
		c-3.1-0.1-5.9-1.6-7.7-4.1c-6-7.7-8.4-13.7-11-19.9c-0.9-2.2-1.8-4.5-2.9-6.8c-0.7-1.5-1.5-2.9-2.3-4.3c-1.4-2.3-3.8-6.3-3.2-7.8
		C79.9,203.8,81.8,200.1,84,196.8 M82.8,194.2c-2.8,3.9-4.9,8.1-6.5,12.6c-1.3,3.6,3.8,9.8,5.7,13.9c4.1,9.1,5.8,16.5,14,27.2
		c2.8,3.6,6.2,5.1,9.6,5.1c2.8,0,5.5-1,7.7-2.6c14.9-10.7,12.4-9.1,19-19.8c3.8-6.1,21.1-12.1,19-18.2c-2.3-6.5-8.3-16.5-8.3-16.5
		s-10.6,1.1-19.5,1.1c-2.2,0-4.3-0.1-6.2-0.2C108.3,195.8,82.7,194.2,82.8,194.2L82.8,194.2z"/>
	<g id="Targets">
		<circle id="ruaTorso" class="st3" cx="110.8" cy="72" r="3.3"/>
		<circle id="headTorso" class="st3" cx="133.1" cy="15.8" r="3.3"/>
		<circle id="luaTorso" class="st3" cx="115.3" cy="67.2" r="3.3"/>
		<circle id="rtTorso" class="st3" cx="98.4" cy="219.8" r="3.3"/>
		<circle id="ltTorso" class="st3" cx="118.2" cy="219.8" r="3.3"/>
	</g>
</g>
</svg>
