<svg xmlns="http://www.w3.org/2000/svg" viewBox="0 0 256 256"><defs><style>.cls-1{fill:#959595;}.cls-2{fill:#828282;}.cls-3,.cls-4{fill:none;}.cls-3{stroke:#000;stroke-linecap:round;stroke-miterlimit:10;stroke-width:5.03px;}</style></defs><title>V-Tess-parts</title><g id="Layer_6" data-name="Layer 6"><path class="cls-1" d="M168,6.89s-11.89,2.2-21.44,6.8S119,33.44,113,39.28,87.49,80.39,83.78,91s-18.35,38.85-25.6,48.23S24.62,164.81,21,170.69,19.54,188.44,23,192.05,44.1,211.32,50,215s20,13.33,25.79,19.34S93.31,250,95.68,250s16.7-6.87,13.23-12.85-6.94-12-15.18-15.62c0,0-15.16-16.82-17.43-24s-9.14-23.84-3.09-32S187.42,54.58,191,51.08s18.33-20.39,25.38-24.78,8.49-8.5,6-11.51C213.29,4,168,6.89,168,6.89Z"/><path class="cls-2" d="M60.65,213.93c1.12-3.19,1.31-8.27-3.36-13.08s-21.16-12.16-23.43-19.31,4.85-7,14.43-14,18.17-27,30.23-41S115,65.38,115,65.38c3.65-5.87,27.53-29.45,37.27-36.2,8.39-5.8,20.27-8,23.84-9.13S188.13,6,188.13,6A154.78,154.78,0,0,0,168,6.89s-11.89,2.2-21.44,6.8S119,33.44,113,39.28,87.49,80.39,83.78,91s-18.35,38.85-25.6,48.23S24.62,164.81,21,170.69,19.54,188.44,23,192.05,44.1,211.32,50,215c2.2,1.37,4.57,3.5,8.21,6Z"/><path class="cls-3" d="M179.83,5.88c-9.51,2.23-23.77,4.39-33.31,9s-26.94,20.43-32.4,26.79c-6,7-26.63,38.72-30.34,49.33s-18.35,38.85-25.6,48.23S24.62,164.81,21,170.69,19.54,188.44,23,192.05,44.1,211.32,50,215s20,13.33,25.79,19.34S93.31,250,95.68,250s16.7-6.87,13.23-12.85-6.94-12-15.18-15.62c0,0-15.16-16.82-17.43-24s-6.77-23.81-.72-32S187.42,54.58,191,51.08s18.33-20.39,25.38-24.78,7.71-13.7,7.71-13.7"/><circle id="rc2" class="cls-4" cx="200.3" cy="14.23" r="6.7"/><circle id="rc1" class="cls-4" cx="46.83" cy="178.74" r="6.7"/></g></svg>