<?xml version="1.0" encoding="utf-8"?>
<!-- Generator: Adobe Illustrator 28.1.0, SVG Export Plug-In . SVG Version: 6.00 Build 0)  -->
<svg version="1.1" id="Layer_1" xmlns="http://www.w3.org/2000/svg" xmlns:xlink="http://www.w3.org/1999/xlink" x="0px" y="0px"
	 viewBox="0 0 1024 1024" style="enable-background:new 0 0 1024 1024;" xml:space="preserve">
<style type="text/css">
	.st0{fill:#808080;}
	.st1{fill:none;stroke:#000000;stroke-width:2.15;stroke-miterlimit:10;}
	.st2{fill:#B3B3B3;}
	.st3{fill:none;stroke:#000000;stroke-width:2.29;stroke-miterlimit:10;}
	.st4{fill:none;stroke:#000000;stroke-width:1.21;stroke-miterlimit:10;}
	.st5{fill:none;stroke:#000000;stroke-width:1.56;stroke-miterlimit:10;}
	.st6{fill:#FFFFFF;}
	.st7{fill:#808080;stroke:#000000;stroke-width:2.1399;stroke-miterlimit:9.9996;}
	.st8{fill:#B3B3B3;stroke:#000000;stroke-width:1.8599;stroke-miterlimit:9.9996;}
	.st9{fill:#B3B3B3;stroke:#000000;stroke-width:2.6;stroke-miterlimit:10;}
	.st10{fill:#808080;stroke:#000000;stroke-width:2.44;stroke-miterlimit:10;}
	.st11{fill:none;stroke:#000000;stroke-width:3.54;stroke-linecap:round;stroke-miterlimit:10;}
	.st12{fill:#FF0000;}
	.st13{fill:#B3B3B3;stroke:#000000;stroke-width:2.27;stroke-miterlimit:10.0008;}
	.st14{fill:#808080;stroke:#000000;stroke-width:2.27;stroke-miterlimit:10;}
	.st15{fill:#B3B3B3;stroke:#000000;stroke-width:1.7;stroke-miterlimit:9.9993;}
	.st16{fill:#808080;stroke:#000000;stroke-width:2.05;stroke-miterlimit:10;}
	.st17{fill:#B3B3B3;stroke:#000000;stroke-width:2.2701;stroke-miterlimit:10.0003;}
	.st18{fill:#808080;stroke:#000000;stroke-width:2.2701;stroke-miterlimit:10.0003;}
	.st19{fill:#B3B3B3;stroke:#000000;stroke-width:2.27;stroke-miterlimit:9.9999;}
	.st20{fill:#B3B3B3;stroke:#000000;stroke-width:2.27;stroke-miterlimit:10;}
	.st21{fill:#959595;}
	.st22{fill:#828282;}
	.st23{fill:none;stroke:#000000;stroke-width:3;stroke-linecap:round;stroke-miterlimit:10;}
	.st24{fill:none;stroke:#696969;stroke-width:5;stroke-linecap:round;stroke-miterlimit:10;}
	.st25{fill:#DEDEDE;stroke:#DEDEDE;stroke-width:2;stroke-linecap:round;stroke-linejoin:round;}
	.st26{fill:none;stroke:#000000;stroke-width:4;stroke-linecap:round;stroke-miterlimit:10;}
	.st27{fill:none;stroke:#000000;stroke-width:8;stroke-linecap:round;stroke-miterlimit:10;}
	.st28{fill:#DEDEDE;}
	.st29{fill:none;stroke:#000000;stroke-width:4;stroke-linecap:round;stroke-linejoin:round;}
	.st30{fill:none;stroke:#000000;stroke-width:3;stroke-linejoin:round;}
	.st31{fill:none;stroke:#DEDEDE;stroke-width:4;stroke-linecap:round;stroke-miterlimit:10;}
</style>
<g id="Layer_10">
	<g id="LeftLowerArm">
		<g id="Hand">
			<polygon class="st0" points="435.4,604.7 422.7,602.2 410.7,621.9 409.8,627.2 435.2,632.2 			"/>
			<polygon class="st1" points="435.4,604.7 422.7,602.2 410.7,621.9 409.8,627.2 435.2,632.2 			"/>
			<polygon class="st2" points="435.3,626.2 428.6,615 429.1,603.5 439.6,605.5 440.5,624.9 			"/>
			<polygon class="st3" points="435.3,626.2 428.6,615 429.1,603.5 439.6,605.5 440.5,624.9 			"/>
			<path class="st2" d="M440.9,622.1l1,8.6c0.1,1.5-0.9,3-2.5,3.1l-0.4,0c-1.5,0.1-2.9-0.9-3.1-2.5l-1-8.6c-0.1-1.5,0.9-2.9,2.5-3.1
				l0.4,0C439.3,619.5,440.7,620.5,440.9,622.1z"/>
			<path class="st4" d="M440.8,622.1l1,8.6c0.1,1.5-0.9,3-2.5,3.1l0,0l-0.3,0c-1.5,0.1-2.9-0.9-3.1-2.5l-1-8.6
				c-0.1-1.5,0.9-3,2.5-3.1l0,0l0.3,0C439.3,619.5,440.6,620.5,440.8,622.1z"/>
			<path class="st2" d="M436.5,623.7l-2.9,14.1c-0.3,1.6-1.8,2.5-3.3,2.1l-0.4-0.1c-1.6-0.3-2.5-1.8-2.1-3.3l2.9-14.1
				c0.3-1.6,1.8-2.5,3.3-2.1l0.4,0.1C435.9,620.8,436.8,622.2,436.5,623.7z"/>
			<path class="st5" d="M436.5,623.7l-2.9,14.1c-0.3,1.6-1.8,2.5-3.3,2.1l0,0l-0.4-0.1c-1.6-0.3-2.5-1.8-2.1-3.3l2.9-14.1
				c0.3-1.6,1.8-2.5,3.3-2.1l0,0l0.4,0.1C435.9,620.8,436.8,622.2,436.5,623.7L436.5,623.7z"/>
			<path class="st2" d="M441.2,630.9l0.1,0.4c0.4,1.5-0.3,3-1.7,3.6l-8.2,2.8c-1.5,0.4-3-0.3-3.6-1.7l-0.1-0.4
				c-0.4-1.5,0.3-3,1.7-3.6l8.2-2.8C439,628.7,440.7,629.5,441.2,630.9z"/>
			<path class="st4" d="M441,631l0,0.3c0.4,1.5-0.3,3-1.7,3.6l-8.2,2.8c-1.5,0.4-3-0.3-3.6-1.7l0-0.3c-0.4-1.5,0.3-3,1.8-3.6l0,0
				l8.2-2.8C438.9,628.6,440.5,629.4,441,631L441,631z"/>
			<path class="st2" d="M429.3,622.3l-3,15.2c-0.3,1.6-1.8,2.5-3.3,2.1l-0.4-0.1c-1.6-0.3-2.5-1.8-2.1-3.3l3-15.2
				c0.3-1.6,1.8-2.5,3.3-2.1l0.4,0.1C428.7,619.3,429.7,620.8,429.3,622.3z"/>
			<path class="st5" d="M429.3,622.2l-3.1,15.1c-0.3,1.6-1.8,2.5-3.3,2.1l-0.3,0c-1.6-0.3-2.5-1.8-2.1-3.3l3.1-15.1
				c0.3-1.6,1.8-2.5,3.3-2.1l0,0l0.4,0.1C428.7,619.2,429.7,620.8,429.3,622.2L429.3,622.2L429.3,622.2z"/>
			<path class="st2" d="M422.1,620.9l-2.9,14.1c-0.3,1.6-1.8,2.5-3.3,2.1l-0.4-0.1c-1.6-0.3-2.5-1.8-2.1-3.3l2.9-14.1
				c0.3-1.6,1.8-2.5,3.3-2.1l0.4,0.1C421.6,617.9,422.5,619.4,422.1,620.9z"/>
			<path class="st5" d="M422.1,620.9l-2.9,14.1c-0.3,1.6-1.8,2.5-3.3,2.1l0,0l-0.4-0.1c-1.6-0.3-2.5-1.8-2.1-3.3l2.9-14.1
				c0.3-1.6,1.8-2.5,3.3-2.1l0,0l0.4,0.1C421.6,617.9,422.5,619.4,422.1,620.9z"/>
			<path class="st2" d="M415.3,620.9l-2.4,12.3c-0.2,1.3-1.5,2.1-2.8,1.8l-0.3,0c-1.3-0.2-2.1-1.5-1.8-2.8l2.4-12.3
				c0.2-1.3,1.5-2.1,2.8-1.8l0.3,0C414.8,618.4,415.6,619.6,415.3,620.9z"/>
			<path class="st5" d="M415.2,620.8l-2.4,12.3c-0.2,1.3-1.5,2.1-2.8,1.8l-0.3,0c-1.3-0.2-2.1-1.5-1.8-2.8l2.4-12.3
				c0.2-1.3,1.5-2.1,2.8-1.8l0.3,0C414.7,618.3,415.5,619.6,415.2,620.8z"/>
		</g>
		<polygon points="427.6,613.2 421.9,615.4 425,638.4 433.2,597.9 439.6,599.2 431.4,639.7 443.2,619.7 438.8,615.4 455.5,608.8 
			433,647.1 431.5,646.7 424.5,657.6 422.2,644.9 420.7,644.5 414.7,600.6 		"/>
		<path class="st6" d="M424.7,656.5l-2.1-11.9l-1.6-0.4l-5.8-42.5l11.7,11.4l-5.4,2.2L425,641l8.6-42.6l2.8,0.6l2.8,0.6l-8.6,42.6
			l13.1-22.4l-4.1-4.1l15.1-6L433,646.8l-1.6-0.4L424.7,656.5 M424.3,658.6l1.1-1.7l6.2-9.7l1,0.2l0.6,0.1l0.3-0.5l21.8-37.1l1.2-2
			l-2.1,0.8l-15.1,6l-1.1,0.4l0.9,0.9l3.7,3.7l-10.4,17.7l7.5-37.9l0.1-0.8l-0.8-0.1l-2.8-0.6l-2.8-0.5l-0.8-0.1l-0.1,0.8l-7.5,37.9
			l-2.7-20.3l4.7-1.9l1.1-0.4l-0.9-0.9l-11.7-11.4l-1.6-1.6l0.3,2.3l5.8,42.4l0.1,0.6l0.6,0.1l1,0.2l2,11.4L424.3,658.6L424.3,658.6
			z"/>
		
			<image style="overflow:visible;enable-background:new    ;" width="18" height="29" xlink:href="C17E5358.png"  transform="matrix(-0.8139 0.581 -0.581 -0.8139 470.712 504.2246)">
		</image>
		
			<rect x="410.8" y="545.7" transform="matrix(0.1966 -0.9805 0.9805 0.1966 -182.9018 881.1894)" class="st7" width="70.9" height="13"/>
		
			<rect x="435" y="490.1" transform="matrix(0.1966 -0.9805 0.9805 0.1966 -124.8377 837.8521)" class="st8" width="27.8" height="10"/>
		
			<image style="overflow:visible;enable-background:new    ;" width="51" height="24" xlink:href="C17E5359.png"  transform="matrix(-0.8139 0.581 -0.581 -0.8139 471.0473 549.4449)">
		</image>
		
			<image style="overflow:visible;enable-background:new    ;" width="47" height="35" xlink:href="C17E535F.png"  transform="matrix(-0.8139 0.581 -0.581 -0.8139 483.5988 560.1435)">
		</image>
		
			<image style="overflow:visible;enable-background:new    ;" width="53" height="59" xlink:href="C17E535A.png"  transform="matrix(-0.8139 0.581 -0.581 -0.8139 478.7154 563.6295)">
		</image>
		<path class="st9" d="M441.1,508.9l15.8,3.2c6.3,1.2,10.4,7.5,9.1,13.7l-1.7,8.8l-11-2.2l1.1-5.4c0.4-2.5-1.1-4.9-3.6-5.4
			l-11.7-2.3L441.1,508.9z"/>
		<polygon class="st10" points="448.9,571.9 429.2,567.8 427.2,578.3 420.4,581 416.6,599.7 442.3,604.9 		"/>
		<line class="st11" x1="434" y1="592.4" x2="421.1" y2="596.4"/>
		<line class="st11" x1="435.3" y1="586" x2="422.4" y2="590.1"/>
		<line class="st11" x1="436.6" y1="579.6" x2="423.6" y2="583.7"/>
		<path class="st9" d="M442.6,597.1l-0.5,0c-2.3-0.4-3.8-2.6-3.4-5l6.7-33.5c0.4-2.3,2.6-3.8,5-3.4l0.5,0c2.3,0.4,3.8,2.6,3.4,5
			l-6.7,33.5C447.1,596.2,444.9,597.6,442.6,597.1z"/>
		<circle id="lla1" class="st12" cx="457.9" cy="488.6" r="3"/>
		<circle id="lla2" class="st12" cx="426.6" cy="619.9" r="3"/>
	</g>
	<g id="UpperArm">
		
			<rect x="445.9" y="459.8" transform="matrix(0.8861 -0.4635 0.4635 0.8861 -160.7342 271.5906)" class="st13" width="52.7" height="6.2"/>
		<path class="st14" d="M465.1,482.8l-11-10.5c-1.7-1.6-4.3-2-6.5-1l0,0c-2.1,1.2-3.3,3.3-2.9,5.7l2.3,15.1L465.1,482.8z"/>
		
			<image style="overflow:visible;enable-background:new    ;" width="87" height="116" xlink:href="C17E535B.png"  transform="matrix(-4.290444e-02 0.999 -0.999 -4.290444e-02 562.7163 425.9096)">
		</image>
		<path class="st14" d="M539.7,434.9l-41.2,21.5c-3.1,1.6-6.8,0.5-8.4-2.7l0,0c-1.6-3.1-0.5-6.8,2.7-8.4l41.2-21.4
			c3.1-1.6,6.8-0.5,8.4,2.7l0,0C543.9,429.5,542.8,433.2,539.7,434.9z"/>
		
			<rect x="516.4" y="459.8" transform="matrix(0.9865 -0.1639 0.1639 0.9865 -68.2988 96.1706)" class="st15" width="64.8" height="4.5"/>
		<path class="st14" d="M567.5,447.5l11,10.5c1.7,1.6,4.3,2,6.5,1l0,0c2.1-1.2,3.3-3.3,2.9-5.7l-2.3-15.1L567.5,447.5z"/>
		<polygon class="st16" points="471.2,481.2 566.1,431.6 571.5,441.8 517.2,470.2 477.7,486.1 		"/>
		
			<ellipse transform="matrix(0.3521 -0.936 0.936 0.3521 -35.6329 816.5117)" class="st17" cx="571.9" cy="434" rx="15.9" ry="15.9"/>
		<ellipse transform="matrix(0.3521 -0.936 0.936 0.3521 -35.6329 816.5117)" class="st18" cx="571.9" cy="434" rx="7.4" ry="7.4"/>
		
			<image style="overflow:visible;enable-background:new    ;" width="76" height="83" xlink:href="C17E5356.png"  transform="matrix(-4.290444e-02 0.999 -0.999 -4.290444e-02 555.9802 419.6148)">
		</image>
		
			<image style="overflow:visible;enable-background:new    ;" width="79" height="70" xlink:href="C17E5357.png"  transform="matrix(-4.290444e-02 0.999 -0.999 -4.290444e-02 544.1198 416.1026)">
		</image>
		<path class="st14" d="M449.9,490.1l21.1-11c1.3-0.7,3-0.2,3.6,1.1l0,0l5.5,10.4c0.4,0.6,0.1,1.5-0.6,1.9l0,0l-12.3,6.4
			c-0.4,0.2-0.8,0.2-1.2,0.1l-16-6.4c-0.7-0.3-1.1-1-0.8-1.8C449.4,490.5,449.7,490.2,449.9,490.1z"/>
		<ellipse class="st19" cx="458.9" cy="493.1" rx="14.2" ry="14.2"/>
		<polygon class="st20" points="572.8,418.1 568.2,425.6 556.7,431.7 549.3,417.8 567.4,408.2 		"/>
		<path class="st20" d="M578,416.4l-16.1,8.4c0,0-1.7-3.2-4.7-4.2c-3.1-1-4.9-1.9-8.4-0.1l-6,3.2l-3.6-7l30.6-16L578,416.4z"/>
		<circle id="lua2" class="st12" cx="571.8" cy="434.1" r="3"/>
		<circle id="lua1" class="st12" cx="458.9" cy="493.3" r="3"/>
	</g>
</g>
<g id="Layer_6">
	<g id="LeftThigh">
		<path class="st21" d="M363,412.1c1.2,5.9,1.7,11.5-0.8,22.6c-2.6,11.1-4,25.2-7.9,37.6c-4,12.4-5.5,26.5-9.8,41.7
			s-9.1,26.7-8.5,35.4c0.6,8.6,2.2,13.7,6.9,16.3c4.7,2.6,11.3,7.6,16,3.7c4.7-3.8,7.1-7.1,8.8-16.1c1.7-9,12.2-22.9,19.9-35.7
			s20.7-36.3,23.4-48.8c2.6-12.6,7.3-30.6,6.9-40.5c-0.4-9.9,1.6-24.9-2.2-34.3c-4-9.6-8.9-18.6-21.3-21.2
			c-10-2.1-16.1-2.3-25.7,9.5C358.4,394.1,361.5,405.2,363,412.1z"/>
		<path class="st22" d="M392.6,372.5c-9.4-1.4-15.3-1.5-24.5,9.8c-9.8,11.8-13.8,24.3-12.4,31.5c1.2,5.9,4.1,8.3,1.7,19.3
			c-2.6,11.1-4,26.6-8.2,39c-4.2,12.4-0.5,26.9-4.9,42.1c-4.4,15.2-9.1,26.7-8.5,35.4c0.6,8.6,0.1,5.7,1.8,10.9c0,0,3.5-0.3,4.5-2.3
			c1-2,7.5-9.9,7.2-14.9c-0.2-5,0.1-22,1.3-26.9c1.2-4.8,7.3-58.9,9.7-60.9c2.4-1.9,3.3-3.9,8-2.8c4.8,1.2,29.3,4.3,33.3,7.6
			s9.5,6.9,9.5,6.9s4.5-22.7,5.5-26.5c0.9-3.8,2.2-34.2,0.7-38.9C415.7,396.9,410.8,375,392.6,372.5z"/>
		<path class="st23" d="M359.5,568.8c4-3.5,6.2-7,7.9-15.5c1.7-9,12.2-22.9,19.9-35.7c7.7-12.8,20.7-36.3,23.4-48.8
			c2.6-12.6,7.3-30.6,6.9-40.5c-0.4-10,1.6-24.9-2.2-34.3c-4-9.6-7.2-19.8-19.7-22.6c-10-2.1-18.1-3.2-28.5,7.9
			c-10.5,11.1-14.1,20-12.7,27.2c1.2,5.9,5.8,13.3,3.2,24.5c-2.6,11.1-6.4,27.5-8.3,40.4c-2.2,14.7-0.7,27.7-5.1,42.9
			s-7.6,26.9-8.5,35.4c-0.5,4.1,1.6,10.6,1.7,11.5"/>
		<path d="M353.8,443.6c0.1-3,0.3-6,0.7-9c0.7-6.3,1.6-13.6,0.8-17.3c-1.2-5.7,4.7-24.9,7.2-29.5c2.5-4.4,13.4-16.1,21.4-17.6
			c5.3-1,17.1,4,22.4,10.5c0.7,0.8,1.2,1.6,1.7,2.5c4,8.1,11.8,35,10.9,44.4c-0.1,1.4-0.3,3.2-0.5,5.2c-0.7,7.5-2.1,22.8-3.9,25
			C409.7,458.1,359.8,446.2,353.8,443.6z"/>
		<path d="M405.2,381.7L405.2,381.7c0.5,0.7,1.1,1.4,1.5,2.3c3.9,8,11.6,34.7,10.7,43.7c-0.1,1.4-0.3,3.2-0.5,5.2
			c-0.6,6.7-1.8,19.9-3.2,23.7c-8.2-0.8-50.2-11.1-58.3-13.8c0.1-1.7,0.5-5.1,0.7-7.8c0.8-6.9,1.6-13.9,0.7-17.8
			c-1.1-4.9,4.5-23.7,7.1-28.4c2.3-4.3,12.9-15.6,20.4-16.9C388.4,371.1,399.9,375.3,405.2,381.7 M407.5,379.8
			c-5.6-7-18.1-12.1-23.8-11c-8.7,1.5-19.8,13.6-22.5,18.3c-2.6,4.7-8.7,24.3-7.3,30.6c1.4,6.1-2.5,25.3-1.3,26.9
			c1.3,1.5,59.5,15.9,62.4,14.8c3-1.2,4.2-21.6,5.3-31.4c1-9.8-7-36.9-11-45.3C408.9,381.6,408.2,380.7,407.5,379.8z"/>
		<circle id="lt2" class="st12" cx="388.6" cy="397" r="4"/>
		<circle id="lt1" class="st12" cx="353.9" cy="559.9" r="3"/>
	</g>
	<g id="LeftCrus">
		<path class="st21" d="M331.9,545.8c-4.2-1.3-8.7-2.1-13.2-2.5c-6.4-0.3-20.1,2.6-24.9,4c-4.9,1.4-25,14.5-30,18.9
			c-5,4.5-20.6,15.2-27.1,18.2c-6.4,2.8-24.9,4-28.5,6c-3.6,2.1-5.8,8.9-5,11.8c0.9,2.8,5.6,16.1,7.7,19.6
			c2.1,3.6,6.7,12.7,8.1,17.4s4.8,13.2,6.1,13.9c1.2,0.6,10.8,1.1,10.6-3c-0.2-4.2-0.3-8.3-3.5-12.5c0,0-3.2-13.1-2.4-17.5
			c0.8-4.5,2-15.1,7.4-17.7s91.4-26.1,94.3-27s15.5-5.5,20.3-5.9c5-0.2,6.9-2,6.3-4.4C356.6,557,331.9,545.8,331.9,545.8z"/>
		<path class="st22" d="M217.1,624.2c2.1-2,2.9-5.1,1.9-7.8c-1.2-3.8-7.7-12.3-6.9-16.8c0.8-4.5,4.5-2.3,11.5-3.2
			c7-1,17.1-9.1,27.4-13.1c10.4-3.9,36.4-21.8,36.4-21.8c3.6-2.1,22.8-7.7,29.8-8.5c6.1-0.7,12.9,1.5,15.1,2
			c2.1,0.4,10.4-3.9,10.4-3.9c-3.5-2-7.1-3.8-10.8-5.2c-4.2-1.3-8.7-2.1-13.2-2.5c-6.4-0.3-20.1,2.6-24.9,4s-25,14.5-30,18.9
			c-4.9,4.4-20.6,15.2-27.1,18.2c-6.4,2.8-24.9,4-28.5,6c-3.6,2.1-5.8,8.9-5,11.8c0.9,2.8,5.6,16.1,7.7,19.6
			c0.8,1.3,1.4,3.1,2.6,5.5L217.1,624.2z"/>
		<path class="st23" d="M338.5,548.5c-5.7-1.5-13.7-4.4-20-4.6s-19.9,3.2-24.5,5c-5.2,2.1-25,12.9-29.9,17.4
			c-5,4.5-20.6,15.2-27.1,18.2c-6.4,2.8-24.9,4-28.5,6c-3.6,2.1-5.8,8.9-5,11.8c0.9,2.8,5.6,16.1,7.7,19.6s6.7,12.7,8.1,17.4
			s4.8,13.2,6.1,13.9c1.2,0.6,10.8,1.1,10.6-3c-0.2-4.2-0.3-8.3-3.5-12.5c0,0-3.2-13.1-2.4-17.5c0.8-4.5,3.1-14.4,8.6-17.1
			c5.5-2.6,90.1-26.8,92.9-27.6s15.5-5.5,20.3-5.9c5-0.2,8-5.1,8-5.1"/>
		<circle id="lc2" class="st12" cx="349.3" cy="559.5" r="3"/>
		<circle id="lc1" class="st12" cx="218" cy="602.2" r="3"/>
	</g>
</g>
<g id="Torso">
	<path class="st21" d="M606,481.6c0,0-6.9-6.4-19.3-5.8s-15.4,16.4-19.3,20.7c-2.6,2.9-18,3.6-34.7,5.5c-4.1,0.4-13-1.5-18.5-4.6
		c-13.8-7.8-16.5-17.6-27.8-29.8c-9.7-10.5-28.3-20.8-42.3-23.5c-25.7-5-28.7,3-43.1,4.4c-2.7,0.3-5-7-7.3-9.6
		c-6.7-7.4-24.9-29.3-33-45.1c-2.1-4.2-2.3-9,1.5-13c12.7-12.8,24.6-11.5,40.7-15.5c4.7-1.2,10.7-6.3,15.4-3.3
		c15.5,9.6,31,26.9,52.2,30.2c27.7,4.3,71.4,2.1,71.4,2.1c15.3-2.1,30.8,0.9,44.2,8.6c11,6.2,14.1,27.2,20,38.5
		c6,11.3,40.9,15.1,40.9,15.1s0.2,3.2,0.2,4.1c0,3-2.9,4.5-6.8,8.9c-3.9,4.3-16.4,11.1-19.5,11.5C617.8,481.3,606,481.6,606,481.6z"
		/>
	<path class="st22" d="M523.2,414.6c8,0.5,18.7,8.7,23.6,9.7c4.9,1,13.6,3.6,20.2,0.9c6.7-2.8,25.1-3.3,27.9,3.4s5.2,15.3,10.5,19.4
		s16.3,10.3,23.2,11.6c6.9,1.3,13.6,3.6,17.7,3.4c4.1-0.2,6-4.9,6-4.9s-40.4-6.8-44.6-14.2c-4.2-7.4-12.7-31.3-14.8-33.8
		s-11.1-18.8-41.1-16.3c-30,2.4-62.3,0.6-62.3,0.6s-7.8,19.6-10.9,25.1c-3.1,5.5-18.9,13.6-27.2,14.1s-24.1-1.6-32,2
		c-7.8,3.6-16.2,7.6-22.6-1.8s-14.7-24.2-15.1-32.5c-0.4-8.2-21-7.1-21-7.1s14.4,25.1,22.2,32.8c7.8,7.7,18.8,21.8,29.9,19
		c11.1-2.7,14.6-4.1,22.9-2.8c8.3,1.3,31.8,6.8,37.7,13s16.9,12.4,25.4,26.8c8.4,14.4,23.5,17.8,27.2,18.8c3.7,1,39.6-8.3,41.8-9.5
		c2.2-1.2,5.5-6.1,6.4-7.7c0.9-1.7,6.5-7.5,9.6-8c3.1-0.5,7.2-6.8,3.3-7.5c-3.9-0.8-12.7,7.7-24,13.7c-11.3,6-21.1,9.1-27.8,6.8
		c-6.7-2.3-28.3-11.6-30.1-23.2c-1.8-11.6-2.4-45.3,4.4-49.1C513.7,414.8,518.5,413.9,523.2,414.6z"/>
	<path class="st23" d="M645.1,456c0,0-33-3.3-38.9-14.7c-6-11.3-9-32.3-20-38.5c-13.4-7.7-28.9-10.7-44.2-8.6c0,0-43.7,2.2-71.4-2.1
		c-21.5-3.3-37.3-20-52.9-29.5c-4.4-2.8-9.5,1.5-14.2,2.2c-11.6,1.8-17.3,3.3-28.2,8.8c-10.2,5.2-16.2,5.3-16,14.2
		c0.3,12.2,18.9,29,23.6,41.2c3.4,8.8,4,11,7.9,16.8c3.2,4.8,8.6,2.9,12.6,2c11.1-2.4,18.3-8.3,40.7-3.9c14,2.7,32.6,12.9,42.3,23.5
		c11.4,12.3,14.1,22.1,27.8,29.8c5.5,3.1,14.4,5,18.5,4.6c16.7-1.9,35.4-9.1,38-12c3.9-4.3,3.6-13.6,16-14.2s19.3,5.8,19.3,5.8"/>
	<path d="M472.1,454.4c1.7-6,16.6-43.5,22.7-58.9c5-1,32.4-1.7,53.9-1.1c5.4,0,10.9,0.8,16.1,2.2c2.1,0.6,4.4,1.1,6.7,1.3
		c15.4,1.1,22.2,15.1,24.4,21c1.6,4.3,1.9,9.3,0.7,15.3c-0.4,2.1-0.9,4.1-1.6,6.2c-2.2,7.1-11.8,12.4-20.1,17
		c-1.1,0.6-2.3,1.3-3.4,1.9c-2.5,1.4-6.1,2.2-9.9,3c-7.9,1.6-17.6,3.6-23,12.7c-1.7,3.1-2.9,6.5-3.5,10c-0.9,5-1.3,10-1.3,15.1
		c-3.3,0-11.1-0.2-15-2.4c-0.8-0.5-1.7-0.9-2.5-1.4c-5.2-2.8-11.7-6.3-14.9-12.3l-0.1-0.1c-3-6.1-7.1-11.6-12-16.2
		c-3.5-3.1-7-5.9-10.8-8.6C475.9,457.5,473.6,455.7,472.1,454.4z M593.8,432.6c0.9-4.7,0.7-8.7-0.6-11.9
		c-3.1-7.3-10.1-10.8-19.9-13.7c-10-3-22.3,2.6-30.5,6.3l-0.4,0.1c-4.6,2.1-12.6,7.1-14.5,17.2c-0.4,2.2-0.5,4.3-0.3,6.5
		c0.8,11.5,4.5,16.2,14.9,19.3c10.1,3,20.4,1.3,28.8-0.1c9.5-1.6,17.9-9.7,20.5-16.5C592.5,437.5,593.3,435.1,593.8,432.6z"/>
	<path d="M595.2,434.1L595.2,434.1c-0.4,2.1-0.9,4-1.6,6c-0.7,2.1-2,4-3.5,5.4c1.2-1.6,2.2-3.3,2.9-5.2c1-2.5,1.7-5,2.2-7.5
		c1-5,0.7-9.2-0.8-12.8c-3.4-7.9-10.7-11.5-20.8-14.5c-10.6-3.2-23.1,2.6-31.5,6.4l-0.4,0.2c-4.8,2.2-13.3,7.5-15.4,18.3
		c-0.4,2.3-0.6,4.6-0.3,6.9c0.9,12.1,4.9,17.2,16,20.6c10.4,3.1,20.9,1.3,29.4-0.1c-0.1,0.1-0.4,0.2-0.6,0.3c-2.3,1.3-5.8,2-9.6,2.8
		c-8.2,1.7-18.4,3.8-24,13.4c-1.8,3.3-3.1,6.8-3.6,10.5c-0.8,4.6-1.3,9.2-1.3,13.9c-4-0.1-9.8-0.5-12.8-2.2
		c-0.8-0.5-1.7-0.9-2.6-1.4c-5.1-2.7-11.3-6.1-14.3-11.7l-0.1-0.1c-3.1-6.2-7.3-11.8-12.3-16.5c-3.5-3.1-7.2-6-11-8.8
		c-2-1.5-4-2.9-5.4-4.1c2.3-7.2,14.1-37.2,22-56.9c6.2-0.8,31.4-1.5,52.8-0.9c5.3,0,10.7,0.7,15.8,2.2c2.2,0.6,4.6,1.1,6.9,1.3
		c14.6,1.1,21.1,14.4,23.2,20.1C596.1,423.7,596.3,428.4,595.2,434.1 M598.2,434.7c1.2-6,1-11.4-0.7-16.1c-2.4-6.4-9.6-20.7-25.8-22
		c-6.2-0.5-9.2-3.2-22.8-3.5c-21.7-0.5-52,0.1-55,1.3c0,0-22.2,55.3-23.2,60.3c0,0.2-0.1,0.3,0,0.3c3.3,3.2,12.1,8.7,17.7,13.9
		c4.8,4.6,8.8,9.9,11.8,15.9c4,7.5,12.6,11.2,18,14.3c5.4,3.1,17.3,2.5,17.3,2.5c-0.2-5.5,0.3-10.9,1.2-16.4
		c0.5-3.4,1.7-6.6,3.3-9.6c7.6-12.8,24.5-10.5,32.5-15.1c9.3-5.2,21.5-11.1,24.2-19.8C597.1,438.9,597.6,436.8,598.2,434.7
		L598.2,434.7z M529.3,431c1.5-8,7.4-13.2,13.6-16.2c7.8-3.6,20.1-9.3,29.8-6.5c9.6,2.9,16.1,6.2,18.9,12.8
		c1.4,3.4,1.3,7.4,0.6,11.1c-0.5,2.4-1.1,4.7-2.1,6.9c-2.6,6.8-10.9,14.2-19.3,15.6c-8.4,1.4-18.4,3.1-28,0.2
		c-9.4-2.8-13-6.6-13.8-18C528.9,435,529,433,529.3,431L529.3,431z"/>
	<path d="M359.5,386c0.8-3.9,3.3-7.1,7.5-9.1c10.7-5.4,18.5-6.9,26.6-8.5c2.8-0.6,5.7-1.1,8.7-1.9c1.8-0.5,3.7-1.1,5.4-1.8
		c4.1-1.5,9.1-3.2,11.3-2c4.6,2.7,8.8,6,12.6,9.8c-1.2,4.9-7.9,30.3-10.7,39.8c-0.6,2-1.2,4.5-1.7,7.4c-1.7,8.8-2.8,19.3-3.1,22.5
		c-3.1,1.1-13.6,4.6-20.3,5.6c-3.4,0.5-6.3-6.7-8.9-13.1c-2.2-5.5-4.3-10.6-7.1-13.3c-1.7-1.6-3.1-2.8-4.3-3.9
		c-6.6-5.9-6.8-6-14.5-22.8C359.4,392.1,359,389.1,359.5,386z"/>
	<path d="M429.8,373.1c-1.6,6.4-7.8,30-10.5,38.9c-0.6,2-1.2,4.6-1.8,7.5c-1.6,8.2-2.6,17.7-3.1,21.7c-3.8,1.3-13.1,4.4-19.1,5.3
		c-2.2,0.3-5.4-7.5-7.2-12.2c-2.3-5.6-4.4-10.9-7.5-13.8c-1.7-1.6-3.1-2.8-4.3-3.9c-6.5-5.7-6.5-5.7-14.2-22.3
		c-1.2-2.5-1.6-5.3-1.1-8c0.7-3.4,2.9-6.3,6.7-8.1c10.5-5.3,18.1-6.8,26.3-8.4c2.9-0.6,5.7-1.1,8.8-1.9c1.9-0.5,3.8-1.1,5.7-1.9
		c3.2-1.1,8.4-3.1,10-2.1C422.4,366.6,426.3,369.6,429.8,373.1 M433.1,372.2c-4-4.1-8.5-7.8-13.4-10.6c-3.9-2.3-12.5,2.3-17.8,3.6
		c-11.8,2.8-21,3.1-35.6,10.4c-5,2.5-7.5,6.2-8.3,10.2c-0.5,3.4-0.1,6.8,1.4,9.8c9.3,20.1,7.9,16.8,19.2,27.1
		c6.4,5.8,9.5,27.9,17.2,26.8c8.3-1.2,21.5-6,21.5-6s1.2-12.8,3.2-23.3c0.5-2.7,1.1-5.1,1.7-7.3
		C425.3,402.2,433.1,372.2,433.1,372.2z"/>
	<g id="Targets">
		<circle id="ruaTorso" class="st12" cx="572" cy="433.7" r="4"/>
		<circle id="headTorso" class="st12" cx="633.6" cy="473.1" r="4"/>
		<circle id="luaTorso" class="st12" cx="571" cy="475.3" r="4"/>
		<circle id="rtTorso" class="st12" cx="399.1" cy="384.9" r="4"/>
		<circle id="ltTorso" class="st12" cx="394.5" cy="408.5" r="4"/>
	</g>
</g>
<g id="Layer_7">
	<g id="RightCrus">
		<path class="st21" d="M389.9,531.8c-2.1-4-4.6-7.6-7.5-11.1c-4.2-4.6-16-12.3-20.5-14.7c-4.3-2.4-27.9-7.5-34.5-7.7
			c-6.7-0.2-25.4-3.7-31.9-6.2c-6.6-2.5-20.5-14.7-24.4-15.8c-4-1.1-10.5,2.2-11.8,4.8c-1.5,2.6-7.4,15.3-8.5,19.3s-4.2,13.7-6.6,18
			c-2.5,4.4-5.9,12.8-5.5,14.1c0.5,1.4,6.8,8.3,9.7,5.3c2.9-3.1,5.5-6.1,6.3-11.3c0,0,7-11.6,10.6-14c3.7-2.5,12-9.4,17.7-7.2
			c5.7,2,83.2,46,85.8,47.5c2.6,1.5,14.7,6.9,18.5,10.1s6.4,3.3,7.6,1.4C399.3,557.2,389.9,531.8,389.9,531.8z"/>
		<path class="st22" d="M253.1,506.4c2.9,0.1,5.5-1.5,6.8-4.2c2-3.5,3.3-14.3,7-16.7c3.7-2.5,4.9,1.6,10.5,5.8
			c5.7,4.2,18.6,5.7,28.7,10.2c10.2,4.4,41.2,10.2,41.2,10.2c4,1.1,21.6,10.6,27.1,15.1c4.7,3.7,8,10.2,9.4,12
			c1.2,1.8,10.2,4.4,10.2,4.4c-1.1-3.9-2.4-7.7-4-11.3c-2.1-4-4.7-7.7-7.6-11c-4.2-4.6-16-12.3-20.5-14.7
			c-4.3-2.4-27.9-7.5-34.5-7.7c-6.7-0.3-25.4-3.7-31.9-6.2c-6.6-2.5-20.5-14.7-24.4-15.8c-4-1.1-10.5,2.2-11.8,4.8
			c-1.5,2.6-7.4,15.3-8.5,19.3c-0.4,1.5-1.2,3.1-2,5.7L253.1,506.4z"/>
		<path class="st23" d="M392.6,538.4c-2.8-5-6.7-12.8-10.9-17.5c-4.2-4.8-16.3-11.9-20.9-13.8c-5-2.2-26.7-8.6-33.5-8.8
			c-6.7-0.3-25.4-3.7-31.9-6.2c-6.6-2.5-20.5-14.7-24.4-15.8c-4-1.1-10.4,2.2-11.8,4.8c-1.5,2.6-7.4,15.3-8.5,19.3s-4.2,13.7-6.6,18
			c-2.5,4.4-5.9,12.8-5.5,14.1c0.5,1.4,6.8,8.3,9.7,5.3c2.9-3.1,5.5-6.1,6.3-11.3c0,0,7-11.6,10.6-14c3.7-2.5,12.5-8,18.2-6
			c5.7,2,82.7,44.7,85.3,46.2c2.6,1.5,14.7,6.9,18.5,10.1s9.3,2,9.3,2"/>
		<circle id="rc2" class="st12" cx="391.2" cy="551.6" r="4"/>
		<circle id="rc1" class="st12" cx="270.8" cy="492.4" r="4"/>
	</g>
	<g id="RightThigh">
		<path class="st21" d="M371.1,407.4c2.4,5.5,4.3,10.9,4.1,22.3c-0.1,11.4,1.6,25.4,0.5,38.4c-1.2,12.9,0.4,27-0.5,42.7
			c-0.9,15.8-2.9,28.2-0.6,36.3c2.3,8.2,5,12.9,10.2,14.5s7.5-3.3,13.6-3.1c6,0.3,8.2-5.3,7.8-14.4c-0.4-9.1,6.9-25,11.5-39.2
			c4.7-14.1,12.2-40,12-52.8c-0.2-12.8,0.3-31.3-2.1-41c-2.6-9.7-3.8-24.6-9.7-33c-6-8.6-12.7-16.3-25.4-16.1
			c-10.3,0.1-16.2,1.2-23.1,14.9C362.6,390.7,368.1,400.9,371.1,407.4z"/>
		<path class="st22" d="M391.3,362.1c-9.5,0.7-15.2,1.8-21.8,15c-6.9,13.6-8.1,26.8-5.2,33.4c2.4,5.5,5.8,7,5.8,18.5
			c0,11.4,1.9,26.8,0.6,39.8c-1.3,13,5.4,26.4,4.5,42.2c-1,15.9-2.9,28.2-0.6,36.3c2.5,8.3,1.3,5.6,4.1,10.2c0,0,3.5-1.1,3.8-3.4
			c0.5-2.3,5-11.3,3.7-16.1c-1.3-4.8-4.8-21.5-4.7-26.5c0.1-5.1-5.8-59.1-4-61.4c1.9-2.4,2.3-4.5,7.3-4.5c5.1,0.1,29.6-2.3,34.2,0
			c4.6,2.2,10.7,4.6,10.7,4.6s-0.4-23.1-0.4-27c0-3.9-5.4-33.8-8-38.2C418.7,380.7,409.6,360.8,391.3,362.1z"/>
		<path class="st23" d="M402.2,561c3.2-4.4,4.6-8.1,4.3-16.8c-0.4-9.1,6.9-25,11.5-39.2c4.7-14.1,12.2-40,12-52.8
			c-0.2-12.8,0.3-31.3-2.1-41c-2.6-9.7-3.8-24.6-9.7-33c-6-8.6-11.4-17.8-24.2-17.7c-10.3,0.1-21.2,0.7-28.9,13.8s-6,27.9-3,34.5
			c2.4,5.5,7.5,13.1,7.4,24.4c-0.1,11.3,0.4,22,1.4,34.9c1.2,14.8,5.4,27.1,4.5,43s-1.6,27.9-0.6,36.3c0.5,4.2,3.9,9.9,4.3,10.9"/>
		<path d="M431.5,440.7c-4.6,1.1-55.4,0.6-62.2-0.7c0-1.9,0-3.7,0.2-5.5c0.5-5.1,0.9-11.5-0.7-15.2c-2.2-4.7-8.5-19.7-8.7-26.4
			c0-3.8,2.2-14.2,3.8-17.3c1.8-3.4,7.4-8,14.1-11.5c1.4-0.8,3.1-1.6,4.6-2.1c5.3-2.3,19.9,1.3,26.5,7.6c6.7,6.3,19,31.2,20.3,40.8
			c0.1,1.5,0.4,3.3,0.6,5.2C430.7,423,432.8,438.3,431.5,440.7z"/>
		<path d="M377.2,362.8l1.4,2.6c1.4-0.8,2.9-1.4,4.3-2.1c4.7-2.1,18.9,1.5,24.9,7.3c6.6,6.2,18.6,30.5,19.8,39.9
			c0.1,1.5,0.4,3.3,0.6,5.2c0.9,6.6,2.6,19.8,2,23.8c-8,1-50.3,0.2-59.5-0.7c0.1-1.1,0.1-2.8,0.3-4c0.5-5.3,0.9-11.8-0.9-16
			c-2.1-4.4-8.3-19.4-8.6-25.9c0-3.8,2.3-13.9,3.6-16.5c1.6-3.1,7.2-7.7,13.4-10.9L377.2,362.8 M377.2,362.8
			c-6.5,3.6-12.6,8.3-14.6,12.2c-1.6,3.1-4.1,13.8-3.9,18c0.3,7.4,7.1,23.4,8.8,27c2.7,5.7-0.8,20,0.7,21.3c1.6,1.2,61,2.4,64.3,0.7
			l0,0c2.6-1.7-0.6-22-1.7-31.8c-1.1-9.8-13.5-34.9-20.7-41.7c-6.8-6.3-22.1-10.4-28.1-7.9C380.2,361.1,378.7,362,377.2,362.8
			L377.2,362.8z"/>
		<circle id="rt2" class="st12" cx="391.6" cy="388.9" r="4"/>
		<circle id="rt1" class="st12" cx="391.7" cy="554.5" r="4"/>
	</g>
</g>
<g id="Layer_8">
	<path class="st21" d="M593.3,468.4c0,0,15.7-10.6,18.7-9.6c3,1,24.3,11.1,26.3,10.1s9.5-9.1,13.1-8.8c3.6,0.2,11.9,4.2,14.5,7.4
		s2.9,11,1,13.4c-1.8,2.4-7.9,5.3-12.1,5.8s-6.7,8.7-5.6,12.1c1.2,3.4,4.6,13.7,3.9,19.5s1.8,14-2,17.4c-3.8,3.3-14.5,9-17.5,8
		c-3-1-9.8-3.7-13.1-7.6s-6.5-11.3-8.8-13.1c-4.8-3.7-10.8-0.7-14.6-2.4c-3.8-1.7-3.5-5.2-3.1-7.4c0.3-1.4,0.9-4.4-1.5-6.2
		c-2.4-1.8-7.7-4.7-8.3-8.9c-0.5-3.5-3.9-8.1-5.5-9.3c-4-3.1-1.9-9,0-11.4C580,475.8,593.3,468.4,593.3,468.4z"/>
	<path class="st22" d="M587.2,472c3.2-1.9,6.2-3.6,6.2-3.6s15.7-10.6,18.7-9.6c3,1,24.3,11.1,26.3,10.1s9.5-9.1,13.1-8.8
		c3.6,0.2,11.9,4.2,14.5,7.4s2.9,11,1,13.4c-1.8,2.4-7.9,5.3-12.1,5.8s-6.7,8.7-5.6,12.1c1.2,3.4,4.6,13.7,3.9,19.5s1.8,14-2,17.4
		c-2.8,2.2-5.8,4.1-9.1,5.6c0,0-2.7-33-17.5-46.4C605.2,477.5,587.2,472,587.2,472z"/>
	<path class="st23" d="M593.3,468.4c0,0,15.5-10,18.7-9.6c8,1.1,24.3,11.1,26.3,10.1s9.5-9.1,13.1-8.8c3.6,0.2,11.9,4.2,14.5,7.4
		s2.9,11,1,13.4c-1.8,2.4-7.9,5.3-12.1,5.8s-6.7,8.7-5.6,12.1c1.2,3.4,4.6,13.7,3.9,19.5s1.8,14-2,17.4c-3.8,3.3-14.5,9-17.5,8
		c-3-1-9.8-3.7-13.1-7.6s-6.5-11.3-8.8-13.1c-4.8-3.7-10.8-0.7-14.6-2.4c-3.8-1.7-3.5-5.2-3.1-7.4c0.3-1.4,0.9-4.4-1.5-6.2
		c-2.4-1.8-7.7-4.7-8.3-8.9c-0.5-3.5-3.9-8.1-5.5-9.3c-4-3.1-1.9-9,0-11.4C580,475.8,593.3,468.4,593.3,468.4z"/>
	<path class="st24" d="M653.2,479.2c1,2,9.7,0.3,4.7-7.7c-4.5-7.3-9.7-3.3-9.4-0.9"/>
	<path d="M614.4,527l-7.3-6.9c0,0,28.7-30.4,39-29.3c16.9,1.8-4.3,54.7-4.3,54.7s-11.4-3.2-15.3-5.2S614.4,527,614.4,527z"/>
	<path class="st6" d="M698.9,474c0,0-4,1.9-7.2-0.5s-8-12.5-13.6-16.8c-5.5-4.3-14.1-9.6-22.1-10.7c-8-1.1-17.4-2-20-0.3
		c-2.6,1.8-4.8,5.1-3.2,7s8.8,8.7,13,8.2c4.2-0.5,8.2-2.5,16,2.2c7.7,4.7,9,14.5,6.6,17.7c-2.4,3.2-9.7,7.7-13.3,7.4
		s-17.1,22.2-18.6,32.4c-1.5,10.2-3.7,26.2,0.8,28.4c4.6,2.3,16.2,3.6,22.6-1.5c6.5-5.1,15.6-12,20.4-18.3s10.7-22.1,10-27.7
		c-0.7-5.6,10.6-12.1,10.6-12.1L698.9,474z"/>
	<circle id="h1" class="st12" cx="625.8" cy="471.3" r="4"/>
	<circle id="h2" class="st12" cx="715.7" cy="477.5" r="4"/>
	<path class="st25" d="M636.1,539.9c0,0,16-2.8,20.7-5.5c4.6-2.7,17.6-18,17.6-18s-9,1.9-11.2,1.5c-2.2-0.4,7.3-4.5,12.3-9.4
		c2.9-2.8,5.2-6.2,6.5-10.1c0,0-7.6,1.7-9.5,4.1c-1.8,2.4-6.6,3.7-6.6,3.7l8.5-11.1c1.7-2.5,3.3-5.1,4.7-7.7l-8.4,1.1
		c0,0,6.5-5.1,7.7-6.7c1.2-1.6,1.9-7.4,1.9-7.4l-5.6,0.7c0.3-1.2,0.3-2.4,0.2-3.6c-0.2-1.4-1.9-4-1.9-4l6,2.1
		c0,0-10.5-9.3-13.5-10.4c-3-1-11-2.1-14.8-3.8c-2.4-1.1-4.6-2.8-6.3-4.9c0,0,7.6,3.3,10.2,1.5c1.7-1.2,2.9-2.8,3.7-4.8
		c0,0-12-3.8-13.9-2.3c-1.9,1.5-9.1,1-10.4,2.6c-1.2,1.6-2.9,5.4,1.7,7.6c3.2,1.7,6.4,3.7,9.3,5.9c0,0,6.8-1.6,9.1-0.8
		c2.3,0.8,10.1,3.3,12.3,7.3c2.2,4.1,4.4,10.1,2.5,12.2c-1.9,2-8.2,8.7-13.2,8.6c-5-0.1-10.8,10.5-10.8,10.5s-8.1,18.4-8.7,22.6
		C635.7,525.6,636.1,539.9,636.1,539.9z"/>
	<path class="st26" d="M698.9,474c0,0-4,1.9-7.2-0.5s-8-12.5-13.6-16.8c-5.5-4.3-14.1-9.6-22.1-10.7c-8-1.1-17.4-2-20-0.3
		c-2.6,1.8-4.8,5.1-3.2,7s8.8,8.7,13,8.2c4.2-0.5,8.2-2.5,16,2.2c7.7,4.7,9,14.5,6.6,17.7c-2.4,3.2-9.7,7.7-13.3,7.4
		s-17.1,22.2-18.6,32.4c-1.5,10.2-3.7,26.2,0.8,28.4c4.6,2.3,16.2,3.6,22.6-1.5c6.5-5.1,15.6-12,20.4-18.3s10.7-22.1,10-27.7
		c-0.7-5.6,10.6-12.1,10.6-12.1L698.9,474z"/>
	<g id="HairBand">
		<line class="st27" x1="695.6" y1="470.8" x2="699.3" y2="493.9"/>
		<line class="st27" x1="700.2" y1="473.1" x2="703.9" y2="491.1"/>
		<line class="st27" x1="706" y1="468.8" x2="709.7" y2="491.8"/>
		<line class="st27" x1="711.6" y1="468" x2="715" y2="488.3"/>
	</g>
</g>
<g id="Layer_9">
	<path class="st6" d="M770.8,331.6c-1.5,5.6,1.9,9.2,6,17.8s0.3,20.5-4.2,36c-4.5,15.5-3.3,24-1.3,30.4c2,6.4-1.2,27.6-3.6,39.5
		s-13.2,26.6-19.1,36.4c-5.8,9.8-20,12.4-25,11.6s-10.5-8-9.7-11.5c0.8-3.5-1.6-26.2-3.7-28.4c-2.1-2.2-4.5-23.4-3-30.5
		s7.4-15.4,9.6-23.2c1.5-5.1,0.9-16.7,0.4-24l-0.7-2.1c-2.3-4.9-4.3-9.8-6.1-15c-2-6.4-0.2-24.8-0.1-33.2s4.7-25.4,4.7-25.4
		s2,7.8,3.3,10.7c1.4,2.9,4.9,5,4.9,5s-1.1-14.2-1.7-23.4c-0.5-9.2,5.5-30.3,9.3-42.3c3.8-12,12.5-27.3,19.1-37.8
		c1.1-1.7,3.7-6.3,3.7-6.3c0.6-2.1,1.1-3.2,0.8-4.9c-0.6-5,0.5-9.9,3.1-14.1c2.5-3.8,4.1-8.1,4.5-12.6c0.1-2.8,14-31.6,16.8-30.1
		c2.8,1.5,12.8,33.5,16.1,44.2s-2.6,26.1-4.1,31.7s-9.5,18.9-12.5,25.9c-3,7-13.9,23.1-16.1,26.6s1.2,9.9,1.2,9.9s6.5-6.2,9.3-4.8
		c2.8,1.5,6.4-2,8.6-4.1s1.6-8.5,5-3.4c3.4,5-0.2,11.3-0.3,15.6c-0.1,4.2-1.7,15.5-3.9,20.4S772,326.9,770.8,331.6z"/>
	<path class="st28" d="M787.9,286.6c0,0-4.5,7.8-10.1,9.1c-5.7,1.3-7-1.5-9.2,0.5c-2.2,2.1-3.7,7.7-6.5,7.7
		c-2.8-0.1-4.2-2.9-3.4-7.8c0.8-4.9,0.9-10.6,0.2-12.7c-0.7-2.1,2.3-10.6,5.2-11.9c1.9-0.8,4-0.9,5.9-0.3c0,0-9,11.6-7.7,15.8
		c1.3,4.3,2.5,5,4.8,2.6c1.9-1.9,4.5-3,7.2-3c4,0.1,7.5-2.4,8.8-6.1C785.3,274.6,787.9,286.6,787.9,286.6z"/>
	<path class="st28" d="M772.6,340.7c0,0-2.9,11.4-3.7,16.3c-0.8,4.9-4.5,11.2-3.8,13.4c0.7,2.1-0.1,4.2-2.2,4.9
		c-2.1,0.7-4.1-5.7-4.1-10c0.1-4.2,0.3-14.1,2.5-19c1.3-2.9,3.1-5.4,5.5-7.4L772.6,340.7z"/>
	<path class="st28" d="M759.9,254.3c0,0-0.5,4.9-2.6,4.2c-2.1-0.7-3.3-13.5-4.7-14.9s-2.1-3.6-3.5-0.8s-13.3,28-13.5,40.8
		c-0.2,12.7-1,53.7,1.7,58s4.1,7.1,2,7.8c-2.1,0.7-5.6-2.9-7-5.8c-1.4-2.9-6.9-8.6-9-9.4c-2.1-0.7-3.3,25.4,0.8,34
		s12.8,33.5,13.4,38.4c0.6,5,7.5,13.6,4.6,16.4c-2.9,2.8-9.1-6.5-12.6-5.9c-3.5,0.6-8.8,18.2-9,29.5c-0.2,11.3,3.7,29.8,2.2,34
		c-1.5,4.2-8.7,4.1-8.7,4.1s-6.3-30-6.6-35.2c-0.3-5.2-1.9-19.7,6.8-32.5s2.2-33.5-0.3-40.5c-2.5-7-5.4-33-2.7-46.9
		c2.7-13.9,3.8-18.2,3.8-18.2s4.2,11.5,6.3,12.2c2.1,0.7,3.5-0.6,2.2-4.9s-3.8-22.7,1.5-40.3c5.3-17.6,15.9-43.3,24.1-54.5
		s16.2-17,16.2-17s-6.1,14.1-6.3,25.1C759,243,759.9,254.3,759.9,254.3z"/>
	<path class="st28" d="M793,191.5c-2-1-3.6-2.6-4.7-4.6c-2.1-3.6-6.1-12.1-9.7-11.5c-3.5,0.6-11.7,22.4-11.8,26.7
		c-0.1,4.2-10.8,11.8-10.8,11.8c-0.5-8.5,1.2-17,5.3-24.5c6.7-12,11.4-29.1,14.2-31.8c2.9-2.6,5.3-0.9,5.3-0.9L793,191.5z"/>
	<path class="st29" d="M733.3,406.5c0,0-8.3-10.1-9.7-12.9l-6.8-14.3c0,0,2.4,22.7,0.1,30.4c-2.3,7.7-8.1,16.1-9.6,23.2
		s0.9,28.3,3,30.5c2.1,2.2,4.5,24.8,3.7,28.4c-0.8,3.5,4.8,10.7,9.7,11.5s19.1-1.8,25-11.6c5.8-9.8,16.7-24.4,19.1-36.4
		s5.6-33.1,3.6-39.5c-2-6.4-3.3-14.9,1.3-30.4c4.5-15.5,8.3-27.4,4.2-36s-6.8-12.9-6-17.8"/>
	<path class="st29" d="M762.3,367.5c0,0,1.2-24.7,7-34.5c5.8-9.8,10.8-11.8,13-16.7s3.8-16.2,3.9-20.4c0.1-4.2,3.7-10.5,0.3-15.6
		c-3.4-5-2.9,1.4-5,3.4s-5.8,5.6-8.6,4.1c-2.8-1.5-9.3,4.8-9.3,4.8s-3.4-6.4-1.2-9.9s13.1-19.6,16.1-26.6c3-7,11-20.3,12.5-25.9
		s7.5-21.1,4.1-31.7s-13.3-42.7-16.1-44.2c-2.8-1.5-16.8,27.3-16.8,30.1c-0.4,4.5-2,8.9-4.5,12.6c-2.6,4.2-3.7,9.1-3.1,14.1
		c0.6,3.5-3,8.4-3,8.4"/>
	<path class="st29" d="M760.1,257.1c0,0-2.9-36.1,1.5-43.1c4.4-7,6.5-9.1,6.5-9.1s-11.4,6.9-18,17.3c-6.6,10.5-15.3,25.9-19.1,37.8
		c-3.8,12-9.8,33.1-9.3,42.3c0.5,9.2,1.7,23.4,1.7,23.4s-3.5-2.2-4.9-5c-1.4-2.9-3.3-10.7-3.3-10.7s-4.6,16.9-4.7,25.4
		s-1.9,26.8,0.1,33.2c2,6.4,7.5,16.4,7.5,16.4"/>
	<circle id="hair1" class="st12" cx="715" cy="476.9" r="4"/>
	<circle id="hair2" class="st12" cx="767" cy="228.3" r="4"/>
</g>
<g id="Layer_4">
	<g id="RightLowerArm">
		<path class="st21" d="M480.3,472.3c6.6,1.7,10.1,9.1,16.5,24.8c12.3,30.4,12.8,58.9,18.9,67.9c2,2.9,7.7,6.6,11.1,8.4
			c2.3,1,4.2,2.9,5.3,5.2c1.3,2.3-1.1,8.2,2.5,12.8c3.5,4.7,5.3,5.2,4.7,7.8c-0.3,1.5-1.8,2.4-3.2,2.1l-0.1,0c0.6,1.9,0,4-1.3,5.3
			c-2.3,2.2-4.4-1.1-4.4-1.1c1.2,1.2,1.2,3.3-0.2,4.7l-0.1,0.1c-2.3,2.2-4.4-1.1-4.4-1.1s1.5,1.3-0.9,3.5c-2.3,2.2-5.3-1.3-7.5-3.8
			c-3.2-3.5-5.9-7.7-7.3-12.2c-1.6-5.2-0.4-9.6-2.9-14.9c-2.5-5.3-25.8-43.8-35.1-71c-9.4-26.8-10-32.2-6.7-37.5
			C468.3,468,474,470.8,480.3,472.3z"/>
		<path class="st22" d="M472.5,470.8c0,0-0.8,5.1,1.7,6.4c2.5,1.4,6.9,2.1,10.4,10.4c3.5,8.3,15.8,36,17.7,45.9
			c1.8,9.9,5.4,25.4,7.3,28c1.9,2.5,3.9,6.1,2.3,7.8c-1.7,1.4-4,4.3-2.7,5c1.2,0.7,6.4-2.9,9-1.5c2.5,1.4,6.6,8.5,9.2,9.8
			c2.5,1.4,5.5,2.6,5.5,2.6s0.2-5.5-1.2-8.2c-1.5-2.7-12.6-7.4-14.4-10.7c-1.8-3.2-6.1-11.6-6.7-18.6c-0.8-7-10.4-45.2-14.7-53.5
			c-4.3-8.5-8-18.9-11.8-20.3C480.1,472.6,476.3,471.6,472.5,470.8z"/>
		<path class="st30" d="M480.3,472.3c6.6,1.7,10.1,9.1,16.5,24.8c12.3,30.4,12.8,58.9,18.9,67.9c2,2.9,7.7,6.6,11.1,8.4
			c2.3,1,4.2,2.9,5.3,5.2c1.3,2.3-1.1,8.2,2.5,12.8c3.5,4.7,5.3,5.2,4.7,7.8c-0.3,1.5-1.8,2.4-3.2,2.1l-0.1,0c0.6,1.9,0,4-1.3,5.3
			c-2.3,2.2-4.4-1.1-4.4-1.1c1.2,1.2,1.2,3.3-0.2,4.7l-0.1,0.1c-2.3,2.2-4.4-1.1-4.4-1.1s1.5,1.3-0.9,3.5c-2.3,2.2-5.3-1.3-7.5-3.8
			c-3.2-3.5-5.9-7.7-7.3-12.2c-1.6-5.2-0.4-9.6-2.9-14.9c-2.5-5.3-25.8-43.8-35.1-71c-9.4-26.8-10-32.2-6.7-37.5
			C468.3,468,474,470.8,480.3,472.3z"/>
		<circle id="rla2" class="st12" cx="476.5" cy="475.2" r="3"/>
		<circle id="rla1" class="st12" cx="521.2" cy="588.4" r="3"/>
	</g>
	<g id="RightUpperArm">
		<path class="st21" d="M501,448.4c0,0,12.1-11.9,21.9-15.5c9.6-3.6,35.7-15.8,42.9-16.7c7.2-0.9,13.3-1,16.6,3.5
			c3.4,4.6,3.7,13.8,1.8,17c-2.5,4.1-9.3,10.5-15.3,14c-9.9,5.6-21,16.2-30.5,20.1c-16.1,6.6-31.2,6.4-39.9,10.2
			c-2.8,1.3-4.8,2.9-9.1,3.6c-4.4,0.6-10.4-1.7-14.7-1.6c-3.2,0-6.7,4.8-9.5,3.3c-10.6-5.6,17.8-31.7,33.5-35.5"/>
		<path class="st22" d="M572.2,448.4c0,0-0.6-3.4-3.7-3.2c-3.1,0.1-8.7,2.4-13.1,5.2c-4.3,2.8-22.3,14.3-32.9,17.5
			c-10.6,3.2-28.2,10.2-31.8,9.4c-3.5-0.8-9.5,0.6-12.2,1.7c-2.5,1.2-4.8,2.4-7.1,4c0,0,1.8-0.5,6.7,0.5c3.5,0.8,9.3,1.7,11.1,1
			c0,0,11.9-4.9,18.1-5.8c6.2-0.9,21.7-2.6,28.4-5.9c6.8-3.2,16.2-14.2,22.7-17C563.4,453.6,568,451.1,572.2,448.4z"/>
		<path class="st23" d="M498.9,450.6c-14.1,3.4-37.6,24-34.9,32.2c0.5,1.1,1,2.3,1.6,3.4"/>
		<path class="st23" d="M489.2,485c3.2-1.6,6.9-3,9.2-4.1c8.7-3.7,22.4-1.9,38.5-8.6c9-3.7,18.9-17.3,29.5-20.5"/>
		<path class="st23" d="M491.4,458.2c0,0,25.9-23.4,35.1-28c10-4.9,32.1-13.7,39.4-14c7.3-0.5,13.3-1,16.6,3.5
			c2.1,2.8,2.6,3.4,3.2,7.3"/>
		<line class="st31" x1="534.7" y1="425.2" x2="554.2" y2="460.5"/>
		<circle id="rua1" class="st12" cx="569.9" cy="429.5" r="4"/>
		<circle id="rua2" class="st12" cx="474.2" cy="478.6" r="3"/>
	</g>
</g>
</svg>
