<?xml version="1.0" encoding="utf-8"?>
<!-- Generator: Adobe Illustrator 28.1.0, SVG Export Plug-In . SVG Version: 6.00 Build 0)  -->
<svg version="1.1" id="Layer_1" xmlns="http://www.w3.org/2000/svg" xmlns:xlink="http://www.w3.org/1999/xlink" x="0px" y="0px"
	 viewBox="0 0 1024 1024" style="enable-background:new 0 0 1024 1024;" xml:space="preserve">
<style type="text/css">
	.st0{fill:#808080;}
	.st1{fill:none;stroke:#000000;stroke-width:2.15;stroke-miterlimit:10;}
	.st2{fill:#B3B3B3;}
	.st3{fill:none;stroke:#000000;stroke-width:2.29;stroke-miterlimit:10;}
	.st4{fill:none;stroke:#000000;stroke-width:1.21;stroke-miterlimit:10;}
	.st5{fill:none;stroke:#000000;stroke-width:1.56;stroke-miterlimit:10;}
	.st6{fill:#FFFFFF;}
	.st7{fill:#808080;stroke:#000000;stroke-width:2.14;stroke-miterlimit:10;}
	.st8{fill:#B3B3B3;stroke:#000000;stroke-width:1.86;stroke-miterlimit:10;}
	.st9{fill:#B3B3B3;stroke:#000000;stroke-width:2.6;stroke-miterlimit:10;}
	.st10{fill:#808080;stroke:#000000;stroke-width:2.44;stroke-miterlimit:10;}
	.st11{fill:none;stroke:#000000;stroke-width:3.54;stroke-linecap:round;stroke-miterlimit:10;}
	.st12{fill:#FF0000;}
	.st13{fill:#B3B3B3;stroke:#000000;stroke-width:2.27;stroke-miterlimit:10.0004;}
	.st14{fill:#808080;stroke:#000000;stroke-width:2.27;stroke-miterlimit:10;}
	.st15{fill:#B3B3B3;stroke:#000000;stroke-width:1.7;stroke-miterlimit:9.9996;}
	.st16{fill:#808080;stroke:#000000;stroke-width:2.05;stroke-miterlimit:10;}
	.st17{fill:#B3B3B3;stroke:#000000;stroke-width:2.27;stroke-miterlimit:10;}
	.st18{fill:#B3B3B3;stroke:#000000;stroke-width:2.27;stroke-miterlimit:9.9999;}
	.st19{fill:#959595;}
	.st20{fill:#828282;}
	.st21{fill:none;stroke:#000000;stroke-width:3;stroke-linecap:round;stroke-miterlimit:10;}
	.st22{fill:none;stroke:#696969;stroke-width:5;stroke-linecap:round;stroke-miterlimit:10;}
	.st23{fill:#DEDEDE;stroke:#DEDEDE;stroke-width:2;stroke-linecap:round;stroke-linejoin:round;}
	.st24{fill:none;stroke:#000000;stroke-width:4;stroke-linecap:round;stroke-miterlimit:10;}
	.st25{fill:none;stroke:#000000;stroke-width:8;stroke-linecap:round;stroke-miterlimit:10;}
	.st26{fill:#DEDEDE;}
	.st27{fill:none;stroke:#000000;stroke-width:4;stroke-linecap:round;stroke-linejoin:round;}
	.st28{fill:none;stroke:#000000;stroke-width:3;stroke-linejoin:round;}
	.st29{fill:none;stroke:#DEDEDE;stroke-width:4;stroke-linecap:round;stroke-miterlimit:10;}
</style>
<g id="Layer_10">
	<g id="LeftLowerArm">
		<g id="Hand">
			<polygon class="st0" points="701.7,420.8 711.2,429.6 731.9,419.2 735.4,415.2 716.4,397.5 			"/>
			<polygon class="st1" points="701.7,420.8 711.2,429.6 731.9,419.2 735.4,415.2 716.4,397.5 			"/>
			<polygon class="st2" points="713.1,402.6 713,415.6 706.5,425.2 698.6,417.9 708.1,401 			"/>
			<polygon class="st3" points="713.1,402.6 713,415.6 706.5,425.2 698.6,417.9 708.1,401 			"/>
			<path class="st2" d="M706.3,403.1l3.7-7.8c0.7-1.4,2.4-2,3.7-1.3l0.4,0.2c1.4,0.7,2,2.4,1.3,3.7l-3.7,7.8c-0.7,1.4-2.4,2-3.7,1.3
				l-0.4-0.2C706.2,406.2,705.6,404.5,706.3,403.1z"/>
			<path class="st4" d="M706.4,403.2l3.7-7.8c0.7-1.4,2.4-2,3.7-1.3l0,0l0.3,0.2c1.4,0.7,2,2.4,1.3,3.7l-3.7,7.8
				c-0.7,1.4-2.4,2-3.7,1.3l0,0l-0.3-0.2C706.3,406.2,705.7,404.6,706.4,403.2z"/>
			<path class="st2" d="M710.9,404l9.8-10.5c1-1.2,2.9-1.2,4-0.1l0.2,0.3c1.2,1,1.2,2.9,0.1,4l-9.8,10.5c-1,1.2-2.9,1.2-4,0.1
				L711,408C709.8,407,709.8,405.2,710.9,404z"/>
			<path class="st5" d="M710.9,404l9.8-10.5c1-1.2,2.9-1.2,4-0.1l0,0l0.2,0.3c1.2,1,1.2,2.9,0.1,4l-9.8,10.5c-1,1.2-2.9,1.2-4,0.1
				l0,0L711,408C709.8,407,709.8,405.2,710.9,404L710.9,404z"/>
			<path class="st2" d="M710.7,395.5l0.1-0.4c0.4-1.5,1.9-2.4,3.3-2.1l8.5,2c1.5,0.4,2.4,1.9,2.1,3.3l-0.1,0.4
				c-0.4,1.5-1.9,2.4-3.3,2.1l-8.5-2C711.3,398.5,710.3,397,710.7,395.5z"/>
			<path class="st4" d="M710.8,395.5l0.1-0.3c0.4-1.5,1.9-2.4,3.3-2.1l8.5,2c1.5,0.4,2.4,1.9,2.1,3.3l-0.1,0.3
				c-0.4,1.5-1.9,2.4-3.4,2.1l0,0l-8.5-2C711.4,398.6,710.4,397.1,710.8,395.5L710.8,395.5z"/>
			<path class="st2" d="M716.2,409l10.6-11.3c1-1.2,2.9-1.2,4-0.1l0.2,0.3c1.2,1,1.2,2.9,0.1,4l-10.6,11.3c-1,1.2-2.9,1.2-4,0.1
				l-0.2-0.3C715.2,411.9,715.1,410.2,716.2,409z"/>
			<path class="st5" d="M716.2,409.1l10.5-11.2c1-1.2,2.9-1.2,4-0.1l0.3,0.2c1.2,1,1.2,2.9,0.1,4l-10.5,11.2c-1,1.2-2.9,1.2-4,0.1
				l0,0l-0.2-0.3C715.1,412,715.1,410.2,716.2,409.1L716.2,409.1L716.2,409.1z"/>
			<path class="st2" d="M721.5,414l9.8-10.5c1-1.2,2.9-1.2,4-0.1l0.2,0.3c1.2,1,1.2,2.9,0.1,4l-9.8,10.5c-1,1.2-2.9,1.2-4,0.1
				l-0.2-0.3C720.5,416.9,720.4,415.2,721.5,414z"/>
			<path class="st5" d="M721.5,414l9.8-10.5c1-1.2,2.9-1.2,4-0.1l0,0l0.2,0.3c1.2,1,1.2,2.9,0.1,4l-9.8,10.5c-1,1.2-2.9,1.2-4,0.1
				l0,0l-0.2-0.3C720.5,416.9,720.4,415.2,721.5,414z"/>
			<path class="st2" d="M727.3,417.6l8.6-9.2c0.9-0.9,2.3-1,3.3-0.1l0.3,0.2c0.9,0.9,1,2.3,0.1,3.3l-8.6,9.2c-0.9,0.9-2.3,1-3.3,0.1
				l-0.3-0.2C726.5,420.1,726.5,418.6,727.3,417.6z"/>
			<path class="st5" d="M727.4,417.8l8.6-9.2c0.9-0.9,2.3-1,3.3-0.1l0.3,0.2c0.9,0.9,1,2.3,0.1,3.3l-8.6,9.2c-0.9,0.9-2.3,1-3.3,0.1
				l-0.3-0.2C726.6,420.1,726.5,418.7,727.4,417.8z"/>
		</g>
		<polygon points="712.8,417.7 718.9,418.8 728.4,397.6 700,427.8 695.3,423.3 723.6,393.1 703.1,404 704.5,409.9 686.8,406.7 
			726.1,386 727.2,387.2 738.9,381.6 734.1,393.6 735.3,394.7 717.2,435.3 		"/>
		<path class="st6" d="M738.1,382.4l-4.4,11.2l1.2,1.1L717.3,434l-3.9-15.8l5.7,1l10.6-23.7l-29.7,31.7l-2.1-2l-2.1-2l29.7-31.7
			l-23,12.2l1.3,5.6l-16-2.9l38.1-20l1.2,1.1L738.1,382.4 M739.6,380.8l-1.9,0.9l-10.5,4.9l-0.7-0.7l-0.4-0.4l-0.5,0.3l-38.1,20
			l-2,1.1l2.3,0.4l16,2.9l1.2,0.2l-0.3-1.2l-1.2-5.1l18.2-9.6l-26.4,28.2l-0.6,0.6l0.6,0.6l2.1,2l2.1,1.9l0.6,0.6l0.6-0.6l26.4-28.2
			l-8.4,18.7l-5-0.9l-1.2-0.2l0.3,1.2l3.9,15.8l0.5,2.3l1-2.1l17.5-39.2l0.2-0.6l-0.4-0.4l-0.7-0.7l4.3-10.8L739.6,380.8
			L739.6,380.8z"/>
		
			<image style="overflow:visible;enable-background:new    ;" width="18" height="29" xlink:href="48218C26.png"  transform="matrix(0.9979 -6.496666e-02 6.496666e-02 0.9979 618.806 487.6043)">
		</image>
		
			<rect x="629.4" y="453.2" transform="matrix(0.6837 -0.7297 0.7297 0.6837 -125.2036 630.5705)" class="st7" width="70.9" height="13"/>
		
			<rect x="618.7" y="501.8" transform="matrix(0.6837 -0.7297 0.7297 0.6837 -169.773 621.9148)" class="st8" width="27.8" height="10"/>
		
			<image style="overflow:visible;enable-background:new    ;" width="51" height="24" xlink:href="48218C25.png"  transform="matrix(0.9979 -6.496666e-02 6.496666e-02 0.9979 642.3478 448.9937)">
		</image>
		
			<image style="overflow:visible;enable-background:new    ;" width="47" height="35" xlink:href="48218C2C.png"  transform="matrix(0.9979 -6.496666e-02 6.496666e-02 0.9979 637.3171 433.2874)">
		</image>
		
			<image style="overflow:visible;enable-background:new    ;" width="53" height="59" xlink:href="48218C2D.png"  transform="matrix(0.9979 -6.496666e-02 6.496666e-02 0.9979 643.3044 432.8975)">
		</image>
		<path class="st9" d="M646.4,499.3l-11.7-11c-4.7-4.4-4.9-11.8-0.5-16.4l6.1-6.6l8.1,7.7l-3.7,4c-1.7,1.8-1.6,4.7,0.2,6.5l8.7,8.1
			L646.4,499.3z"/>
		<polygon class="st10" points="672.9,441.6 687.6,455.3 694.9,447.5 702,448.9 715.1,435 696,417 		"/>
		<line class="st11" x1="696.5" y1="432" x2="709.5" y2="435.4"/>
		<line class="st11" x1="692" y1="436.8" x2="705.1" y2="440.1"/>
		<line class="st11" x1="687.6" y1="441.5" x2="700.7" y2="444.9"/>
		<path class="st9" d="M691.6,423.4l0.4,0.3c1.7,1.6,1.8,4.2,0.2,5.9l-23.4,25c-1.6,1.7-4.2,1.8-5.9,0.2l-0.4-0.3
			c-1.7-1.6-1.8-4.2-0.2-5.9l23.4-25C687.4,421.9,690,421.9,691.6,423.4z"/>
		<circle id="lla1" class="st12" cx="621.5" cy="507.6" r="3"/>
		<circle id="lla2" class="st12" cx="717.3" cy="412.6" r="3"/>
	</g>
	<g id="UpperArm">
		
			<rect x="591" y="469.7" transform="matrix(0.831 -0.5562 0.5562 0.831 -175.5224 414.246)" class="st13" width="6.2" height="52.7"/>
		<path class="st14" d="M614.7,501l-9.2,12.1c-1.4,1.9-1.6,4.5-0.2,6.5l0,0c1.3,2,3.7,2.9,6,2.3L626,518L614.7,501z"/>
		
			<image style="overflow:visible;enable-background:new    ;" width="87" height="116" xlink:href="48218C2A.png"  transform="matrix(0.9979 -6.496666e-02 6.496666e-02 0.9979 547.6193 410.0643)">
		</image>
		<path class="st14" d="M559,432l25.8,38.6c1.9,2.9,1.2,6.7-1.7,8.6l0,0c-2.9,1.9-6.7,1.2-8.6-1.7l-25.8-38.6
			c-1.9-2.9-1.2-6.7,1.7-8.6l0,0C553.2,428.4,557.1,429.1,559,432z"/>
		
			<rect x="582.8" y="387.6" transform="matrix(0.9631 -0.2692 0.2692 0.9631 -91.4547 173.0039)" class="st15" width="4.5" height="64.8"/>
		<path class="st14" d="M568.6,403l9.2-12.1c1.4-1.9,1.6-4.5,0.2-6.5l0,0c-1.3-2-3.7-2.9-6-2.3l-14.7,3.9L568.6,403z"/>
		<polygon class="st16" points="612.4,495.1 552.9,406.1 562.5,399.6 596.6,450.5 616.7,488.1 		"/>
		
			<ellipse transform="matrix(0.2492 -0.9684 0.9684 0.2492 28.9855 837.5137)" class="st17" cx="554.7" cy="400.1" rx="15.9" ry="15.9"/>
		
			<ellipse transform="matrix(0.2492 -0.9684 0.9684 0.2492 28.9855 837.5137)" class="st14" cx="554.7" cy="400.1" rx="7.4" ry="7.4"/>
		
			<image style="overflow:visible;enable-background:new    ;" width="76" height="83" xlink:href="48218C2B.png"  transform="matrix(0.9979 -6.496666e-02 6.496666e-02 0.9979 542.0866 417.4392)">
		</image>
		
			<image style="overflow:visible;enable-background:new    ;" width="79" height="70" xlink:href="48218C24.png"  transform="matrix(0.9979 -6.496666e-02 6.496666e-02 0.9979 539.8723 429.6088)">
		</image>
		<path class="st14" d="M623.5,515.3l-13.2-19.7c-0.8-1.2-0.5-2.9,0.8-3.7l0,0l9.7-6.6c0.6-0.5,1.5-0.2,2,0.4l0,0l7.7,11.5
			c0.2,0.4,0.3,0.8,0.2,1.2l-4.7,16.6c-0.2,0.8-0.9,1.2-1.7,1C624,515.8,623.8,515.5,623.5,515.3z"/>
		<ellipse class="st18" cx="625.6" cy="506.1" rx="14.2" ry="14.2"/>
		<polygon class="st17" points="538.8,400.8 546.8,404.6 554.1,415.5 541,424.2 529.5,407.3 		"/>
		<path class="st17" d="M536.5,395.9l10.1,15.1c0,0-3,2-3.7,5.1c-0.6,3.1-1.4,5,0.8,8.4l3.8,5.6l-6.6,4.4l-19.3-28.7L536.5,395.9z"
			/>
		<circle id="lua2" class="st12" cx="554.8" cy="400.2" r="3"/>
		<circle id="lua1" class="st12" cx="625.8" cy="506" r="3"/>
	</g>
</g>
<g id="Layer_6">
	<g id="LeftThigh">
		<path class="st19" d="M503.3,593.5c1.1,5.9,1.5,11.5-1.2,22.6c-2.7,11-4.3,25.1-8.6,37.5c-4.2,12.3-5.9,26.4-10.4,41.5
			c-4.6,15.2-9.4,26.7-9,35.3s1.9,13.8,6.6,16.5c4.7,2.6,11.2,7.6,15.9,3.9c4.7-3.7,7.2-7,8.9-16c1.8-9.1,12.6-22.8,20.4-35.4
			c7.9-12.6,21.2-36,24-48.5c2.9-12.5,7.8-30.4,7.5-40.4s2-24.9-1.7-34.4c-3.9-9.7-8.5-18.8-21-21.7c-10-2.3-16-2.6-25.9,9.1
			C498.9,575.2,501.9,586.3,503.3,593.5z"/>
		<path class="st20" d="M533.6,554.1c-9.3-1.5-15.3-1.8-24.7,9.4c-9.9,11.7-14.2,24.2-12.8,31.2c1.1,5.9,4,8.3,1.3,19.4
			c-2.7,11-4.5,26.5-8.8,38.8c-4.2,12.3-1,27-5.5,42.1c-4.6,15.2-9.4,26.7-9,35.3s0,5.7,1.6,10.8c0,0,3.6-0.3,4.5-2.3
			c1-2.1,7.6-9.8,7.4-14.8c-0.1-5,0.4-22,1.7-26.9c1.3-4.8,8.2-58.9,10.6-60.7s3.3-3.9,8.1-2.6c4.8,1.3,29.4,4.8,33.2,8.1
			c3.9,3.3,9.4,7,9.4,7s4.9-22.6,5.9-26.4c1-3.8,2.6-34.2,1.3-38.9C556.2,578.8,551.5,557,533.6,554.1z"/>
		<path class="st21" d="M497.4,750c4.1-3.5,6.4-6.8,8.1-15.3c1.8-9.1,12.6-22.8,20.4-35.4c7.9-12.6,21.2-36,24-48.5
			c2.9-12.5,7.8-30.4,7.5-40.4s2-24.9-1.7-34.4c-3.9-9.7-6.9-20-19.4-22.8c-10-2.3-18.1-3.6-28.6,7.4c-10.7,11-14.3,19.8-13.1,27
			c1.1,5.9,5.5,13.4,2.9,24.6c-2.7,11-6.8,27.4-8.9,40.3c-2.4,14.7-1,27.7-5.7,42.7c-4.6,15.2-8.1,26.7-9,35.3
			c-0.5,4.2,1.4,10.6,1.5,11.5"/>
		<path d="M493.8,624.7c0.2-3,0.4-5.9,0.9-8.9c0.8-6.4,1.8-13.6,1-17.2c-1.2-5.7,5.1-25,7.6-29.4s13.7-15.9,21.7-17.3
			c5.3-0.9,17,4.2,22.3,10.7c0.7,0.8,1.2,1.7,1.6,2.6c3.9,8.3,11.3,35.2,10.2,44.6c-0.2,1.5-0.4,3.3-0.6,5.2
			c-0.8,7.5-2.4,22.8-4.3,24.9C549.4,640,499.6,627.4,493.8,624.7z"/>
		<path d="M545.9,563.5L545.9,563.5c0.6,0.7,1.1,1.5,1.4,2.3c3.9,8.2,11.1,34.9,10,43.8c-0.2,1.5-0.4,3.3-0.6,5.2
			c-0.7,6.6-2.1,19.8-3.6,23.5c-8.2-0.8-50.1-11.9-58.1-14.7c0.1-1.8,0.5-5.1,0.9-7.7c0.8-6.8,1.7-13.8,1-17.7
			c-1-5,4.8-23.6,7.4-28.3c2.4-4.2,13.2-15.3,20.6-16.6C529.4,552.6,540.8,557.1,545.9,563.5 M548.3,561.7
			c-5.5-7-17.9-12.3-23.6-11.3c-8.7,1.4-20.1,13.4-22.7,18.1c-2.6,4.7-9.1,24.2-7.8,30.4c1.3,6.2-2.9,25.3-1.7,26.9
			c1.3,1.6,59.2,16.7,62.3,15.6c3-1.1,4.6-21.5,5.7-31.4c1.1-9.9-6.4-37-10.3-45.4C549.6,563.5,549,562.5,548.3,561.7z"/>
		<circle id="lt2" class="st12" cx="529.2" cy="578.6" r="4"/>
		<circle id="lt1" class="st12" cx="492.1" cy="740.9" r="3"/>
	</g>
	<g id="LeftCrus">
		<path class="st19" d="M487,721.8c-1.6-4.2-3.6-8.2-6.1-12c-3.7-5.1-14.2-14.3-18.3-17.3s-26.6-11.1-33.3-12.2
			c-6.6-1.2-24.6-7-30.8-10.5c-6.2-3.4-18.3-17.3-22.1-18.9c-3.8-1.6-10.6,0.8-12.4,3.3c-1.8,2.4-9.3,14.3-10.9,18.1
			s-5.9,13-8.9,17.1s-7.6,11.8-7.3,13.2c0.2,1.4,5.7,9.2,8.8,6.5c3.1-2.7,6.4-5.2,7.7-10.4c0,0,8.5-10.5,12.4-12.6
			c4-2,13.2-7.7,18.5-4.9c5.5,2.7,76.3,56.6,78.7,58.4c2.4,1.8,13.8,8.8,17,12.6s5.8,4.2,7.3,2.4C493.1,748.2,487,721.8,487,721.8z"
			/>
		<path class="st20" d="M354.8,678.6c2.9,0.5,5.8-0.8,7.4-3.3c2.4-3.2,5.2-13.6,9.1-15.6c4-2,4.6,2.2,9.6,7.2
			c5.1,5,17.7,8.1,27.1,13.8c9.4,5.8,39.5,15.6,39.5,15.6c3.8,1.6,20,13.3,24.9,18.5c4.2,4.4,6.7,11.2,7.7,13.2s9.4,5.8,9.4,5.8
			c-0.6-4-1.4-7.9-2.5-11.8c-1.6-4.2-3.6-8.2-6.1-12c-3.7-5.1-14.2-14.3-18.3-17.3c-4.1-3-26.6-11.1-33.3-12.2
			c-6.6-1.2-24.6-7-30.8-10.5c-6.2-3.4-18.3-17.3-22.1-18.9s-10.6,0.8-12.4,3.3c-1.8,2.4-9.3,14.3-10.9,18.1c-0.6,1.4-1.6,3-2.7,5.5
			L354.8,678.6z"/>
		<path class="st21" d="M488.8,728.7c-2.3-5.4-4.9-13.6-8.5-18.8c-3.7-5.1-14.6-13.9-18.9-16.6c-4.7-2.8-25.3-12-32-13.2
			c-6.6-1.2-24.6-7-30.8-10.5c-6.2-3.4-18.3-17.3-22.1-18.9s-10.6,0.8-12.4,3.3c-1.8,2.4-9.3,14.3-10.9,18.1s-5.9,13-8.9,17.1
			s-7.6,11.8-7.3,13.2c0.2,1.4,5.7,9.2,8.8,6.5c3.1-2.7,6.4-5.2,7.7-10.4c0,0,8.5-10.5,12.4-12.6c4-2,13.3-6.3,18.8-3.5
			c5.4,2.8,76.1,55.1,78.5,56.9c2.4,1.8,13.8,8.8,17,12.6s8.9,3.2,8.9,3.2"/>
		<circle id="lc2" class="st12" cx="486.8" cy="744" r="3"/>
		<circle id="lc1" class="st12" cx="372.9" cy="665.8" r="3"/>
	</g>
</g>
<g id="Torso">
	<path class="st19" d="M544.5,353.5c0,0-5,8-2,20s19,12,24,15c3.3,2,7,17,12,33c1.2,3.9,1,13-1,19c-5,15-14.1,19.5-24,33
		c-8.5,11.5-15,31.7-15,46c0,26.2,8.4,27.6,12.5,41.5c0.8,2.6-5.9,6.2-8,9c-6,8-24,30-38,41c-3.7,2.9-8.4,4-13,1c-15-10-16-22-23-37
		c-2.1-4.4-8.2-9.3-6.2-14.5c6.5-17,20.5-35.5,19.7-57c-1-28-11.5-70.5-11.5-70.5c-5-14.6-5-30.4,0-45c4-12,24-19,34-27s7-43,7-43
		s3.1-0.8,4-1c2.9-0.6,5,2,10,5s14,14,15,17S544.5,353.5,544.5,353.5z"/>
	<path class="st20" d="M494.5,447.5c-1-8,5-20,5-25s1-14-3-20s-8-24-2-28s14-8,17-14s7-18,7-25s1-14,0-18s-6-5-6-5s1,41-5.5,46.5
		s-28.3,18.4-30.4,21s-16.3,14.5-8.2,43.5s12.4,61.1,12.4,61.1s20.7,3.9,26.7,5.9s17,16,19,24s3,24,8,31S545,560,537,568
		s-21,19-29,21s-3,22-3,22s21.9-18.9,28-28s17.8-22.6,13-33s-6.8-13.6-7.1-22s0.6-32.5,5.6-39.5s9-19,21.5-30s13-26.5,13.3-30.3
		S563.6,390.9,562,389s-7-4.2-8.8-4.8s-8.6-5-9.7-7.9s-8-5.8-8-1.8s10,11,18,21s13,19,12,26s-6,30-17,34s-44,11-49,5
		C496.5,456.8,494.7,452.3,494.5,447.5z"/>
	<path class="st21" d="M512,320c0,0,3,33-7,41s-30,15-34,27c-5,14.6-5,30.4,0,45c0,0,10.5,42.5,11.5,70.5
		c0.8,21.7-12.5,40.4-18.9,57.5c-1.9,4.9,3.3,9,4.9,13.5c4,11,6.5,16.4,14,26c7,9,8.3,14.9,17,13c11.9-2.6,24.9-24.1,36-31
		c8-5,10-6,15-11c4.1-4.1,1.2-9-0.4-12.8c-4.5-10.4-11.6-16.4-11.6-39.2c0-14.3,6.5-34.5,15-46c9.9-13.5,19-18,24-33
		c2-6,2.2-15.1,1-19c-5-16-15.7-33-19-35c-5-3-14-1-17-13s2-20,2-20"/>
	<path d="M543.3,490.1c-6.2-0.5-45.9-8-62.1-11.1c-1.9-4.7-7.8-31.5-11.3-52.7c-1-5.3-1.3-10.8-0.9-16.2c0.2-2.2,0.2-4.5,0-6.8
		c-1.8-15.3,10.6-24.7,16-28c3.9-2.4,8.8-3.6,14.9-3.6c2.1,0,4.2,0.1,6.4,0.4c7.4,0.8,14.4,9.2,20.5,16.5c0.8,1,1.7,2,2.5,3
		c1.9,2.2,3.3,5.6,4.8,9.2c3.1,7.4,6.9,16.6,16.8,20.2c3.4,1.1,6.9,1.6,10.5,1.5c5.1-0.1,10.1-0.6,15.1-1.6
		c0.6,3.2,1.9,10.9,0.5,15.2c-0.3,0.9-0.6,1.8-0.9,2.7c-1.8,5.6-4,12.7-9.2,17l-0.1,0.1c-5.4,4.1-10,9.2-13.6,14.9
		c-2.4,4-4.5,8-6.4,12.2C545.6,485.8,544.3,488.4,543.3,490.1z M498.8,374.8c-4.8,0-8.7,1-11.6,2.9c-6.6,4.4-8.7,12-9.7,22.1
		c-1,10.4,6.8,21.4,12,28.7l0.2,0.4c2.9,4.1,9.4,11,19.7,11c2.2,0,4.3-0.3,6.4-0.9c11.1-3,15-7.5,16.1-18.3
		c1-10.5-2.6-20.3-5.6-28.2c-3.4-9-12.9-15.7-20.1-17C503.8,375.1,501.3,374.8,498.8,374.8z"/>
	<path d="M500,373.1L500,373.1c2.1,0,4.1,0.1,6.2,0.4c2.2,0.3,4.3,1.2,6,2.4c-1.8-0.9-3.7-1.5-5.7-1.9c-2.6-0.5-5.2-0.7-7.8-0.7
		c-5.1,0-9.2,1.1-12.4,3.2c-7.1,4.8-9.3,12.7-10.3,23.2c-1.1,11,7,22.2,12.3,29.7l0.3,0.4c3.1,4.3,9.9,11.6,20.9,11.6
		c2.3,0,4.6-0.3,6.8-1c11.7-3.2,16-8.1,17.2-19.6c1.1-10.8-2.7-20.8-5.7-28.8c0.1,0.1,0.3,0.3,0.4,0.5c1.7,2,3.1,5.3,4.6,8.9
		c3.2,7.7,7.2,17.3,17.7,21c3.6,1.1,7.3,1.7,11,1.5c4.7-0.1,9.3-0.5,13.9-1.4c0.7,3.9,1.4,9.7,0.3,13c-0.3,0.9-0.6,1.8-0.9,2.8
		c-1.7,5.5-3.8,12.2-8.8,16.3l-0.1,0.1c-5.5,4.2-10.2,9.4-13.9,15.2c-2.4,4-4.5,8.2-6.5,12.5c-1.1,2.3-2.1,4.5-3,6.1
		c-7.5-0.9-39.2-6.8-60.1-10.8c-2-5.9-7.4-30.5-10.9-51.7c-1-5.2-1.3-10.6-0.8-15.9c0.2-2.3,0.2-4.7,0-7
		c-1.7-14.5,10.1-23.4,15.3-26.6C489.6,374.2,494.2,373.1,500,373.1 M500,370.1c-6.1,0-11.4,1.2-15.7,3.8
		c-5.8,3.6-18.5,13.4-16.7,29.5c0.7,6.2-1.4,9.6,0.9,23.1c3.6,21.4,10,51,11.7,53.8c0,0,58.5,11.3,63.6,11.3c0.2,0,0.3,0,0.3-0.1
		c2.5-3.8,6.2-13.5,10.3-20c3.6-5.6,8.1-10.5,13.4-14.6c6.6-5.4,8.6-14.5,10.6-20.4s-0.8-17.5-0.8-17.5c-5.4,1.2-10.8,1.8-16.3,1.9
		c-3.4,0.1-6.8-0.4-10-1.4c-14-5-15-22-21-29c-6.9-8.1-15-19-24-20C504.3,370.3,502.2,370.2,500,370.1L500,370.1z M509.5,438.4
		c-8.1,0-14.4-4.7-18.5-10.3c-5-7-13-18-12-28s3-17,9-21c3.1-2,7-2.7,10.8-2.7c2.4,0,4.8,0.2,7.2,0.7c7.2,1.3,16,8,19,16
		s6.5,17.5,5.5,27.5c-1,9.8-4,14-15,17C513.5,438,511.5,438.3,509.5,438.4L509.5,438.4z"/>
	<path d="M497.6,613.7c-4,0-7.6-1.9-10.4-5.6c-7.3-9.5-10.3-16.8-13.4-24.5c-1.1-2.6-2.2-5.4-3.5-8.2c-0.8-1.7-1.8-3.4-2.8-5
		c-2.2-3.7-4.9-8.3-4.1-10.7c1.8-5,4.2-9.8,7.2-14.2c5,0.3,31.3,2,41.1,2.9c2.1,0.2,4.6,0.3,7.6,0.3c9,0,19.5-0.9,22.7-1.2
		c1.7,2.8,7.1,12.5,9.4,18.9c1.1,3.2-5.4,7.5-11.2,11.2c-5,3.2-9.6,6.2-11.7,9.5c-1.2,2-2.2,3.6-3,5c-4.5,7.6-4.6,7.8-19.6,18.6
		C503.6,612.6,500.7,613.6,497.6,613.7z"/>
	<path d="M471.5,547.1c6.6,0.4,30.9,2,40.2,2.9c2.1,0.2,4.7,0.3,7.7,0.3c8.4,0,17.9-0.8,21.9-1.1c2,3.5,6.8,12,8.8,17.8
		c0.7,2.1-6.3,6.7-10.6,9.4c-5.1,3.3-9.9,6.4-12.1,10c-1.2,2-2.2,3.6-3,5c-4.4,7.5-4.4,7.5-19.2,18.2c-2.2,1.6-4.9,2.6-7.6,2.6
		c-3.5,0-6.7-1.7-9.2-5c-7.2-9.3-10.1-16.5-13.2-24.2c-1.1-2.7-2.2-5.4-3.5-8.3c-0.9-1.8-1.8-3.5-2.9-5.2c-1.7-2.9-4.6-7.7-4-9.4
		C466.6,555.6,468.8,551.2,471.5,547.1 M470,544c-3.3,4.7-6,9.8-7.9,15.2c-1.5,4.3,4.6,11.8,6.9,16.8c5,11,7,20,17,33
		c3.4,4.4,7.5,6.2,11.6,6.2c3.4-0.1,6.7-1.2,9.4-3.2c18-13,15-11,23-24c4.5-7.4,25.6-14.6,23-22c-2.8-7.9-10-20-10-20
		s-12.8,1.3-23.5,1.3c-2.7,0-5.2-0.1-7.5-0.3C501,546,470,544,470,544z"/>
	<g id="Targets">
		<circle id="ruaTorso" class="st12" cx="504" cy="396" r="4"/>
		<circle id="headTorso" class="st12" cx="531" cy="328" r="4"/>
		<circle id="luaTorso" class="st12" cx="545" cy="389" r="4"/>
		<circle id="rtTorso" class="st12" cx="489" cy="575" r="4"/>
		<circle id="ltTorso" class="st12" cx="513" cy="575" r="4"/>
	</g>
</g>
<g id="Layer_7">
	<g id="RightCrus">
		<path class="st19" d="M625.3,677.7c-0.3,4.5-0.1,8.9,0.7,13.3c1.2,6.2,7.2,18.9,9.7,23.2s19.9,20.9,25.5,24.6
			c5.6,3.7,19.7,16.4,24,22s9.7,23.2,12.6,26.2c2.8,3,10.1,3.5,12.7,2.1c2.6-1.5,14.3-9.3,17.3-12.1s10.7-9.5,15.1-12
			c4.3-2.5,11.7-7.8,12.1-9.2c0.4-1.4-1.4-10.6-5.4-9.6c-4,1.1-7.9,2.2-11.3,6.4c0,0-12,6.2-16.4,6.5c-4.5,0.2-15.1,1.7-19-3
			c-3.8-4.7-46.9-82.6-48.4-85.2s-9-13.6-10.5-18.4s-3.6-6.2-5.7-5.2C630.4,651.1,625.3,677.7,625.3,677.7z"/>
		<path class="st20" d="M728.7,770.8c-2.4-1.6-5.6-1.6-8,0c-3.5,1.9-10.2,10.4-14.7,10.6c-4.4,0.2-3.3-3.9-5.9-10.4
			c-2.6-6.5-12.8-14.5-19.2-23.6c-6.3-9.1-29.8-30.2-29.8-30.2c-2.8-3-12.9-20.3-15.3-27c-2.1-5.7-1.6-12.9-1.7-15.1
			c-0.1-2.2-6.3-9.1-6.3-9.1c-1.1,3.9-1.9,7.8-2.5,11.8c-0.3,4.5,0,9,0.7,13.4c1.2,6.2,7.2,18.9,9.7,23.2s19.9,20.9,25.5,24.6
			c5.6,3.7,19.7,16.4,24,22s9.7,23.2,12.6,26.2c2.8,3,10.1,3.5,12.7,2.1c2.6-1.5,14.3-9.3,17.3-12.1c1.1-1.1,2.7-2.1,4.7-3.8
			L728.7,770.8z"/>
		<path class="st21" d="M626.5,670.7c-0.1,5.8-1,14.4,0.2,20.6c1.2,6.2,7.8,18.6,10.6,22.7c3.2,4.5,18.4,21.2,23.9,24.9
			s19.7,16.4,24,22s9.7,23.2,12.6,26.2s10.1,3.5,12.7,2.1c2.6-1.5,14.3-9.3,17.3-12.1s10.7-9.5,15.1-12c4.3-2.5,11.7-7.8,12.1-9.2
			c0.4-1.4-1.4-10.6-5.4-9.6c-4,1.1-7.9,2.2-11.3,6.4c0,0-12,6.2-16.4,6.5c-4.5,0.2-14.8,0.3-18.6-4.4s-47.3-81.3-48.8-83.9
			s-9-13.6-10.5-18.4s-6.8-6.5-6.8-6.5"/>
		<circle id="rc2" class="st12" cx="634.4" cy="660.1" r="4"/>
		<circle id="rc1" class="st12" cx="706.3" cy="773.5" r="4"/>
	</g>
	<g id="RightThigh">
		<path class="st19" d="M493.8,612.5c6,0.3,11.6,1.1,21.8,6.2c10.2,5.1,23.5,9.8,34.6,16.7s24.4,11.6,38.1,19.4
			c13.8,7.8,23.9,15.2,32.4,16.7s13.8,1.1,17.5-2.8c3.6-4,0.4-8.3,3.3-13.5c2.9-5.2-1.1-9.7-9.5-13.4s-19.4-17.3-29.9-27.8
			c-10.6-10.5-30.4-28.7-41.9-34.3c-11.6-5.6-27.9-14.3-37.7-16.3s-23.8-7.5-33.9-5.9c-10.3,1.6-20.2,4.1-25.8,15.7
			c-4.5,9.3-6.1,15.1,3.1,27.3C474.9,612.6,486.5,612.2,493.8,612.5z"/>
		<path class="st20" d="M462.1,574.2c-3.6,8.8-5.1,14.5,3.7,26.2c9.2,12.2,20.4,19.2,27.6,19.5c6,0.3,8.9-2.1,19.2,3
			c10.2,5.1,24.9,10.2,35.9,17.2c11.1,6.9,26,6.9,39.8,14.8c13.7,7.8,23.9,15.2,32.4,16.7s5.6,1.2,10.9,0.9c0,0,0.5-3.6-1.3-5
			s-7.8-9.5-12.8-10.5s-21.4-5.3-25.8-7.6c-4.4-2.3-55.6-21.1-56.8-23.8c-1.3-2.7-3.1-4.1-0.7-8.5c2.3-4.4,11.2-27.5,15.3-30.6
			s8.9-7.6,8.9-7.6s-20.9-9.8-24.4-11.6c-3.4-1.7-32.7-10.2-37.7-9.9C491.3,557.7,469,557.3,462.1,574.2z"/>
		<path class="st21" d="M645.1,653c-2.5-4.8-5.2-7.8-13.1-11.3c-8.4-3.7-19.4-17.3-29.9-27.8c-10.6-10.5-30.4-28.7-41.9-34.3
			c-11.6-5.6-27.9-14.3-37.7-16.3s-23.8-7.5-33.9-5.9c-10.3,1.6-21.1,2.3-26.6,13.8c-4.5,9.3-8.9,19.3-0.6,32s22.3,17.8,29.6,18.1
			c6,0.3,15-0.9,25.1,4.2c10.2,5.1,19.8,9.4,31.9,14.3c13.8,5.6,26.7,7.2,40.5,15s24.3,13.8,32.4,16.7c4,1.4,10.6,1,11.6,1.1"/>
		<path d="M550.4,573.3c-1,4.7-24.1,49.9-28.3,55.4c-1.7-0.8-3.3-1.7-4.8-2.7c-4.4-2.7-9.9-6-13.9-6c-5.2-0.1-21.4-1.2-27.5-4
			c-3.4-1.6-11.8-8.3-13.8-11.1c-2.2-3.1-3.9-10.3-4.1-17.7c-0.1-1.7,0-3.4,0.1-4.9c0.4-5.7,10-17.2,18.6-20.4s36.4-3.2,45.6,0
			c1.4,0.5,3.1,1.1,4.9,1.7C534.1,566,548.8,571,550.4,573.3z"/>
		<path d="M456.4,587.2l3-0.1c-0.1-1.7,0-3.3,0.1-4.8c0.3-5.1,9.8-16.2,17.6-19.1c8.5-3.2,35.6-3.1,44.5,0c1.4,0.5,3.1,1.1,4.9,1.7
			c6.3,2.1,18.9,6.4,22.1,8.8c-2.6,7.6-22.2,45.1-27.1,53c-1-0.5-2.4-1.4-3.5-2.1c-4.6-2.7-10.2-6.2-14.7-6.3
			c-4.9-0.1-21.1-1.2-26.9-3.9c-3.5-1.6-11.5-8.2-13.2-10.6c-2.1-2.9-3.6-9.8-3.8-16.9L456.4,587.2 M456.4,587.2
			c0.2,7.4,1.8,15,4.4,18.6c2.1,2.9,10.6,9.8,14.4,11.6c6.8,3.1,24.1,4.1,28.1,4.1c6.3,0.1,17.6,9.6,19.4,8.8
			c1.8-0.9,29.3-53.5,29.2-57.1l0,0c-0.4-3.1-20-9.3-29.3-12.6s-37.3-3.5-46.6,0c-8.7,3.3-19.1,15.1-19.6,21.7
			C456.4,583.8,456.4,585.5,456.4,587.2L456.4,587.2z"/>
		<circle id="rt2" class="st12" cx="486.2" cy="586" r="4"/>
		<circle id="rt1" class="st12" cx="634.6" cy="659.4" r="4"/>
	</g>
</g>
<g id="Layer_8">
	<path class="st19" d="M548.5,355.5c0,0-18-6-19-9s-6-26-8-27s-13-2-15-5s-4-12-3-16s7-9,10-9s9,3,12,6s11,0,13-3s8-12,13-15
		s10-10,15-9s16,6,17,9s3,10,2,15s-5,12-5,15c0,6,6,9,7,13s-2,6-4,7c-1.3,0.6-4,2-4,5s1,9-2,12c-2.5,2.5-4,8-4,10c0,5-6,7-9,7
		C562.5,361.5,548.5,355.5,548.5,355.5z"/>
	<path class="st20" d="M555.1,358.2c-3.5-1.4-6.6-2.7-6.6-2.7s-18-6-19-9s-6-26-8-27s-13-2-15-5s-4-12-3-16s7-9,10-9s9,3,12,6
		s11,0,13-3s8-12,13-15s10-10,15-9c3.5,0.9,6.8,2.1,10,3.8c0,0-24.5,22.3-26,42.2C548.5,340.5,555.1,358.2,555.1,358.2z"/>
	<path class="st21" d="M548.5,355.5c0,0-17.4-6.2-19-9c-4-7-6-26-8-27s-13-2-15-5s-4-12-3-16s7-9,10-9s9,3,12,6s11,0,13-3
		s8-12,13-15s10-10,15-9s16,6,17,9s3,10,2,15s-5,12-5,15c0,6,6,9,7,13s-2,6-4,7c-1.3,0.6-4,2-4,5s1,9-2,12c-2.5,2.5-4,8-4,10
		c0,5-6,7-9,7C562.5,361.5,548.5,355.5,548.5,355.5z"/>
	<path class="st22" d="M520.5,301.5c1-2-5.7-7.9-9,1c-3,8,3.3,9.7,5,8"/>
	<path d="M582,303l-1,10c0,0-41.6-4.2-47-13c-8.9-14.5,46-30,46-30s4.4,11,5.2,15.3S582,303,582,303z"/>
	<path class="st6" d="M488.5,268.5c0,0,4,2,4,6s-5,14-5,21s1,17,5,24s9,15,12,16s7,0.7,7.5-1.7s1.5-12.3-1.5-15.3s-7-5-8-14
		s6-16,10-16s12,3,14,6s28,0,37-5s23-13,22-18s-7-15-15-17c-8-2-19-5-27-5s-24,5-28,9c-4,4-16-1-16-1L488.5,268.5z"/>
	<circle id="h1" class="st12" cx="531" cy="328" r="4"/>
	<circle id="h2" class="st12" cx="481" cy="253" r="4"/>
	<path class="st23" d="M579,278c0,0-12-11-17-13s-25-3-25-3s7,6,8,8s-8-3-15-4c-4-0.6-8.1-0.3-12,1c0,0,6,5,9,5s7,3,7,3h-14
		c-3,0.2-6,0.5-9,1l6,6c0,0-8-2-10-2s-7,3-7,3l4,4c-1.1,0.5-2.1,1.2-3,2c-1,1-2,4-2,4l-2-6c0,0-1,14,0,17s5,10,6,14
		c0.6,2.6,0.6,5.4,0,8c0,0-2-8-5-9c-2-0.6-4-0.6-6,0c0,0,4.3,11.8,6.6,12.4s6.4,6.6,8.4,6.6s6-1,5-6c-0.6-3.6-1-7.3-1-11
		c0,0-5.4-4.4-6.2-6.7s-3.6-10-1.7-14.2s5.3-9.7,8.1-9.4c2.8,0.3,11.9,1.2,14.9,5.2S541,296,541,296s19.5-4.8,23.2-6.9
		S579,278,579,278z"/>
	<path class="st24" d="M488.5,268.5c0,0,4,2,4,6s-5,14-5,21s1,17,5,24s9,15,12,16s7,0.7,7.5-1.7s1.5-12.3-1.5-15.3s-7-5-8-14
		s6-16,10-16s12,3,14,6s28,0,37-5s23-13,22-18s-7-15-15-17c-8-2-19-5-27-5s-24,5-28,9c-4,4-16-1-16-1L488.5,268.5z"/>
	<g id="HairBand">
		<line class="st25" x1="488" y1="273" x2="504" y2="256"/>
		<line class="st25" x1="487" y1="268" x2="499" y2="254"/>
		<line class="st25" x1="480" y1="266" x2="496" y2="249"/>
		<line class="st25" x1="476" y1="262" x2="490" y2="247"/>
	</g>
</g>
<g id="Layer_9">
	<path class="st6" d="M340,319c5-3,5-8,8-17s14-15,28-23s19-15,22-21c3-6,20-19,30-26s28-10,39-13s23,5,26,9s2,13-1,15s-17,20-17,23
		s-13,20-19,24s-16,6-23,10c-4.6,2.6-12.3,11.4-17,17l-1,2c-1.7,5.1-3.7,10.1-6,15c-3,6-17,18-23,24s-21,15-21,15s4-7,5-10s0-7,0-7
		s-9,11-15,18s-25,18-36,24s-28,11-40,14c-2,0.5-7,2-7,2c-1.9,1.1-3,1.6-4,3c-3,4-7.2,6.8-12,8c-4.4,1-8.6,3-12,6c-2,2-32,13-33,10
		s14-33,19-43s20-17,25-20s20-7,27-10s26-7,30-8s6-8,6-8s-9,0-10-3s-6-3-9-3s-7,5-6-1s8-8,11-11s12-10,17-12S335.9,321.5,340,319z"
		/>
	<path class="st26" d="M296.4,339.5c0,0,8.6-2.5,13.6,0.5s4,6,7,6s8-3,10-1s1,5-3,8s-8,7-9,9s-9,6-12,5c-1.9-0.7-3.5-2.1-4.5-3.9
		c0,0,14.5-2.1,16.5-6.1s1.7-5.3-1.7-5.2c-2.7,0-5.3-1-7.3-2.8c-2.8-2.8-7.1-3.5-10.6-1.7C290,350,296.4,339.5,296.4,339.5z"/>
	<path class="st26" d="M345,311.2c0,0,10-6.2,14-9.2s11-5,12-7s3-3,5-2s-1,7-4,10s-10,10-15,12c-2.9,1.2-6,1.7-9.1,1.5L345,311.2z"
		/>
	<path class="st26" d="M294.2,382.2c0,0,3.8-3.2,4.8-1.2s-7,12-7,14s-1,4,2,3s29-11,38-20s38-38,39-43s2-8,4-7s2,6,1,9s-1,11,0,13
		s20-16,23-25s14-33,17-37s4-15,8-15s2,11,5,13s19-7,27-15s18-24,22-26s9.1,3.1,9.1,3.1s-16.3,26-19.7,29.9s-12.3,15.5-27.4,18.7
		s-24.8,22.6-27.9,29.4s-19,27.5-30.6,35.6s-15.4,10.5-15.4,10.5S371,361,370,359s-3-2-5,2s-13,19-29,28s-41.5,20.1-55.2,22.5
		s-23.4,1-23.4,1s14.2-5.9,21.9-13.7S294.2,382.2,294.2,382.2z"/>
	<path class="st26" d="M226.8,404.4c0.8,2.1,0.8,4.4,0.2,6.6c-1,4-4,13-1,15s24-8,27-11s16-1,16-1c-5.5,6.5-12.7,11.4-20.8,14
		c-13.2,4-28.4,13.1-32.3,13s-4.4-3-4.4-3L226.8,404.4z"/>
	<path class="st27" d="M419,291c0,0-1,13-2,16l-5,15c0,0,14-18,21-22s17-6,23-10s19-21,19-24s14-21,17-23s4-11,1-15s-15-12-26-9
		s-29,6-39,13s-27,20-30,26c-3,6-8,13-22,21s-25,14-28,23s-4,14-8,17"/>
	<path class="st27" d="M371,299c0,0-18,17-29,20s-16,1-21,3s-14,9-17,12s-10,5-11,11s3,1,6,1s8,0,9,3s10,3,10,3s-2,7-6,8s-23,5-30,8
		s-22,7-27,10s-20,10-25,20s-20,40-19,43s31-8,33-10c3.4-3,7.6-5,12-6c4.8-1.2,9-4,12-8c2-3,8-4,8-4"/>
	<path class="st27" d="M296,380c0,0-23,28-31,30s-11,2-11,2s13,3,25,0s29-8,40-14s30-17,36-24s15-18,15-18s1,4,0,7s-5,10-5,10
		s15-9,21-15s20-18,23-24s6-17,6-17"/>
	<circle id="hair1" class="st12" cx="481" cy="253" r="4"/>
	<circle id="hair2" class="st12" cx="271" cy="396" r="4"/>
</g>
<g id="Layer_4">
	<g id="RightLowerArm">
		<path class="st19" d="M412.4,443.7c6.7,1.3,10.5,8.6,17.5,24.1c13.6,29.8,15.4,58.2,22,66.9c2.1,2.8,8.1,6.3,11.5,7.9
			c2.4,0.9,4.3,2.7,5.5,4.9c1.4,2.2-0.7,8.3,3,12.7c3.7,4.5,5.5,4.9,5,7.6c-0.3,1.5-1.7,2.4-3.1,2.2l-0.1,0c0.7,1.8,0.3,3.9-1.1,5.4
			c-2.3,2.3-4.5-0.9-4.5-0.9c1.3,1.2,1.3,3.2,0,4.6l-0.1,0.1c-2.3,2.3-4.5-0.9-4.5-0.9s1.6,1.3-0.7,3.6c-2.3,2.3-5.4-1.1-7.7-3.4
			c-3.4-3.3-6.1-7.4-7.9-11.8c-1.8-5.1-0.9-9.5-3.6-14.7c-2.7-5.2-27.7-42.6-38.3-69.3c-10.5-26.4-11.5-31.7-8.4-37.1
			C400.3,440.2,406.2,442.5,412.4,443.7z"/>
		<path class="st20" d="M404.6,442.6c0,0-0.5,5.1,2,6.4c2.6,1.2,6.9,1.9,10.8,10c3.9,8.1,17.4,35.3,19.7,45
			c2.2,9.8,6.5,25.3,8.5,27.7c2,2.5,4.2,6,2.6,7.6c-1.6,1.5-3.8,4.5-2.5,5.1c1.3,0.6,6.3-3.2,8.9-2c2.6,1.2,7,8.2,9.6,9.4
			c2.6,1.2,5.6,2.4,5.6,2.4s0-5.5-1.6-8.1c-1.6-2.7-12.9-6.9-14.8-10s-6.5-11.3-7.5-18.3c-1-6.9-12.4-44.6-17.1-52.9
			c-4.7-8.3-8.8-18.5-12.7-19.8C412.3,444.1,408.4,443.3,404.6,442.6z"/>
		<path class="st28" d="M412.4,443.7c6.7,1.3,10.5,8.6,17.5,24.1c13.6,29.8,15.4,58.2,22,66.9c2.1,2.8,8.1,6.3,11.5,7.9
			c2.4,0.9,4.3,2.7,5.5,4.9c1.4,2.2-0.7,8.3,3,12.7c3.7,4.5,5.5,4.9,5,7.6c-0.3,1.5-1.7,2.4-3.1,2.2l-0.1,0c0.7,1.8,0.3,3.9-1.1,5.4
			c-2.3,2.3-4.5-0.9-4.5-0.9c1.3,1.2,1.3,3.2,0,4.6l-0.1,0.1c-2.3,2.3-4.5-0.9-4.5-0.9s1.6,1.3-0.7,3.6c-2.3,2.3-5.4-1.1-7.7-3.4
			c-3.4-3.3-6.1-7.4-7.9-11.8c-1.8-5.1-0.9-9.5-3.6-14.7c-2.7-5.2-27.7-42.6-38.3-69.3c-10.5-26.4-11.5-31.7-8.4-37.1
			C400.3,440.2,406.2,442.5,412.4,443.7z"/>
		<circle id="rla2" class="st12" cx="408.8" cy="446.9" r="3"/>
		<circle id="rla1" class="st12" cx="458.6" cy="558" r="3"/>
	</g>
	<g id="RightUpperArm">
		<path class="st19" d="M431.4,413.8c0,0,11.7-12.5,21.2-16.4c9.5-4.1,35.1-17.3,42.2-18.6c7.2-1.2,13.3-1.6,16.8,2.8
			c3.6,4.4,4.3,13.7,2.5,16.9c-2.4,4.3-8.9,11-14.6,14.6c-9.7,6-20.3,17.1-29.7,21.4c-15.9,7.3-31,7.8-39.5,11.9
			c-2.9,1.4-4.7,3.1-8.8,3.9c-4.3,0.7-10.4-1.3-14.8-1c-3.2,0.2-6.5,5.1-9.3,3.8c-10.8-5.2,16.5-32.4,32.1-36.9"/>
		<path class="st20" d="M502.7,410.7c0,0-0.8-3.4-3.9-3c-3.1,0.3-8.6,2.8-12.8,5.7c-4.1,3-21.7,15.2-32.1,18.8
			c-10.4,3.6-27.7,11.4-31.3,10.8s-9.4,1-12.2,2.2c-2.4,1.2-4.7,2.6-6.9,4.3c0,0,1.8-0.5,6.7,0.2c3.6,0.6,9.4,1.2,11.2,0.5
			c0,0,11.6-5.4,17.8-6.5s21.5-3.5,28.2-7.1c6.6-3.6,15.6-14.8,22-17.9C494,416.3,498.5,413.6,502.7,410.7z"/>
		<path class="st21" d="M429.4,416c-14,4-36.6,25.6-33.5,33.6c0.6,1.1,1.1,2.2,1.8,3.3"/>
		<path class="st21" d="M421.2,450.7c3.2-1.7,6.7-3.4,9.1-4.5c8.5-4.1,22.2-2.8,38.1-10.1c8.8-4.1,18.2-18.1,28.6-21.7"/>
		<path class="st21" d="M422.2,423.9c0,0,24.9-24.5,33.9-29.5c9.8-5.4,31.6-15.1,38.7-15.7c7.2-0.7,13.3-1.6,16.8,2.8
			c2.2,2.8,2.7,3.2,3.4,7.2"/>
		<line class="st29" x1="464.1" y1="389.2" x2="485.2" y2="423.5"/>
		<circle id="rua1" class="st12" cx="499.5" cy="391.9" r="4"/>
		<circle id="rua2" class="st12" cx="406" cy="445" r="3"/>
	</g>
</g>
</svg>
