<?xml version="1.0" encoding="UTF-8" standalone="no"?>
<!-- Generator: Adobe Illustrator 28.1.0, SVG Export Plug-In . SVG Version: 6.00 Build 0)  -->

<svg
   version="1.1"
   id="Layer_1"
   x="0px"
   y="0px"
   viewBox="0 0 1024 1024"
   style="enable-background:new 0 0 1024 1024;"
   xml:space="preserve"
   sodipodi:docname="jump-frame-03.svg"
   inkscape:version="1.4 (e7c3feb, 2024-10-09)"
   xmlns:inkscape="http://www.inkscape.org/namespaces/inkscape"
   xmlns:sodipodi="http://sodipodi.sourceforge.net/DTD/sodipodi-0.dtd"
   xmlns:xlink="http://www.w3.org/1999/xlink"
   xmlns="http://www.w3.org/2000/svg"
   xmlns:svg="http://www.w3.org/2000/svg"><sodipodi:namedview
   id="namedview1"
   pagecolor="#ffffff"
   bordercolor="#000000"
   borderopacity="0.25"
   inkscape:showpageshadow="2"
   inkscape:pageopacity="0.0"
   inkscape:pagecheckerboard="0"
   inkscape:deskcolor="#d1d1d1"
   inkscape:zoom="1.2666016"
   inkscape:cx="512.39476"
   inkscape:cy="512.39476"
   inkscape:window-width="2564"
   inkscape:window-height="1490"
   inkscape:window-x="26"
   inkscape:window-y="23"
   inkscape:window-maximized="0"
   inkscape:current-layer="g2" /><defs
   id="defs76">
	
        

	
        

		
        
        
        
        
	
		
            
            
            
            
            
            
	
		
        
        
        
        
        
        
	
		
            
            
            
			
	</defs>
    
    <style
   type="text/css"
   id="style1">
	.st0{fill:#808080;}
	.st1{fill:none;stroke:#000000;stroke-width:2.15;stroke-miterlimit:10;}
	.st2{fill:#B3B3B3;}
	.st3{fill:none;stroke:#000000;stroke-width:2.29;stroke-miterlimit:10;}
	.st4{fill:none;stroke:#000000;stroke-width:1.21;stroke-miterlimit:10;}
	.st5{fill:none;stroke:#000000;stroke-width:1.56;stroke-miterlimit:10;}
	.st6{fill:#FFFFFF;}
	.st7{fill:#808080;stroke:#000000;stroke-width:2.14;stroke-miterlimit:10;}
	.st8{fill:#B3B3B3;stroke:#000000;stroke-width:1.86;stroke-miterlimit:10;}
	.st9{fill:#B3B3B3;stroke:#000000;stroke-width:2.6;stroke-miterlimit:10;}
	.st10{fill:#808080;stroke:#000000;stroke-width:2.44;stroke-miterlimit:10;}
	.st11{fill:none;stroke:#000000;stroke-width:3.54;stroke-linecap:round;stroke-miterlimit:10;}
	.st12{fill:#FF0000;}
	.st13{fill:#B3B3B3;stroke:#000000;stroke-width:2.27;stroke-miterlimit:10.001;}
	.st14{fill:#808080;stroke:#000000;stroke-width:2.27;stroke-miterlimit:10;}
	.st15{fill:#B3B3B3;stroke:#000000;stroke-width:1.7;stroke-miterlimit:9.999;}
	.st16{fill:#808080;stroke:#000000;stroke-width:2.05;stroke-miterlimit:10;}
	.st17{fill:#B3B3B3;stroke:#000000;stroke-width:2.27;stroke-miterlimit:10;}
	.st18{fill:#B3B3B3;stroke:#000000;stroke-width:2.27;stroke-miterlimit:9.9999;}
	.st19{fill:#959595;}
	.st20{fill:#828282;}
	.st21{fill:none;stroke:#000000;stroke-width:3;stroke-linecap:round;stroke-miterlimit:10;}
	.st22{fill:none;stroke:#696969;stroke-width:5;stroke-linecap:round;stroke-miterlimit:10;}
	.st23{fill:#DEDEDE;stroke:#DEDEDE;stroke-width:2;stroke-linecap:round;stroke-linejoin:round;}
	.st24{fill:none;stroke:#000000;stroke-width:4;stroke-linecap:round;stroke-miterlimit:10;}
	.st25{fill:none;stroke:#000000;stroke-width:8;stroke-linecap:round;stroke-miterlimit:10;}
	.st26{fill:#DEDEDE;}
	.st27{fill:none;stroke:#000000;stroke-width:4;stroke-linecap:round;stroke-linejoin:round;}
	.st28{fill:none;stroke:#000000;stroke-width:3;stroke-linejoin:round;}
	.st29{fill:none;stroke:#DEDEDE;stroke-width:4;stroke-linecap:round;stroke-miterlimit:10;}
</style>
    <g
   id="Layer_10">
	<g
   id="LeftLowerArm">
		<g
   id="Hand">
			<polygon
   class="st0"
   points="726.9,434 733.8,445 756.4,440.2 760.8,437.1 746.9,415.2    "
   id="polygon1" />
            <polygon
   class="st1"
   points="726.9,434 733.8,445 756.4,440.2 760.8,437.1 746.9,415.2    "
   id="polygon2" />
            <polygon
   class="st2"
   points="742.5,419.4 739,431.9 730.3,439.5 724.6,430.5 738,416.5    "
   id="polygon3" />
            <polygon
   class="st3"
   points="742.5,419.4 739,431.9 730.3,439.5 724.6,430.5 738,416.5    "
   id="polygon4" />
            <path
   class="st2"
   d="M735.7,418.1l5.5-6.6c1-1.2,2.8-1.3,4-0.3l0.3,0.3c1.2,1,1.3,2.8,0.3,4l-5.5,6.6c-1,1.2-2.8,1.3-4,0.3     l-0.3-0.3C734.9,421.1,734.7,419.3,735.7,418.1z"
   id="path4" />
            <path
   class="st4"
   d="M735.8,418.2l5.5-6.6c1-1.2,2.8-1.3,4-0.3l0,0l0.2,0.2c1.2,1,1.3,2.8,0.3,4l-5.5,6.6c-1,1.2-2.8,1.3-4,0.3     l0,0l-0.2-0.2C735,421.1,734.8,419.4,735.8,418.2z"
   id="path5" />
            <path
   class="st2"
   d="M740,420.2l12.2-7.7c1.3-0.9,3.1-0.4,3.9,0.9l0.2,0.3c0.9,1.3,0.4,3.1-0.9,3.9l-12.2,7.7     c-1.3,0.9-3.1,0.4-3.9-0.9l-0.2-0.3C738.2,422.7,738.6,421,740,420.2z"
   id="path6" />
            <path
   class="st5"
   d="M740,420.2l12.2-7.7c1.3-0.9,3.1-0.4,3.9,0.9l0,0l0.2,0.3c0.9,1.3,0.4,3.1-0.9,3.9l-12.2,7.7     c-1.3,0.9-3.1,0.4-3.9-0.9l0,0l-0.2-0.3C738.2,422.7,738.6,421,740,420.2L740,420.2z"
   id="path7" />
            <path
   class="st2"
   d="M741.9,411.9l0.2-0.3c0.8-1.4,2.4-1.9,3.8-1.2l7.7,4.1c1.4,0.8,1.9,2.4,1.2,3.8l-0.2,0.3     c-0.8,1.4-2.4,1.9-3.8,1.2l-7.7-4.1C741.7,414.9,741.2,413.2,741.9,411.9z"
   id="path8" />
            <path
   class="st4"
   d="M742,411.9l0.1-0.3c0.8-1.4,2.4-1.9,3.8-1.2l7.7,4.1c1.4,0.8,1.9,2.4,1.2,3.8l-0.1,0.3     c-0.8,1.4-2.4,1.9-3.9,1.2l0,0l-7.7-4.1C741.8,415,741.3,413.3,742,411.9L742,411.9z"
   id="path9" />
            <path
   class="st2"
   d="M743.9,426.3l13.1-8.3c1.3-0.9,3.1-0.4,3.9,0.9l0.2,0.3c0.9,1.3,0.4,3.1-0.9,3.9l-13.1,8.3     c-1.3,0.9-3.1,0.4-3.9-0.9l-0.2-0.3C742.1,428.9,742.5,427.2,743.9,426.3z"
   id="path10" />
            <path
   class="st5"
   d="M743.8,426.4l13-8.2c1.3-0.9,3.1-0.4,3.9,0.9l0.2,0.2c0.9,1.3,0.4,3.1-0.9,3.9l-13,8.2     c-1.3,0.9-3.1,0.4-3.9-0.9l0,0l-0.2-0.3C742,429,742.5,427.2,743.8,426.4L743.8,426.4L743.8,426.4z"
   id="path11" />
            <path
   class="st2"
   d="M747.7,432.5l12.2-7.7c1.3-0.9,3.1-0.4,3.9,0.9l0.2,0.3c0.9,1.3,0.4,3.1-0.9,3.9l-12.2,7.7     c-1.3,0.9-3.1,0.4-3.9-0.9l-0.2-0.3C746,435.1,746.4,433.3,747.7,432.5z"
   id="path12" />
            <path
   class="st5"
   d="M747.7,432.5l12.2-7.7c1.3-0.9,3.1-0.4,3.9,0.9l0,0l0.2,0.3c0.9,1.3,0.4,3.1-0.9,3.9l-12.2,7.7     c-1.3,0.9-3.1,0.4-3.9-0.9l0,0l-0.2-0.3C746,435.1,746.4,433.3,747.7,432.5z"
   id="path13" />
            <path
   class="st2"
   d="M752.4,437.5l10.6-6.7c1.1-0.7,2.5-0.3,3.2,0.8l0.2,0.2c0.7,1.1,0.3,2.5-0.8,3.2l-10.6,6.7     c-1.1,0.7-2.5,0.3-3.2-0.8l-0.2-0.2C751,439.7,751.3,438.2,752.4,437.5z"
   id="path14" />
            <path
   class="st5"
   d="M752.4,437.6l10.6-6.7c1.1-0.7,2.5-0.3,3.2,0.8l0.2,0.2c0.7,1.1,0.3,2.5-0.8,3.2l-10.6,6.7     c-1.1,0.7-2.5,0.3-3.2-0.8l-0.2-0.2C751,439.7,751.4,438.3,752.4,437.6z"
   id="path15" />
		</g>
        <polygon
   points="738.4,433.9 743.9,436.4 758.5,418.3 723.4,440.4 720,434.9 755,412.9 732.4,418.1 732.3,424.2 715.9,416.6     759.2,406.6 760,408 772.7,405.5 765.1,415.9 765.9,417.3 738.1,452   "
   id="polygon15" />
        <path
   class="st6"
   d="M771.8,406.2l-7.1,9.8l0.8,1.4l-26.9,33.5l0.2-16.2l5.3,2.4l16.3-20.2l-36.8,23.1l-1.5-2.4l-1.5-2.4    l36.8-23.1l-25.3,5.9l-0.1,5.8l-14.7-6.8l41.9-9.7l0.8,1.4L771.8,406.2 M773.6,405l-2,0.4l-11.4,2.1l-0.5-0.9l-0.3-0.5l-0.5,0.2    l-41.9,9.7l-2.3,0.6l2.1,0.9l14.7,6.8l1.1,0.5l0-1.3l0.1-5.2l20-4.7L720,434.4l-0.7,0.4l0.4,0.7l1.5,2.4l1.6,2.4l0.4,0.7l0.7-0.4    l32.7-20.6l-12.9,15.9l-4.7-2.1l-1.1-0.5l0,1.3l-0.2,16.2l-0.1,2.4l1.5-1.8l26.9-33.5l0.4-0.5l-0.3-0.5l-0.5-0.9l6.9-9.3    L773.6,405L773.6,405z"
   id="path16" />

        <image
   style="overflow:visible;enable-background:new    ;"
   width="18"
   height="29"
   xlink:href="C17E5358.png"
   transform="matrix(0.9818 0.19 -0.19 0.9818 629.7028 477.669)"
   id="image16">
		</image>

        <rect
   x="646"
   y="455.9"
   transform="matrix(0.8463 -0.5327 0.5327 0.8463 -141.5826 434.0202)"
   class="st7"
   width="70.9"
   height="13"
   id="rect16" />

        <rect
   x="624.3"
   y="494.8"
   transform="matrix(0.8463 -0.5327 0.5327 0.8463 -168.1738 416.73)"
   class="st8"
   width="27.8"
   height="10"
   id="rect17" />

        <image
   style="overflow:visible;enable-background:new    ;"
   width="51"
   height="24"
   xlink:href="C17E5359.png"
   transform="matrix(0.9818 0.19 -0.19 0.9818 662.2599 446.2839)"
   id="image17">
		</image>

        <image
   style="overflow:visible;enable-background:new    ;"
   width="47"
   height="35"
   xlink:href="C17E535F.png"
   transform="matrix(0.9818 0.19 -0.19 0.9818 661.3733 429.8154)"
   id="image18">
		</image>

        <image
   style="overflow:visible;enable-background:new    ;"
   width="53"
   height="59"
   xlink:href="C17E535A.png"
   transform="matrix(0.9818 0.19 -0.19 0.9818 667.264 430.9554)"
   id="image19">
		</image>
        <path
   class="st9"
   d="M653.5,495.9l-8.6-13.6c-3.4-5.4-1.8-12.7,3.7-16l7.6-4.8l5.9,9.5l-4.6,2.9c-2.1,1.3-2.8,4.2-1.4,6.3    l6.4,10.1L653.5,495.9z"
   id="path19" />
        <polygon
   class="st10"
   points="693.7,446.8 704.4,463.9 713.4,458.1 720,461.3 736.2,451.1 722.2,428.9   "
   id="polygon19" />
        <line
   class="st11"
   x1="718.9"
   y1="443.6"
   x2="730.7"
   y2="450.1"
   id="line19" />
        <line
   class="st11"
   x1="713.4"
   y1="447"
   x2="725.2"
   y2="453.6"
   id="line20" />
        <line
   class="st11"
   x1="708"
   y1="450.5"
   x2="719.7"
   y2="457.1"
   id="line21" />
        <path
   class="st9"
   d="M716.4,434.1l0.3,0.4c1.2,1.9,0.7,4.5-1.3,5.8l-28.9,18.2c-1.9,1.2-4.5,0.7-5.8-1.3l-0.3-0.4    c-1.2-1.9-0.7-4.5,1.3-5.8l28.9-18.2C712.7,431.5,715.2,432.1,716.4,434.1z"
   id="path21" />
        <circle
   id="lla1"
   class="st12"
   cx="627.2"
   cy="497.7"
   r="3" />
        <circle
   id="lla2"
   class="st12"
   cx="744"
   cy="430"
   r="3" />
	</g>
        <g
   id="UpperArm">
		
			<rect
   x="592.7"
   y="473.6"
   transform="matrix(0.7338 -0.6794 0.6794 0.7338 -181.0685 537.9036)"
   class="st13"
   width="6.2"
   height="52.7"
   id="rect21" />
            <path
   class="st14"
   d="M617,501.6l-7.2,13.4c-1.1,2.1-0.9,4.7,0.8,6.5l0,0c1.6,1.8,4.1,2.3,6.3,1.3l14-6.2L617,501.6z"
   id="path22" />

            <image
   style="overflow:visible;enable-background:new    ;"
   width="87"
   height="116"
   xlink:href="C17E535B.png"
   transform="matrix(0.9754 -0.2203 0.2203 0.9754 536.4805 422.3051)"
   id="image22">
		</image>
            <path
   class="st14"
   d="M551.2,442.1l31.5,34.1c2.4,2.5,2.2,6.4-0.3,8.8l0,0c-2.5,2.4-6.4,2.2-8.8-0.3L542,450.6    c-2.4-2.5-2.2-6.4,0.3-8.8l0,0C544.9,439.5,548.8,439.6,551.2,442.1z"
   id="path23" />

            <rect
   x="572.8"
   y="393.8"
   transform="matrix(0.9091 -0.4165 0.4165 0.9091 -125.2847 278.2556)"
   class="st15"
   width="4.5"
   height="64.8"
   id="rect23" />
            <path
   class="st14"
   d="M556.1,412.1l7.2-13.4c1.1-2.1,0.9-4.7-0.8-6.5l0,0c-1.6-1.8-4.1-2.3-6.3-1.3l-14,6.2L556.1,412.1z"
   id="path24" />
            <polygon
   class="st16"
   points="613.8,496.1 541.1,417.6 549.6,409.6 591.2,454.6 616.9,488.6   "
   id="polygon24" />

            <ellipse
   transform="matrix(9.465324e-02 -0.9955 0.9955 9.465324e-02 81.0933 911.8221)"
   class="st17"
   cx="541.9"
   cy="411.3"
   rx="15.9"
   ry="15.9"
   id="ellipse24" />

            <ellipse
   transform="matrix(9.465320e-02 -0.9955 0.9955 9.465320e-02 81.0933 911.8221)"
   class="st14"
   cx="541.9"
   cy="411.3"
   rx="7.4"
   ry="7.4"
   id="ellipse25" />

            <image
   style="overflow:visible;enable-background:new    ;"
   width="76"
   height="83"
   xlink:href="C17E5356.png"
   transform="matrix(0.9754 -0.2203 0.2203 0.9754 532.1696 430.4547)"
   id="image25">
		</image>

            <image
   style="overflow:visible;enable-background:new    ;"
   width="79"
   height="70"
   xlink:href="C17E5357.png"
   transform="matrix(0.9754 -0.2203 0.2203 0.9754 531.8862 442.8208)"
   id="image26">
		</image>
            <path
   class="st14"
   d="M627.9,514.3l-16.1-17.4c-1-1.1-0.9-2.8,0.2-3.8l0,0l8.6-8c0.6-0.5,1.5-0.5,2,0.1l0,0l9.4,10.1    c0.3,0.3,0.4,0.7,0.4,1.1l-2,17.1c-0.1,0.8-0.7,1.3-1.5,1.3C628.5,514.8,628.2,514.6,627.9,514.3z"
   id="path26" />
            <ellipse
   class="st18"
   cx="628.5"
   cy="504.9"
   rx="14.2"
   ry="14.2"
   id="ellipse26" />
            <polygon
   class="st17"
   points="526.3,414.6 534.8,417.1 543.7,426.7 532.2,437.3 518.2,422.4   "
   id="polygon26" />
            <path
   class="st17"
   d="M523.3,410.1l12.3,13.3c0,0-2.6,2.5-2.8,5.7c-0.1,3.2-0.6,5.2,2.1,8.1l4.7,5l-5.8,5.4l-23.5-25.3    L523.3,410.1z"
   id="path27" />
            <circle
   id="lua2"
   class="st12"
   cx="542.1"
   cy="411.4"
   r="3" />
            <circle
   id="lua1"
   class="st12"
   cx="628.7"
   cy="504.9"
   r="3" />
	</g>
</g>
    <g
   id="g2"
   transform="rotate(-39.302715,528.12751,592.40817)"><g
     id="g5"><path
       class="st19"
       d="m 506.24253,596.28806 c 4.18901,4.28278 7.74321,8.64943 11.82755,19.29453 4.03264,10.7307 10.61535,23.23541 14.14529,35.76536 3.52994,12.52994 10.06094,25.12026 14.86962,40.17505 4.80868,15.05478 7.24195,27.27277 12.4351,34.14818 5.33044,6.84152 9.3678,10.2149 14.78856,9.75082 5.42076,-0.46409 13.63402,0.0577 15.40063,-5.76805 1.85221,-5.77402 1.94994,-9.80397 -1.59214,-18.25226 -3.54207,-8.4483 -2.51289,-25.81812 -3.20603,-40.72348 -0.69314,-14.90535 -2.77459,-41.63113 -7.55805,-53.63316 -4.74956,-11.86472 -10.83699,-29.44435 -16.60975,-37.48768 -5.77277,-8.04333 -12.40372,-21.62863 -20.82428,-27.41604 -8.64346,-5.80522 -17.63277,-10.65107 -29.4975,-5.90151 -9.54669,3.81321 -14.59811,6.95378 -16.16955,22.1268 -1.86386,15.4637 6.9117,22.98431 11.99055,27.92144 z"
       id="path28" /><path
       class="st20"
       d="m 509.06461,546.93893 c -8.53562,4.07347 -13.58704,7.21404 -15.01945,21.77007 -1.62315,15.25862 1.94068,27.92587 7.08732,33.1376 4.189,4.28278 8.06383,4.6373 12.06258,15.23069 4.03264,10.7307 11.41786,24.42115 14.67321,37.01888 3.42653,12.70113 14.42412,22.73224 19.2328,37.78702 4.80868,15.05479 7.24195,27.27277 12.4351,34.14818 5.33044,6.84152 3.26179,4.65733 7.47034,8.13413 0,0 2.73339,-2.20422 2.41402,-4.38321 -0.31937,-2.17899 0.80849,-12.3627 -2.28384,-16.33353 -2.90333,-4.09031 -12.0361,-18.36905 -13.71981,-23.12459 -1.64982,-4.61824 -26.52724,-53.17505 -25.57528,-56.10486 0.95195,-2.92981 0.49528,-5.0749 5.11352,-6.72472 4.61824,-1.64982 26.89428,-12.61101 31.91749,-12.03013 5.0232,0.58088 11.71182,0.53216 11.71182,0.53216 0,0 -8.78567,-21.42923 -10.06094,-25.12026 -1.27528,-3.69102 -17.04419,-29.8058 -20.92817,-32.85288 -3.84835,-3.49288 -20.06036,-19.01031 -36.53071,-11.08455 z"
       id="path29" /><path
       class="st21"
       d="m 589.91783,728.72847 c 1.43858,-5.08925 1.33122,-9.3599 -2.02358,-17.3446 -3.54208,-8.44829 -2.5129,-25.81812 -3.20604,-40.72347 -0.69314,-14.90535 -2.77459,-41.63114 -7.55805,-53.63316 -4.74956,-11.86472 -10.83698,-29.44435 -16.60975,-37.48768 -5.85837,-8.09503 -12.40371,-21.62864 -20.82428,-27.41604 -8.64346,-5.80522 -16.99277,-12.48422 -28.97698,-7.92366 -9.5467,3.81321 -16.77711,7.27315 -19.32573,22.32322 -2.54863,15.05007 -0.65589,24.48816 4.49075,29.69989 4.189,4.28278 12.15289,7.92509 16.18553,18.65579 4.03264,10.73069 9.86847,26.40593 15.42402,38.2902 6.32245,13.51579 14.73088,23.38485 19.48786,38.52523 4.75698,15.14038 8.46158,26.60755 12.4351,34.14818 1.94396,3.74446 7.21355,7.97901 7.74321,8.64943"
       id="path30" /><path
       d="m 515.99373,627.52992 c -1.55334,-2.45706 -2.95157,-5.1709 -4.3498,-7.88475 -2.91594,-5.61669 -6.15472,-12.2462 -8.85643,-14.92962 -4.20682,-4.05989 -9.84325,-23.35317 -10.41074,-28.60273 -0.36241,-5.00886 2.25746,-20.95051 8.17351,-26.48951 3.88696,-3.72713 16.41344,-6.09088 24.5181,-3.64865 0.95937,0.34585 1.91873,0.6917 2.77469,1.20874 7.89265,4.5339 29.10485,22.60438 33.64192,30.95273 0.61352,1.30522 1.51771,2.90285 2.4558,4.63779 3.59898,6.61342 10.95032,20.16657 10.54756,22.96081 -3.91912,3.00674 -52.04323,20.78537 -58.49461,21.79519 z"
       id="path31" /><path
       d="m 524.53178,547.63661 v 0 c 0.87377,0.29414 1.74754,0.58829 2.51791,1.05363 7.66974,4.51608 28.79635,22.53486 33.09444,30.5052 0.61352,1.30522 1.51772,2.90285 2.45581,4.63779 3.20662,5.90911 9.58598,17.59002 10.39764,21.46832 -7.26603,3.90574 -47.95465,18.46513 -56.21048,20.72154 -0.8703,-1.46034 -2.42191,-4.50049 -3.66676,-6.88803 -3.18881,-6.132 -6.41151,-12.40131 -9.23271,-15.27373 -3.62546,-3.47507 -9.40092,-22.15136 -9.865,-27.57212 -0.46582,-4.83767 2.18621,-20.05893 7.63865,-25.41065 3.00973,-2.85509 14.98874,-5.66637 22.8705,-3.24195 m 0.90025,-2.84422 c -8.53264,-2.70075 -21.79732,-0.0819 -25.9767,3.93587 -6.44916,6.03476 -8.91566,22.30272 -8.67447,27.70566 0.46408,5.42076 6.20219,25.12594 10.83698,29.44435 4.6348,4.31841 11.80108,22.4329 13.71981,23.1246 1.88485,0.5544 58.36819,-19.65183 60.22781,-22.15019 1.91133,-2.58396 -8.37723,-20.36473 -13.01597,-29.12498 -4.63874,-8.76026 -26.24504,-26.95196 -34.17157,-31.62315 -0.80426,-0.60264 -1.84922,-1.0002 -2.94589,-1.31216 z"
       id="path32" /><circle
       id="lt2"
       class="st12"
       cx="738.92944"
       cy="219.04977"
       r="4"
       transform="rotate(31.134067)" /><circle
       id="lt1"
       class="st12"
       cx="871.32941"
       cy="320.14981"
       r="3"
       transform="rotate(31.134067)" /></g><g
     id="g6"
     transform="rotate(-10.142167,586.6731,736.2468)"><path
       class="st19"
       d="m 564.06641,709.46021 c -4.02878,-1.83547 -8.2881,-3.39373 -12.61076,-4.35534 -6.21203,-1.16214 -20.27715,-0.34206 -25.26588,0.23462 -4.99929,0.67612 -26.87132,10.62319 -32.38612,14.26145 -5.6248,3.72715 -22.59089,11.98257 -29.53844,13.96034 -6.72755,1.79999 -25.26588,0.23461 -29.04631,1.74404 -3.87987,1.49887 -6.98417,8.00758 -6.69361,10.95471 0.39001,2.95768 3.15225,16.72613 4.76111,20.51711 1.49887,3.87987 4.79328,13.58177 5.38052,18.47106 0.68668,4.89984 2.76224,13.76844 3.98109,14.60174 1.11942,0.82274 10.48192,2.62096 10.91466,-1.45614 0.44329,-4.17654 0.97546,-8.24309 -1.65338,-12.84626 0,0 -1.18172,-13.50013 0.15654,-17.58168 1.35937,-4.28044 4.16866,-14.6418 9.99069,-16.43734 5.72259,-1.8061 94.21645,-12.22418 97.18469,-12.71363 2.96824,-0.48945 16.11892,-3.11613 21.01266,-2.79784 4.97208,0.52773 7.14033,-0.95169 6.89643,-3.39106 -0.30671,-8.47973 -23.08389,-23.16578 -23.08389,-23.16578 z"
       id="path33" /><path
       class="st20"
       d="m 438.97847,769.99589 c 2.38825,-1.65719 3.70986,-4.63433 3.09985,-7.41424 -0.58278,-3.98376 -5.82991,-13.28955 -4.2611,-17.64831 1.35937,-4.28044 4.79595,-1.60277 11.82018,-1.4606 7.02423,0.14217 18.27828,-6.4066 29.0996,-8.87826 10.81076,-2.37223 39.22367,-16.15034 39.22367,-16.15034 3.87987,-1.49887 23.67813,-4.22448 30.6918,-3.98287 6.1187,0.14662 12.51742,3.33981 14.6418,4.16866 2.0355,0.71885 10.81076,-2.37223 10.81076,-2.37223 -3.2588,-2.45768 -6.42872,-4.80536 -9.93918,-6.78694 -4.02878,-1.83547 -8.2881,-3.39373 -12.61075,-4.35533 -6.21204,-1.16214 -20.27716,-0.34207 -25.26589,0.23461 -4.99929,0.67613 -26.87132,10.6232 -32.38612,14.26146 -5.51481,3.63826 -22.59089,11.98257 -29.53844,13.96033 -6.72755,1.79999 -25.26588,0.23462 -29.04631,1.74404 -3.87987,1.49887 -6.98417,8.00758 -6.6936,10.95471 0.39,2.95769 3.15224,16.72613 4.76111,20.51711 0.54832,1.46606 0.95499,3.31934 1.69609,5.81148 z"
       id="path34" /><path
       class="st21"
       d="m 570.21347,713.12949 c -5.37874,-2.381 -12.89687,-6.39693 -19.10891,-7.55907 -6.21204,-1.16215 -20.13105,0.17625 -24.97367,1.27125 -5.37149,1.34055 -26.603,9.04268 -32.12836,12.78038 -5.6248,3.72715 -22.59088,11.98257 -29.53843,13.96034 -6.72756,1.79999 -25.26589,0.23461 -29.04632,1.74404 -3.87987,1.49887 -6.98417,8.00758 -6.6936,10.95471 0.39001,2.95768 3.15224,16.72612 4.76111,20.51711 1.60886,3.79098 4.79328,13.58177 5.38052,18.47106 0.68668,4.89984 2.76223,13.76844 3.98109,14.60174 1.11941,0.82274 10.48192,2.62096 10.91465,-1.45614 0.44329,-4.17654 0.97547,-8.24309 -1.65337,-12.84626 0,0 -1.18173,-13.50013 0.15654,-17.58168 1.35937,-4.28044 5.17807,-13.73017 11.01066,-15.62515 5.81147,-1.6961 93.09703,-13.04693 95.96583,-13.54693 2.95768,-0.39001 16.11892,-3.11613 21.01266,-2.79784 4.97208,0.52773 8.65026,-3.80828 8.65026,-3.80828"
       id="path35" /><circle
       id="lc2"
       class="st12"
       cx="660.36298"
       cy="-652.59595"
       r="3"
       transform="rotate(96.058583)" /><circle
       id="lc1"
       class="st12"
       cx="697.36298"
       cy="-519.59595"
       r="3"
       transform="rotate(96.058583)" /></g></g>
    <g
   id="Torso">
	<path
   class="st19"
   d="M544.5,353.5c0,0-5,8-2,20s19,12,24,15c3.3,2,7,17,12,33c1.2,3.9,1,13-1,19c-5,15-14.1,19.5-24,33   c-8.5,11.5-15,31.7-15,46c0,26.2,8.4,27.6,12.5,41.5c0.8,2.6-5.9,6.2-8,9c-6,8-24,30-38,41c-3.7,2.9-8.4,4-13,1c-15-10-16-22-23-37   c-2.1-4.4-8.2-9.3-6.2-14.5c6.5-17,20.5-35.5,19.7-57c-1-28-11.5-70.5-11.5-70.5c-5-14.6-5-30.4,0-45c4-12,24-19,34-27s7-43,7-43   s3.1-0.8,4-1c2.9-0.6,5,2,10,5s14,14,15,17S544.5,353.5,544.5,353.5z"
   id="path36" />
        <path
   class="st20"
   d="M494.5,447.5c-1-8,5-20,5-25s1-14-3-20s-8-24-2-28s14-8,17-14s7-18,7-25s1-14,0-18s-6-5-6-5s1,41-5.5,46.5   s-28.3,18.4-30.4,21s-16.3,14.5-8.2,43.5s12.4,61.1,12.4,61.1s20.7,3.9,26.7,5.9s17,16,19,24s3,24,8,31S545,560,537,568   s-21,19-29,21s-3,22-3,22s21.9-18.9,28-28s17.8-22.6,13-33s-6.8-13.6-7.1-22s0.6-32.5,5.6-39.5s9-19,21.5-30s13-26.5,13.3-30.3   S563.6,390.9,562,389s-7-4.2-8.8-4.8s-8.6-5-9.7-7.9s-8-5.8-8-1.8s10,11,18,21s13,19,12,26s-6,30-17,34s-44,11-49,5   C496.5,456.8,494.7,452.3,494.5,447.5z"
   id="path37" />
        <path
   class="st21"
   d="M512,320c0,0,3,33-7,41s-30,15-34,27c-5,14.6-5,30.4,0,45c0,0,10.5,42.5,11.5,70.5   c0.8,21.7-12.5,40.4-18.9,57.5c-1.9,4.9,3.3,9,4.9,13.5c4,11,6.5,16.4,14,26c7,9,8.3,14.9,17,13c11.9-2.6,24.9-24.1,36-31   c8-5,10-6,15-11c4.1-4.1,1.2-9-0.4-12.8c-4.5-10.4-11.6-16.4-11.6-39.2c0-14.3,6.5-34.5,15-46c9.9-13.5,19-18,24-33   c2-6,2.2-15.1,1-19c-5-16-15.7-33-19-35c-5-3-14-1-17-13s2-20,2-20"
   id="path38" />
        <path
   d="M543.3,490.1c-6.2-0.5-45.9-8-62.1-11.1c-1.9-4.7-7.8-31.5-11.3-52.7c-1-5.3-1.3-10.8-0.9-16.2c0.2-2.2,0.2-4.5,0-6.8   c-1.8-15.3,10.6-24.7,16-28c3.9-2.4,8.8-3.6,14.9-3.6c2.1,0,4.2,0.1,6.4,0.4c7.4,0.8,14.4,9.2,20.5,16.5c0.8,1,1.7,2,2.5,3   c1.9,2.2,3.3,5.6,4.8,9.2c3.1,7.4,6.9,16.6,16.8,20.2c3.4,1.1,6.9,1.6,10.5,1.5c5.1-0.1,10.1-0.6,15.1-1.6   c0.6,3.2,1.9,10.9,0.5,15.2c-0.3,0.9-0.6,1.8-0.9,2.7c-1.8,5.6-4,12.7-9.2,17l-0.1,0.1c-5.4,4.1-10,9.2-13.6,14.9   c-2.4,4-4.5,8-6.4,12.2C545.6,485.8,544.3,488.4,543.3,490.1z M498.8,374.8c-4.8,0-8.7,1-11.6,2.9c-6.6,4.4-8.7,12-9.7,22.1   c-1,10.4,6.8,21.4,12,28.7l0.2,0.4c2.9,4.1,9.4,11,19.7,11c2.2,0,4.3-0.3,6.4-0.9c11.1-3,15-7.5,16.1-18.3   c1-10.5-2.6-20.3-5.6-28.2c-3.4-9-12.9-15.7-20.1-17C503.8,375.1,501.3,374.8,498.8,374.8z"
   id="path39" />
        <path
   d="M500,373.1L500,373.1c2.1,0,4.1,0.1,6.2,0.4c2.2,0.3,4.3,1.2,6,2.4c-1.8-0.9-3.7-1.5-5.7-1.9c-2.6-0.5-5.2-0.7-7.8-0.7   c-5.1,0-9.2,1.1-12.4,3.2c-7.1,4.8-9.3,12.7-10.3,23.2c-1.1,11,7,22.2,12.3,29.7l0.3,0.4c3.1,4.3,9.9,11.6,20.9,11.6   c2.3,0,4.6-0.3,6.8-1c11.7-3.2,16-8.1,17.2-19.6c1.1-10.8-2.7-20.8-5.7-28.8c0.1,0.1,0.3,0.3,0.4,0.5c1.7,2,3.1,5.3,4.6,8.9   c3.2,7.7,7.2,17.3,17.7,21c3.6,1.1,7.3,1.7,11,1.5c4.7-0.1,9.3-0.5,13.9-1.4c0.7,3.9,1.4,9.7,0.3,13c-0.3,0.9-0.6,1.8-0.9,2.8   c-1.7,5.5-3.8,12.2-8.8,16.3l-0.1,0.1c-5.5,4.2-10.2,9.4-13.9,15.2c-2.4,4-4.5,8.2-6.5,12.5c-1.1,2.3-2.1,4.5-3,6.1   c-7.5-0.9-39.2-6.8-60.1-10.8c-2-5.9-7.4-30.5-10.9-51.7c-1-5.2-1.3-10.6-0.8-15.9c0.2-2.3,0.2-4.7,0-7   c-1.7-14.5,10.1-23.4,15.3-26.6C489.6,374.2,494.2,373.1,500,373.1 M500,370.1c-6.1,0-11.4,1.2-15.7,3.8   c-5.8,3.6-18.5,13.4-16.7,29.5c0.7,6.2-1.4,9.6,0.9,23.1c3.6,21.4,10,51,11.7,53.8c0,0,58.5,11.3,63.6,11.3c0.2,0,0.3,0,0.3-0.1   c2.5-3.8,6.2-13.5,10.3-20c3.6-5.6,8.1-10.5,13.4-14.6c6.6-5.4,8.6-14.5,10.6-20.4s-0.8-17.5-0.8-17.5c-5.4,1.2-10.8,1.8-16.3,1.9   c-3.4,0.1-6.8-0.4-10-1.4c-14-5-15-22-21-29c-6.9-8.1-15-19-24-20C504.3,370.3,502.2,370.2,500,370.1L500,370.1z M509.5,438.4   c-8.1,0-14.4-4.7-18.5-10.3c-5-7-13-18-12-28s3-17,9-21c3.1-2,7-2.7,10.8-2.7c2.4,0,4.8,0.2,7.2,0.7c7.2,1.3,16,8,19,16   s6.5,17.5,5.5,27.5c-1,9.8-4,14-15,17C513.5,438,511.5,438.3,509.5,438.4L509.5,438.4z"
   id="path40" />
        <path
   d="M497.6,613.7c-4,0-7.6-1.9-10.4-5.6c-7.3-9.5-10.3-16.8-13.4-24.5c-1.1-2.6-2.2-5.4-3.5-8.2c-0.8-1.7-1.8-3.4-2.8-5   c-2.2-3.7-4.9-8.3-4.1-10.7c1.8-5,4.2-9.8,7.2-14.2c5,0.3,31.3,2,41.1,2.9c2.1,0.2,4.6,0.3,7.6,0.3c9,0,19.5-0.9,22.7-1.2   c1.7,2.8,7.1,12.5,9.4,18.9c1.1,3.2-5.4,7.5-11.2,11.2c-5,3.2-9.6,6.2-11.7,9.5c-1.2,2-2.2,3.6-3,5c-4.5,7.6-4.6,7.8-19.6,18.6   C503.6,612.6,500.7,613.6,497.6,613.7z"
   id="path41" />
        <path
   d="M471.5,547.1c6.6,0.4,30.9,2,40.2,2.9c2.1,0.2,4.7,0.3,7.7,0.3c8.4,0,17.9-0.8,21.9-1.1c2,3.5,6.8,12,8.8,17.8   c0.7,2.1-6.3,6.7-10.6,9.4c-5.1,3.3-9.9,6.4-12.1,10c-1.2,2-2.2,3.6-3,5c-4.4,7.5-4.4,7.5-19.2,18.2c-2.2,1.6-4.9,2.6-7.6,2.6   c-3.5,0-6.7-1.7-9.2-5c-7.2-9.3-10.1-16.5-13.2-24.2c-1.1-2.7-2.2-5.4-3.5-8.3c-0.9-1.8-1.8-3.5-2.9-5.2c-1.7-2.9-4.6-7.7-4-9.4   C466.6,555.6,468.8,551.2,471.5,547.1 M470,544c-3.3,4.7-6,9.8-7.9,15.2c-1.5,4.3,4.6,11.8,6.9,16.8c5,11,7,20,17,33   c3.4,4.4,7.5,6.2,11.6,6.2c3.4-0.1,6.7-1.2,9.4-3.2c18-13,15-11,23-24c4.5-7.4,25.6-14.6,23-22c-2.8-7.9-10-20-10-20   s-12.8,1.3-23.5,1.3c-2.7,0-5.2-0.1-7.5-0.3C501,546,470,544,470,544z"
   id="path42" />
        <g
   id="Targets">
		<circle
   id="ruaTorso"
   class="st12"
   cx="504"
   cy="396"
   r="4" />
            <circle
   id="headTorso"
   class="st12"
   cx="531"
   cy="328"
   r="4" />
            <circle
   id="luaTorso"
   class="st12"
   cx="545"
   cy="389"
   r="4" />
            <circle
   id="rtTorso"
   class="st12"
   cx="489"
   cy="575"
   r="4" />
            <circle
   id="ltTorso"
   class="st12"
   cx="513"
   cy="575"
   r="4" />
	</g>
</g>
    
    <g
   id="Layer_8">
	<path
   class="st19"
   d="M548.5,355.5c0,0-18-6-19-9s-6-26-8-27s-13-2-15-5s-4-12-3-16s7-9,10-9s9,3,12,6s11,0,13-3s8-12,13-15   s10-10,15-9s16,6,17,9s3,10,2,15s-5,12-5,15c0,6,6,9,7,13s-2,6-4,7c-1.3,0.6-4,2-4,5s1,9-2,12c-2.5,2.5-4,8-4,10c0,5-6,7-9,7   C562.5,361.5,548.5,355.5,548.5,355.5z"
   id="path51" />
        <path
   class="st20"
   d="M555.1,358.2c-3.5-1.4-6.6-2.7-6.6-2.7s-18-6-19-9s-6-26-8-27s-13-2-15-5s-4-12-3-16s7-9,10-9s9,3,12,6   s11,0,13-3s8-12,13-15s10-10,15-9c3.5,0.9,6.8,2.1,10,3.8c0,0-24.5,22.3-26,42.2C548.5,340.5,555.1,358.2,555.1,358.2z"
   id="path52" />
        <path
   class="st21"
   d="M548.5,355.5c0,0-17.4-6.2-19-9c-4-7-6-26-8-27s-13-2-15-5s-4-12-3-16s7-9,10-9s9,3,12,6s11,0,13-3   s8-12,13-15s10-10,15-9s16,6,17,9s3,10,2,15s-5,12-5,15c0,6,6,9,7,13s-2,6-4,7c-1.3,0.6-4,2-4,5s1,9-2,12c-2.5,2.5-4,8-4,10   c0,5-6,7-9,7C562.5,361.5,548.5,355.5,548.5,355.5z"
   id="path53" />
        <path
   class="st22"
   d="M520.5,301.5c1-2-5.7-7.9-9,1c-3,8,3.3,9.7,5,8"
   id="path54" />
        <path
   d="M582,303l-1,10c0,0-41.6-4.2-47-13c-8.9-14.5,46-30,46-30s4.4,11,5.2,15.3S582,303,582,303z"
   id="path55" />
        <path
   class="st6"
   d="M488.5,268.5c0,0,4,2,4,6s-5,14-5,21s1,17,5,24s9,15,12,16s7,0.7,7.5-1.7s1.5-12.3-1.5-15.3s-7-5-8-14   s6-16,10-16s12,3,14,6s28,0,37-5s23-13,22-18s-7-15-15-17c-8-2-19-5-27-5s-24,5-28,9c-4,4-16-1-16-1L488.5,268.5z"
   id="path56" />
        <circle
   id="h1"
   class="st12"
   cx="531"
   cy="328"
   r="4" />
        <circle
   id="h2"
   class="st12"
   cx="481"
   cy="253"
   r="4" />
        <path
   class="st23"
   d="M579,278c0,0-12-11-17-13s-25-3-25-3s7,6,8,8s-8-3-15-4c-4-0.6-8.1-0.3-12,1c0,0,6,5,9,5s7,3,7,3h-14   c-3,0.2-6,0.5-9,1l6,6c0,0-8-2-10-2s-7,3-7,3l4,4c-1.1,0.5-2.1,1.2-3,2c-1,1-2,4-2,4l-2-6c0,0-1,14,0,17s5,10,6,14   c0.6,2.6,0.6,5.4,0,8c0,0-2-8-5-9c-2-0.6-4-0.6-6,0c0,0,4.3,11.8,6.6,12.4s6.4,6.6,8.4,6.6s6-1,5-6c-0.6-3.6-1-7.3-1-11   c0,0-5.4-4.4-6.2-6.7s-3.6-10-1.7-14.2s5.3-9.7,8.1-9.4c2.8,0.3,11.9,1.2,14.9,5.2S541,296,541,296s19.5-4.8,23.2-6.9   S579,278,579,278z"
   id="path57" />
        <path
   class="st24"
   d="M488.5,268.5c0,0,4,2,4,6s-5,14-5,21s1,17,5,24s9,15,12,16s7,0.7,7.5-1.7s1.5-12.3-1.5-15.3s-7-5-8-14   s6-16,10-16s12,3,14,6s28,0,37-5s23-13,22-18s-7-15-15-17c-8-2-19-5-27-5s-24,5-28,9c-4,4-16-1-16-1L488.5,268.5z"
   id="path58" />
        <g
   id="HairBand">
		<line
   class="st25"
   x1="488"
   y1="273"
   x2="504"
   y2="256"
   id="line58" />
            <line
   class="st25"
   x1="487"
   y1="268"
   x2="499"
   y2="254"
   id="line59" />
            <line
   class="st25"
   x1="480"
   y1="266"
   x2="496"
   y2="249"
   id="line60" />
            <line
   class="st25"
   x1="476"
   y1="262"
   x2="490"
   y2="247"
   id="line61" />
	</g>
</g>
    <g
   id="Layer_9">
	<path
   class="st6"
   d="M340,319c5-3,5-8,8-17s14-15,28-23s19-15,22-21c3-6,20-19,30-26s28-10,39-13s23,5,26,9s2,13-1,15s-17,20-17,23   s-13,20-19,24s-16,6-23,10c-4.6,2.6-12.3,11.4-17,17l-1,2c-1.7,5.1-3.7,10.1-6,15c-3,6-17,18-23,24s-21,15-21,15s4-7,5-10s0-7,0-7   s-9,11-15,18s-25,18-36,24s-28,11-40,14c-2,0.5-7,2-7,2c-1.9,1.1-3,1.6-4,3c-3,4-7.2,6.8-12,8c-4.4,1-8.6,3-12,6c-2,2-32,13-33,10   s14-33,19-43s20-17,25-20s20-7,27-10s26-7,30-8s6-8,6-8s-9,0-10-3s-6-3-9-3s-7,5-6-1s8-8,11-11s12-10,17-12S335.9,321.5,340,319z"
   id="path61" />
        <path
   class="st26"
   d="M296.4,339.5c0,0,8.6-2.5,13.6,0.5s4,6,7,6s8-3,10-1s1,5-3,8s-8,7-9,9s-9,6-12,5c-1.9-0.7-3.5-2.1-4.5-3.9   c0,0,14.5-2.1,16.5-6.1s1.7-5.3-1.7-5.2c-2.7,0-5.3-1-7.3-2.8c-2.8-2.8-7.1-3.5-10.6-1.7C290,350,296.4,339.5,296.4,339.5z"
   id="path62" />
        <path
   class="st26"
   d="M345,311.2c0,0,10-6.2,14-9.2s11-5,12-7s3-3,5-2s-1,7-4,10s-10,10-15,12c-2.9,1.2-6,1.7-9.1,1.5L345,311.2z"
   id="path63" />
        <path
   class="st26"
   d="M294.2,382.2c0,0,3.8-3.2,4.8-1.2s-7,12-7,14s-1,4,2,3s29-11,38-20s38-38,39-43s2-8,4-7s2,6,1,9s-1,11,0,13   s20-16,23-25s14-33,17-37s4-15,8-15s2,11,5,13s19-7,27-15s18-24,22-26s9.1,3.1,9.1,3.1s-16.3,26-19.7,29.9s-12.3,15.5-27.4,18.7   s-24.8,22.6-27.9,29.4s-19,27.5-30.6,35.6s-15.4,10.5-15.4,10.5S371,361,370,359s-3-2-5,2s-13,19-29,28s-41.5,20.1-55.2,22.5   s-23.4,1-23.4,1s14.2-5.9,21.9-13.7S294.2,382.2,294.2,382.2z"
   id="path64" />
        <path
   class="st26"
   d="M226.8,404.4c0.8,2.1,0.8,4.4,0.2,6.6c-1,4-4,13-1,15s24-8,27-11s16-1,16-1c-5.5,6.5-12.7,11.4-20.8,14   c-13.2,4-28.4,13.1-32.3,13s-4.4-3-4.4-3L226.8,404.4z"
   id="path65" />
        <path
   class="st27"
   d="M419,291c0,0-1,13-2,16l-5,15c0,0,14-18,21-22s17-6,23-10s19-21,19-24s14-21,17-23s4-11,1-15s-15-12-26-9   s-29,6-39,13s-27,20-30,26c-3,6-8,13-22,21s-25,14-28,23s-4,14-8,17"
   id="path66" />
        <path
   class="st27"
   d="M371,299c0,0-18,17-29,20s-16,1-21,3s-14,9-17,12s-10,5-11,11s3,1,6,1s8,0,9,3s10,3,10,3s-2,7-6,8s-23,5-30,8   s-22,7-27,10s-20,10-25,20s-20,40-19,43s31-8,33-10c3.4-3,7.6-5,12-6c4.8-1.2,9-4,12-8c2-3,8-4,8-4"
   id="path67" />
        <path
   class="st27"
   d="M296,380c0,0-23,28-31,30s-11,2-11,2s13,3,25,0s29-8,40-14s30-17,36-24s15-18,15-18s1,4,0,7s-5,10-5,10   s15-9,21-15s20-18,23-24s6-17,6-17"
   id="path68" />
        <circle
   id="hair1"
   class="st12"
   cx="481"
   cy="253"
   r="4" />
        <circle
   id="hair2"
   class="st12"
   cx="271"
   cy="396"
   r="4" />
</g>
    <g
   id="Layer_4"
   transform="rotate(-39.774448,496.49988,390.58546)">
	<g
   id="RightLowerArm"
   transform="rotate(-36.281066,386.29212,405.8912)">
		<path
   class="st19"
   d="m 398,400.9 c 5.2,4.3 5.3,12.5 4.4,29.5 -1.7,32.8 -13.3,58.7 -11.4,69.5 0.6,3.4 4.2,9.3 6.6,12.3 1.7,1.9 2.6,4.4 2.6,6.9 0.2,2.6 -4.5,7 -3.1,12.6 1.2,5.8 2.6,6.9 1,9.1 -0.9,1.3 -2.6,1.4 -3.8,0.5 h -0.1 c -0.2,1.9 -1.7,3.5 -3.5,4.2 -3.1,1 -3.6,-2.8 -3.6,-2.8 0.6,1.7 -0.3,3.5 -2.1,4.2 l -0.1,0.1 c -3.1,1 -3.6,-2.8 -3.6,-2.8 0,0 0.8,1.8 -2.3,2.9 -3.1,1 -4.2,-3.5 -5.3,-6.5 -1.4,-4.5 -2,-9.4 -1.5,-14.1 0.8,-5.3 3.7,-9 3.7,-14.8 -0.1,-5.9 -4.8,-50.7 -1.9,-79.2 2.8,-28.3 4.5,-33.5 9.7,-36.8 5.4,-3.7 9.3,1.2 14.3,5.2 z"
   id="path69" />
        <path
   class="st20"
   d="m 391.6,396.3 c 0,0 -2.8,4.4 -1.2,6.5 1.7,2.3 5.3,4.8 5,13.9 -0.3,9.1 -1,39.3 -3.4,49.1 -2.6,9.8 -5.9,25.4 -5.3,28.5 0.7,3.1 0.9,7.2 -1.2,8 -2.1,0.6 -5.5,2.2 -4.6,3.4 0.9,1.2 7.1,0.1 8.8,2.4 1.7,2.3 2.4,10.5 4.2,12.8 1.7,2.3 3.9,4.7 3.9,4.7 0,0 2.6,-4.9 2.4,-7.9 -0.2,-3.1 -8.2,-12.1 -8.6,-15.8 -0.3,-3.7 -0.5,-13 1.8,-19.7 2.3,-6.7 9.7,-45.3 9.3,-54.7 -0.4,-9.6 0.8,-20.5 -2.1,-23.4 -2.8,-2.9 -5.9,-5.4 -9,-7.8 z"
   id="path70" />
        <path
   class="st28"
   d="m 398,400.9 c 5.2,4.3 5.3,12.5 4.4,29.5 -1.7,32.8 -13.3,58.7 -11.4,69.5 0.6,3.4 4.2,9.3 6.6,12.3 1.7,1.9 2.6,4.4 2.6,6.9 0.2,2.6 -4.5,7 -3.1,12.6 1.2,5.8 2.6,6.9 1,9.1 -0.9,1.3 -2.6,1.4 -3.8,0.5 h -0.1 c -0.2,1.9 -1.7,3.5 -3.5,4.2 -3.1,1 -3.6,-2.8 -3.6,-2.8 0.6,1.7 -0.3,3.5 -2.1,4.2 l -0.1,0.1 c -3.1,1 -3.6,-2.8 -3.6,-2.8 0,0 0.8,1.8 -2.3,2.9 -3.1,1 -4.2,-3.5 -5.3,-6.5 -1.4,-4.5 -2,-9.4 -1.5,-14.1 0.8,-5.3 3.7,-9 3.7,-14.8 -0.1,-5.9 -4.8,-50.7 -1.9,-79.2 2.8,-28.3 4.5,-33.5 9.7,-36.8 5.4,-3.7 9.3,1.2 14.3,5.2 z"
   id="path71" />
        <circle
   id="rla2"
   class="st12"
   cx="393.29999"
   cy="402"
   r="3" />
        <circle
   id="rla1"
   class="st12"
   cx="386.20001"
   cy="523.5"
   r="3" />
	</g>
        <g
   id="RightUpperArm">
		<path
   class="st19"
   d="m 428.8,383.2 c 0,0 16.1,-5.7 26.4,-4.7 10.2,0.8 39.1,0.8 46,3.1 7,2.2 12.4,4.7 13.6,10.3 1.2,5.6 -2.5,14.1 -5.6,16.2 -4.1,2.7 -12.9,5.6 -19.8,6.1 -11.4,0.9 -26,5.7 -36.2,5.3 -17.5,-0.9 -31.1,-7.4 -40.5,-7.7 -3.1,0 -5.6,0.6 -9.6,-0.6 -4.3,-1.3 -8.6,-5.9 -12.6,-7.8 -3,-1.3 -8.1,1.4 -10,-1 -7.3,-9.6 29.6,-21.2 45.4,-17.8"
   id="path72" />
            <path
   class="st20"
   d="m 493.4,413.3 c 0,0 1,-3.3 -2,-4.5 -2.9,-1.2 -8.9,-1.5 -14,-0.8 -5,0.7 -26.3,3.5 -37.2,1.8 -10.9,-1.7 -29.9,-2.8 -32.7,-5 -2.8,-2.2 -8.8,-3.6 -11.8,-3.7 -2.7,0 -5.5,0.1 -8.1,0.6 0,0 1.9,0.4 5.8,3.3 2.8,2.2 7.7,5.5 9.7,5.6 0,0 12.8,0.6 18.9,2.5 6,1.9 20.8,6.9 28.3,6.7 7.5,0 20.7,-6 27.7,-5.7 5.1,0.1 10.3,-0.1 15.4,-0.8 z"
   id="path73" />
            <path
   class="st21"
   d="m 426,384.2 c -14.3,-2.9 -44.3,5.8 -45.3,14.3 -0.1,1.2 -0.1,2.5 0,3.8"
   id="path74" />
            <path
   class="st21"
   d="m 402.6,411.2 c 3.6,-0.1 7.5,0.1 10.2,0.2 9.4,0.3 21,7.8 38.4,8.6 9.6,0.4 24.5,-7.6 35.4,-6"
   id="path75" />
            <path
   class="st21"
   d="m 415.9,387.9 c 0,0 33.4,-10.2 43.7,-10.5 11.2,-0.3 35,1.2 41.6,4 6.8,2.7 12.4,4.7 13.6,10.3 0.7,3.5 0.9,4.2 -0.3,8"
   id="path76" />
            <line
   class="st29"
   x1="469.10001"
   y1="376.39999"
   x2="471.89999"
   y2="416.70001"
   id="line76" />

            <circle
   id="rua1"
   transform="matrix(0.9199,-0.3921,0.3921,0.9199,-114.9723,227.3553)"
   class="st12"
   cx="499.20001"
   cy="395.20001"
   r="4" />
            <circle
   id="rua2"
   class="st12"
   cx="391.70001"
   cy="399"
   r="3" />
	</g>
</g>
<g
   id="g1"
   transform="rotate(-44.684561,488.76299,579.21765)"><g
     id="g3"
     transform="rotate(-98.667369,449.34248,729.85504)"><path
       class="st19"
       d="m 447.47579,713.02964 c -1.58547,-4.25984 -3.36417,-8.26936 -5.74672,-12.06587 -3.50243,-5.14032 -13.99864,-14.52061 -18.00387,-17.61222 -3.94375,-2.96427 -26.50154,-11.46815 -33.06266,-12.69766 -6.56112,-1.22951 -24.50106,-7.48719 -30.74823,-10.83127 -6.08687,-3.49999 -18.00387,-17.61223 -21.77632,-19.24583 -3.83393,-1.76096 -10.69799,0.61067 -12.5029,3.05246 -1.89932,2.40885 -9.46145,14.06879 -11.22241,17.90272 -1.76095,3.83394 -6.18751,12.88079 -9.15178,16.82454 -3.05868,3.91081 -7.7839,11.68849 -7.45669,13.17944 0.32721,1.49095 5.5644,9.24865 8.76145,6.76291 3.22999,-2.58015 6.36555,-5.19324 7.92227,-10.26341 0,0 8.68202,-10.31613 12.53563,-12.25512 4.04246,-1.87312 13.32404,-7.53194 18.65993,-4.61162 5.36883,2.82589 75.35285,57.84486 77.79464,59.64976 2.40885,1.89933 13.60107,8.98058 16.83779,12.75731 3.23671,3.77673 5.72897,4.22242 7.2704,2.536 5.46743,-6.5656 -0.11053,-33.08214 -0.11053,-33.08214 z"
       id="path43"
       style="fill:#959595" /><path
       class="st20"
       d="m 315.97185,667.689 c 2.90288,0.48302 5.76619,-0.74231 7.44374,-3.12261 2.479,-3.15983 5.37505,-13.58782 9.32308,-15.49387 4.04246,-1.87312 4.58492,2.34063 9.51243,7.34259 4.92752,5.00195 17.49864,8.43373 26.81121,14.22389 9.407,5.82309 39.24396,16.23058 39.24396,16.23058 3.83393,1.76096 19.79777,13.68388 24.56499,18.84174 4.08212,4.38934 6.45375,11.25341 7.53194,13.32403 0.88935,2.00476 9.37407,5.91752 9.37407,5.91752 -0.51391,-3.99198 -1.2496,-7.95541 -2.24,-11.79587 -1.58547,-4.25984 -3.45859,-8.3023 -5.87407,-12.00439 -3.50243,-5.14032 -13.99864,-14.5206 -18.00387,-17.61222 -3.94375,-2.96426 -26.50154,-11.46815 -33.06266,-12.69766 -6.56112,-1.22951 -24.50106,-7.48718 -30.74823,-10.83127 -6.08687,-3.49999 -18.00387,-17.61223 -21.77632,-19.24583 -3.83393,-1.76096 -10.69799,0.61068 -12.5029,3.05246 -1.89932,2.40885 -9.46145,14.06879 -11.22241,17.90273 -0.68286,1.35044 -1.68631,3.01269 -2.82589,5.36882 z"
       id="path44"
       style="fill:#828282" /><path
       class="st21"
       d="m 449.08767,719.94642 c -2.07736,-5.27869 -4.68178,-13.60077 -8.2457,-18.86845 -3.46951,-5.23474 -14.35216,-14.11437 -18.71091,-16.79975 -4.60908,-2.87862 -25.12917,-12.36627 -31.78472,-13.62872 -6.56112,-1.22951 -24.50106,-7.48718 -30.74823,-10.83127 -6.08687,-3.49999 -18.00387,-17.61222 -21.77632,-19.24582 -3.83393,-1.76096 -10.60357,0.6436 -12.50289,3.05246 -1.89933,2.40885 -9.46146,14.06879 -11.22241,17.90272 -1.76096,3.83393 -6.18752,12.88078 -9.15178,16.82453 -3.05869,3.91082 -7.78391,11.6885 -7.4567,13.17945 0.32721,1.49095 5.5644,9.24864 8.76145,6.76291 3.19705,-2.48573 6.36555,-5.19324 7.92227,-10.26341 0,0 8.68202,-10.31613 12.53564,-12.25512 4.04245,-1.87312 13.4624,-6.10686 18.89271,-3.15361 5.36883,2.82589 75.21449,56.41978 77.62334,58.3191 2.40885,1.89933 13.60107,8.98058 16.83779,12.75731 3.23671,3.77673 8.77674,3.37916 8.77674,3.37916"
       id="path45"
       style="fill:none;stroke:#000000;stroke-width:3;stroke-linecap:round;stroke-miterlimit:10" /><circle
       id="rc2"
       class="st12"
       cx="662.44714"
       cy="544.97131"
       r="4"
       style="fill:#ff0000"
       transform="rotate(19.229398)" /><circle
       id="rc1"
       class="st12"
       cx="533.04712"
       cy="509.2713"
       r="4"
       style="fill:#ff0000"
       transform="rotate(19.229398)" /></g><g
     id="g4"><path
       class="st19"
       d="m 467.13585,589.91931 c 0.93349,5.94379 1.26907,11.65845 -1.89725,22.67092 -2.99377,10.91134 -5.00915,25.07426 -9.62729,37.16941 -4.51702,12.26771 -6.63353,26.25808 -11.60595,41.11085 -5.00814,14.98962 -10.16762,26.35886 -9.99892,34.95314 0.16869,8.59427 1.59013,13.78845 6.12348,16.57929 4.53334,2.79084 8.16006,-1.30512 13.8864,0.55472 5.77691,1.94611 9.25795,-2.99174 11.21925,-11.90708 2.04759,-8.9659 13.21344,-22.34849 21.35082,-34.76755 8.13739,-12.41905 22.24929,-35.41002 25.3265,-47.76116 3.16348,-12.40171 8.5259,-30.14895 8.57748,-40.14732 0.13785,-10.04893 2.74231,-24.7889 -0.81163,-34.4128 -3.51823,-9.76074 -7.98548,-18.96529 -20.38719,-22.12877 -10.02489,-2.47012 -15.9358,-3.0627 -26.24174,8.42501 -9.96084,11.28547 -7.05855,22.56628 -5.91396,29.66134 z"
       id="path46"
       style="fill:#959595" /><path
       class="st20"
       d="m 498.45567,551.39557 c -9.39728,-1.79476 -15.12078,-2.26536 -24.97449,8.60959 -10.18395,11.30031 -14.82295,23.75542 -13.76463,30.90105 0.93349,5.94378 3.77421,8.21981 0.84586,19.44053 -2.94321,10.99762 -5.14316,26.42779 -9.84757,38.57351 -4.65386,12.23199 -1.66563,26.82379 -6.70948,41.95024 -5.09441,15.04018 -10.16762,26.35886 -9.99892,34.95314 0.21926,8.68054 -0.11065,5.74436 1.22451,10.98911 0,0 3.62037,-0.15135 4.60228,-2.23363 1.11873,-2.04656 7.74739,-9.52459 7.81632,-14.54906 0.0689,-5.02446 0.99878,-22.02844 2.38553,-26.78207 1.33618,-4.8399 9.86446,-58.51967 12.19989,-60.46794 2.43656,-1.77573 3.38275,-3.72116 8.22264,-2.38498 4.8399,1.33618 29.23598,5.58371 33.04341,8.91589 3.77172,3.46903 9.13494,7.28031 9.13494,7.28031 0,0 5.54732,-22.37604 6.63353,-26.25807 1.05049,-3.74519 3.60891,-33.98994 2.20232,-38.961 -1.30546,-4.79852 -4.99205,-26.51508 -23.01614,-29.97662 z"
       id="path47"
       style="fill:#828282" /><path
       class="st21"
       d="m 456.96702,746.21239 c 4.21863,-3.28378 6.6375,-6.67185 8.54223,-15.09041 2.04758,-8.9659 13.21343,-22.34849 21.35082,-34.76754 8.13739,-12.41906 22.24928,-35.41002 25.32649,-47.76117 3.16349,-12.40171 8.5259,-30.14895 8.57749,-40.14731 0.13785,-10.04893 2.74231,-24.78891 -0.81163,-34.41281 -3.51823,-9.76074 -6.36111,-20.1491 -18.76282,-23.31259 -10.0249,-2.47011 -20.63286,-4.94623 -31.44443,5.67874 -10.86213,10.53869 -13.19291,25.35009 -11.86092,32.56714 0.9335,5.94378 3.7944,14.58295 0.80063,25.49429 -2.99377,10.91134 -5.31219,21.19506 -7.72607,34.08472 -2.75615,14.48115 -1.84419,27.50798 -6.7512,42.67014 -5.04385,15.12646 -8.81409,26.49287 -9.99892,34.95314 -0.57456,4.16171 1.1591,10.67972 1.26907,11.65845"
       id="path48"
       style="fill:none;stroke:#000000;stroke-width:3;stroke-linecap:round;stroke-miterlimit:10" /><path
       d="m 516.80754,637.88736 c -4.85192,-0.17006 -53.67627,-13.86213 -59.75054,-16.90896 0.49996,-1.91573 1.06534,-3.52208 1.66643,-5.26526 1.78241,-4.86961 4.02306,-10.93504 3.22323,-14.87081 -0.92465,-5.13761 -3.07382,-21.26433 -1.44594,-27.78199 0.96422,-3.69463 5.84685,-13.16299 8.18829,-15.69433 2.68654,-2.73359 9.25228,-5.77022 16.66274,-7.56329 1.63321,-0.37764 3.40326,-0.71956 4.91449,-0.9098 5.68496,-0.7818 18.85079,6.45429 23.62459,14.20418 4.77381,7.74989 10.22093,35.04144 8.80097,44.68269 -0.25599,1.54093 -0.41086,3.25441 -0.77398,5.20586 -1.34537,7.39527 -3.3222,22.81059 -5.11028,24.90171 z"
       id="path49" /><path
       d="m 484.67957,548.45803 0.6393,2.87077 c 1.63321,-0.37764 3.14444,-0.56787 4.69138,-0.89495 5.1019,-0.78781 17.8215,6.47799 22.05396,13.50196 4.72324,7.66362 9.98897,34.25012 8.69099,43.70397 -0.25599,1.54093 -0.41085,3.25441 -0.77398,5.20586 -0.8217,6.50882 -2.62282,19.85071 -4.27122,23.36678 -7.91292,-1.04198 -48.50612,-12.95131 -57.23689,-16.17987 0.28569,-1.09471 0.90163,-2.61478 1.35988,-3.81061 1.90439,-5.057 4.0082,-11.15815 3.21438,-15.67698 -0.85923,-4.82822 -2.87156,-20.91923 -1.53822,-27.14837 0.96422,-3.69463 5.82599,-12.80304 7.78662,-14.99528 2.42772,-2.5819 8.95774,-5.48169 15.85055,-6.97138 l -0.46675,-2.9719 m 0,0 c -7.28847,1.60567 -14.38671,4.72257 -17.26665,7.91724 -2.42772,2.58189 -7.51862,12.28822 -8.55425,16.25653 -1.66961,7.23757 0.64009,24.42929 1.5262,28.31449 0.99891,6.25318 -5.94265,19.13048 -4.75883,20.75485 1.18381,1.62437 58.14102,18.31588 61.75255,17.35835 v 0 c 3.02846,-0.96353 5.1605,-21.45388 6.61617,-31.23197 1.54195,-9.82865 -3.95573,-37.20648 -9.08348,-45.56029 -4.87493,-7.92244 -18.66837,-15.83388 -25.02268,-15.00752 -1.85632,0.39249 -3.48954,0.77012 -5.20903,1.19832 z"
       id="path50" /><circle
       id="rt2"
       class="st12"
       cx="132.33862"
       cy="746.65137"
       r="4"
       style="fill:#ff0000"
       transform="rotate(-30.373346)" /><circle
       id="rt1"
       class="st12"
       cx="14.338625"
       cy="862.85132"
       r="4"
       style="fill:#ff0000"
       transform="rotate(-30.373346)" /></g></g></svg>
