<?xml version="1.0" encoding="UTF-8" standalone="no"?>
<!-- Generator: Adobe Illustrator 28.1.0, SVG Export Plug-In . SVG Version: 6.00 Build 0)  -->

<svg
   version="1.1"
   id="Layer_1"
   x="0px"
   y="0px"
   viewBox="0 0 1024 1024"
   style="enable-background:new 0 0 1024 1024;"
   xml:space="preserve"
   sodipodi:docname="jump-frame-01.svg"
   inkscape:version="1.4 (e7c3feb, 2024-10-09)"
   xmlns:inkscape="http://www.inkscape.org/namespaces/inkscape"
   xmlns:sodipodi="http://sodipodi.sourceforge.net/DTD/sodipodi-0.dtd"
   xmlns:xlink="http://www.w3.org/1999/xlink"
   xmlns="http://www.w3.org/2000/svg"
   xmlns:svg="http://www.w3.org/2000/svg"><defs
   id="defs76" /><sodipodi:namedview
   id="namedview76"
   pagecolor="#ffffff"
   bordercolor="#000000"
   borderopacity="0.25"
   inkscape:showpageshadow="2"
   inkscape:pageopacity="0.0"
   inkscape:pagecheckerboard="0"
   inkscape:deskcolor="#d1d1d1"
   inkscape:zoom="1.2666016"
   inkscape:cx="512.39476"
   inkscape:cy="512.39476"
   inkscape:window-width="3300"
   inkscape:window-height="1490"
   inkscape:window-x="26"
   inkscape:window-y="23"
   inkscape:window-maximized="0"
   inkscape:current-layer="Layer_1" />
<style
   type="text/css"
   id="style1">
	.st0{fill:#808080;}
	.st1{fill:none;stroke:#000000;stroke-width:2.15;stroke-miterlimit:10;}
	.st2{fill:#B3B3B3;}
	.st3{fill:none;stroke:#000000;stroke-width:2.29;stroke-miterlimit:10;}
	.st4{fill:none;stroke:#000000;stroke-width:1.21;stroke-miterlimit:10;}
	.st5{fill:none;stroke:#000000;stroke-width:1.56;stroke-miterlimit:10;}
	.st6{fill:#FFFFFF;}
	.st7{fill:#808080;stroke:#000000;stroke-width:2.14;stroke-miterlimit:10;}
	.st8{fill:#B3B3B3;stroke:#000000;stroke-width:1.86;stroke-miterlimit:10;}
	.st9{fill:#B3B3B3;stroke:#000000;stroke-width:2.6;stroke-miterlimit:10;}
	.st10{fill:#808080;stroke:#000000;stroke-width:2.44;stroke-miterlimit:10;}
	.st11{fill:none;stroke:#000000;stroke-width:3.54;stroke-linecap:round;stroke-miterlimit:10;}
	.st12{fill:#FF0000;}
	.st13{fill:#B3B3B3;stroke:#000000;stroke-width:2.27;stroke-miterlimit:10.001;}
	.st14{fill:#808080;stroke:#000000;stroke-width:2.27;stroke-miterlimit:10;}
	.st15{fill:#B3B3B3;stroke:#000000;stroke-width:1.7;stroke-miterlimit:9.999;}
	.st16{fill:#808080;stroke:#000000;stroke-width:2.05;stroke-miterlimit:10;}
	.st17{fill:#B3B3B3;stroke:#000000;stroke-width:2.27;stroke-miterlimit:10;}
	.st18{fill:#B3B3B3;stroke:#000000;stroke-width:2.27;stroke-miterlimit:9.9999;}
	.st19{fill:#959595;}
	.st20{fill:#828282;}
	.st21{fill:none;stroke:#000000;stroke-width:3;stroke-linecap:round;stroke-miterlimit:10;}
	.st22{fill:none;stroke:#696969;stroke-width:5;stroke-linecap:round;stroke-miterlimit:10;}
	.st23{fill:#DEDEDE;stroke:#DEDEDE;stroke-width:2;stroke-linecap:round;stroke-linejoin:round;}
	.st24{fill:none;stroke:#000000;stroke-width:4;stroke-linecap:round;stroke-miterlimit:10;}
	.st25{fill:none;stroke:#000000;stroke-width:8;stroke-linecap:round;stroke-miterlimit:10;}
	.st26{fill:#DEDEDE;}
	.st27{fill:none;stroke:#000000;stroke-width:4;stroke-linecap:round;stroke-linejoin:round;}
	.st28{fill:none;stroke:#000000;stroke-width:3;stroke-linejoin:round;}
	.st29{fill:none;stroke:#DEDEDE;stroke-width:4;stroke-linecap:round;stroke-miterlimit:10;}
</style>
<g
   id="Layer_10">
	<g
   id="LeftLowerArm">
		<g
   id="Hand">
			<polygon
   class="st0"
   points="726.9,434 733.8,445 756.4,440.2 760.8,437.1 746.9,415.2    "
   id="polygon1" />
			<polygon
   class="st1"
   points="726.9,434 733.8,445 756.4,440.2 760.8,437.1 746.9,415.2    "
   id="polygon2" />
			<polygon
   class="st2"
   points="742.5,419.4 739,431.9 730.3,439.5 724.6,430.5 738,416.5    "
   id="polygon3" />
			<polygon
   class="st3"
   points="742.5,419.4 739,431.9 730.3,439.5 724.6,430.5 738,416.5    "
   id="polygon4" />
			<path
   class="st2"
   d="M735.7,418.1l5.5-6.6c1-1.2,2.8-1.3,4-0.3l0.3,0.3c1.2,1,1.3,2.8,0.3,4l-5.5,6.6c-1,1.2-2.8,1.3-4,0.3     l-0.3-0.3C734.9,421.1,734.7,419.3,735.7,418.1z"
   id="path4" />
			<path
   class="st4"
   d="M735.8,418.2l5.5-6.6c1-1.2,2.8-1.3,4-0.3l0,0l0.2,0.2c1.2,1,1.3,2.8,0.3,4l-5.5,6.6c-1,1.2-2.8,1.3-4,0.3     l0,0l-0.2-0.2C735,421.1,734.8,419.4,735.8,418.2z"
   id="path5" />
			<path
   class="st2"
   d="M740,420.2l12.2-7.7c1.3-0.9,3.1-0.4,3.9,0.9l0.2,0.3c0.9,1.3,0.4,3.1-0.9,3.9l-12.2,7.7     c-1.3,0.9-3.1,0.4-3.9-0.9l-0.2-0.3C738.2,422.7,738.6,421,740,420.2z"
   id="path6" />
			<path
   class="st5"
   d="M740,420.2l12.2-7.7c1.3-0.9,3.1-0.4,3.9,0.9l0,0l0.2,0.3c0.9,1.3,0.4,3.1-0.9,3.9l-12.2,7.7     c-1.3,0.9-3.1,0.4-3.9-0.9l0,0l-0.2-0.3C738.2,422.7,738.6,421,740,420.2L740,420.2z"
   id="path7" />
			<path
   class="st2"
   d="M741.9,411.9l0.2-0.3c0.8-1.4,2.4-1.9,3.8-1.2l7.7,4.1c1.4,0.8,1.9,2.4,1.2,3.8l-0.2,0.3     c-0.8,1.4-2.4,1.9-3.8,1.2l-7.7-4.1C741.7,414.9,741.2,413.2,741.9,411.9z"
   id="path8" />
			<path
   class="st4"
   d="M742,411.9l0.1-0.3c0.8-1.4,2.4-1.9,3.8-1.2l7.7,4.1c1.4,0.8,1.9,2.4,1.2,3.8l-0.1,0.3     c-0.8,1.4-2.4,1.9-3.9,1.2l0,0l-7.7-4.1C741.8,415,741.3,413.3,742,411.9L742,411.9z"
   id="path9" />
			<path
   class="st2"
   d="M743.9,426.3l13.1-8.3c1.3-0.9,3.1-0.4,3.9,0.9l0.2,0.3c0.9,1.3,0.4,3.1-0.9,3.9l-13.1,8.3     c-1.3,0.9-3.1,0.4-3.9-0.9l-0.2-0.3C742.1,428.9,742.5,427.2,743.9,426.3z"
   id="path10" />
			<path
   class="st5"
   d="M743.8,426.4l13-8.2c1.3-0.9,3.1-0.4,3.9,0.9l0.2,0.2c0.9,1.3,0.4,3.1-0.9,3.9l-13,8.2     c-1.3,0.9-3.1,0.4-3.9-0.9l0,0l-0.2-0.3C742,429,742.5,427.2,743.8,426.4L743.8,426.4L743.8,426.4z"
   id="path11" />
			<path
   class="st2"
   d="M747.7,432.5l12.2-7.7c1.3-0.9,3.1-0.4,3.9,0.9l0.2,0.3c0.9,1.3,0.4,3.1-0.9,3.9l-12.2,7.7     c-1.3,0.9-3.1,0.4-3.9-0.9l-0.2-0.3C746,435.1,746.4,433.3,747.7,432.5z"
   id="path12" />
			<path
   class="st5"
   d="M747.7,432.5l12.2-7.7c1.3-0.9,3.1-0.4,3.9,0.9l0,0l0.2,0.3c0.9,1.3,0.4,3.1-0.9,3.9l-12.2,7.7     c-1.3,0.9-3.1,0.4-3.9-0.9l0,0l-0.2-0.3C746,435.1,746.4,433.3,747.7,432.5z"
   id="path13" />
			<path
   class="st2"
   d="M752.4,437.5l10.6-6.7c1.1-0.7,2.5-0.3,3.2,0.8l0.2,0.2c0.7,1.1,0.3,2.5-0.8,3.2l-10.6,6.7     c-1.1,0.7-2.5,0.3-3.2-0.8l-0.2-0.2C751,439.7,751.3,438.2,752.4,437.5z"
   id="path14" />
			<path
   class="st5"
   d="M752.4,437.6l10.6-6.7c1.1-0.7,2.5-0.3,3.2,0.8l0.2,0.2c0.7,1.1,0.3,2.5-0.8,3.2l-10.6,6.7     c-1.1,0.7-2.5,0.3-3.2-0.8l-0.2-0.2C751,439.7,751.4,438.3,752.4,437.6z"
   id="path15" />
		</g>
		<polygon
   points="738.4,433.9 743.9,436.4 758.5,418.3 723.4,440.4 720,434.9 755,412.9 732.4,418.1 732.3,424.2 715.9,416.6     759.2,406.6 760,408 772.7,405.5 765.1,415.9 765.9,417.3 738.1,452   "
   id="polygon15" />
		<path
   class="st6"
   d="M771.8,406.2l-7.1,9.8l0.8,1.4l-26.9,33.5l0.2-16.2l5.3,2.4l16.3-20.2l-36.8,23.1l-1.5-2.4l-1.5-2.4    l36.8-23.1l-25.3,5.9l-0.1,5.8l-14.7-6.8l41.9-9.7l0.8,1.4L771.8,406.2 M773.6,405l-2,0.4l-11.4,2.1l-0.5-0.9l-0.3-0.5l-0.5,0.2    l-41.9,9.7l-2.3,0.6l2.1,0.9l14.7,6.8l1.1,0.5l0-1.3l0.1-5.2l20-4.7L720,434.4l-0.7,0.4l0.4,0.7l1.5,2.4l1.6,2.4l0.4,0.7l0.7-0.4    l32.7-20.6l-12.9,15.9l-4.7-2.1l-1.1-0.5l0,1.3l-0.2,16.2l-0.1,2.4l1.5-1.8l26.9-33.5l0.4-0.5l-0.3-0.5l-0.5-0.9l6.9-9.3    L773.6,405L773.6,405z"
   id="path16" />
		
			<image
   style="overflow:visible;enable-background:new    ;"
   width="18"
   height="29"
   xlink:href="C17E5358.png"
   transform="matrix(0.9818 0.19 -0.19 0.9818 629.7028 477.669)"
   id="image16">
		</image>
		
			<rect
   x="646"
   y="455.9"
   transform="matrix(0.8463 -0.5327 0.5327 0.8463 -141.5826 434.0202)"
   class="st7"
   width="70.9"
   height="13"
   id="rect16" />
		
			<rect
   x="624.3"
   y="494.8"
   transform="matrix(0.8463 -0.5327 0.5327 0.8463 -168.1738 416.73)"
   class="st8"
   width="27.8"
   height="10"
   id="rect17" />
		
			<image
   style="overflow:visible;enable-background:new    ;"
   width="51"
   height="24"
   xlink:href="C17E5359.png"
   transform="matrix(0.9818 0.19 -0.19 0.9818 662.2599 446.2839)"
   id="image17">
		</image>
		
			<image
   style="overflow:visible;enable-background:new    ;"
   width="47"
   height="35"
   xlink:href="C17E535F.png"
   transform="matrix(0.9818 0.19 -0.19 0.9818 661.3733 429.8154)"
   id="image18">
		</image>
		
			<image
   style="overflow:visible;enable-background:new    ;"
   width="53"
   height="59"
   xlink:href="C17E535A.png"
   transform="matrix(0.9818 0.19 -0.19 0.9818 667.264 430.9554)"
   id="image19">
		</image>
		<path
   class="st9"
   d="M653.5,495.9l-8.6-13.6c-3.4-5.4-1.8-12.7,3.7-16l7.6-4.8l5.9,9.5l-4.6,2.9c-2.1,1.3-2.8,4.2-1.4,6.3    l6.4,10.1L653.5,495.9z"
   id="path19" />
		<polygon
   class="st10"
   points="693.7,446.8 704.4,463.9 713.4,458.1 720,461.3 736.2,451.1 722.2,428.9   "
   id="polygon19" />
		<line
   class="st11"
   x1="718.9"
   y1="443.6"
   x2="730.7"
   y2="450.1"
   id="line19" />
		<line
   class="st11"
   x1="713.4"
   y1="447"
   x2="725.2"
   y2="453.6"
   id="line20" />
		<line
   class="st11"
   x1="708"
   y1="450.5"
   x2="719.7"
   y2="457.1"
   id="line21" />
		<path
   class="st9"
   d="M716.4,434.1l0.3,0.4c1.2,1.9,0.7,4.5-1.3,5.8l-28.9,18.2c-1.9,1.2-4.5,0.7-5.8-1.3l-0.3-0.4    c-1.2-1.9-0.7-4.5,1.3-5.8l28.9-18.2C712.7,431.5,715.2,432.1,716.4,434.1z"
   id="path21" />
		<circle
   id="lla1"
   class="st12"
   cx="627.2"
   cy="497.7"
   r="3" />
		<circle
   id="lla2"
   class="st12"
   cx="744"
   cy="430"
   r="3" />
	</g>
	<g
   id="UpperArm">
		
			<rect
   x="592.7"
   y="473.6"
   transform="matrix(0.7338 -0.6794 0.6794 0.7338 -181.0685 537.9036)"
   class="st13"
   width="6.2"
   height="52.7"
   id="rect21" />
		<path
   class="st14"
   d="M617,501.6l-7.2,13.4c-1.1,2.1-0.9,4.7,0.8,6.5l0,0c1.6,1.8,4.1,2.3,6.3,1.3l14-6.2L617,501.6z"
   id="path22" />
		
			<image
   style="overflow:visible;enable-background:new    ;"
   width="87"
   height="116"
   xlink:href="C17E535B.png"
   transform="matrix(0.9754 -0.2203 0.2203 0.9754 536.4805 422.3051)"
   id="image22">
		</image>
		<path
   class="st14"
   d="M551.2,442.1l31.5,34.1c2.4,2.5,2.2,6.4-0.3,8.8l0,0c-2.5,2.4-6.4,2.2-8.8-0.3L542,450.6    c-2.4-2.5-2.2-6.4,0.3-8.8l0,0C544.9,439.5,548.8,439.6,551.2,442.1z"
   id="path23" />
		
			<rect
   x="572.8"
   y="393.8"
   transform="matrix(0.9091 -0.4165 0.4165 0.9091 -125.2847 278.2556)"
   class="st15"
   width="4.5"
   height="64.8"
   id="rect23" />
		<path
   class="st14"
   d="M556.1,412.1l7.2-13.4c1.1-2.1,0.9-4.7-0.8-6.5l0,0c-1.6-1.8-4.1-2.3-6.3-1.3l-14,6.2L556.1,412.1z"
   id="path24" />
		<polygon
   class="st16"
   points="613.8,496.1 541.1,417.6 549.6,409.6 591.2,454.6 616.9,488.6   "
   id="polygon24" />
		
			<ellipse
   transform="matrix(9.465324e-02 -0.9955 0.9955 9.465324e-02 81.0933 911.8221)"
   class="st17"
   cx="541.9"
   cy="411.3"
   rx="15.9"
   ry="15.9"
   id="ellipse24" />
		
			<ellipse
   transform="matrix(9.465320e-02 -0.9955 0.9955 9.465320e-02 81.0933 911.8221)"
   class="st14"
   cx="541.9"
   cy="411.3"
   rx="7.4"
   ry="7.4"
   id="ellipse25" />
		
			<image
   style="overflow:visible;enable-background:new    ;"
   width="76"
   height="83"
   xlink:href="C17E5356.png"
   transform="matrix(0.9754 -0.2203 0.2203 0.9754 532.1696 430.4547)"
   id="image25">
		</image>
		
			<image
   style="overflow:visible;enable-background:new    ;"
   width="79"
   height="70"
   xlink:href="C17E5357.png"
   transform="matrix(0.9754 -0.2203 0.2203 0.9754 531.8862 442.8208)"
   id="image26">
		</image>
		<path
   class="st14"
   d="M627.9,514.3l-16.1-17.4c-1-1.1-0.9-2.8,0.2-3.8l0,0l8.6-8c0.6-0.5,1.5-0.5,2,0.1l0,0l9.4,10.1    c0.3,0.3,0.4,0.7,0.4,1.1l-2,17.1c-0.1,0.8-0.7,1.3-1.5,1.3C628.5,514.8,628.2,514.6,627.9,514.3z"
   id="path26" />
		<ellipse
   class="st18"
   cx="628.5"
   cy="504.9"
   rx="14.2"
   ry="14.2"
   id="ellipse26" />
		<polygon
   class="st17"
   points="526.3,414.6 534.8,417.1 543.7,426.7 532.2,437.3 518.2,422.4   "
   id="polygon26" />
		<path
   class="st17"
   d="M523.3,410.1l12.3,13.3c0,0-2.6,2.5-2.8,5.7c-0.1,3.2-0.6,5.2,2.1,8.1l4.7,5l-5.8,5.4l-23.5-25.3    L523.3,410.1z"
   id="path27" />
		<circle
   id="lua2"
   class="st12"
   cx="542.1"
   cy="411.4"
   r="3" />
		<circle
   id="lua1"
   class="st12"
   cx="628.7"
   cy="504.9"
   r="3" />
	</g>
</g>
<g
   id="Layer_6">
	<g
   id="LeftThigh">
		<path
   class="st19"
   d="M520.6,605.9c5.8,1.5,11.1,3.4,20.1,10.4c9,7.1,21.1,14.4,30.6,23.3c9.5,8.9,21.6,16.3,33.5,26.7    s20.3,19.6,28.3,22.8c8.1,3.1,13.3,3.9,17.7,0.7s11.7-7,10.2-12.9c-1.4-5.9-3.4-9.4-10.8-14.8c-7.4-5.4-15.5-20.8-23.8-33.2    s-23.9-34.2-34.2-42c-10.2-7.7-24.5-19.6-33.6-23.5c-9.1-3.9-21.8-12.1-32-12.7c-10.4-0.5-20.6,0-28.3,10.2    c-6.2,8.2-8.9,13.5-2.4,27.3C502.3,602.4,513.7,604.3,520.6,605.9z"
   id="path28" />
		<path
   class="st20"
   d="M497.5,562.2c-5.2,7.9-7.9,13.2-1.6,26.4c6.5,13.9,16.1,22.9,23.2,24.7c5.8,1.5,9.3-0.2,18.2,6.8    c9,7.1,22.4,15,31.7,24.1c9.5,9.1,24.1,12,36,22.4c11.9,10.4,20.3,19.6,28.3,22.8c8.1,3.1,5.2,2.3,10.6,3.1c0,0,1.2-3.3-0.2-5    c-1.4-1.7-5.7-11-10.4-12.8c-4.6-2-19.8-9.5-23.7-12.7c-3.8-3.1-50.2-31.8-50.9-34.8c-0.7-3-2.2-4.6,0.9-8.4    c3.1-3.8,16.5-24.7,21.1-26.8s10.3-5.6,10.3-5.6s-18.6-13.8-21.6-16.3s-30-16.7-34.9-17.3C529.4,551.8,507.5,546.9,497.5,562.2z"
   id="path29" />
		<path
   class="st21"
   d="M660.7,676c-1.4-5.1-3.7-8.7-10.7-13.8c-7.4-5.4-15.5-20.8-23.8-33.2c-8.3-12.4-23.9-34.2-34.2-42    c-10.2-7.7-24.5-19.6-33.6-23.5c-9.2-3.9-21.8-12.1-32-12.7c-10.4-0.5-21-1.9-28.9,8.2c-6.2,8.2-10.6,14.9-5,29.1    c5.6,14.2,12.1,21.3,19.2,23.1c5.8,1.5,14.5,0.5,23.5,7.6c9,7.1,22.1,17.5,33,24.8c12.4,8.3,24.7,12.4,36.6,22.9    s21,18.4,28.3,22.8c3.6,2.2,10.3,3.1,11.1,3.4"
   id="path30" />
		<path
   d="M545.1,627.6c-2.6-1.3-5.2-2.9-7.8-4.5c-5.4-3.3-11.6-7.3-15.3-8.2c-5.7-1.3-20.5-14.9-23.7-19.1    c-2.9-4.1-8.9-19.1-6.7-26.9c1.4-5.2,10.9-13.7,19.1-15.8c1-0.2,2-0.4,3-0.4c9.1-0.2,36.6,4.3,44.8,9.1c1.2,0.8,2.8,1.7,4.5,2.7    c6.5,3.8,19.8,11.6,20.9,14.2C582.1,583.3,550.1,623.4,545.1,627.6z"
   id="path31" />
		<path
   d="M511.1,554.8L511.1,554.8c0.9-0.2,1.8-0.4,2.7-0.4c8.9-0.1,36.3,4.4,44.1,9c1.2,0.8,2.8,1.7,4.5,2.7    c5.8,3.4,17.3,10.1,20,13c-4.2,7.1-31.5,40.6-37.4,46.8c-1.5-0.8-4.4-2.6-6.7-4c-5.9-3.6-11.9-7.3-15.8-8.3    c-4.9-1.1-19.5-14.1-22.7-18.5c-2.9-3.9-8.5-18.3-6.6-25.7C494.3,565.4,503.1,556.8,511.1,554.8 M510.4,551.9    c-8.7,2.1-18.7,11.2-20.2,16.8c-2.4,8.5,3.9,23.7,6.9,28.2c3.2,4.4,18.3,18.3,24.5,19.6c6.2,1.3,21.7,13.1,23.7,12.7    c1.9-0.5,39.8-47,40.1-50.1c0.3-3.2-17.7-13.1-26.2-18.2c-8.5-5.1-36.4-9.5-45.6-9.4C512.6,551.4,511.5,551.6,510.4,551.9z"
   id="path32" />
		<circle
   id="lt2"
   class="st12"
   cx="517.9"
   cy="576.3"
   r="4" />
		<circle
   id="lt1"
   class="st12"
   cx="650.3"
   cy="677.4"
   r="3" />
	</g>
	<g
   id="LeftCrus">
		<path
   class="st19"
   d="M637.6,694c-1.4,4.2-2.5,8.6-3,13c-0.5,6.3,1.8,20.2,2.9,25.1c1.2,4.9,13.4,25.6,17.6,30.7    c4.3,5.2,14.3,21.2,17,27.9c2.5,6.5,2.9,25.1,4.8,28.7c1.9,3.7,8.7,6.1,11.6,5.5c2.9-0.7,16.3-4.9,19.9-6.9    c3.7-1.9,13-6.2,17.8-7.3c4.8-1.2,13.4-4.2,14.1-5.5c0.7-1.2,1.5-10.7-2.6-10.7c-4.2,0-8.3-0.1-12.6,3c0,0-13.3,2.6-17.5,1.7    c-4.4-0.9-15-2.6-17.4-8.2c-2.4-5.5-22.1-92.4-22.9-95.3c-0.8-2.9-4.8-15.7-5-20.6c0-5-1.7-7-4.1-6.5    C649.8,669.8,637.6,694,637.6,694z"
   id="path33" />
		<path
   class="st20"
   d="M711,812c-1.9-2.2-5-3.2-7.7-2.3c-3.9,1-12.6,7.2-17.1,6.1c-4.4-0.9-2.1-4.6-2.7-11.6s-8.3-17.5-11.9-28    c-3.5-10.5-20.2-37.3-20.2-37.3c-1.9-3.7-6.7-23.1-7.2-30.1c-0.5-6.1,2-12.8,2.6-15c0.5-2.1-3.5-10.5-3.5-10.5    c-2.1,3.5-4.1,6.9-5.7,10.6c-1.4,4.2-2.5,8.6-3,13c-0.5,6.3,1.8,20.2,2.9,25.1c1.2,4.9,13.4,25.6,17.6,30.7    c4.2,5.1,14.3,21.2,17,27.9c2.5,6.5,2.9,25.1,4.8,28.7c1.9,3.7,8.7,6.1,11.6,5.5c2.9-0.7,16.3-4.9,19.9-6.9    c1.4-0.7,3.2-1.3,5.6-2.3L711,812z"
   id="path34" />
		<path
   class="st21"
   d="M640.6,687.5c-1.8,5.6-5,13.5-5.5,19.8c-0.5,6.3,2.3,20,3.9,24.7c1.9,5.2,11.8,25.5,16.1,30.6    c4.3,5.2,14.3,21.2,17,27.9c2.5,6.5,2.9,25.1,4.8,28.7c1.9,3.7,8.7,6.1,11.6,5.5c2.9-0.7,16.3-4.9,19.9-6.9c3.6-2,13-6.2,17.8-7.3    c4.8-1.2,13.4-4.2,14.1-5.5c0.7-1.2,1.5-10.7-2.6-10.7c-4.2,0-8.3-0.1-12.6,3c0,0-13.3,2.6-17.5,1.7c-4.4-0.9-14.2-3.7-16.7-9.3    c-2.3-5.6-22.8-91.2-23.6-94c-0.7-2.9-4.8-15.7-5-20.6c0-5-4.7-8.2-4.7-8.2"
   id="path35" />
		<circle
   id="lc2"
   class="st12"
   cx="652"
   cy="677.2"
   r="3" />
		<circle
   id="lc1"
   class="st12"
   cx="689"
   cy="810.2"
   r="3" />
	</g>
</g>
<g
   id="Torso">
	<path
   class="st19"
   d="M544.5,353.5c0,0-5,8-2,20s19,12,24,15c3.3,2,7,17,12,33c1.2,3.9,1,13-1,19c-5,15-14.1,19.5-24,33   c-8.5,11.5-15,31.7-15,46c0,26.2,8.4,27.6,12.5,41.5c0.8,2.6-5.9,6.2-8,9c-6,8-24,30-38,41c-3.7,2.9-8.4,4-13,1c-15-10-16-22-23-37   c-2.1-4.4-8.2-9.3-6.2-14.5c6.5-17,20.5-35.5,19.7-57c-1-28-11.5-70.5-11.5-70.5c-5-14.6-5-30.4,0-45c4-12,24-19,34-27s7-43,7-43   s3.1-0.8,4-1c2.9-0.6,5,2,10,5s14,14,15,17S544.5,353.5,544.5,353.5z"
   id="path36" />
	<path
   class="st20"
   d="M494.5,447.5c-1-8,5-20,5-25s1-14-3-20s-8-24-2-28s14-8,17-14s7-18,7-25s1-14,0-18s-6-5-6-5s1,41-5.5,46.5   s-28.3,18.4-30.4,21s-16.3,14.5-8.2,43.5s12.4,61.1,12.4,61.1s20.7,3.9,26.7,5.9s17,16,19,24s3,24,8,31S545,560,537,568   s-21,19-29,21s-3,22-3,22s21.9-18.9,28-28s17.8-22.6,13-33s-6.8-13.6-7.1-22s0.6-32.5,5.6-39.5s9-19,21.5-30s13-26.5,13.3-30.3   S563.6,390.9,562,389s-7-4.2-8.8-4.8s-8.6-5-9.7-7.9s-8-5.8-8-1.8s10,11,18,21s13,19,12,26s-6,30-17,34s-44,11-49,5   C496.5,456.8,494.7,452.3,494.5,447.5z"
   id="path37" />
	<path
   class="st21"
   d="M512,320c0,0,3,33-7,41s-30,15-34,27c-5,14.6-5,30.4,0,45c0,0,10.5,42.5,11.5,70.5   c0.8,21.7-12.5,40.4-18.9,57.5c-1.9,4.9,3.3,9,4.9,13.5c4,11,6.5,16.4,14,26c7,9,8.3,14.9,17,13c11.9-2.6,24.9-24.1,36-31   c8-5,10-6,15-11c4.1-4.1,1.2-9-0.4-12.8c-4.5-10.4-11.6-16.4-11.6-39.2c0-14.3,6.5-34.5,15-46c9.9-13.5,19-18,24-33   c2-6,2.2-15.1,1-19c-5-16-15.7-33-19-35c-5-3-14-1-17-13s2-20,2-20"
   id="path38" />
	<path
   d="M543.3,490.1c-6.2-0.5-45.9-8-62.1-11.1c-1.9-4.7-7.8-31.5-11.3-52.7c-1-5.3-1.3-10.8-0.9-16.2c0.2-2.2,0.2-4.5,0-6.8   c-1.8-15.3,10.6-24.7,16-28c3.9-2.4,8.8-3.6,14.9-3.6c2.1,0,4.2,0.1,6.4,0.4c7.4,0.8,14.4,9.2,20.5,16.5c0.8,1,1.7,2,2.5,3   c1.9,2.2,3.3,5.6,4.8,9.2c3.1,7.4,6.9,16.6,16.8,20.2c3.4,1.1,6.9,1.6,10.5,1.5c5.1-0.1,10.1-0.6,15.1-1.6   c0.6,3.2,1.9,10.9,0.5,15.2c-0.3,0.9-0.6,1.8-0.9,2.7c-1.8,5.6-4,12.7-9.2,17l-0.1,0.1c-5.4,4.1-10,9.2-13.6,14.9   c-2.4,4-4.5,8-6.4,12.2C545.6,485.8,544.3,488.4,543.3,490.1z M498.8,374.8c-4.8,0-8.7,1-11.6,2.9c-6.6,4.4-8.7,12-9.7,22.1   c-1,10.4,6.8,21.4,12,28.7l0.2,0.4c2.9,4.1,9.4,11,19.7,11c2.2,0,4.3-0.3,6.4-0.9c11.1-3,15-7.5,16.1-18.3   c1-10.5-2.6-20.3-5.6-28.2c-3.4-9-12.9-15.7-20.1-17C503.8,375.1,501.3,374.8,498.8,374.8z"
   id="path39" />
	<path
   d="M500,373.1L500,373.1c2.1,0,4.1,0.1,6.2,0.4c2.2,0.3,4.3,1.2,6,2.4c-1.8-0.9-3.7-1.5-5.7-1.9c-2.6-0.5-5.2-0.7-7.8-0.7   c-5.1,0-9.2,1.1-12.4,3.2c-7.1,4.8-9.3,12.7-10.3,23.2c-1.1,11,7,22.2,12.3,29.7l0.3,0.4c3.1,4.3,9.9,11.6,20.9,11.6   c2.3,0,4.6-0.3,6.8-1c11.7-3.2,16-8.1,17.2-19.6c1.1-10.8-2.7-20.8-5.7-28.8c0.1,0.1,0.3,0.3,0.4,0.5c1.7,2,3.1,5.3,4.6,8.9   c3.2,7.7,7.2,17.3,17.7,21c3.6,1.1,7.3,1.7,11,1.5c4.7-0.1,9.3-0.5,13.9-1.4c0.7,3.9,1.4,9.7,0.3,13c-0.3,0.9-0.6,1.8-0.9,2.8   c-1.7,5.5-3.8,12.2-8.8,16.3l-0.1,0.1c-5.5,4.2-10.2,9.4-13.9,15.2c-2.4,4-4.5,8.2-6.5,12.5c-1.1,2.3-2.1,4.5-3,6.1   c-7.5-0.9-39.2-6.8-60.1-10.8c-2-5.9-7.4-30.5-10.9-51.7c-1-5.2-1.3-10.6-0.8-15.9c0.2-2.3,0.2-4.7,0-7   c-1.7-14.5,10.1-23.4,15.3-26.6C489.6,374.2,494.2,373.1,500,373.1 M500,370.1c-6.1,0-11.4,1.2-15.7,3.8   c-5.8,3.6-18.5,13.4-16.7,29.5c0.7,6.2-1.4,9.6,0.9,23.1c3.6,21.4,10,51,11.7,53.8c0,0,58.5,11.3,63.6,11.3c0.2,0,0.3,0,0.3-0.1   c2.5-3.8,6.2-13.5,10.3-20c3.6-5.6,8.1-10.5,13.4-14.6c6.6-5.4,8.6-14.5,10.6-20.4s-0.8-17.5-0.8-17.5c-5.4,1.2-10.8,1.8-16.3,1.9   c-3.4,0.1-6.8-0.4-10-1.4c-14-5-15-22-21-29c-6.9-8.1-15-19-24-20C504.3,370.3,502.2,370.2,500,370.1L500,370.1z M509.5,438.4   c-8.1,0-14.4-4.7-18.5-10.3c-5-7-13-18-12-28s3-17,9-21c3.1-2,7-2.7,10.8-2.7c2.4,0,4.8,0.2,7.2,0.7c7.2,1.3,16,8,19,16   s6.5,17.5,5.5,27.5c-1,9.8-4,14-15,17C513.5,438,511.5,438.3,509.5,438.4L509.5,438.4z"
   id="path40" />
	<path
   d="M497.6,613.7c-4,0-7.6-1.9-10.4-5.6c-7.3-9.5-10.3-16.8-13.4-24.5c-1.1-2.6-2.2-5.4-3.5-8.2c-0.8-1.7-1.8-3.4-2.8-5   c-2.2-3.7-4.9-8.3-4.1-10.7c1.8-5,4.2-9.8,7.2-14.2c5,0.3,31.3,2,41.1,2.9c2.1,0.2,4.6,0.3,7.6,0.3c9,0,19.5-0.9,22.7-1.2   c1.7,2.8,7.1,12.5,9.4,18.9c1.1,3.2-5.4,7.5-11.2,11.2c-5,3.2-9.6,6.2-11.7,9.5c-1.2,2-2.2,3.6-3,5c-4.5,7.6-4.6,7.8-19.6,18.6   C503.6,612.6,500.7,613.6,497.6,613.7z"
   id="path41" />
	<path
   d="M471.5,547.1c6.6,0.4,30.9,2,40.2,2.9c2.1,0.2,4.7,0.3,7.7,0.3c8.4,0,17.9-0.8,21.9-1.1c2,3.5,6.8,12,8.8,17.8   c0.7,2.1-6.3,6.7-10.6,9.4c-5.1,3.3-9.9,6.4-12.1,10c-1.2,2-2.2,3.6-3,5c-4.4,7.5-4.4,7.5-19.2,18.2c-2.2,1.6-4.9,2.6-7.6,2.6   c-3.5,0-6.7-1.7-9.2-5c-7.2-9.3-10.1-16.5-13.2-24.2c-1.1-2.7-2.2-5.4-3.5-8.3c-0.9-1.8-1.8-3.5-2.9-5.2c-1.7-2.9-4.6-7.7-4-9.4   C466.6,555.6,468.8,551.2,471.5,547.1 M470,544c-3.3,4.7-6,9.8-7.9,15.2c-1.5,4.3,4.6,11.8,6.9,16.8c5,11,7,20,17,33   c3.4,4.4,7.5,6.2,11.6,6.2c3.4-0.1,6.7-1.2,9.4-3.2c18-13,15-11,23-24c4.5-7.4,25.6-14.6,23-22c-2.8-7.9-10-20-10-20   s-12.8,1.3-23.5,1.3c-2.7,0-5.2-0.1-7.5-0.3C501,546,470,544,470,544z"
   id="path42" />
	<g
   id="Targets">
		<circle
   id="ruaTorso"
   class="st12"
   cx="504"
   cy="396"
   r="4" />
		<circle
   id="headTorso"
   class="st12"
   cx="531"
   cy="328"
   r="4" />
		<circle
   id="luaTorso"
   class="st12"
   cx="545"
   cy="389"
   r="4" />
		<circle
   id="rtTorso"
   class="st12"
   cx="489"
   cy="575"
   r="4" />
		<circle
   id="ltTorso"
   class="st12"
   cx="513"
   cy="575"
   r="4" />
	</g>
</g>
<g
   id="Layer_7">
	<g
   id="RightCrus">
		<path
   class="st19"
   d="M365.8,677.8c-2.9-3.5-5.9-6.7-9.4-9.5c-5-3.7-18-9.1-22.8-10.7c-4.7-1.5-28.8-2.1-35.4-1.1    s-25.6,1-32.6-0.1c-6.9-1.3-22.8-10.7-26.9-11c-4.2-0.4-9.9,4.1-10.8,7c-1,2.9-4.3,16.4-4.7,20.6c-0.4,4.2-1.6,14.2-3.1,18.9    c-1.6,4.7-3.5,13.6-2.7,14.9c0.8,1.3,8.3,6.9,10.5,3.5c2.2-3.5,4.3-7,4.1-12.3c0,0,4.8-12.6,7.8-15.7c3.2-3.1,10.1-11.5,16.1-10.5    c6,0.9,90.2,29.8,93.1,30.7c2.9,1,15.8,4,20.1,6.5c4.3,2.5,6.8,2.1,7.7,0C379.8,701,365.8,677.8,365.8,677.8z"
   id="path43" />
		<path
   class="st20"
   d="M226.7,678.3c2.9-0.5,5.2-2.6,6-5.4c1.3-3.8,0.6-14.6,3.7-17.7c3.2-3.1,5.1,0.7,11.4,3.8    c6.3,3.1,19.3,2.2,30,4.6c10.8,2.4,42.4,2.4,42.4,2.4c4.2,0.4,23.2,6.4,29.4,9.7c5.3,2.8,9.8,8.5,11.5,10.1    c1.5,1.6,10.8,2.5,10.8,2.5c-1.8-3.6-3.8-7.1-6-10.4c-2.9-3.5-6-6.7-9.5-9.4c-5-3.7-18-9.1-22.8-10.7c-4.7-1.5-28.8-2.1-35.4-1.1    c-6.6,1-25.6,1-32.6-0.1c-6.9-1.3-22.8-10.7-26.9-11c-4.2-0.4-9.9,4.1-10.8,7c-1,2.9-4.3,16.4-4.7,20.6c-0.2,1.5-0.6,3.4-0.9,6    L226.7,678.3z"
   id="path44" />
		<path
   class="st21"
   d="M369.6,683.8c-3.7-4.3-8.9-11.3-14-15.1c-5-3.8-18.2-8.6-23.2-9.7c-5.3-1.2-27.8-3.4-34.5-2.4    c-6.6,1-25.6,1-32.6-0.1c-6.9-1.3-22.8-10.7-26.9-11c-4.2-0.4-9.8,4.1-10.8,7c-1,2.9-4.3,16.4-4.7,20.6    c-0.4,4.2-1.6,14.2-3.1,18.9c-1.6,4.7-3.5,13.6-2.7,14.9c0.8,1.3,8.3,6.9,10.5,3.5s4.3-7,4.1-12.3c0,0,4.8-12.6,7.8-15.7    c3.2-3.1,10.7-10.2,16.8-9.2c6,0.9,89.6,28.5,92.5,29.5c2.9,1,15.8,4,20.1,6.5c4.3,2.5,9.4,0.3,9.4,0.3"
   id="path45" />
		<circle
   id="rc2"
   class="st12"
   cx="370.9"
   cy="696.9"
   r="4" />
		<circle
   id="rc1"
   class="st12"
   cx="241.5"
   cy="661.2"
   r="4" />
	</g>
	<g
   id="RightThigh">
		<path
   class="st19"
   d="M462,578.9c-2.2,5.6-4.8,10.7-13.1,18.6c-8.1,7.9-17,19.1-27.1,27.2c-10.1,8.3-19,19.3-30.8,29.6    c-11.9,10.4-22.1,17.6-26.3,25.1s-5.6,12.7-3.1,17.4c2.5,4.7,7.7,3,11.7,7.5c4,4.6,9.5,2.1,15.7-4.6c6.3-6.7,22.7-12.6,36-19.2    s37.1-19.3,46-28.4c9-9.1,22.6-21.7,27.7-30.3c5.2-8.6,14.9-20,16.7-30.1c1.9-10.2,2.7-20.4-6.4-29.4c-7.4-7.2-12.2-10.7-26.9-6    C467.8,561,464.6,572.2,462,578.9z"
   id="path46" />
		<path
   class="st20"
   d="M508.5,561.5c-7.2-6.3-11.9-9.6-25.9-5.2c-14.5,4.6-24.8,13-27.5,19.7c-2.2,5.6-0.9,9-9.1,17.2    c-8.1,8-17.8,20.2-28,28.3c-10.2,8.2-15,22.3-27,32.8c-12,10.4-22.1,17.6-26.3,25.1c-4.2,7.6-3,4.9-4.5,10.1c0,0,3.2,1.7,5.1,0.4    c2-1.2,11.5-4.3,14.1-8.6s12-18.5,15.6-21.9c3.6-3.5,38.1-45.5,41.1-46c3-0.3,4.8-1.5,8.3,2.1c3.5,3.6,22.4,19.6,24,24.4    c1.5,4.9,4.2,10.9,4.2,10.9s16.1-16.5,19-19.3c2.8-2.7,20.3-27.5,21.6-32.5C514.5,594.2,522.3,573.6,508.5,561.5z"
   id="path47" />
		<path
   class="st21"
   d="M374.2,708.6c5.3-0.7,9.1-2.4,15-8.7c6.3-6.7,22.7-12.6,36-19.2s37.1-19.3,46-28.4    c9-9.1,22.6-21.7,27.7-30.3c5.2-8.6,14.9-20,16.7-30.1c1.9-10.2,4.7-20.6-4.4-29.6c-7.4-7.2-15.3-14.7-30-11    c-14.7,3.6-24.2,15.2-26.7,22.1c-2.2,5.6-4.1,14.5-12.2,22.4c-8.1,7.9-15.3,15.6-23.9,25.5c-9.7,11.1-15.5,22.8-27.4,33.4    c-12,10.5-21,18.4-26.3,25.1c-2.6,3.3-4.4,9.8-4.8,10.7"
   id="path48" />
		<path
   d="M480.6,645.4c-4.1-2.6-39.3-39.1-43-44.8c1.4-1.4,2.7-2.5,4.1-3.7c4-3.3,9-7.4,10.3-11.2c1.8-4.9,8.1-19.9,12.8-24.7    c2.7-2.7,11.7-8.4,15-9.4c3.7-1,10.9-0.3,18.2,1.9c1.6,0.5,3.3,1.1,4.7,1.7c5.3,2.2,13,15.1,13.2,24.2c0.2,9.1-8.9,35.4-15,43    c-1,1.2-2,2.6-3.3,4.1C492.7,632.2,483.2,644.5,480.6,645.4z"
   id="path49" />
		<path
   d="M498.1,552l-0.9,2.8c1.6,0.5,3,1.1,4.5,1.6c4.8,1.9,12.1,14.6,12.2,22.8c0.2,9-8.7,34.6-14.6,42.1c-1,1.2-2,2.6-3.3,4.1    c-4,5.2-12.3,15.8-15.5,18c-6.3-4.9-35.3-35.7-41.2-42.9c0.8-0.8,2.1-1.8,3.1-2.6c4.2-3.4,9.1-7.6,10.7-11.9    c1.7-4.6,8.1-19.5,12.4-24.2c2.7-2.7,11.5-8.1,14.3-9c3.4-1,10.5-0.2,17.2,2L498.1,552 M498.1,552c-7.1-2.3-14.8-3.2-18.9-1.9    c-3.4,1-12.7,6.8-15.6,9.7c-5.1,5.4-11.8,21.4-13,25.2c-2.3,5.9-14.8,13.5-14.6,15.5c0.2,2,40.9,45.2,44.5,46.2l0,0    c3.1,0.7,15.3-15.9,21.5-23.6c6.3-7.7,15.4-34.1,15.2-43.9c-0.2-9.3-8.1-23.1-14-25.6C501.4,553,499.8,552.5,498.1,552L498.1,552z    "
   id="path50" />
		<circle
   id="rt2"
   class="st12"
   cx="489.6"
   cy="580.4"
   r="4" />
		<circle
   id="rt1"
   class="st12"
   cx="371.6"
   cy="696.6"
   r="4" />
	</g>
</g>
<g
   id="Layer_8">
	<path
   class="st19"
   d="M548.5,355.5c0,0-18-6-19-9s-6-26-8-27s-13-2-15-5s-4-12-3-16s7-9,10-9s9,3,12,6s11,0,13-3s8-12,13-15   s10-10,15-9s16,6,17,9s3,10,2,15s-5,12-5,15c0,6,6,9,7,13s-2,6-4,7c-1.3,0.6-4,2-4,5s1,9-2,12c-2.5,2.5-4,8-4,10c0,5-6,7-9,7   C562.5,361.5,548.5,355.5,548.5,355.5z"
   id="path51" />
	<path
   class="st20"
   d="M555.1,358.2c-3.5-1.4-6.6-2.7-6.6-2.7s-18-6-19-9s-6-26-8-27s-13-2-15-5s-4-12-3-16s7-9,10-9s9,3,12,6   s11,0,13-3s8-12,13-15s10-10,15-9c3.5,0.9,6.8,2.1,10,3.8c0,0-24.5,22.3-26,42.2C548.5,340.5,555.1,358.2,555.1,358.2z"
   id="path52" />
	<path
   class="st21"
   d="M548.5,355.5c0,0-17.4-6.2-19-9c-4-7-6-26-8-27s-13-2-15-5s-4-12-3-16s7-9,10-9s9,3,12,6s11,0,13-3   s8-12,13-15s10-10,15-9s16,6,17,9s3,10,2,15s-5,12-5,15c0,6,6,9,7,13s-2,6-4,7c-1.3,0.6-4,2-4,5s1,9-2,12c-2.5,2.5-4,8-4,10   c0,5-6,7-9,7C562.5,361.5,548.5,355.5,548.5,355.5z"
   id="path53" />
	<path
   class="st22"
   d="M520.5,301.5c1-2-5.7-7.9-9,1c-3,8,3.3,9.7,5,8"
   id="path54" />
	<path
   d="M582,303l-1,10c0,0-41.6-4.2-47-13c-8.9-14.5,46-30,46-30s4.4,11,5.2,15.3S582,303,582,303z"
   id="path55" />
	<path
   class="st6"
   d="M488.5,268.5c0,0,4,2,4,6s-5,14-5,21s1,17,5,24s9,15,12,16s7,0.7,7.5-1.7s1.5-12.3-1.5-15.3s-7-5-8-14   s6-16,10-16s12,3,14,6s28,0,37-5s23-13,22-18s-7-15-15-17c-8-2-19-5-27-5s-24,5-28,9c-4,4-16-1-16-1L488.5,268.5z"
   id="path56" />
	<circle
   id="h1"
   class="st12"
   cx="531"
   cy="328"
   r="4" />
	<circle
   id="h2"
   class="st12"
   cx="481"
   cy="253"
   r="4" />
	<path
   class="st23"
   d="M579,278c0,0-12-11-17-13s-25-3-25-3s7,6,8,8s-8-3-15-4c-4-0.6-8.1-0.3-12,1c0,0,6,5,9,5s7,3,7,3h-14   c-3,0.2-6,0.5-9,1l6,6c0,0-8-2-10-2s-7,3-7,3l4,4c-1.1,0.5-2.1,1.2-3,2c-1,1-2,4-2,4l-2-6c0,0-1,14,0,17s5,10,6,14   c0.6,2.6,0.6,5.4,0,8c0,0-2-8-5-9c-2-0.6-4-0.6-6,0c0,0,4.3,11.8,6.6,12.4s6.4,6.6,8.4,6.6s6-1,5-6c-0.6-3.6-1-7.3-1-11   c0,0-5.4-4.4-6.2-6.7s-3.6-10-1.7-14.2s5.3-9.7,8.1-9.4c2.8,0.3,11.9,1.2,14.9,5.2S541,296,541,296s19.5-4.8,23.2-6.9   S579,278,579,278z"
   id="path57" />
	<path
   class="st24"
   d="M488.5,268.5c0,0,4,2,4,6s-5,14-5,21s1,17,5,24s9,15,12,16s7,0.7,7.5-1.7s1.5-12.3-1.5-15.3s-7-5-8-14   s6-16,10-16s12,3,14,6s28,0,37-5s23-13,22-18s-7-15-15-17c-8-2-19-5-27-5s-24,5-28,9c-4,4-16-1-16-1L488.5,268.5z"
   id="path58" />
	<g
   id="HairBand">
		<line
   class="st25"
   x1="488"
   y1="273"
   x2="504"
   y2="256"
   id="line58" />
		<line
   class="st25"
   x1="487"
   y1="268"
   x2="499"
   y2="254"
   id="line59" />
		<line
   class="st25"
   x1="480"
   y1="266"
   x2="496"
   y2="249"
   id="line60" />
		<line
   class="st25"
   x1="476"
   y1="262"
   x2="490"
   y2="247"
   id="line61" />
	</g>
</g>
<g
   id="Layer_9">
	<path
   class="st6"
   d="M340,319c5-3,5-8,8-17s14-15,28-23s19-15,22-21c3-6,20-19,30-26s28-10,39-13s23,5,26,9s2,13-1,15s-17,20-17,23   s-13,20-19,24s-16,6-23,10c-4.6,2.6-12.3,11.4-17,17l-1,2c-1.7,5.1-3.7,10.1-6,15c-3,6-17,18-23,24s-21,15-21,15s4-7,5-10s0-7,0-7   s-9,11-15,18s-25,18-36,24s-28,11-40,14c-2,0.5-7,2-7,2c-1.9,1.1-3,1.6-4,3c-3,4-7.2,6.8-12,8c-4.4,1-8.6,3-12,6c-2,2-32,13-33,10   s14-33,19-43s20-17,25-20s20-7,27-10s26-7,30-8s6-8,6-8s-9,0-10-3s-6-3-9-3s-7,5-6-1s8-8,11-11s12-10,17-12S335.9,321.5,340,319z"
   id="path61" />
	<path
   class="st26"
   d="M296.4,339.5c0,0,8.6-2.5,13.6,0.5s4,6,7,6s8-3,10-1s1,5-3,8s-8,7-9,9s-9,6-12,5c-1.9-0.7-3.5-2.1-4.5-3.9   c0,0,14.5-2.1,16.5-6.1s1.7-5.3-1.7-5.2c-2.7,0-5.3-1-7.3-2.8c-2.8-2.8-7.1-3.5-10.6-1.7C290,350,296.4,339.5,296.4,339.5z"
   id="path62" />
	<path
   class="st26"
   d="M345,311.2c0,0,10-6.2,14-9.2s11-5,12-7s3-3,5-2s-1,7-4,10s-10,10-15,12c-2.9,1.2-6,1.7-9.1,1.5L345,311.2z"
   id="path63" />
	<path
   class="st26"
   d="M294.2,382.2c0,0,3.8-3.2,4.8-1.2s-7,12-7,14s-1,4,2,3s29-11,38-20s38-38,39-43s2-8,4-7s2,6,1,9s-1,11,0,13   s20-16,23-25s14-33,17-37s4-15,8-15s2,11,5,13s19-7,27-15s18-24,22-26s9.1,3.1,9.1,3.1s-16.3,26-19.7,29.9s-12.3,15.5-27.4,18.7   s-24.8,22.6-27.9,29.4s-19,27.5-30.6,35.6s-15.4,10.5-15.4,10.5S371,361,370,359s-3-2-5,2s-13,19-29,28s-41.5,20.1-55.2,22.5   s-23.4,1-23.4,1s14.2-5.9,21.9-13.7S294.2,382.2,294.2,382.2z"
   id="path64" />
	<path
   class="st26"
   d="M226.8,404.4c0.8,2.1,0.8,4.4,0.2,6.6c-1,4-4,13-1,15s24-8,27-11s16-1,16-1c-5.5,6.5-12.7,11.4-20.8,14   c-13.2,4-28.4,13.1-32.3,13s-4.4-3-4.4-3L226.8,404.4z"
   id="path65" />
	<path
   class="st27"
   d="M419,291c0,0-1,13-2,16l-5,15c0,0,14-18,21-22s17-6,23-10s19-21,19-24s14-21,17-23s4-11,1-15s-15-12-26-9   s-29,6-39,13s-27,20-30,26c-3,6-8,13-22,21s-25,14-28,23s-4,14-8,17"
   id="path66" />
	<path
   class="st27"
   d="M371,299c0,0-18,17-29,20s-16,1-21,3s-14,9-17,12s-10,5-11,11s3,1,6,1s8,0,9,3s10,3,10,3s-2,7-6,8s-23,5-30,8   s-22,7-27,10s-20,10-25,20s-20,40-19,43s31-8,33-10c3.4-3,7.6-5,12-6c4.8-1.2,9-4,12-8c2-3,8-4,8-4"
   id="path67" />
	<path
   class="st27"
   d="M296,380c0,0-23,28-31,30s-11,2-11,2s13,3,25,0s29-8,40-14s30-17,36-24s15-18,15-18s1,4,0,7s-5,10-5,10   s15-9,21-15s20-18,23-24s6-17,6-17"
   id="path68" />
	<circle
   id="hair1"
   class="st12"
   cx="481"
   cy="253"
   r="4" />
	<circle
   id="hair2"
   class="st12"
   cx="271"
   cy="396"
   r="4" />
</g>
<g
   id="Layer_4">
	<g
   id="RightLowerArm">
		<path
   class="st19"
   d="M398,400.9c5.2,4.3,5.3,12.5,4.4,29.5c-1.7,32.8-13.3,58.7-11.4,69.5c0.6,3.4,4.2,9.3,6.6,12.3    c1.7,1.9,2.6,4.4,2.6,6.9c0.2,2.6-4.5,7-3.1,12.6c1.2,5.8,2.6,6.9,1,9.1c-0.9,1.3-2.6,1.4-3.8,0.5l-0.1,0    c-0.2,1.9-1.7,3.5-3.5,4.2c-3.1,1-3.6-2.8-3.6-2.8c0.6,1.7-0.3,3.5-2.1,4.2l-0.1,0.1c-3.1,1-3.6-2.8-3.6-2.8s0.8,1.8-2.3,2.9    c-3.1,1-4.2-3.5-5.3-6.5c-1.4-4.5-2-9.4-1.5-14.1c0.8-5.3,3.7-9,3.7-14.8c-0.1-5.9-4.8-50.7-1.9-79.2c2.8-28.3,4.5-33.5,9.7-36.8    C389.1,392,393,396.9,398,400.9z"
   id="path69" />
		<path
   class="st20"
   d="M391.6,396.3c0,0-2.8,4.4-1.2,6.5c1.7,2.3,5.3,4.8,5,13.9c-0.3,9.1-1,39.3-3.4,49.1    c-2.6,9.8-5.9,25.4-5.3,28.5c0.7,3.1,0.9,7.2-1.2,8c-2.1,0.6-5.5,2.2-4.6,3.4s7.1,0.1,8.8,2.4c1.7,2.3,2.4,10.5,4.2,12.8    c1.7,2.3,3.9,4.7,3.9,4.7s2.6-4.9,2.4-7.9c-0.2-3.1-8.2-12.1-8.6-15.8c-0.3-3.7-0.5-13,1.8-19.7c2.3-6.7,9.7-45.3,9.3-54.7    c-0.4-9.6,0.8-20.5-2.1-23.4C397.8,401.2,394.7,398.7,391.6,396.3z"
   id="path70" />
		<path
   class="st28"
   d="M398,400.9c5.2,4.3,5.3,12.5,4.4,29.5c-1.7,32.8-13.3,58.7-11.4,69.5c0.6,3.4,4.2,9.3,6.6,12.3    c1.7,1.9,2.6,4.4,2.6,6.9c0.2,2.6-4.5,7-3.1,12.6c1.2,5.8,2.6,6.9,1,9.1c-0.9,1.3-2.6,1.4-3.8,0.5l-0.1,0    c-0.2,1.9-1.7,3.5-3.5,4.2c-3.1,1-3.6-2.8-3.6-2.8c0.6,1.7-0.3,3.5-2.1,4.2l-0.1,0.1c-3.1,1-3.6-2.8-3.6-2.8s0.8,1.8-2.3,2.9    c-3.1,1-4.2-3.5-5.3-6.5c-1.4-4.5-2-9.4-1.5-14.1c0.8-5.3,3.7-9,3.7-14.8c-0.1-5.9-4.8-50.7-1.9-79.2c2.8-28.3,4.5-33.5,9.7-36.8    C389.1,392,393,396.9,398,400.9z"
   id="path71" />
		<circle
   id="rla2"
   class="st12"
   cx="393.3"
   cy="402"
   r="3" />
		<circle
   id="rla1"
   class="st12"
   cx="386.2"
   cy="523.5"
   r="3" />
	</g>
	<g
   id="RightUpperArm">
		<path
   class="st19"
   d="M428.8,383.2c0,0,16.1-5.7,26.4-4.7c10.2,0.8,39.1,0.8,46,3.1c7,2.2,12.4,4.7,13.6,10.3    c1.2,5.6-2.5,14.1-5.6,16.2c-4.1,2.7-12.9,5.6-19.8,6.1c-11.4,0.9-26,5.7-36.2,5.3c-17.5-0.9-31.1-7.4-40.5-7.7    c-3.1,0-5.6,0.6-9.6-0.6c-4.3-1.3-8.6-5.9-12.6-7.8c-3-1.3-8.1,1.4-10-1c-7.3-9.6,29.6-21.2,45.4-17.8"
   id="path72" />
		<path
   class="st20"
   d="M493.4,413.3c0,0,1-3.3-2-4.5c-2.9-1.2-8.9-1.5-14-0.8c-5,0.7-26.3,3.5-37.2,1.8c-10.9-1.7-29.9-2.8-32.7-5    c-2.8-2.2-8.8-3.6-11.8-3.7c-2.7,0-5.5,0.1-8.1,0.6c0,0,1.9,0.4,5.8,3.3c2.8,2.2,7.7,5.5,9.7,5.6c0,0,12.8,0.6,18.9,2.5    c6,1.9,20.8,6.9,28.3,6.7c7.5,0,20.7-6,27.7-5.7C483.1,414.2,488.3,414,493.4,413.3z"
   id="path73" />
		<path
   class="st21"
   d="M426,384.2c-14.3-2.9-44.3,5.8-45.3,14.3c-0.1,1.2-0.1,2.5,0,3.8"
   id="path74" />
		<path
   class="st21"
   d="M402.6,411.2c3.6-0.1,7.5,0.1,10.2,0.2c9.4,0.3,21,7.8,38.4,8.6c9.6,0.4,24.5-7.6,35.4-6"
   id="path75" />
		<path
   class="st21"
   d="M415.9,387.9c0,0,33.4-10.2,43.7-10.5c11.2-0.3,35,1.2,41.6,4c6.8,2.7,12.4,4.7,13.6,10.3    c0.7,3.5,0.9,4.2-0.3,8"
   id="path76" />
		<line
   class="st29"
   x1="469.1"
   y1="376.4"
   x2="471.9"
   y2="416.7"
   id="line76" />
		
			<ellipse
   id="rua1"
   transform="matrix(0.9199 -0.3921 0.3921 0.9199 -114.9723 227.3553)"
   class="st12"
   cx="499.2"
   cy="395.2"
   rx="4"
   ry="4" />
		<circle
   id="rua2"
   class="st12"
   cx="391.7"
   cy="399"
   r="3" />
	</g>
</g>
</svg>
