<?xml version="1.0" encoding="utf-8"?>
<!-- Generator: Adobe Illustrator 28.1.0, SVG Export Plug-In . SVG Version: 6.00 Build 0)  -->
<svg version="1.1" id="Layer_1" xmlns="http://www.w3.org/2000/svg" xmlns:xlink="http://www.w3.org/1999/xlink" x="0px" y="0px"
	 viewBox="0 0 1024 1024" style="enable-background:new 0 0 1024 1024;" xml:space="preserve">
<style type="text/css">
	.st0{fill:#808080;}
	.st1{fill:none;stroke:#000000;stroke-width:2.15;stroke-miterlimit:10;}
	.st2{fill:#B3B3B3;}
	.st3{fill:none;stroke:#000000;stroke-width:2.29;stroke-miterlimit:10;}
	.st4{fill:none;stroke:#000000;stroke-width:1.21;stroke-miterlimit:10;}
	.st5{fill:none;stroke:#000000;stroke-width:1.56;stroke-miterlimit:10;}
	.st6{fill:#FFFFFF;}
	.st7{fill:#808080;stroke:#000000;stroke-width:2.14;stroke-miterlimit:10;}
	.st8{fill:#B3B3B3;stroke:#000000;stroke-width:1.86;stroke-miterlimit:10;}
	.st9{fill:#B3B3B3;stroke:#000000;stroke-width:2.6;stroke-miterlimit:10;}
	.st10{fill:#808080;stroke:#000000;stroke-width:2.44;stroke-miterlimit:10;}
	.st11{fill:none;stroke:#000000;stroke-width:3.54;stroke-linecap:round;stroke-miterlimit:10;}
	.st12{fill:#FF0000;}
	.st13{fill:#B3B3B3;stroke:#000000;stroke-width:2.27;stroke-miterlimit:10.0002;}
	.st14{fill:#808080;stroke:#000000;stroke-width:2.27;stroke-miterlimit:10;}
	.st15{fill:#B3B3B3;stroke:#000000;stroke-width:1.7;stroke-miterlimit:9.9998;}
	.st16{fill:#808080;stroke:#000000;stroke-width:2.05;stroke-miterlimit:10;}
	.st17{fill:#B3B3B3;stroke:#000000;stroke-width:2.27;stroke-miterlimit:10;}
	.st18{fill:#B3B3B3;stroke:#000000;stroke-width:2.27;stroke-miterlimit:9.9999;}
	.st19{fill:#959595;}
	.st20{fill:#828282;}
	.st21{fill:none;stroke:#000000;stroke-width:3;stroke-linecap:round;stroke-miterlimit:10;}
	.st22{fill:none;stroke:#696969;stroke-width:5;stroke-linecap:round;stroke-miterlimit:10;}
	.st23{fill:#DEDEDE;stroke:#DEDEDE;stroke-width:2;stroke-linecap:round;stroke-linejoin:round;}
	.st24{fill:none;stroke:#000000;stroke-width:4;stroke-linecap:round;stroke-miterlimit:10;}
	.st25{fill:none;stroke:#000000;stroke-width:8;stroke-linecap:round;stroke-miterlimit:10;}
	.st26{fill:#DEDEDE;}
	.st27{fill:none;stroke:#000000;stroke-width:4;stroke-linecap:round;stroke-linejoin:round;}
	.st28{fill:none;stroke:#000000;stroke-width:3;stroke-linejoin:round;}
	.st29{fill:none;stroke:#DEDEDE;stroke-width:4;stroke-linecap:round;stroke-miterlimit:10;}
</style>
<g id="Layer_10">
	<g id="LeftLowerArm">
		<g id="Hand">
			<polygon class="st0" points="669.6,490.6 673.3,503 696.4,504.5 701.4,502.7 694,477.9 			"/>
			<polygon class="st1" points="669.6,490.6 673.3,503 696.4,504.5 701.4,502.7 694,477.9 			"/>
			<polygon class="st2" points="688.5,480.7 681.9,491.8 671.4,496.8 668.3,486.6 685,476.7 			"/>
			<polygon class="st3" points="688.5,480.7 681.9,491.8 671.4,496.8 668.3,486.6 685,476.7 			"/>
			<path class="st2" d="M682.4,477.7l7.1-4.9c1.3-0.9,3-0.5,3.9,0.8l0.2,0.4c0.9,1.3,0.5,3-0.8,3.9l-7.1,4.9c-1.3,0.9-3,0.5-3.9-0.8
				l-0.2-0.4C680.8,480.3,681.1,478.5,682.4,477.7z"/>
			<path class="st4" d="M682.4,477.7l7.1-4.9c1.3-0.9,3-0.5,3.9,0.8l0,0l0.1,0.3c0.9,1.3,0.5,3-0.8,3.9l-7.1,4.9
				c-1.3,0.9-3,0.5-3.9-0.8l0,0l-0.1-0.3C680.8,480.3,681.1,478.6,682.4,477.7z"/>
			<path class="st2" d="M685.9,480.7l13.8-4.1c1.5-0.5,3.1,0.4,3.5,1.9l0.1,0.4c0.5,1.5-0.4,3.1-1.9,3.5l-13.8,4.1
				c-1.5,0.5-3.1-0.4-3.5-1.9l-0.1-0.4C683.5,482.7,684.4,481.2,685.9,480.7z"/>
			<path class="st5" d="M685.9,480.7l13.8-4.1c1.5-0.5,3.1,0.4,3.5,1.9l0,0l0.1,0.4c0.5,1.5-0.4,3.1-1.9,3.5l-13.8,4.1
				c-1.5,0.5-3.1-0.4-3.5-1.9l0,0l-0.1-0.4C683.5,482.7,684.4,481.2,685.9,480.7L685.9,480.7z"/>
			<path class="st2" d="M690.1,473.3l0.3-0.3c1.1-1.1,2.8-1.1,4-0.2l6.3,6c1.1,1.1,1.1,2.8,0.2,4l-0.3,0.3c-1.1,1.1-2.8,1.1-4,0.2
				l-6.3-6C689,476.2,689,474.4,690.1,473.3z"/>
			<path class="st4" d="M690.1,473.4l0.2-0.2c1.1-1.1,2.8-1.1,4-0.2l6.3,6c1.1,1.1,1.1,2.8,0.2,4l-0.2,0.2c-1.1,1.1-2.8,1.1-4,0.1
				l0,0l-6.3-6C689.1,476.3,689,474.5,690.1,473.4L690.1,473.4z"/>
			<path class="st2" d="M688,487.7l14.8-4.5c1.5-0.5,3.1,0.4,3.5,1.9l0.1,0.4c0.5,1.5-0.4,3.1-1.9,3.5l-14.8,4.5
				c-1.5,0.5-3.1-0.4-3.5-1.9l-0.1-0.4C685.6,489.7,686.5,488.2,688,487.7z"/>
			<path class="st5" d="M687.9,487.8l14.8-4.4c1.5-0.5,3.1,0.4,3.5,1.9l0.1,0.3c0.5,1.5-0.4,3.1-1.9,3.5l-14.8,4.4
				c-1.5,0.5-3.1-0.4-3.5-1.9l0,0l-0.1-0.4C685.5,489.8,686.5,488.2,687.9,487.8L687.9,487.8L687.9,487.8z"/>
			<path class="st2" d="M690.1,494.7l13.8-4.1c1.5-0.5,3.1,0.4,3.5,1.9l0.1,0.4c0.5,1.5-0.4,3.1-1.9,3.5l-13.8,4.1
				c-1.5,0.5-3.1-0.4-3.5-1.9l-0.1-0.4C687.7,496.7,688.5,495.2,690.1,494.7z"/>
			<path class="st5" d="M690.1,494.7l13.8-4.1c1.5-0.5,3.1,0.4,3.5,1.9l0,0l0.1,0.4c0.5,1.5-0.4,3.1-1.9,3.5l-13.8,4.1
				c-1.5,0.5-3.1-0.4-3.5-1.9l0,0l-0.1-0.4C687.7,496.7,688.5,495.2,690.1,494.7z"/>
			<path class="st2" d="M693.2,500.8l12-3.6c1.2-0.4,2.5,0.3,2.9,1.6l0.1,0.3c0.4,1.2-0.3,2.5-1.6,2.9l-12,3.6
				c-1.2,0.4-2.5-0.3-2.9-1.6l-0.1-0.3C691.3,502.5,692,501.1,693.2,500.8z"/>
			<path class="st5" d="M693.2,500.9l12-3.6c1.2-0.4,2.5,0.3,2.9,1.6l0.1,0.3c0.4,1.2-0.3,2.5-1.6,2.9l-12,3.6
				c-1.2,0.4-2.5-0.3-2.9-1.6l-0.1-0.3C691.3,502.6,692,501.3,693.2,500.9z"/>
		</g>
		<polygon points="680.7,493.6 685.4,497.5 704.3,484 664.6,495.8 662.7,489.6 702.4,477.8 679.2,476.7 677.4,482.6 663.7,470.9 
			708.1,472.9 708.5,474.4 721.4,475.5 711.3,483.4 711.7,485 675.6,510.9 		"/>
		<path class="st6" d="M720.3,475.8l-9.5,7.5l0.4,1.6l-34.9,25l4.6-15.6l4.5,3.7l21.1-15.1l-41.7,12.4l-0.8-2.8l-0.8-2.8l41.7-12.4
			l-26-1.1l-1.7,5.5L665,471.3l43,1.9l0.4,1.6L720.3,475.8 M722.4,475.2l-2.1-0.2l-11.5-1l-0.3-1l-0.1-0.6l-0.6,0l-43-1.9l-2.3-0.1
			l1.8,1.5l12.4,10.5l0.9,0.8l0.3-1.2l1.5-5l20.5,0.9l-37,11.1l-0.8,0.2l0.2,0.8l0.8,2.8l0.9,2.7l0.2,0.8l0.8-0.2l37-11.1
			l-16.7,11.9l-3.9-3.3l-0.9-0.8l-0.3,1.2l-4.6,15.6l-0.7,2.3l1.9-1.4l34.9-25l0.5-0.4l-0.1-0.6l-0.3-1l9.2-7.1L722.4,475.2
			L722.4,475.2z"/>
		
			<image style="overflow:visible;enable-background:new    ;" width="18" height="29" xlink:href="7B8CA7A6.png"  transform="matrix(0.8945 0.4471 -0.4471 0.8945 564.2528 506.4791)">
		</image>
		
			<rect x="582.6" y="499.2" transform="matrix(0.9584 -0.2853 0.2853 0.9584 -118.5967 197.3943)" class="st7" width="70.9" height="13"/>
		
			<rect x="552.5" y="525" transform="matrix(0.9584 -0.2853 0.2853 0.9584 -127.6915 183.6664)" class="st8" width="27.8" height="10"/>
		
			<image style="overflow:visible;enable-background:new    ;" width="51" height="24" xlink:href="7B8CA7A5.png"  transform="matrix(0.8945 0.4471 -0.4471 0.8945 604.0529 485.0094)">
		</image>
		
			<image style="overflow:visible;enable-background:new    ;" width="47" height="35" xlink:href="7B8CA7AC.png"  transform="matrix(0.8945 0.4471 -0.4471 0.8945 607.6293 468.9095)">
		</image>
		
			<image style="overflow:visible;enable-background:new    ;" width="53" height="59" xlink:href="7B8CA7AD.png"  transform="matrix(0.8945 0.4471 -0.4471 0.8945 612.9962 471.5923)">
		</image>
		<path class="st9" d="M582.2,530.5l-4.6-15.4c-1.8-6.1,1.7-12.7,7.8-14.5l8.6-2.6l3.2,10.7l-5.2,1.6c-2.4,0.7-3.8,3.3-3.1,5.7
			l3.5,11.4L582.2,530.5z"/>
		<polygon class="st10" points="634.2,494 639.9,513.3 650.1,510.2 655.6,515 674,509.6 666.5,484.4 		"/>
		<line class="st11" x1="659.3" y1="497.6" x2="668.9" y2="507.1"/>
		<line class="st11" x1="653.1" y1="499.5" x2="662.7" y2="509"/>
		<line class="st11" x1="646.9" y1="501.4" x2="656.5" y2="510.9"/>
		<path class="st9" d="M659.5,487.8l0.2,0.5c0.6,2.2-0.5,4.5-2.8,5.2l-32.8,9.8c-2.2,0.6-4.5-0.5-5.2-2.8l-0.2-0.5
			c-0.6-2.2,0.5-4.5,2.8-5.2l32.8-9.8C656.6,484.4,658.9,485.6,659.5,487.8z"/>
		<circle id="lla1" class="st12" cx="556.5" cy="525.1" r="3"/>
		<circle id="lla2" class="st12" cx="687.1" cy="491.3" r="3"/>
	</g>
	<g id="UpperArm">
		
			<rect x="535.5" y="474.9" transform="matrix(0.9981 -6.124607e-02 6.124607e-02 0.9981 -29.691 33.9272)" class="st13" width="6.2" height="52.7"/>
		<path class="st14" d="M553.9,516l-14,5.8c-2.2,0.9-3.7,3.1-3.5,5.5l0,0c0.2,2.4,1.7,4.4,4.1,5l14.7,4L553.9,516z"/>
		
			<image style="overflow:visible;enable-background:new    ;" width="87" height="116" xlink:href="7B8CA7AA.png"  transform="matrix(0.8945 0.4471 -0.4471 0.8945 541.8835 403.6218)">
		</image>
		<path class="st14" d="M540.7,428.3l2.8,46.4c0.2,3.5-2.4,6.4-5.8,6.6l0,0c-3.5,0.2-6.4-2.4-6.6-5.8l-2.8-46.4
			c-0.2-3.5,2.4-6.4,5.8-6.6l0,0C537.5,422.3,540.5,424.8,540.7,428.3z"/>
		
			<rect x="536.8" y="428.8" transform="matrix(0.2532 -0.9674 0.9674 0.2532 8.0803 872.5822)" class="st15" width="64.8" height="4.5"/>
		<path class="st14" d="M563.5,408.1l14-5.8c2.2-0.9,3.7-3.1,3.5-5.5l0,0c-0.2-2.4-1.7-4.4-4.1-5l-14.7-4L563.5,408.1z"/>
		<polygon class="st16" points="555,509.7 548.4,402.9 560,402.1 563.8,463.2 562.2,505.8 		"/>
		
			<ellipse transform="matrix(0.7071 -0.7071 0.7071 0.7071 -119.8343 507.7573)" class="st17" cx="553" cy="398.5" rx="15.9" ry="15.9"/>
		
			<ellipse transform="matrix(0.7071 -0.7071 0.7071 0.7071 -119.8343 507.7573)" class="st14" cx="553" cy="398.5" rx="7.4" ry="7.4"/>
		
			<image style="overflow:visible;enable-background:new    ;" width="76" height="83" xlink:href="7B8CA7AB.png"  transform="matrix(0.8945 0.4471 -0.4471 0.8945 533.3867 407.2003)">
		</image>
		
			<image style="overflow:visible;enable-background:new    ;" width="79" height="70" xlink:href="7B8CA7A4.png"  transform="matrix(0.8945 0.4471 -0.4471 0.8945 525.3376 416.5925)">
		</image>
		<path class="st14" d="M554.4,532.7l-1.5-23.7c-0.1-1.5,1-2.8,2.5-2.8l0,0l11.7-0.8c0.8-0.1,1.4,0.6,1.5,1.3l0,0l0.8,13.8
			c0,0.4-0.1,0.8-0.4,1.1l-12.4,11.9c-0.6,0.6-1.4,0.6-2,0C554.5,533.4,554.4,533.1,554.4,532.7z"/>
		<ellipse class="st18" cx="560.8" cy="525.8" rx="14.2" ry="14.2"/>
		<polygon class="st17" points="538.9,391.2 543.9,398.5 544.7,411.6 529,412.5 527.7,392.2 		"/>
		<path class="st17" d="M539.4,385.8l1.1,18.1c0,0-3.6,0.2-5.8,2.6c-2.1,2.4-3.7,3.6-3.5,7.7l0.5,6.8l-7.9,0.5l-2.2-34.5
			L539.4,385.8z"/>
		<circle id="lua2" class="st12" cx="553.1" cy="398.7" r="3"/>
		<circle id="lua1" class="st12" cx="561" cy="525.9" r="3"/>
	</g>
</g>
<g id="Layer_6">
	<g id="LeftThigh">
		<path class="st19" d="M498.1,576.5c-2,5.7-4.5,10.8-12.4,19s-16.3,19.6-26.2,28.1c-9.9,8.5-18.3,19.9-29.8,30.7
			c-11.6,10.8-21.6,18.3-25.5,26s-5.2,12.9-2.5,17.5c2.7,4.7,5.9,12.3,11.8,11.4c5.9-0.9,9.7-2.4,15.8-9.4
			c6.1-7,22.3-13.4,35.4-20.4s36.4-20.5,45.1-29.9s22-22.4,26.7-31.2c4.8-8.8,14.2-20.5,15.7-30.6c1.5-10.3,2-20.5-7.3-29.2
			c-7.5-7-12.6-10.3-27-5.1C503.5,558.5,500.5,569.6,498.1,576.5z"/>
		<path class="st20" d="M544,557.6c-7.4-6-12.3-9.2-26.1-4.2c-14.4,5.2-24.3,13.8-26.8,20.6c-2,5.7-0.7,9.2-8.6,17.4
			s-17.2,20.7-27,29.2s-14.3,22.8-25.9,33.6s-21.6,18.3-25.5,26s-2.8,5-4.1,10.2c0,0,3.3,1.5,5.1,0.3c1.8-1.3,11.4-4.7,13.8-9.1
			c2.4-4.4,11.4-18.9,14.9-22.4c3.5-3.6,36.6-46.8,39.5-47.3c3-0.4,4.8-1.7,8.4,1.8s23,18.9,24.7,23.7s4.6,10.8,4.6,10.8
			s15.6-17.1,18.3-19.9s19.4-28.2,20.6-33.1C551.2,590.4,558.1,569.2,544,557.6z"/>
		<path class="st21" d="M414.7,709c5.3-0.9,9-2.7,14.6-9.2c6.1-7,22.3-13.4,35.4-20.4s36.4-20.5,45.1-29.9
			c8.7-9.4,22-22.4,26.7-31.2c4.8-8.8,14.2-20.5,15.7-30.6c1.5-10.3,4-20.8-5.4-29.5c-7.5-7-13.9-12.1-28.5-7.9
			c-14.7,4.2-22.4,10-24.8,16.8c-2,5.7-1.9,14.4-9.8,22.7c-7.9,8.2-19.6,20.3-27.9,30.4c-9.4,11.5-14.7,23.4-26.3,34.2
			c-11.6,10.8-20.4,19.1-25.5,26c-2.5,3.4-4.1,9.9-4.5,10.8"/>
		<path d="M474.2,598.7c1.6-2.5,3.3-5,5.2-7.3c3.9-5.1,8.3-10.9,9.5-14.4c1.8-5.5,16.9-19.1,21.3-21.6c4.4-2.6,19.9-7,27.4-4.1
			c5.1,1.9,12.6,12.2,13.9,20.5c0.2,1,0.2,2.1,0.1,3.1c-0.8,9-7.8,36.1-13.5,43.7c-0.9,1.2-2,2.7-3.1,4.2
			c-4.4,6.1-13.5,18.5-16.2,19.5C514.6,639.8,477.9,604,474.2,598.7z"/>
		<path d="M550,572L550,572c0.1,0.9,0.2,1.8,0.1,2.8c-0.8,9-7.9,35.8-13.2,43c-0.9,1.2-2,2.7-3.1,4.2c-3.9,5.4-11.8,16.1-14.9,18.6
			c-6.6-4.8-37.3-35.4-42.9-41.8c1-1.5,3-4.2,4.6-6.2c4.2-5.5,8.5-11.1,9.7-14.9c1.6-4.8,15.9-18.1,20.6-20.8
			c4.2-2.4,19.1-6.7,26.1-4C541.1,554.2,548.8,563.8,550,572 M553,571.5c-1.3-8.8-9.4-19.6-14.8-21.6c-8.2-3.1-24,1.5-28.7,4.2
			s-20,16.4-22,22.4s-15.2,20.4-14.9,22.4c0.3,2,42.9,44.2,46,44.8s14.8-16.3,20.7-24.3c5.9-7.9,13-35.3,13.8-44.5
			C553.2,573.8,553.1,572.6,553,571.5z"/>
		<circle id="lt2" class="st12" cx="527.9" cy="576.6" r="4"/>
		<circle id="lt1" class="st12" cx="414.4" cy="698.5" r="3"/>
	</g>
	<g id="LeftCrus">
		<path class="st19" d="M400.8,679.2c-3-3.3-6.4-6.3-10-8.9c-5.3-3.5-18.5-8.1-23.4-9.4c-4.8-1.3-28.9-0.5-35.4,0.9
			c-6.6,1.3-25.5,2.5-32.5,1.6c-7-0.8-23.4-9.4-27.5-9.4c-4.1-0.1-9.5,4.7-10.3,7.6c-0.8,2.9-3.4,16.7-3.5,20.8s-0.7,14.3-2,19.1
			c-1.3,4.8-2.7,13.8-1.9,15c0.7,1.2,8.6,6.4,10.6,2.8s4-7.2,3.4-12.6c0,0,4-12.9,6.9-16.3s9.4-12,15.5-11.4s91.8,24.6,94.7,25.3
			c2.9,0.8,16.1,3.1,20.4,5.5c4.4,2.3,7,1.7,7.7-0.5C416.1,701.5,400.8,679.2,400.8,679.2z"/>
		<path class="st20" d="M261.9,687.6c2.9-0.6,5.1-2.9,5.7-5.7c1-3.9-0.2-14.6,2.7-17.9c3-3.3,5.1,0.3,11.6,3.1s19.4,1,30.3,2.9
			s42.4,0,42.4,0c4.1,0.1,23.5,5.1,29.9,8c5.5,2.5,10.3,7.9,12,9.4s10.9,1.9,10.9,1.9c-2-3.5-4.2-6.9-6.6-10.1
			c-3-3.3-6.4-6.3-10-8.9c-5.3-3.5-18.5-8.1-23.4-9.4c-4.8-1.3-28.9-0.5-35.4,0.9c-6.6,1.3-25.5,2.5-32.5,1.6
			c-7-0.8-23.4-9.4-27.5-9.4c-4.1-0.1-9.5,4.7-10.3,7.6c-0.8,2.9-3.4,16.7-3.5,20.8c0,1.5-0.4,3.4-0.6,6.1L261.9,687.6z"/>
		<path class="st21" d="M404.9,685c-4.1-4.2-9.5-10.8-14.8-14.3s-18.7-7.5-23.6-8.4c-5.4-0.9-28-1.8-34.6-0.4
			c-6.6,1.3-25.5,2.5-32.5,1.6c-7-0.8-23.4-9.4-27.5-9.4c-4.1-0.1-9.5,4.7-10.3,7.6c-0.8,2.9-3.4,16.7-3.5,20.8s-0.7,14.3-2,19.1
			c-1.3,4.8-2.7,13.8-1.9,15c0.7,1.2,8.6,6.4,10.6,2.8s4-7.2,3.4-12.6c0,0,4-12.9,6.9-16.3s10.1-10.7,16.2-10.2
			c6.1,0.6,91.1,23.3,94,24.1s16.1,3.1,20.4,5.5c4.4,2.3,9.4-0.3,9.4-0.3"/>
		<circle id="lc2" class="st12" cx="408.7" cy="700" r="3"/>
		<circle id="lc1" class="st12" cx="274.1" cy="669.1" r="3"/>
	</g>
</g>
<g id="Torso">
	<path class="st19" d="M544.5,353.5c0,0-5,8-2,20s19,12,24,15c3.3,2,7,17,12,33c1.2,3.9,1,13-1,19c-5,15-14.1,19.5-24,33
		c-8.5,11.5-15,31.7-15,46c0,26.2,8.4,27.6,12.5,41.5c0.8,2.6-5.9,6.2-8,9c-6,8-24,30-38,41c-3.7,2.9-8.4,4-13,1c-15-10-16-22-23-37
		c-2.1-4.4-8.2-9.3-6.2-14.5c6.5-17,20.5-35.5,19.7-57c-1-28-11.5-70.5-11.5-70.5c-5-14.6-5-30.4,0-45c4-12,24-19,34-27s7-43,7-43
		s3.1-0.8,4-1c2.9-0.6,5,2,10,5s14,14,15,17S544.5,353.5,544.5,353.5z"/>
	<path class="st20" d="M494.5,447.5c-1-8,5-20,5-25s1-14-3-20s-8-24-2-28s14-8,17-14s7-18,7-25s1-14,0-18s-6-5-6-5s1,41-5.5,46.5
		s-28.3,18.4-30.4,21s-16.3,14.5-8.2,43.5s12.4,61.1,12.4,61.1s20.7,3.9,26.7,5.9s17,16,19,24s3,24,8,31S545,560,537,568
		s-21,19-29,21s-3,22-3,22s21.9-18.9,28-28s17.8-22.6,13-33s-6.8-13.6-7.1-22s0.6-32.5,5.6-39.5s9-19,21.5-30s13-26.5,13.3-30.3
		S563.6,390.9,562,389s-7-4.2-8.8-4.8s-8.6-5-9.7-7.9s-8-5.8-8-1.8s10,11,18,21s13,19,12,26s-6,30-17,34s-44,11-49,5
		C496.5,456.8,494.7,452.3,494.5,447.5z"/>
	<path class="st21" d="M512,320c0,0,3,33-7,41s-30,15-34,27c-5,14.6-5,30.4,0,45c0,0,10.5,42.5,11.5,70.5
		c0.8,21.7-12.5,40.4-18.9,57.5c-1.9,4.9,3.3,9,4.9,13.5c4,11,6.5,16.4,14,26c7,9,8.3,14.9,17,13c11.9-2.6,24.9-24.1,36-31
		c8-5,10-6,15-11c4.1-4.1,1.2-9-0.4-12.8c-4.5-10.4-11.6-16.4-11.6-39.2c0-14.3,6.5-34.5,15-46c9.9-13.5,19-18,24-33
		c2-6,2.2-15.1,1-19c-5-16-15.7-33-19-35c-5-3-14-1-17-13s2-20,2-20"/>
	<path d="M543.3,490.1c-6.2-0.5-45.9-8-62.1-11.1c-1.9-4.7-7.8-31.5-11.3-52.7c-1-5.3-1.3-10.8-0.9-16.2c0.2-2.2,0.2-4.5,0-6.8
		c-1.8-15.3,10.6-24.7,16-28c3.9-2.4,8.8-3.6,14.9-3.6c2.1,0,4.2,0.1,6.4,0.4c7.4,0.8,14.4,9.2,20.5,16.5c0.8,1,1.7,2,2.5,3
		c1.9,2.2,3.3,5.6,4.8,9.2c3.1,7.4,6.9,16.6,16.8,20.2c3.4,1.1,6.9,1.6,10.5,1.5c5.1-0.1,10.1-0.6,15.1-1.6
		c0.6,3.2,1.9,10.9,0.5,15.2c-0.3,0.9-0.6,1.8-0.9,2.7c-1.8,5.6-4,12.7-9.2,17l-0.1,0.1c-5.4,4.1-10,9.2-13.6,14.9
		c-2.4,4-4.5,8-6.4,12.2C545.6,485.8,544.3,488.4,543.3,490.1z M498.8,374.8c-4.8,0-8.7,1-11.6,2.9c-6.6,4.4-8.7,12-9.7,22.1
		c-1,10.4,6.8,21.4,12,28.7l0.2,0.4c2.9,4.1,9.4,11,19.7,11c2.2,0,4.3-0.3,6.4-0.9c11.1-3,15-7.5,16.1-18.3
		c1-10.5-2.6-20.3-5.6-28.2c-3.4-9-12.9-15.7-20.1-17C503.8,375.1,501.3,374.8,498.8,374.8z"/>
	<path d="M500,373.1L500,373.1c2.1,0,4.1,0.1,6.2,0.4c2.2,0.3,4.3,1.2,6,2.4c-1.8-0.9-3.7-1.5-5.7-1.9c-2.6-0.5-5.2-0.7-7.8-0.7
		c-5.1,0-9.2,1.1-12.4,3.2c-7.1,4.8-9.3,12.7-10.3,23.2c-1.1,11,7,22.2,12.3,29.7l0.3,0.4c3.1,4.3,9.9,11.6,20.9,11.6
		c2.3,0,4.6-0.3,6.8-1c11.7-3.2,16-8.1,17.2-19.6c1.1-10.8-2.7-20.8-5.7-28.8c0.1,0.1,0.3,0.3,0.4,0.5c1.7,2,3.1,5.3,4.6,8.9
		c3.2,7.7,7.2,17.3,17.7,21c3.6,1.1,7.3,1.7,11,1.5c4.7-0.1,9.3-0.5,13.9-1.4c0.7,3.9,1.4,9.7,0.3,13c-0.3,0.9-0.6,1.8-0.9,2.8
		c-1.7,5.5-3.8,12.2-8.8,16.3l-0.1,0.1c-5.5,4.2-10.2,9.4-13.9,15.2c-2.4,4-4.5,8.2-6.5,12.5c-1.1,2.3-2.1,4.5-3,6.1
		c-7.5-0.9-39.2-6.8-60.1-10.8c-2-5.9-7.4-30.5-10.9-51.7c-1-5.2-1.3-10.6-0.8-15.9c0.2-2.3,0.2-4.7,0-7
		c-1.7-14.5,10.1-23.4,15.3-26.6C489.6,374.2,494.2,373.1,500,373.1 M500,370.1c-6.1,0-11.4,1.2-15.7,3.8
		c-5.8,3.6-18.5,13.4-16.7,29.5c0.7,6.2-1.4,9.6,0.9,23.1c3.6,21.4,10,51,11.7,53.8c0,0,58.5,11.3,63.6,11.3c0.2,0,0.3,0,0.3-0.1
		c2.5-3.8,6.2-13.5,10.3-20c3.6-5.6,8.1-10.5,13.4-14.6c6.6-5.4,8.6-14.5,10.6-20.4s-0.8-17.5-0.8-17.5c-5.4,1.2-10.8,1.8-16.3,1.9
		c-3.4,0.1-6.8-0.4-10-1.4c-14-5-15-22-21-29c-6.9-8.1-15-19-24-20C504.3,370.3,502.2,370.2,500,370.1L500,370.1z M509.5,438.4
		c-8.1,0-14.4-4.7-18.5-10.3c-5-7-13-18-12-28s3-17,9-21c3.1-2,7-2.7,10.8-2.7c2.4,0,4.8,0.2,7.2,0.7c7.2,1.3,16,8,19,16
		s6.5,17.5,5.5,27.5c-1,9.8-4,14-15,17C513.5,438,511.5,438.3,509.5,438.4L509.5,438.4z"/>
	<path d="M497.6,613.7c-4,0-7.6-1.9-10.4-5.6c-7.3-9.5-10.3-16.8-13.4-24.5c-1.1-2.6-2.2-5.4-3.5-8.2c-0.8-1.7-1.8-3.4-2.8-5
		c-2.2-3.7-4.9-8.3-4.1-10.7c1.8-5,4.2-9.8,7.2-14.2c5,0.3,31.3,2,41.1,2.9c2.1,0.2,4.6,0.3,7.6,0.3c9,0,19.5-0.9,22.7-1.2
		c1.7,2.8,7.1,12.5,9.4,18.9c1.1,3.2-5.4,7.5-11.2,11.2c-5,3.2-9.6,6.2-11.7,9.5c-1.2,2-2.2,3.6-3,5c-4.5,7.6-4.6,7.8-19.6,18.6
		C503.6,612.6,500.7,613.6,497.6,613.7z"/>
	<path d="M471.5,547.1c6.6,0.4,30.9,2,40.2,2.9c2.1,0.2,4.7,0.3,7.7,0.3c8.4,0,17.9-0.8,21.9-1.1c2,3.5,6.8,12,8.8,17.8
		c0.7,2.1-6.3,6.7-10.6,9.4c-5.1,3.3-9.9,6.4-12.1,10c-1.2,2-2.2,3.6-3,5c-4.4,7.5-4.4,7.5-19.2,18.2c-2.2,1.6-4.9,2.6-7.6,2.6
		c-3.5,0-6.7-1.7-9.2-5c-7.2-9.3-10.1-16.5-13.2-24.2c-1.1-2.7-2.2-5.4-3.5-8.3c-0.9-1.8-1.8-3.5-2.9-5.2c-1.7-2.9-4.6-7.7-4-9.4
		C466.6,555.6,468.8,551.2,471.5,547.1 M470,544c-3.3,4.7-6,9.8-7.9,15.2c-1.5,4.3,4.6,11.8,6.9,16.8c5,11,7,20,17,33
		c3.4,4.4,7.5,6.2,11.6,6.2c3.4-0.1,6.7-1.2,9.4-3.2c18-13,15-11,23-24c4.5-7.4,25.6-14.6,23-22c-2.8-7.9-10-20-10-20
		s-12.8,1.3-23.5,1.3c-2.7,0-5.2-0.1-7.5-0.3C501,546,470,544,470,544z"/>
	<g id="Targets">
		<circle id="ruaTorso" class="st12" cx="504" cy="396" r="4"/>
		<circle id="headTorso" class="st12" cx="531" cy="328" r="4"/>
		<circle id="luaTorso" class="st12" cx="545" cy="389" r="4"/>
		<circle id="rtTorso" class="st12" cx="489" cy="575" r="4"/>
		<circle id="ltTorso" class="st12" cx="513" cy="575" r="4"/>
	</g>
</g>
<g id="Layer_7">
	<g id="RightCrus">
		<path class="st19" d="M587.5,688.9c-4.2,1.4-8.3,3.3-12.1,5.7c-5.3,3.5-14.7,13.8-17.8,17.8c-3.1,3.9-11.8,26.3-13.2,32.9
			c-1.4,6.6-7.8,24.4-11.3,30.5s-17.8,17.8-19.5,21.5s0.5,10.7,2.9,12.5c2.4,1.9,14,9.8,17.7,11.5s12.9,6.3,16.8,9.4
			s11.6,7.9,13,7.7s9.3-5.3,6.8-8.6s-5-6.5-10.2-8c0,0-10.3-8.7-12.2-12.8c-1.9-4-7.3-13.4-4.4-18.7s58.8-74.6,60.7-77
			s9.2-13.5,13.1-16.7s4.4-5.7,2.6-7.3C614.1,683.6,587.5,688.9,587.5,688.9z"/>
		<path class="st20" d="M540.3,819.8c0.6-2.9-0.6-5.8-3-7.4c-3.1-2.5-13.5-5.6-15.4-9.6s2.4-4.5,7.4-9.4c5.1-4.9,8.6-17.4,14.6-26.6
			c6-9.3,16.7-39,16.7-39c1.7-3.7,14-19.6,19.2-24.3c4.5-4.1,11.4-6.3,13.4-7.3s6-9.3,6-9.3c-4,0.4-8,1.1-11.9,2.1
			c-4.2,1.4-8.3,3.4-12.1,5.7c-5.3,3.5-14.7,13.8-17.8,17.8c-3.1,3.9-11.8,26.3-13.2,32.9c-1.4,6.6-7.8,24.4-11.3,30.5
			s-17.8,17.8-19.5,21.5s0.5,10.7,2.9,12.5c2.4,1.9,14,9.8,17.7,11.5c1.4,0.6,3,1.7,5.3,2.9L540.3,819.8z"/>
		<path class="st21" d="M594.5,687.4c-5.4,2-13.7,4.5-19,7.9c-5.3,3.5-14.3,14.2-17,18.4c-3,4.6-12.7,25-14.1,31.6
			c-1.4,6.6-7.8,24.4-11.3,30.5s-17.8,17.8-19.5,21.5c-1.7,3.8,0.5,10.6,2.9,12.5s14,9.8,17.7,11.5s12.9,6.3,16.8,9.4
			s11.6,7.9,13,7.7s9.3-5.3,6.8-8.6s-5-6.5-10.2-8c0,0-10.3-8.7-12.2-12.8c-1.9-4-5.9-13.5-3-18.9c2.9-5.3,57.4-74.5,59.3-76.8
			s9.2-13.5,13.1-16.7c3.8-3.2,3.5-8.7,3.5-8.7"/>
		<circle id="rc2" class="st12" cx="607.2" cy="690.7" r="4"/>
		<circle id="rc1" class="st12" cx="529.4" cy="800" r="4"/>
	</g>
	<g id="RightThigh">
		<path class="st19" d="M486.7,605.2c5.7,1.9,10.9,4.2,19.3,11.9c8.4,7.7,19.9,15.9,28.7,25.6c8.7,9.7,20.3,17.9,31.3,29.2
			c11.1,11.3,18.8,21.1,26.5,24.9s13,4.9,17.6,2.1c4.6-2.8,2.6-7.9,6.9-12.1c4.3-4.2,1.6-9.6-5.5-15.5s-13.9-22-21.2-35
			s-21.3-35.9-30.9-44.5c-9.6-8.5-22.9-21.5-31.8-26s-20.8-13.8-31-15c-10.4-1.3-20.6-1.6-29.1,8c-6.8,7.7-10,12.8-4.5,27.1
			C468.6,600.1,479.8,602.9,486.7,605.2z"/>
		<path class="st20" d="M466.8,559.6c-5.9,7.5-8.9,12.5-3.7,26.2c5.5,14.3,14.3,24,21.2,26.3c5.7,1.9,9.2,0.4,17.6,8.2
			c8.4,7.7,21.1,16.7,29.8,26.4s23.1,13.8,34.2,25.1c11.1,11.3,18.8,21.1,26.5,24.9s5,2.7,10.3,3.8c0,0,1.5-3.3,0.2-5.1
			s-4.9-11.3-9.4-13.6s-19.1-11-22.7-14.4c-3.6-3.4-47.6-35.5-48.1-38.5s-1.8-4.8,1.6-8.4c3.4-3.6,18.3-23.4,23.1-25.2
			s10.7-4.8,10.7-4.8s-17.4-15.2-20.3-17.8c-2.8-2.6-28.6-18.8-33.5-19.9C499.5,551.8,478.1,545.3,466.8,559.6z"/>
		<path class="st21" d="M621.1,685.6c-1-5.3-2.9-8.9-9.5-14.4c-7.1-5.9-13.9-22-21.2-35s-21.3-35.9-30.9-44.5
			c-9.6-8.5-22.9-21.5-31.8-26s-20.8-13.8-31-15c-10.4-1.3-20.9-3.6-29.4,6c-6.8,7.7-13.8,16.1-9.4,30.6
			c4.5,14.5,16.6,23.2,23.5,25.5c5.7,1.9,14.6,3.3,23,11c8.4,7.7,16.5,14.5,26.8,22.5c11.7,9.1,23.7,14.2,34.8,25.5
			s19.5,19.9,26.5,24.9c3.5,2.5,10,3.9,10.9,4.2"/>
		<path d="M552,582.9c-2.3,4.2-36.9,41.4-42.4,45.5c-1.4-1.2-2.7-2.5-3.9-3.9c-3.5-3.8-7.9-8.5-11.7-9.6c-5-1.5-20.3-7-25.4-11.4
			c-2.9-2.5-9.1-11.2-10.2-14.4c-1.3-3.6-0.9-10.9,0.9-18.2c0.4-1.6,0.9-3.2,1.4-4.7c1.9-5.4,14.4-13.8,23.5-14.5
			s35.8,6.9,43.8,12.5c1.2,0.9,2.7,1.9,4.3,3C538.3,571.5,551,580.3,552,582.9z"/>
		<path d="M457.8,570.6l2.9,0.7c0.4-1.6,0.9-3.2,1.4-4.6c1.7-4.8,13.9-12.9,22.2-13.5c9-0.7,35,6.8,42.8,12.3c1.2,0.9,2.7,1.9,4.3,3
			c5.5,3.8,16.4,11.3,18.9,14.5c-4.6,6.6-33.7,37.3-40.6,43.5c-0.8-0.8-1.9-2-2.8-2.9c-3.6-3.9-8.1-8.7-12.4-10
			c-4.7-1.4-20-6.9-24.9-11.1c-2.9-2.5-8.8-11-9.8-13.8c-1.2-3.3-0.8-10.4,0.9-17.3L457.8,570.6 M457.8,570.6
			c-1.8,7.2-2.3,14.9-0.9,19.1c1.2,3.4,7.5,12.3,10.6,15.1c5.7,4.8,22.1,10.5,25.9,11.7c6,1.8,14.3,14.1,16.3,13.8
			s42.8-43.4,43.7-46.9l0,0c0.5-3.1-16.7-14.4-24.7-20.1c-8.1-5.7-34.9-13.6-44.8-12.8c-9.2,0.8-22.6,9.3-24.8,15.5
			C458.7,567.3,458.2,568.9,457.8,570.6L457.8,570.6z"/>
		<circle id="rt2" class="st12" cx="486.8" cy="577.6" r="4"/>
		<circle id="rt1" class="st12" cx="609.3" cy="688.9" r="4"/>
	</g>
</g>
<g id="Layer_8">
	<path class="st19" d="M548.5,355.5c0,0-18-6-19-9s-6-26-8-27s-13-2-15-5s-4-12-3-16s7-9,10-9s9,3,12,6s11,0,13-3s8-12,13-15
		s10-10,15-9s16,6,17,9s3,10,2,15s-5,12-5,15c0,6,6,9,7,13s-2,6-4,7c-1.3,0.6-4,2-4,5s1,9-2,12c-2.5,2.5-4,8-4,10c0,5-6,7-9,7
		C562.5,361.5,548.5,355.5,548.5,355.5z"/>
	<path class="st20" d="M555.1,358.2c-3.5-1.4-6.6-2.7-6.6-2.7s-18-6-19-9s-6-26-8-27s-13-2-15-5s-4-12-3-16s7-9,10-9s9,3,12,6
		s11,0,13-3s8-12,13-15s10-10,15-9c3.5,0.9,6.8,2.1,10,3.8c0,0-24.5,22.3-26,42.2C548.5,340.5,555.1,358.2,555.1,358.2z"/>
	<path class="st21" d="M548.5,355.5c0,0-17.4-6.2-19-9c-4-7-6-26-8-27s-13-2-15-5s-4-12-3-16s7-9,10-9s9,3,12,6s11,0,13-3
		s8-12,13-15s10-10,15-9s16,6,17,9s3,10,2,15s-5,12-5,15c0,6,6,9,7,13s-2,6-4,7c-1.3,0.6-4,2-4,5s1,9-2,12c-2.5,2.5-4,8-4,10
		c0,5-6,7-9,7C562.5,361.5,548.5,355.5,548.5,355.5z"/>
	<path class="st22" d="M520.5,301.5c1-2-5.7-7.9-9,1c-3,8,3.3,9.7,5,8"/>
	<path d="M582,303l-1,10c0,0-41.6-4.2-47-13c-8.9-14.5,46-30,46-30s4.4,11,5.2,15.3S582,303,582,303z"/>
	<path class="st6" d="M488.5,268.5c0,0,4,2,4,6s-5,14-5,21s1,17,5,24s9,15,12,16s7,0.7,7.5-1.7s1.5-12.3-1.5-15.3s-7-5-8-14
		s6-16,10-16s12,3,14,6s28,0,37-5s23-13,22-18s-7-15-15-17c-8-2-19-5-27-5s-24,5-28,9c-4,4-16-1-16-1L488.5,268.5z"/>
	<circle id="h1" class="st12" cx="531" cy="328" r="4"/>
	<circle id="h2" class="st12" cx="481" cy="253" r="4"/>
	<path class="st23" d="M579,278c0,0-12-11-17-13s-25-3-25-3s7,6,8,8s-8-3-15-4c-4-0.6-8.1-0.3-12,1c0,0,6,5,9,5s7,3,7,3h-14
		c-3,0.2-6,0.5-9,1l6,6c0,0-8-2-10-2s-7,3-7,3l4,4c-1.1,0.5-2.1,1.2-3,2c-1,1-2,4-2,4l-2-6c0,0-1,14,0,17s5,10,6,14
		c0.6,2.6,0.6,5.4,0,8c0,0-2-8-5-9c-2-0.6-4-0.6-6,0c0,0,4.3,11.8,6.6,12.4s6.4,6.6,8.4,6.6s6-1,5-6c-0.6-3.6-1-7.3-1-11
		c0,0-5.4-4.4-6.2-6.7s-3.6-10-1.7-14.2s5.3-9.7,8.1-9.4c2.8,0.3,11.9,1.2,14.9,5.2S541,296,541,296s19.5-4.8,23.2-6.9
		S579,278,579,278z"/>
	<path class="st24" d="M488.5,268.5c0,0,4,2,4,6s-5,14-5,21s1,17,5,24s9,15,12,16s7,0.7,7.5-1.7s1.5-12.3-1.5-15.3s-7-5-8-14
		s6-16,10-16s12,3,14,6s28,0,37-5s23-13,22-18s-7-15-15-17c-8-2-19-5-27-5s-24,5-28,9c-4,4-16-1-16-1L488.5,268.5z"/>
	<g id="HairBand">
		<line class="st25" x1="488" y1="273" x2="504" y2="256"/>
		<line class="st25" x1="487" y1="268" x2="499" y2="254"/>
		<line class="st25" x1="480" y1="266" x2="496" y2="249"/>
		<line class="st25" x1="476" y1="262" x2="490" y2="247"/>
	</g>
</g>
<g id="Layer_9">
	<path class="st6" d="M340,319c5-3,5-8,8-17s14-15,28-23s19-15,22-21c3-6,20-19,30-26s28-10,39-13s23,5,26,9s2,13-1,15s-17,20-17,23
		s-13,20-19,24s-16,6-23,10c-4.6,2.6-12.3,11.4-17,17l-1,2c-1.7,5.1-3.7,10.1-6,15c-3,6-17,18-23,24s-21,15-21,15s4-7,5-10s0-7,0-7
		s-9,11-15,18s-25,18-36,24s-28,11-40,14c-2,0.5-7,2-7,2c-1.9,1.1-3,1.6-4,3c-3,4-7.2,6.8-12,8c-4.4,1-8.6,3-12,6c-2,2-32,13-33,10
		s14-33,19-43s20-17,25-20s20-7,27-10s26-7,30-8s6-8,6-8s-9,0-10-3s-6-3-9-3s-7,5-6-1s8-8,11-11s12-10,17-12S335.9,321.5,340,319z"
		/>
	<path class="st26" d="M296.4,339.5c0,0,8.6-2.5,13.6,0.5s4,6,7,6s8-3,10-1s1,5-3,8s-8,7-9,9s-9,6-12,5c-1.9-0.7-3.5-2.1-4.5-3.9
		c0,0,14.5-2.1,16.5-6.1s1.7-5.3-1.7-5.2c-2.7,0-5.3-1-7.3-2.8c-2.8-2.8-7.1-3.5-10.6-1.7C290,350,296.4,339.5,296.4,339.5z"/>
	<path class="st26" d="M345,311.2c0,0,10-6.2,14-9.2s11-5,12-7s3-3,5-2s-1,7-4,10s-10,10-15,12c-2.9,1.2-6,1.7-9.1,1.5L345,311.2z"
		/>
	<path class="st26" d="M294.2,382.2c0,0,3.8-3.2,4.8-1.2s-7,12-7,14s-1,4,2,3s29-11,38-20s38-38,39-43s2-8,4-7s2,6,1,9s-1,11,0,13
		s20-16,23-25s14-33,17-37s4-15,8-15s2,11,5,13s19-7,27-15s18-24,22-26s9.1,3.1,9.1,3.1s-16.3,26-19.7,29.9s-12.3,15.5-27.4,18.7
		s-24.8,22.6-27.9,29.4s-19,27.5-30.6,35.6s-15.4,10.5-15.4,10.5S371,361,370,359s-3-2-5,2s-13,19-29,28s-41.5,20.1-55.2,22.5
		s-23.4,1-23.4,1s14.2-5.9,21.9-13.7S294.2,382.2,294.2,382.2z"/>
	<path class="st26" d="M226.8,404.4c0.8,2.1,0.8,4.4,0.2,6.6c-1,4-4,13-1,15s24-8,27-11s16-1,16-1c-5.5,6.5-12.7,11.4-20.8,14
		c-13.2,4-28.4,13.1-32.3,13s-4.4-3-4.4-3L226.8,404.4z"/>
	<path class="st27" d="M419,291c0,0-1,13-2,16l-5,15c0,0,14-18,21-22s17-6,23-10s19-21,19-24s14-21,17-23s4-11,1-15s-15-12-26-9
		s-29,6-39,13s-27,20-30,26c-3,6-8,13-22,21s-25,14-28,23s-4,14-8,17"/>
	<path class="st27" d="M371,299c0,0-18,17-29,20s-16,1-21,3s-14,9-17,12s-10,5-11,11s3,1,6,1s8,0,9,3s10,3,10,3s-2,7-6,8s-23,5-30,8
		s-22,7-27,10s-20,10-25,20s-20,40-19,43s31-8,33-10c3.4-3,7.6-5,12-6c4.8-1.2,9-4,12-8c2-3,8-4,8-4"/>
	<path class="st27" d="M296,380c0,0-23,28-31,30s-11,2-11,2s13,3,25,0s29-8,40-14s30-17,36-24s15-18,15-18s1,4,0,7s-5,10-5,10
		s15-9,21-15s20-18,23-24s6-17,6-17"/>
	<circle id="hair1" class="st12" cx="481" cy="253" r="4"/>
	<circle id="hair2" class="st12" cx="271" cy="396" r="4"/>
</g>
<g id="Layer_4">
	<g id="RightLowerArm">
		<path class="st19" d="M442.6,482.1c6.5-1.9,13.3,2.7,26.7,13.2c25.9,20.1,40.6,44.4,50.5,49.1c3.1,1.5,10.1,1.8,13.9,1.7
			c2.5-0.3,5,0.4,7.2,1.8c2.3,1.2,3.2,7.7,8.6,9.9c5.4,2.3,7.2,1.8,8,4.4c0.5,1.4-0.4,2.9-1.7,3.4l-0.1,0c1.5,1.3,2,3.3,1.5,5.3
			c-0.9,3.1-4.4,1.3-4.4,1.3c1.7,0.5,2.6,2.3,2.2,4.1l0,0.1c-0.9,3.1-4.4,1.3-4.4,1.3s2,0.4,1,3.5c-0.9,3.1-5.3,1.5-8.4,0.6
			c-4.5-1.4-8.9-3.7-12.4-6.8c-4-3.6-5.2-8.1-10-11.4c-4.8-3.4-44.3-24.9-66.1-43.7c-21.6-18.5-24.9-22.8-24.6-29
			C430.2,484.5,436.5,483.9,442.6,482.1z"/>
		<path class="st20" d="M435.1,484.7c0,0,1.9,4.7,4.7,4.7c2.8-0.1,7-1.6,14.2,3.8c7.2,5.4,31.8,23.2,38.3,30.8s17.5,19.4,20.4,20.6
			c2.9,1.3,6.5,3.3,5.9,5.5c-0.7,2.1-1.3,5.7,0.2,5.7c1.4,0,4.1-5.7,6.9-5.9c2.8-0.1,10,4,12.8,3.8c2.8-0.1,6.1-0.5,6.1-0.5
			s-2.6-4.9-5.2-6.4c-2.7-1.6-14.6-0.1-17.8-2c-3.2-1.9-11-7-15.2-12.7c-4.1-5.7-31.7-33.7-39.7-38.9c-8-5.2-16.4-12.3-20.4-11.6
			C442.7,482.5,438.8,483.5,435.1,484.7z"/>
		<path class="st28" d="M442.6,482.1c6.5-1.9,13.3,2.7,26.7,13.2c25.9,20.1,40.6,44.4,50.5,49.1c3.1,1.5,10.1,1.8,13.9,1.7
			c2.5-0.3,5,0.4,7.2,1.8c2.3,1.2,3.2,7.7,8.6,9.9c5.4,2.3,7.2,1.8,8,4.4c0.5,1.4-0.4,2.9-1.7,3.4l-0.1,0c1.5,1.3,2,3.3,1.5,5.3
			c-0.9,3.1-4.4,1.3-4.4,1.3c1.7,0.5,2.6,2.3,2.2,4.1l0,0.1c-0.9,3.1-4.4,1.3-4.4,1.3s2,0.4,1,3.5c-0.9,3.1-5.3,1.5-8.4,0.6
			c-4.5-1.4-8.9-3.7-12.4-6.8c-4-3.6-5.2-8.1-10-11.4c-4.8-3.4-44.3-24.9-66.1-43.7c-21.6-18.5-24.9-22.8-24.6-29
			C430.2,484.5,436.5,483.9,442.6,482.1z"/>
		<circle id="rla2" class="st12" cx="440.8" cy="486.5" r="3"/>
		<circle id="rla1" class="st12" cx="536.5" cy="561.9" r="3"/>
	</g>
	<g id="RightUpperArm">
		<path class="st19" d="M445.5,446.7c0,0,4.5-16.5,11.2-24.4c6.5-8,23-31.6,28.8-36c5.8-4.5,11-7.6,16.2-5.3
			c5.3,2.2,10.2,10.1,10,13.8c-0.1,4.9-2.8,13.9-6.2,19.7c-5.8,9.9-10.1,24.6-16.4,32.8c-10.7,13.9-23.9,21.3-29.4,28.8
			c-1.9,2.6-2.7,5-6,7.5c-3.5,2.7-9.8,3.7-13.6,5.9c-2.8,1.7-3.4,7.5-6.5,7.7c-12,0.4-0.4-36.4,11.3-47.5"/>
		<path class="st20" d="M507.2,410.9c0,0-2.3-2.7-4.9-0.9c-2.6,1.7-6.3,6.5-8.7,11c-2.3,4.5-12.1,23.5-19.7,31.6
			c-7.6,8.1-19.3,23-22.7,24.1s-7.9,5.2-9.8,7.6c-1.6,2.2-2.9,4.5-4.1,6.9c0,0,1.4-1.3,6-2.9c3.5-1.1,8.9-3.2,10.1-4.7
			c0,0,7.8-10.1,12.8-14c5-3.8,17.5-13.1,21.7-19.3s6.9-20.4,11.2-26.1C502.1,419.9,504.8,415.5,507.2,410.9z"/>
		<path class="st21" d="M444.8,449.6c-10.5,10-20.5,39.6-14.1,45.3c1,0.7,2,1.5,3.1,2.1"/>
		<path class="st21" d="M453.6,484.2c2-3,4.4-6.1,6-8.2c5.6-7.5,18.4-12.8,29.1-26.6c5.9-7.7,7.7-24.4,15.3-32.5"/>
		<path class="st21" d="M442.1,460c0,0,10.7-33.3,16.4-41.8c6.2-9.4,21-28,27-31.9c6.1-4,11-7.6,16.2-5.3c3.2,1.4,3.9,1.6,6.4,4.8"
			/>
		<line class="st29" x1="463.1" y1="409.7" x2="497.7" y2="430.4"/>
		<circle id="rua1" class="st12" cx="495.7" cy="395.8" r="4"/>
		<circle id="rua2" class="st12" cx="437.4" cy="486.2" r="3"/>
	</g>
</g>
</svg>
