<?xml version="1.0" encoding="utf-8"?>
<!-- Generator: Adobe Illustrator 28.1.0, SVG Export Plug-In . SVG Version: 6.00 Build 0)  -->
<svg version="1.1" id="Layer_1" xmlns="http://www.w3.org/2000/svg" xmlns:xlink="http://www.w3.org/1999/xlink" x="0px" y="0px"
	 viewBox="0 0 1024 1024" style="enable-background:new 0 0 1024 1024;" xml:space="preserve">
<style type="text/css">
	.st0{fill:#808080;}
	.st1{fill:none;stroke:#000000;stroke-width:2.15;stroke-miterlimit:10;}
	.st2{fill:#B3B3B3;}
	.st3{fill:none;stroke:#000000;stroke-width:2.29;stroke-miterlimit:10;}
	.st4{fill:none;stroke:#000000;stroke-width:1.21;stroke-miterlimit:10;}
	.st5{fill:none;stroke:#000000;stroke-width:1.56;stroke-miterlimit:10;}
	.st6{fill:#FFFFFF;}
	.st7{fill:#808080;stroke:#000000;stroke-width:2.14;stroke-miterlimit:10;}
	.st8{fill:#B3B3B3;stroke:#000000;stroke-width:1.86;stroke-miterlimit:10;}
	.st9{fill:#B3B3B3;stroke:#000000;stroke-width:2.6;stroke-miterlimit:10;}
	.st10{fill:#808080;stroke:#000000;stroke-width:2.44;stroke-miterlimit:10;}
	.st11{fill:none;stroke:#000000;stroke-width:3.54;stroke-linecap:round;stroke-miterlimit:10;}
	.st12{fill:#FF0000;}
	.st13{fill:#B3B3B3;stroke:#000000;stroke-width:2.27;stroke-miterlimit:10.0004;}
	.st14{fill:#808080;stroke:#000000;stroke-width:2.27;stroke-miterlimit:10;}
	.st15{fill:#B3B3B3;stroke:#000000;stroke-width:1.7;stroke-miterlimit:9.9996;}
	.st16{fill:#808080;stroke:#000000;stroke-width:2.05;stroke-miterlimit:10;}
	.st17{fill:#B3B3B3;stroke:#000000;stroke-width:2.27;stroke-miterlimit:10;}
	.st18{fill:#B3B3B3;stroke:#000000;stroke-width:2.27;stroke-miterlimit:9.9999;}
	.st19{fill:#959595;}
	.st20{fill:#828282;}
	.st21{fill:none;stroke:#000000;stroke-width:3;stroke-linecap:round;stroke-miterlimit:10;}
	.st22{fill:none;stroke:#696969;stroke-width:5;stroke-linecap:round;stroke-miterlimit:10;}
	.st23{fill:#DEDEDE;stroke:#DEDEDE;stroke-width:2;stroke-linecap:round;stroke-linejoin:round;}
	.st24{fill:none;stroke:#000000;stroke-width:4;stroke-linecap:round;stroke-miterlimit:10;}
	.st25{fill:none;stroke:#000000;stroke-width:8;stroke-linecap:round;stroke-miterlimit:10;}
	.st26{fill:#DEDEDE;}
	.st27{fill:none;stroke:#000000;stroke-width:4;stroke-linecap:round;stroke-linejoin:round;}
	.st28{fill:none;stroke:#000000;stroke-width:3;stroke-linejoin:round;}
	.st29{fill:none;stroke:#DEDEDE;stroke-width:4;stroke-linecap:round;stroke-miterlimit:10;}
</style>
<g id="Layer_10">
	<g id="LeftLowerArm">
		<g id="Hand">
			<polygon class="st0" points="564.9,540 558.7,551.4 573.9,568.8 578.7,571.2 591.1,548.4 			"/>
			<polygon class="st1" points="564.9,540 558.7,551.4 573.9,568.8 578.7,571.2 591.1,548.4 			"/>
			<polygon class="st2" points="585.3,546.5 572.7,549.6 561.8,545.7 566.9,536.3 585.6,541.2 			"/>
			<polygon class="st3" points="585.3,546.5 572.7,549.6 561.8,545.7 566.9,536.3 585.6,541.2 			"/>
			<path class="st2" d="M583.1,540l8.5,1.6c1.5,0.3,2.5,1.8,2.2,3.3l-0.1,0.4c-0.3,1.5-1.8,2.5-3.3,2.2l-8.5-1.6
				c-1.5-0.3-2.5-1.8-2.2-3.3l0.1-0.4C580.1,540.7,581.6,539.7,583.1,540z"/>
			<path class="st4" d="M583.1,540.1l8.5,1.6c1.5,0.3,2.5,1.8,2.2,3.3l0,0l-0.1,0.3c-0.3,1.5-1.8,2.5-3.3,2.2l-8.5-1.6
				c-1.5-0.3-2.5-1.8-2.2-3.3l0,0l0.1-0.3C580.1,540.8,581.5,539.8,583.1,540.1z"/>
			<path class="st2" d="M583.4,544.7l12.6,6.9c1.4,0.7,1.9,2.5,1.1,3.8l-0.2,0.3c-0.7,1.4-2.5,1.9-3.8,1.1l-12.6-6.9
				c-1.4-0.7-1.9-2.5-1.1-3.8l0.2-0.3C580.3,544.4,582,543.9,583.4,544.7z"/>
			<path class="st5" d="M583.4,544.7l12.6,6.9c1.4,0.7,1.9,2.5,1.1,3.8l0,0l-0.2,0.3c-0.7,1.4-2.5,1.9-3.8,1.1l-12.6-6.9
				c-1.4-0.7-1.9-2.5-1.1-3.8l0,0l0.2-0.3C580.3,544.4,582,543.9,583.4,544.7L583.4,544.7z"/>
			<path class="st2" d="M591.6,542.4h0.4c1.6,0,2.8,1.2,2.9,2.7l0.2,8.7c0,1.6-1.2,2.8-2.7,2.9H592c-1.6,0-2.8-1.2-2.9-2.7l-0.2-8.7
				C588.8,543.7,590.1,542.4,591.6,542.4z"/>
			<path class="st4" d="M591.6,542.5h0.3c1.6,0,2.8,1.2,2.9,2.7l0.2,8.7c0,1.6-1.2,2.8-2.7,2.9H592c-1.6,0-2.8-1.2-2.9-2.8l0,0
				l-0.2-8.7C588.8,543.8,590,542.5,591.6,542.5L591.6,542.5z"/>
			<path class="st2" d="M579.9,551.1l13.6,7.4c1.4,0.7,1.9,2.5,1.1,3.8l-0.2,0.3c-0.7,1.4-2.5,1.9-3.8,1.1l-13.6-7.4
				c-1.4-0.7-1.9-2.5-1.1-3.8l0.2-0.3C576.8,550.8,578.5,550.3,579.9,551.1z"/>
			<path class="st5" d="M579.8,551.1l13.5,7.4c1.4,0.7,1.9,2.5,1.1,3.8l-0.1,0.3c-0.7,1.4-2.5,1.9-3.8,1.1l-13.5-7.4
				c-1.4-0.7-1.9-2.5-1.1-3.8l0,0l0.2-0.3C576.7,550.8,578.5,550.3,579.8,551.1L579.8,551.1L579.8,551.1z"/>
			<path class="st2" d="M576.4,557.5l12.6,6.9c1.4,0.7,1.9,2.5,1.1,3.8l-0.2,0.3c-0.7,1.4-2.5,1.9-3.8,1.1l-12.6-6.9
				c-1.4-0.7-1.9-2.5-1.1-3.8l0.2-0.3C573.3,557.2,575,556.7,576.4,557.5z"/>
			<path class="st5" d="M576.4,557.5l12.6,6.9c1.4,0.7,1.9,2.5,1.1,3.8l0,0l-0.2,0.3c-0.7,1.4-2.5,1.9-3.8,1.1l-12.6-6.9
				c-1.4-0.7-1.9-2.5-1.1-3.8l0,0l0.2-0.3C573.3,557.2,575,556.7,576.4,557.5z"/>
			<path class="st2" d="M574.3,564l11,6c1.1,0.6,1.5,2,0.9,3.2l-0.1,0.3c-0.6,1.1-2,1.5-3.2,0.9l-11-6c-1.1-0.6-1.5-2-0.9-3.2
				l0.1-0.3C571.7,563.8,573.2,563.4,574.3,564z"/>
			<path class="st5" d="M574.2,564.1l11,6c1.1,0.6,1.5,2,0.9,3.2l-0.1,0.3c-0.6,1.1-2,1.5-3.2,0.9l-11-6c-1.1-0.6-1.5-2-0.9-3.2
				l0.1-0.3C571.7,563.9,573.1,563.5,574.2,564.1z"/>
		</g>
		<polygon points="570.6,550 571.1,556.1 594,560 557.7,540.1 560.8,534.4 597.1,554.3 581.5,537.1 576.1,540 574.8,522 
			604.6,554.9 603.8,556.3 612.1,566.2 599.3,564.6 598.5,566 554.7,558.6 		"/>
		<path class="st6" d="M611.1,565.7l-12-1.5l-0.8,1.4l-42.3-7.2l14.3-7.7l0.5,5.8l25.6,4.4L558.3,540l1.4-2.5l1.4-2.5l38.1,20.9
			l-17.5-19.2l-5.1,2.7l-1.2-16.2l28.9,31.9l-0.8,1.4L611.1,565.7 M613,566.7l-1.3-1.6l-7.4-8.9l0.5-0.9l0.3-0.5l-0.4-0.4
			l-28.9-31.9l-1.6-1.7l0.2,2.3l1.2,16.2l0.1,1.2l1.1-0.6l4.6-2.4l13.8,15.2l-33.9-18.5l-0.7-0.4l-0.4,0.7l-1.4,2.5l-1.3,2.5
			l-0.4,0.7l0.7,0.4l33.9,18.5l-20.2-3.5l-0.4-5.1l-0.1-1.2l-1.1,0.6l-14.3,7.7l-2.1,1.1l2.3,0.4l42.3,7.2l0.6,0.1l0.3-0.5l0.5-0.9
			l11.5,1.5L613,566.7L613,566.7z"/>
		
			<image style="overflow:visible;enable-background:new    ;" width="18" height="29" xlink:href="C17E5358.png"  transform="matrix(0.3116 0.9502 -0.9502 0.3116 479.5083 476.3465)">
		</image>
		
			<rect x="511.5" y="478.6" transform="matrix(0.4803 -0.8771 0.8771 0.4803 -181.6409 721.4526)" class="st7" width="13" height="70.9"/>
		
			<rect x="459.3" y="480.6" transform="matrix(0.4803 -0.8771 0.8771 0.4803 -192.4028 664.2561)" class="st8" width="10" height="27.8"/>
		
			<image style="overflow:visible;enable-background:new    ;" width="51" height="24" xlink:href="C17E5359.png"  transform="matrix(0.3116 0.9502 -0.9502 0.3116 522.7676 489.5233)">
		</image>
		
			<image style="overflow:visible;enable-background:new    ;" width="47" height="35" xlink:href="C17E535F.png"  transform="matrix(0.3116 0.9502 -0.9502 0.3116 536.7247 480.7371)">
		</image>
		
			<image style="overflow:visible;enable-background:new    ;" width="53" height="59" xlink:href="C17E535A.png"  transform="matrix(0.3116 0.9502 -0.9502 0.3116 538.5943 486.4384)">
		</image>
		<path class="st9" d="M475.1,506l7.7-14.1c3.1-5.6,10.2-7.7,15.8-4.6l7.9,4.3l-5.4,9.8l-4.8-2.6c-2.2-1.2-5-0.4-6.2,1.8l-5.7,10.5
			L475.1,506z"/>
		<polygon class="st10" points="537.6,517.3 527.9,534.9 537.3,540 537.7,547.3 554.5,556.5 567.1,533.5 		"/>
		<line class="st11" x1="552.7" y1="537.7" x2="552.7" y2="551.2"/>
		<line class="st11" x1="547" y1="534.6" x2="547" y2="548.1"/>
		<line class="st11" x1="541.3" y1="531.5" x2="541.3" y2="545"/>
		<path class="st9" d="M559.8,530.9l-0.2,0.5c-1.1,2-3.6,2.8-5.7,1.7l-30-16.4c-2-1.1-2.8-3.6-1.7-5.7l0.2-0.5
			c1.1-2,3.6-2.8,5.7-1.7l30,16.4C560.2,526.4,560.9,528.9,559.8,530.9z"/>
		<circle id="lla1" class="st12" cx="460.8" cy="483.9" r="3"/>
		<circle id="lla2" class="st12" cx="576.7" cy="553" r="3"/>
	</g>
	<g id="UpperArm">
		
			<rect x="438.8" y="451.4" transform="matrix(0.6662 -0.7458 0.7458 0.6662 -183.6518 498.6415)" class="st13" width="52.7" height="6.2"/>
		<path class="st14" d="M465.5,475.7l-14-5.9c-2.2-0.9-4.8-0.4-6.4,1.4l0,0c-1.6,1.8-1.9,4.3-0.7,6.4l7.5,13.3L465.5,475.7z"/>
		
			<image style="overflow:visible;enable-background:new    ;" width="87" height="116" xlink:href="C17E535B.png"  transform="matrix(0.3116 0.9502 -0.9502 0.3116 536.8612 388.0819)">
		</image>
		<path class="st14" d="M518.5,404.6l-31,34.6c-2.3,2.6-6.2,2.8-8.8,0.5l0,0c-2.6-2.3-2.8-6.2-0.5-8.8l31-34.6
			c2.3-2.6,6.2-2.8,8.8-0.5l0,0C520.5,398.1,520.8,402,518.5,404.6z"/>
		
			<rect x="504.2" y="424.6" transform="matrix(0.8656 -0.5007 0.5007 0.8656 -141.615 326.0442)" class="st15" width="64.8" height="4.5"/>
		<path class="st14" d="M548.9,406.6l14,5.9c2.2,0.9,4.8,0.4,6.4-1.4l0,0c1.6-1.8,1.9-4.3,0.7-6.4l-7.5-13.3L548.9,406.6z"/>
		<polygon class="st16" points="470.7,472 542,392.2 550.7,399.9 509.9,445.6 478.5,474.4 		"/>
		<circle class="st17" cx="548.3" cy="392.4" r="15.9"/>
		<circle class="st14" cx="548.3" cy="392.4" r="7.4"/>
		
			<image style="overflow:visible;enable-background:new    ;" width="76" height="83" xlink:href="C17E5356.png"  transform="matrix(0.3116 0.9502 -0.9502 0.3116 528.3401 384.5617)">
		</image>
		
			<image style="overflow:visible;enable-background:new    ;" width="79" height="70" xlink:href="C17E5357.png"  transform="matrix(0.3116 0.9502 -0.9502 0.3116 516.0027 385.4501)">
		</image>
		<path class="st14" d="M453.9,487.8l15.8-17.7c1-1.1,2.7-1.2,3.8-0.2l0,0l8.8,7.8c0.6,0.5,0.6,1.4,0.1,2l0,0l-9.2,10.3
			c-0.3,0.3-0.7,0.5-1.1,0.5l-17.2-0.4c-0.8,0-1.4-0.6-1.4-1.4C453.5,488.4,453.7,488.1,453.9,487.8z"/>
		<ellipse class="st18" cx="463.3" cy="487.5" rx="14.2" ry="14.2"/>
		<polygon class="st17" points="543.6,377.2 541.9,385.9 533.2,395.7 521.5,385.2 535,369.9 		"/>
		<path class="st17" d="M547.8,373.8l-12.1,13.5c0,0-2.7-2.4-5.9-2.3c-3.2,0.2-5.2-0.1-7.9,2.9l-4.5,5.1l-5.9-5.3l23-25.8
			L547.8,373.8z"/>
		<circle id="lua2" class="st12" cx="548.2" cy="392.6" r="3"/>
		<circle id="lua1" class="st12" cx="463.4" cy="487.7" r="3"/>
	</g>
</g>
<g id="Layer_6">
	<g id="LeftThigh">
		<path class="st19" d="M497.3,581.7c0.1,6-0.4,11.6-4.8,22.1c-4.5,10.5-8.4,24.1-14.5,35.6s-10.1,25.1-17.1,39.3
			s-13.7,24.7-14.7,33.3c-0.9,8.6-0.3,13.9,3.9,17.3c4.2,3.4,9.8,9.5,15.1,6.5c5.3-2.9,8.2-5.7,11.5-14.3s16.1-20.4,25.9-31.6
			c9.8-11.2,26.8-32,31.7-43.9c4.8-11.9,12.6-28.8,14-38.6s6-24.2,3.9-34.2c-2.2-10.2-5.4-19.9-17.2-24.7c-9.5-3.9-15.4-5.1-27,4.8
			C496,563.1,497.1,574.6,497.3,581.7z"/>
		<path class="st20" d="M533.5,548c-9-3-14.8-4.2-25.9,5.3c-11.7,9.9-17.9,21.5-17.8,28.8c0.1,6,2.6,8.9-1.8,19.3
			c-4.5,10.5-8.7,25.5-15,36.9c-6.3,11.5-5.3,26.4-12.3,40.6c-7,14.2-13.7,24.7-14.7,33.3c-0.9,8.6-0.9,5.6-0.2,11
			c0,0,3.5,0.3,4.8-1.5s9.1-8.4,9.7-13.4c0.7-5,4-21.6,6.1-26.2c2-4.5,17.7-56.7,20.4-58.2c2.7-1.4,3.9-3.3,8.4-1.3
			s28.1,9.5,31.4,13.4c3.3,3.9,8.1,8.5,8.1,8.5s8.5-21.5,10.1-25.1s8.3-33.3,7.6-38.2C551.9,576.1,550.9,553.7,533.5,548z"/>
		<path class="st21" d="M466,735.2c4.6-2.7,7.4-5.8,10.5-13.9c3.3-8.6,16.1-20.4,25.9-31.6c9.8-11.2,26.8-32,31.7-43.9
			c4.8-11.9,12.6-28.8,14-38.6c1.4-9.9,6-24.2,3.9-34.2c-2.2-10.2-3.6-20.8-15.4-25.8c-9.5-3.9-17.2-6.4-29.4,2.7
			c-12.3,9.1-17.4,17.2-17.3,24.5c0.1,6,3.3,14.1-1.2,24.7c-4.5,10.5-11.2,25.9-15.4,38.3c-4.8,14.1-5.6,27.1-12.6,41.3
			S448.4,703.8,446,712c-1.2,4-0.3,10.7-0.4,11.6"/>
		<path d="M482.7,611c0.6-2.9,1.4-5.8,2.3-8.7c1.8-6.1,4-13.1,3.9-16.9c-0.2-5.8,9.1-23.7,12.3-27.8c3.2-3.9,16.1-13.5,24.2-13.5
			c5.4,0,16.1,7,20.2,14.3c0.5,0.9,0.9,1.8,1.2,2.8c2.5,8.7,5.4,36.5,2.8,45.6c-0.4,1.4-0.9,3.1-1.4,5c-2,7.3-6.1,22.1-8.3,23.9
			C535.1,635.2,488.1,614.7,482.7,611z"/>
		<path d="M544.2,559.3L544.2,559.3c0.4,0.8,0.8,1.6,1.1,2.5c2.4,8.6,5.2,36.2,2.8,44.9c-0.4,1.4-0.9,3.1-1.4,5
			c-1.8,6.5-5.3,19.3-7.4,22.7c-7.9-2.2-47.4-19.9-54.9-24c0.4-1.7,1.4-4.9,2.1-7.5c2-6.6,4-13.4,3.9-17.4c-0.2-5,8.6-22.5,12-26.7
			c3-3.8,15.5-13,23.1-13C529.6,545.8,540.2,552,544.2,559.3 M546.8,557.8c-4.3-7.9-15.7-15.1-21.5-15.1c-8.8-0.1-21.9,9.9-25.4,14
			c-3.4,4.2-12.9,22.4-12.6,28.8c0.3,6.3-7,24.4-6.1,26.2c1,1.7,55.7,26.2,58.8,25.7c3.2-0.6,8-20.5,10.8-30
			c2.7-9.5-0.3-37.6-2.8-46.5C547.9,559.8,547.4,558.8,546.8,557.8z"/>
		<circle id="lt2" class="st12" cx="525.2" cy="571.4" r="4"/>
		<circle id="lt1" class="st12" cx="462" cy="725.5" r="3"/>
	</g>
	<g id="LeftCrus">
		<path class="st19" d="M441.8,725.2c-3.9,2.1-7.7,4.6-11.1,7.5c-4.7,4.3-12.4,16-14.9,20.4s-7.6,27.9-8,34.5
			c-0.4,6.7-3.9,25.3-6.5,32c-2.6,6.5-14.9,20.4-16,24.3c-1.1,4,2.2,10.4,4.8,11.9c2.6,1.4,15.3,7.5,19.3,8.5c4,1.1,13.7,4.3,18,6.7
			s12.7,6,14.1,5.6c1.3-0.4,8.4-6.8,5.4-9.6c-3.1-2.9-6-5.7-11.3-6.4c0,0-11.5-7.1-14-10.7c-2.6-3.7-9.2-12.1-7.2-17.8
			s46.6-82.8,48-85.5s7.1-14.8,10.3-18.5c3.4-3.7,3.5-6.3,1.4-7.6C467.2,715.8,441.8,725.2,441.8,725.2z"/>
		<path class="st20" d="M415.4,861.7c0.1-2.9-1.5-5.7-4.1-6.9c-3.5-1.9-14.1-3.3-16.7-7.1c-2.6-3.7,1.6-4.8,5.9-10.4
			c4.3-5.6,5.8-18.5,10.3-28.6c4.6-10.1,10.5-41.1,10.5-41.1c1.1-4,10.8-21.5,15.2-27c3.8-4.8,10.2-8,12.1-9.2
			c1.8-1.2,4.6-10.1,4.6-10.1c-3.9,1.1-7.7,2.3-11.4,3.9c-3.9,2.1-7.7,4.6-11.1,7.5c-4.7,4.3-12.4,16-14.9,20.4s-7.6,27.9-8,34.5
			s-3.9,25.3-6.5,32c-2.6,6.5-14.9,20.4-16,24.3c-1.1,4,2.2,10.4,4.8,11.9c2.6,1.4,15.3,7.5,19.3,8.5c1.5,0.4,3.2,1.2,5.7,2.1
			L415.4,861.7z"/>
		<path class="st21" d="M448.4,722.5c-5.1,2.9-12.8,6.5-17.5,10.8S419,749.6,417,754.1c-2.2,5.1-8.7,26.7-9,33.4
			c-0.4,6.7-3.9,25.3-6.5,32c-2.6,6.5-14.9,20.4-16,24.3c-1.1,4,2.2,10.4,4.8,11.9c2.6,1.4,15.3,7.5,19.3,8.5s13.7,4.3,18,6.7
			s12.7,6,14.1,5.6c1.3-0.4,8.4-6.8,5.4-9.6c-3.1-2.9-6-5.7-11.3-6.4c0,0-11.5-7.1-14-10.7c-2.6-3.7-7.9-12.4-5.9-18.2
			c2.1-5.7,45.2-82.4,46.6-85s7.1-14.8,10.3-18.5c3.4-3.7,2.1-9.2,2.1-9.2"/>
		<circle id="lc2" class="st12" cx="463.8" cy="722.7" r="3"/>
		<circle id="lc1" class="st12" cx="400.5" cy="845.4" r="3"/>
	</g>
</g>
<g id="Torso">
	<path class="st19" d="M544.5,353.5c0,0-5,8-2,20s19,12,24,15c3.3,2,7,17,12,33c1.2,3.9,1,13-1,19c-5,15-14.1,19.5-24,33
		c-8.5,11.5-15,31.7-15,46c0,26.2,8.4,27.6,12.5,41.5c0.8,2.6-5.9,6.2-8,9c-6,8-24,30-38,41c-3.7,2.9-8.4,4-13,1c-15-10-16-22-23-37
		c-2.1-4.4-8.2-9.3-6.2-14.5c6.5-17,20.5-35.5,19.7-57c-1-28-11.5-70.5-11.5-70.5c-5-14.6-5-30.4,0-45c4-12,24-19,34-27s7-43,7-43
		s3.1-0.8,4-1c2.9-0.6,5,2,10,5s14,14,15,17S544.5,353.5,544.5,353.5z"/>
	<path class="st20" d="M494.5,447.5c-1-8,5-20,5-25s1-14-3-20s-8-24-2-28s14-8,17-14s7-18,7-25s1-14,0-18s-6-5-6-5s1,41-5.5,46.5
		s-28.3,18.4-30.4,21s-16.3,14.5-8.2,43.5s12.4,61.1,12.4,61.1s20.7,3.9,26.7,5.9s17,16,19,24s3,24,8,31S545,560,537,568
		s-21,19-29,21s-3,22-3,22s21.9-18.9,28-28s17.8-22.6,13-33s-6.8-13.6-7.1-22s0.6-32.5,5.6-39.5s9-19,21.5-30s13-26.5,13.3-30.3
		S563.6,390.9,562,389s-7-4.2-8.8-4.8s-8.6-5-9.7-7.9s-8-5.8-8-1.8s10,11,18,21s13,19,12,26s-6,30-17,34s-44,11-49,5
		C496.5,456.8,494.7,452.3,494.5,447.5z"/>
	<path class="st21" d="M512,320c0,0,3,33-7,41s-30,15-34,27c-5,14.6-5,30.4,0,45c0,0,10.5,42.5,11.5,70.5
		c0.8,21.7-12.5,40.4-18.9,57.5c-1.9,4.9,3.3,9,4.9,13.5c4,11,6.5,16.4,14,26c7,9,8.3,14.9,17,13c11.9-2.6,24.9-24.1,36-31
		c8-5,10-6,15-11c4.1-4.1,1.2-9-0.4-12.8c-4.5-10.4-11.6-16.4-11.6-39.2c0-14.3,6.5-34.5,15-46c9.9-13.5,19-18,24-33
		c2-6,2.2-15.1,1-19c-5-16-15.7-33-19-35c-5-3-14-1-17-13s2-20,2-20"/>
	<path d="M543.3,490.1c-6.2-0.5-45.9-8-62.1-11.1c-1.9-4.7-7.8-31.5-11.3-52.7c-1-5.3-1.3-10.8-0.9-16.2c0.2-2.2,0.2-4.5,0-6.8
		c-1.8-15.3,10.6-24.7,16-28c3.9-2.4,8.8-3.6,14.9-3.6c2.1,0,4.2,0.1,6.4,0.4c7.4,0.8,14.4,9.2,20.5,16.5c0.8,1,1.7,2,2.5,3
		c1.9,2.2,3.3,5.6,4.8,9.2c3.1,7.4,6.9,16.6,16.8,20.2c3.4,1.1,6.9,1.6,10.5,1.5c5.1-0.1,10.1-0.6,15.1-1.6
		c0.6,3.2,1.9,10.9,0.5,15.2c-0.3,0.9-0.6,1.8-0.9,2.7c-1.8,5.6-4,12.7-9.2,17l-0.1,0.1c-5.4,4.1-10,9.2-13.6,14.9
		c-2.4,4-4.5,8-6.4,12.2C545.6,485.8,544.3,488.4,543.3,490.1z M498.8,374.8c-4.8,0-8.7,1-11.6,2.9c-6.6,4.4-8.7,12-9.7,22.1
		c-1,10.4,6.8,21.4,12,28.7l0.2,0.4c2.9,4.1,9.4,11,19.7,11c2.2,0,4.3-0.3,6.4-0.9c11.1-3,15-7.5,16.1-18.3
		c1-10.5-2.6-20.3-5.6-28.2c-3.4-9-12.9-15.7-20.1-17C503.8,375.1,501.3,374.8,498.8,374.8z"/>
	<path d="M500,373.1L500,373.1c2.1,0,4.1,0.1,6.2,0.4c2.2,0.3,4.3,1.2,6,2.4c-1.8-0.9-3.7-1.5-5.7-1.9c-2.6-0.5-5.2-0.7-7.8-0.7
		c-5.1,0-9.2,1.1-12.4,3.2c-7.1,4.8-9.3,12.7-10.3,23.2c-1.1,11,7,22.2,12.3,29.7l0.3,0.4c3.1,4.3,9.9,11.6,20.9,11.6
		c2.3,0,4.6-0.3,6.8-1c11.7-3.2,16-8.1,17.2-19.6c1.1-10.8-2.7-20.8-5.7-28.8c0.1,0.1,0.3,0.3,0.4,0.5c1.7,2,3.1,5.3,4.6,8.9
		c3.2,7.7,7.2,17.3,17.7,21c3.6,1.1,7.3,1.7,11,1.5c4.7-0.1,9.3-0.5,13.9-1.4c0.7,3.9,1.4,9.7,0.3,13c-0.3,0.9-0.6,1.8-0.9,2.8
		c-1.7,5.5-3.8,12.2-8.8,16.3l-0.1,0.1c-5.5,4.2-10.2,9.4-13.9,15.2c-2.4,4-4.5,8.2-6.5,12.5c-1.1,2.3-2.1,4.5-3,6.1
		c-7.5-0.9-39.2-6.8-60.1-10.8c-2-5.9-7.4-30.5-10.9-51.7c-1-5.2-1.3-10.6-0.8-15.9c0.2-2.3,0.2-4.7,0-7
		c-1.7-14.5,10.1-23.4,15.3-26.6C489.6,374.2,494.2,373.1,500,373.1 M500,370.1c-6.1,0-11.4,1.2-15.7,3.8
		c-5.8,3.6-18.5,13.4-16.7,29.5c0.7,6.2-1.4,9.6,0.9,23.1c3.6,21.4,10,51,11.7,53.8c0,0,58.5,11.3,63.6,11.3c0.2,0,0.3,0,0.3-0.1
		c2.5-3.8,6.2-13.5,10.3-20c3.6-5.6,8.1-10.5,13.4-14.6c6.6-5.4,8.6-14.5,10.6-20.4s-0.8-17.5-0.8-17.5c-5.4,1.2-10.8,1.8-16.3,1.9
		c-3.4,0.1-6.8-0.4-10-1.4c-14-5-15-22-21-29c-6.9-8.1-15-19-24-20C504.3,370.3,502.2,370.2,500,370.1L500,370.1z M509.5,438.4
		c-8.1,0-14.4-4.7-18.5-10.3c-5-7-13-18-12-28s3-17,9-21c3.1-2,7-2.7,10.8-2.7c2.4,0,4.8,0.2,7.2,0.7c7.2,1.3,16,8,19,16
		s6.5,17.5,5.5,27.5c-1,9.8-4,14-15,17C513.5,438,511.5,438.3,509.5,438.4L509.5,438.4z"/>
	<path d="M497.6,613.7c-4,0-7.6-1.9-10.4-5.6c-7.3-9.5-10.3-16.8-13.4-24.5c-1.1-2.6-2.2-5.4-3.5-8.2c-0.8-1.7-1.8-3.4-2.8-5
		c-2.2-3.7-4.9-8.3-4.1-10.7c1.8-5,4.2-9.8,7.2-14.2c5,0.3,31.3,2,41.1,2.9c2.1,0.2,4.6,0.3,7.6,0.3c9,0,19.5-0.9,22.7-1.2
		c1.7,2.8,7.1,12.5,9.4,18.9c1.1,3.2-5.4,7.5-11.2,11.2c-5,3.2-9.6,6.2-11.7,9.5c-1.2,2-2.2,3.6-3,5c-4.5,7.6-4.6,7.8-19.6,18.6
		C503.6,612.6,500.7,613.6,497.6,613.7z"/>
	<path d="M471.5,547.1c6.6,0.4,30.9,2,40.2,2.9c2.1,0.2,4.7,0.3,7.7,0.3c8.4,0,17.9-0.8,21.9-1.1c2,3.5,6.8,12,8.8,17.8
		c0.7,2.1-6.3,6.7-10.6,9.4c-5.1,3.3-9.9,6.4-12.1,10c-1.2,2-2.2,3.6-3,5c-4.4,7.5-4.4,7.5-19.2,18.2c-2.2,1.6-4.9,2.6-7.6,2.6
		c-3.5,0-6.7-1.7-9.2-5c-7.2-9.3-10.1-16.5-13.2-24.2c-1.1-2.7-2.2-5.4-3.5-8.3c-0.9-1.8-1.8-3.5-2.9-5.2c-1.7-2.9-4.6-7.7-4-9.4
		C466.6,555.6,468.8,551.2,471.5,547.1 M470,544c-3.3,4.7-6,9.8-7.9,15.2c-1.5,4.3,4.6,11.8,6.9,16.8c5,11,7,20,17,33
		c3.4,4.4,7.5,6.2,11.6,6.2c3.4-0.1,6.7-1.2,9.4-3.2c18-13,15-11,23-24c4.5-7.4,25.6-14.6,23-22c-2.8-7.9-10-20-10-20
		s-12.8,1.3-23.5,1.3c-2.7,0-5.2-0.1-7.5-0.3C501,546,470,544,470,544z"/>
	<g id="Targets">
		<circle id="ruaTorso" class="st12" cx="504" cy="396" r="4"/>
		<circle id="headTorso" class="st12" cx="531" cy="328" r="4"/>
		<circle id="luaTorso" class="st12" cx="545" cy="389" r="4"/>
		<circle id="rtTorso" class="st12" cx="489" cy="575" r="4"/>
		<circle id="ltTorso" class="st12" cx="513" cy="575" r="4"/>
	</g>
</g>
<g id="Layer_7">
	<g id="RightCrus">
		<path class="st19" d="M481.7,720.5c-1.6-4.2-3.6-8.2-6.1-11.9c-3.6-5.1-14.3-14.2-18.4-17.2c-4-2.9-26.7-10.9-33.3-12
			c-6.6-1.1-24.7-6.9-30.9-10.2s-18.4-17.2-22.2-18.7c-3.8-1.6-10.7,0.9-12.4,3.3c-1.8,2.4-9.2,14.3-10.8,18.1s-5.9,13.1-8.8,17.1
			c-3,4-7.5,11.9-7.2,13.3s5.7,9.1,8.9,6.5c3.2-2.6,6.3-5.3,7.7-10.5c0,0,8.4-10.6,12.3-12.6c4-2,13.1-7.8,18.5-5
			c5.4,2.7,76.7,56.1,79.1,57.9c2.4,1.8,13.8,8.7,17.1,12.4c3.3,3.7,5.9,4.1,7.4,2.4C487.9,746.9,481.7,720.5,481.7,720.5z"/>
		<path class="st20" d="M349.2,678.1c2.9,0.4,5.7-0.8,7.3-3.3c2.4-3.2,5.1-13.7,9-15.7c4-2,4.6,2.2,9.7,7.1
			c5.1,4.9,17.7,8,27.2,13.7s39.6,15.3,39.6,15.3c3.8,1.6,20.1,13.2,25,18.3c4.2,4.3,6.7,11.1,7.8,13.1c1,2,9.5,5.7,9.5,5.7
			c-0.6-4-1.4-7.9-2.5-11.8c-1.6-4.2-3.7-8.2-6.2-11.9c-3.6-5.1-14.3-14.2-18.4-17.2c-4-2.9-26.7-10.9-33.3-12
			c-6.6-1.1-24.7-6.9-30.9-10.2s-18.4-17.2-22.2-18.7c-3.8-1.6-10.7,0.9-12.4,3.3c-1.8,2.4-9.2,14.3-10.8,18.1
			c-0.6,1.4-1.6,3-2.7,5.4L349.2,678.1z"/>
		<path class="st21" d="M483.5,727.4c-2.2-5.3-5-13.5-8.6-18.7s-14.7-13.8-19-16.4c-4.7-2.8-25.4-11.8-32.1-12.9
			c-6.6-1.1-24.7-6.9-30.9-10.2c-6.2-3.3-18.4-17.2-22.2-18.7c-3.8-1.6-10.6,0.9-12.4,3.3c-1.8,2.4-9.2,14.3-10.8,18.1
			s-5.9,13.1-8.8,17.1c-3,4-7.5,11.9-7.2,13.3s5.7,9.1,8.9,6.5c3.2-2.6,6.3-5.3,7.7-10.5c0,0,8.4-10.6,12.3-12.6
			c4-2,13.3-6.4,18.8-3.6c5.4,2.7,76.5,54.7,78.9,56.5s13.8,8.7,17.1,12.4c3.3,3.7,8.9,3.2,8.9,3.2"/>
		<circle id="rc2" class="st12" cx="480.6" cy="740.3" r="4"/>
		<circle id="rc1" class="st12" cx="368.5" cy="666.5" r="4"/>
	</g>
	<g id="RightThigh">
		<path class="st19" d="M467.2,593.2c2.2,5.6,3.7,11.1,3.1,22.5s0.5,25.5-1.3,38.4s-0.8,27-2.4,42.7s-4.2,28-2.2,36.3
			s4.5,13.1,9.6,14.9s7.7-3,13.7-2.5c6,0.6,8.4-4.9,8.4-14.1s8-24.7,13.3-38.6c5.3-13.9,14-39.4,14.4-52.2s1.8-31.3-0.3-41.1
			s-2.7-24.8-8.2-33.4c-5.6-8.8-11.9-16.8-24.7-17.2c-10.3-0.3-16.3,0.5-23.8,13.9S464.5,586.5,467.2,593.2z"/>
		<path class="st20" d="M489.4,548.8c-9.5,0.3-15.3,1.1-22.5,13.9c-7.5,13.3-9.3,26.4-6.7,33.1c2.2,5.6,5.5,7.3,5,18.8
			c-0.5,11.4,0.7,26.9-1.2,39.8c-1.9,12.9,4.2,26.6,2.5,42.4s-4.2,28-2.2,36.3c2.1,8.4,1.1,5.6,3.6,10.4c0,0,3.5-1,4-3.2
			c0.6-2.2,5.5-11,4.4-15.9s-3.8-21.7-3.5-26.7s-3.1-59.3-1.2-61.6c2-2.3,2.5-4.4,7.5-4.1c5,0.3,29.7-0.9,34.2,1.6
			c4.5,2.5,10.5,5.1,10.5,5.1s0.6-23.1,0.8-27s-3.9-34-6.2-38.5S507.7,548.3,489.4,548.8z"/>
		<path class="st21" d="M491.2,748c3.4-4.2,5-7.9,5-16.6c0-9.2,8-24.7,13.3-38.6c5.3-13.9,14-39.4,14.4-52.2s1.8-31.3-0.3-41.1
			s-2.7-24.8-8.2-33.4c-5.6-8.8-10.6-18.3-23.4-18.7c-10.3-0.3-21.2-0.3-29.5,12.4s-7.3,27.6-4.6,34.4c2.2,5.6,6.9,13.4,6.3,24.7
			s-0.6,21.9-0.2,34.9c0.5,14.8,4.2,27.3,2.6,43.1s-2.8,27.8-2.2,36.3c0.3,4.2,3.4,10.1,3.7,11.1"/>
		<path d="M526,629.2c-4.7,0.9-55.4-1.9-62.1-3.5c0.1-1.9,0.2-3.7,0.5-5.5c0.7-5.1,1.5-11.5-0.1-15.2c-2-4.8-7.6-20.1-7.5-26.8
			c0.1-3.8,2.8-14.1,4.6-17.1c2-3.3,7.8-7.7,14.6-10.9c1.5-0.7,3.1-1.4,4.6-1.9c5.4-2,19.8,2.2,26.1,8.8c6.4,6.5,17.6,32,18.4,41.7
			c0.1,1.5,0.3,3.3,0.4,5.2C526,611.4,527.4,626.8,526,629.2z"/>
		<path d="M475.3,548.9l1.3,2.7c1.5-0.7,3-1.3,4.4-1.9c4.8-1.8,18.8,2.4,24.5,8.4c6.3,6.5,17.2,31.3,17.9,40.8
			c0.1,1.5,0.3,3.3,0.4,5.2c0.6,6.6,1.7,19.9,0.9,23.8c-8,0.7-50.2-2.1-59.4-3.4c0.1-1.1,0.3-2.8,0.5-4c0.7-5.3,1.5-11.8-0.2-16
			c-1.9-4.5-7.4-19.8-7.4-26.2c0.1-3.8,2.9-13.8,4.4-16.3c1.8-3.1,7.5-7.3,13.9-10.3L475.3,548.9 M475.3,548.9
			c-6.7,3.2-13,7.7-15.2,11.5c-1.8,3.1-4.7,13.6-4.8,17.8c-0.1,7.4,6,23.7,7.6,27.4c2.4,5.8-1.7,20-0.2,21.3s60.8,5.2,64.1,3.6l0,0
			c2.7-1.6,0.4-22-0.3-31.9s-11.9-35.5-18.8-42.6c-6.5-6.6-21.6-11.4-27.7-9.1C478.4,547.4,476.8,548.1,475.3,548.9L475.3,548.9z"/>
		<circle id="rt2" class="st12" cx="488.4" cy="575.6" r="4"/>
		<circle id="rt1" class="st12" cx="481.1" cy="741" r="4"/>
	</g>
</g>
<g id="Layer_8">
	<path class="st19" d="M548.5,355.5c0,0-18-6-19-9s-6-26-8-27s-13-2-15-5s-4-12-3-16s7-9,10-9s9,3,12,6s11,0,13-3s8-12,13-15
		s10-10,15-9s16,6,17,9s3,10,2,15s-5,12-5,15c0,6,6,9,7,13s-2,6-4,7c-1.3,0.6-4,2-4,5s1,9-2,12c-2.5,2.5-4,8-4,10c0,5-6,7-9,7
		C562.5,361.5,548.5,355.5,548.5,355.5z"/>
	<path class="st20" d="M555.1,358.2c-3.5-1.4-6.6-2.7-6.6-2.7s-18-6-19-9s-6-26-8-27s-13-2-15-5s-4-12-3-16s7-9,10-9s9,3,12,6
		s11,0,13-3s8-12,13-15s10-10,15-9c3.5,0.9,6.8,2.1,10,3.8c0,0-24.5,22.3-26,42.2C548.5,340.5,555.1,358.2,555.1,358.2z"/>
	<path class="st21" d="M548.5,355.5c0,0-17.4-6.2-19-9c-4-7-6-26-8-27s-13-2-15-5s-4-12-3-16s7-9,10-9s9,3,12,6s11,0,13-3
		s8-12,13-15s10-10,15-9s16,6,17,9s3,10,2,15s-5,12-5,15c0,6,6,9,7,13s-2,6-4,7c-1.3,0.6-4,2-4,5s1,9-2,12c-2.5,2.5-4,8-4,10
		c0,5-6,7-9,7C562.5,361.5,548.5,355.5,548.5,355.5z"/>
	<path class="st22" d="M520.5,301.5c1-2-5.7-7.9-9,1c-3,8,3.3,9.7,5,8"/>
	<path d="M582,303l-1,10c0,0-41.6-4.2-47-13c-8.9-14.5,46-30,46-30s4.4,11,5.2,15.3S582,303,582,303z"/>
	<path class="st6" d="M488.5,268.5c0,0,4,2,4,6s-5,14-5,21s1,17,5,24s9,15,12,16s7,0.7,7.5-1.7s1.5-12.3-1.5-15.3s-7-5-8-14
		s6-16,10-16s12,3,14,6s28,0,37-5s23-13,22-18s-7-15-15-17c-8-2-19-5-27-5s-24,5-28,9c-4,4-16-1-16-1L488.5,268.5z"/>
	<circle id="h1" class="st12" cx="531" cy="328" r="4"/>
	<circle id="h2" class="st12" cx="481" cy="253" r="4"/>
	<path class="st23" d="M579,278c0,0-12-11-17-13s-25-3-25-3s7,6,8,8s-8-3-15-4c-4-0.6-8.1-0.3-12,1c0,0,6,5,9,5s7,3,7,3h-14
		c-3,0.2-6,0.5-9,1l6,6c0,0-8-2-10-2s-7,3-7,3l4,4c-1.1,0.5-2.1,1.2-3,2c-1,1-2,4-2,4l-2-6c0,0-1,14,0,17s5,10,6,14
		c0.6,2.6,0.6,5.4,0,8c0,0-2-8-5-9c-2-0.6-4-0.6-6,0c0,0,4.3,11.8,6.6,12.4s6.4,6.6,8.4,6.6s6-1,5-6c-0.6-3.6-1-7.3-1-11
		c0,0-5.4-4.4-6.2-6.7s-3.6-10-1.7-14.2s5.3-9.7,8.1-9.4c2.8,0.3,11.9,1.2,14.9,5.2S541,296,541,296s19.5-4.8,23.2-6.9
		S579,278,579,278z"/>
	<path class="st24" d="M488.5,268.5c0,0,4,2,4,6s-5,14-5,21s1,17,5,24s9,15,12,16s7,0.7,7.5-1.7s1.5-12.3-1.5-15.3s-7-5-8-14
		s6-16,10-16s12,3,14,6s28,0,37-5s23-13,22-18s-7-15-15-17c-8-2-19-5-27-5s-24,5-28,9c-4,4-16-1-16-1L488.5,268.5z"/>
	<g id="HairBand">
		<line class="st25" x1="488" y1="273" x2="504" y2="256"/>
		<line class="st25" x1="487" y1="268" x2="499" y2="254"/>
		<line class="st25" x1="480" y1="266" x2="496" y2="249"/>
		<line class="st25" x1="476" y1="262" x2="490" y2="247"/>
	</g>
</g>
<g id="Layer_9">
	<path class="st6" d="M340,319c5-3,5-8,8-17s14-15,28-23s19-15,22-21c3-6,20-19,30-26s28-10,39-13s23,5,26,9s2,13-1,15s-17,20-17,23
		s-13,20-19,24s-16,6-23,10c-4.6,2.6-12.3,11.4-17,17l-1,2c-1.7,5.1-3.7,10.1-6,15c-3,6-17,18-23,24s-21,15-21,15s4-7,5-10s0-7,0-7
		s-9,11-15,18s-25,18-36,24s-28,11-40,14c-2,0.5-7,2-7,2c-1.9,1.1-3,1.6-4,3c-3,4-7.2,6.8-12,8c-4.4,1-8.6,3-12,6c-2,2-32,13-33,10
		s14-33,19-43s20-17,25-20s20-7,27-10s26-7,30-8s6-8,6-8s-9,0-10-3s-6-3-9-3s-7,5-6-1s8-8,11-11s12-10,17-12S335.9,321.5,340,319z"
		/>
	<path class="st26" d="M296.4,339.5c0,0,8.6-2.5,13.6,0.5s4,6,7,6s8-3,10-1s1,5-3,8s-8,7-9,9s-9,6-12,5c-1.9-0.7-3.5-2.1-4.5-3.9
		c0,0,14.5-2.1,16.5-6.1s1.7-5.3-1.7-5.2c-2.7,0-5.3-1-7.3-2.8c-2.8-2.8-7.1-3.5-10.6-1.7C290,350,296.4,339.5,296.4,339.5z"/>
	<path class="st26" d="M345,311.2c0,0,10-6.2,14-9.2s11-5,12-7s3-3,5-2s-1,7-4,10s-10,10-15,12c-2.9,1.2-6,1.7-9.1,1.5L345,311.2z"
		/>
	<path class="st26" d="M294.2,382.2c0,0,3.8-3.2,4.8-1.2s-7,12-7,14s-1,4,2,3s29-11,38-20s38-38,39-43s2-8,4-7s2,6,1,9s-1,11,0,13
		s20-16,23-25s14-33,17-37s4-15,8-15s2,11,5,13s19-7,27-15s18-24,22-26s9.1,3.1,9.1,3.1s-16.3,26-19.7,29.9s-12.3,15.5-27.4,18.7
		s-24.8,22.6-27.9,29.4s-19,27.5-30.6,35.6s-15.4,10.5-15.4,10.5S371,361,370,359s-3-2-5,2s-13,19-29,28s-41.5,20.1-55.2,22.5
		s-23.4,1-23.4,1s14.2-5.9,21.9-13.7S294.2,382.2,294.2,382.2z"/>
	<path class="st26" d="M226.8,404.4c0.8,2.1,0.8,4.4,0.2,6.6c-1,4-4,13-1,15s24-8,27-11s16-1,16-1c-5.5,6.5-12.7,11.4-20.8,14
		c-13.2,4-28.4,13.1-32.3,13s-4.4-3-4.4-3L226.8,404.4z"/>
	<path class="st27" d="M419,291c0,0-1,13-2,16l-5,15c0,0,14-18,21-22s17-6,23-10s19-21,19-24s14-21,17-23s4-11,1-15s-15-12-26-9
		s-29,6-39,13s-27,20-30,26c-3,6-8,13-22,21s-25,14-28,23s-4,14-8,17"/>
	<path class="st27" d="M371,299c0,0-18,17-29,20s-16,1-21,3s-14,9-17,12s-10,5-11,11s3,1,6,1s8,0,9,3s10,3,10,3s-2,7-6,8s-23,5-30,8
		s-22,7-27,10s-20,10-25,20s-20,40-19,43s31-8,33-10c3.4-3,7.6-5,12-6c4.8-1.2,9-4,12-8c2-3,8-4,8-4"/>
	<path class="st27" d="M296,380c0,0-23,28-31,30s-11,2-11,2s13,3,25,0s29-8,40-14s30-17,36-24s15-18,15-18s1,4,0,7s-5,10-5,10
		s15-9,21-15s20-18,23-24s6-17,6-17"/>
	<circle id="hair1" class="st12" cx="481" cy="253" r="4"/>
	<circle id="hair2" class="st12" cx="271" cy="396" r="4"/>
</g>
<g id="Layer_4">
	<g id="RightLowerArm">
		<path class="st19" d="M485.8,497.2c5-4.6,13.1-3.5,29.8-0.3c32.2,6.3,56.3,21.4,67.2,21.1c3.5-0.1,9.8-2.9,13.1-4.8
			c2.1-1.4,4.7-2,7.2-1.6c2.6,0.1,6.3,5.4,12.1,4.9c5.9-0.4,7.2-1.6,9.1,0.3c1.1,1.1,1,2.8,0,3.8l-0.1,0.1c1.9,0.5,3.3,2.1,3.7,4
			c0.6,3.2-3.3,3.1-3.3,3.1c1.7-0.3,3.4,0.8,3.8,2.7l0,0.1c0.6,3.2-3.3,3.1-3.3,3.1s1.9-0.5,2.5,2.7c0.6,3.2-4,3.7-7.2,4.3
			c-4.7,0.8-9.6,0.7-14.2-0.5c-5.2-1.5-8.3-4.9-14.1-5.7c-5.8-0.8-50.8-2.3-78.7-9.2c-27.6-6.8-32.5-9.2-35.1-14.8
			S481.1,501.6,485.8,497.2z"/>
		<path class="st20" d="M480.3,502.9c0,0,3.9,3.4,6.3,2.1c2.5-1.4,5.5-4.6,14.4-3c8.9,1.6,38.8,6.4,48.1,10.2
			c9.3,3.9,24.3,9.4,27.5,9.2s7.3,0.1,7.7,2.3c0.3,2.2,1.4,5.7,2.7,5c1.3-0.7,1.1-7,3.6-8.4c2.5-1.4,10.7-0.9,13.2-2.3
			c2.5-1.4,5.2-3.2,5.2-3.2s-4.5-3.2-7.5-3.4c-3.1-0.2-13.1,6.5-16.8,6.2s-13-1.3-19.3-4.5c-6.3-3.2-43.5-15.9-52.9-16.9
			c-9.5-1-20.2-3.6-23.5-1.2C486,497.5,483.1,500.2,480.3,502.9z"/>
		<path class="st28" d="M485.8,497.2c5-4.6,13.1-3.5,29.8-0.3c32.2,6.3,56.3,21.4,67.2,21.1c3.5-0.1,9.8-2.9,13.1-4.8
			c2.1-1.4,4.7-2,7.2-1.6c2.6,0.1,6.3,5.4,12.1,4.9c5.9-0.4,7.2-1.6,9.1,0.3c1.1,1.1,1,2.8,0,3.8l-0.1,0.1c1.9,0.5,3.3,2.1,3.7,4
			c0.6,3.2-3.3,3.1-3.3,3.1c1.7-0.3,3.4,0.8,3.8,2.7l0,0.1c0.6,3.2-3.3,3.1-3.3,3.1s1.9-0.5,2.5,2.7c0.6,3.2-4,3.7-7.2,4.3
			c-4.7,0.8-9.6,0.7-14.2-0.5c-5.2-1.5-8.3-4.9-14.1-5.7c-5.8-0.8-50.8-2.3-78.7-9.2c-27.6-6.8-32.5-9.2-35.1-14.8
			S481.1,501.6,485.8,497.2z"/>
		<circle id="rla2" class="st12" cx="486.2" cy="502" r="3"/>
		<circle id="rla1" class="st12" cx="605.5" cy="526.1" r="3"/>
	</g>
	<g id="RightUpperArm">
		<path class="st19" d="M472.5,464.3c0,0-3.4-16.7-1-26.8c2.2-10,6.3-38.6,9.5-45.1c3.2-6.6,6.4-11.7,12.1-12
			c5.7-0.4,13.6,4.5,15.2,7.8c2.1,4.4,3.7,13.6,3.3,20.4c-0.7,11.4,2,26.5,0.1,36.6c-3.3,17.2-11.7,29.7-13.3,39
			c-0.5,3.1-0.2,5.7-2,9.5c-1.9,4-7.1,7.7-9.4,11.4c-1.7,2.7,0.3,8.2-2.4,9.8c-10.5,5.8-16.8-32.3-11.3-47.5"/>
		<path class="st20" d="M511.4,404.6c0,0-3.2-1.4-4.7,1.4c-1.6,2.7-2.7,8.6-2.8,13.8c0,5.1-0.2,26.5-3.4,37.1s-6.9,29.2-9.5,31.7
			s-4.7,8.2-5.3,11.2c-0.4,2.7-0.6,5.4-0.5,8.1c0,0,0.6-1.8,4.1-5.3c2.6-2.5,6.5-6.9,6.9-8.8c0,0,2.4-12.6,5.1-18.3
			s9.7-19.6,10.6-27c1-7.5-3-21.3-1.8-28.3C510.9,414.9,511.4,409.7,511.4,404.6z"/>
		<path class="st21" d="M473.1,467.2c-4.9,13.7-0.5,44.6,7.8,46.8c1.2,0.2,2.5,0.4,3.7,0.5"/>
		<path class="st21" d="M496.6,494.1c0.5-3.6,1.2-7.4,1.6-10c1.6-9.3,10.7-19.7,13.9-36.9c1.8-9.5-4.1-25.3-1-35.9"/>
		<path class="st21" d="M475.4,477.7c0,0-5.4-34.5-4.2-44.7c1.3-11.1,6.1-34.4,9.8-40.6c3.6-6.3,6.4-11.7,12.1-12
			c3.5-0.2,4.2-0.3,7.9,1.4"/>
		<line class="st29" x1="471.5" y1="423.4" x2="511.7" y2="426.3"/>
		<circle id="rua1" class="st12" cx="494.3" cy="396.3" r="4"/>
		<circle id="rua2" class="st12" cx="483" cy="503.2" r="3"/>
	</g>
</g>
</svg>
