<?xml version="1.0" encoding="utf-8"?>
<!-- Generator: Adobe Illustrator 28.1.0, SVG Export Plug-In . SVG Version: 6.00 Build 0)  -->
<svg version="1.1" id="Layer_1" xmlns="http://www.w3.org/2000/svg" xmlns:xlink="http://www.w3.org/1999/xlink" x="0px" y="0px"
	 viewBox="0 0 1024 1024" style="enable-background:new 0 0 1024 1024;" xml:space="preserve">
<style type="text/css">
	.st0{fill:#808080;}
	.st1{fill:none;stroke:#000000;stroke-width:2.15;stroke-miterlimit:10;}
	.st2{fill:#B3B3B3;}
	.st3{fill:none;stroke:#000000;stroke-width:2.29;stroke-miterlimit:10;}
	.st4{fill:none;stroke:#000000;stroke-width:1.21;stroke-miterlimit:10;}
	.st5{fill:none;stroke:#000000;stroke-width:1.56;stroke-miterlimit:10;}
	.st6{fill:#FFFFFF;}
	.st7{fill:#808080;stroke:#000000;stroke-width:2.14;stroke-miterlimit:10;}
	.st8{fill:#B3B3B3;stroke:#000000;stroke-width:1.86;stroke-miterlimit:10;}
	.st9{fill:#B3B3B3;stroke:#000000;stroke-width:2.6;stroke-miterlimit:10;}
	.st10{fill:#808080;stroke:#000000;stroke-width:2.44;stroke-miterlimit:10;}
	.st11{fill:none;stroke:#000000;stroke-width:3.54;stroke-linecap:round;stroke-miterlimit:10;}
	.st12{fill:#FF0000;}
	.st13{fill:#B3B3B3;stroke:#000000;stroke-width:2.27;stroke-miterlimit:10.0004;}
	.st14{fill:#808080;stroke:#000000;stroke-width:2.27;stroke-miterlimit:10;}
	.st15{fill:#B3B3B3;stroke:#000000;stroke-width:1.7;stroke-miterlimit:9.9996;}
	.st16{fill:#808080;stroke:#000000;stroke-width:2.05;stroke-miterlimit:10;}
	.st17{fill:#B3B3B3;stroke:#000000;stroke-width:2.27;stroke-miterlimit:10;}
	.st18{fill:#B3B3B3;stroke:#000000;stroke-width:2.27;stroke-miterlimit:9.9999;}
	.st19{fill:#959595;}
	.st20{fill:#828282;}
	.st21{fill:none;stroke:#000000;stroke-width:3;stroke-linecap:round;stroke-miterlimit:10;}
	.st22{fill:none;stroke:#696969;stroke-width:5;stroke-linecap:round;stroke-miterlimit:10;}
	.st23{fill:#DEDEDE;stroke:#DEDEDE;stroke-width:2;stroke-linecap:round;stroke-linejoin:round;}
	.st24{fill:none;stroke:#000000;stroke-width:4;stroke-linecap:round;stroke-miterlimit:10;}
	.st25{fill:none;stroke:#000000;stroke-width:8;stroke-linecap:round;stroke-miterlimit:10;}
	.st26{fill:#DEDEDE;}
	.st27{fill:none;stroke:#000000;stroke-width:4;stroke-linecap:round;stroke-linejoin:round;}
	.st28{fill:none;stroke:#000000;stroke-width:3;stroke-linejoin:round;}
	.st29{fill:none;stroke:#DEDEDE;stroke-width:4;stroke-linecap:round;stroke-miterlimit:10;}
</style>
<g id="Layer_10">
	<g id="LeftLowerArm">
		<g id="Hand">
			<polygon class="st0" points="580.3,534.3 576.6,546.7 595,560.6 600.2,561.9 607.7,537.1 			"/>
			<polygon class="st1" points="580.3,534.3 576.6,546.7 595,560.6 600.2,561.9 607.7,537.1 			"/>
			<polygon class="st2" points="601.6,536.4 589.9,542.1 578.4,540.5 581.5,530.2 600.8,531.2 			"/>
			<polygon class="st3" points="601.6,536.4 589.9,542.1 578.4,540.5 581.5,530.2 600.8,531.2 			"/>
			<path class="st2" d="M598.1,530.5l8.6-0.2c1.5,0,2.8,1.2,2.8,2.8l0,0.4c0,1.5-1.2,2.8-2.8,2.8l-8.6,0.2c-1.5,0-2.8-1.2-2.8-2.8
				l0-0.4C595.3,531.8,596.6,530.5,598.1,530.5z"/>
			<path class="st4" d="M598.1,530.6l8.6-0.2c1.5,0,2.8,1.2,2.8,2.8l0,0l0,0.3c0,1.5-1.2,2.8-2.8,2.8l-8.6,0.2
				c-1.5,0-2.8-1.2-2.8-2.8l0,0l0-0.3C595.3,531.9,596.5,530.6,598.1,530.6z"/>
			<path class="st2" d="M599.4,535.1l13.8,4.2c1.5,0.4,2.4,2.1,1.9,3.5l-0.1,0.3c-0.4,1.5-2.1,2.4-3.5,1.9l-13.8-4.2
				c-1.5-0.4-2.4-2.1-1.9-3.5l0.1-0.3C596.3,535.4,597.8,534.6,599.4,535.1z"/>
			<path class="st5" d="M599.4,535.1l13.8,4.2c1.5,0.4,2.4,2.1,1.9,3.5l0,0l-0.1,0.3c-0.4,1.5-2.1,2.4-3.5,1.9l-13.8-4.2
				c-1.5-0.4-2.4-2.1-1.9-3.5l0,0l0.1-0.3C596.3,535.4,597.8,534.6,599.4,535.1L599.4,535.1z"/>
			<path class="st2" d="M606.9,531.1l0.4-0.1c1.6-0.3,3,0.6,3.4,2l2,8.5c0.3,1.6-0.6,3-2,3.4l-0.4,0.1c-1.6,0.3-3-0.6-3.4-2l-2-8.5
				C604.4,533,605.5,531.4,606.9,531.1z"/>
			<path class="st4" d="M606.9,531.2l0.3-0.1c1.6-0.3,3,0.6,3.4,2l2,8.5c0.3,1.6-0.6,3-2,3.4l-0.3,0.1c-1.6,0.3-3-0.6-3.4-2.1l0,0
				l-2-8.5C604.5,533.1,605.4,531.5,606.9,531.2L606.9,531.2z"/>
			<path class="st2" d="M597.3,542l14.8,4.4c1.5,0.4,2.4,2.1,1.9,3.5l-0.1,0.3c-0.4,1.5-2.1,2.4-3.5,1.9l-14.8-4.4
				c-1.5-0.4-2.4-2.1-1.9-3.5l0.1-0.3C594.2,542.4,595.7,541.5,597.3,542z"/>
			<path class="st5" d="M597.2,542.1l14.7,4.5c1.5,0.4,2.4,2.1,1.9,3.5l0,0.3c-0.4,1.5-2.1,2.4-3.5,1.9l-14.7-4.5
				c-1.5-0.4-2.4-2.1-1.9-3.5l0,0l0.1-0.3C594.1,542.4,595.7,541.5,597.2,542.1L597.2,542.1L597.2,542.1z"/>
			<path class="st2" d="M595.2,549l13.8,4.2c1.5,0.4,2.4,2.1,1.9,3.5l-0.1,0.3c-0.4,1.5-2.1,2.4-3.5,1.9l-13.8-4.2
				c-1.5-0.4-2.4-2.1-1.9-3.5l0.1-0.3C592.1,549.4,593.6,548.5,595.2,549z"/>
			<path class="st5" d="M595.2,549l13.8,4.2c1.5,0.4,2.4,2.1,1.9,3.5l0,0l-0.1,0.3c-0.4,1.5-2.1,2.4-3.5,1.9l-13.8-4.2
				c-1.5-0.4-2.4-2.1-1.9-3.5l0,0l0.1-0.3C592.1,549.4,593.6,548.5,595.2,549z"/>
			<path class="st2" d="M594.5,555.8l12,3.6c1.2,0.4,1.9,1.6,1.5,2.9l0,0.3c-0.4,1.2-1.6,1.9-2.9,1.5l-12-3.6
				c-1.2-0.4-1.9-1.6-1.5-2.9l0-0.3C591.9,556.2,593.3,555.5,594.5,555.8z"/>
			<path class="st5" d="M594.4,555.9l12,3.6c1.2,0.4,1.9,1.6,1.5,2.9l0,0.3c-0.4,1.2-1.6,1.9-2.9,1.5l-12-3.6
				c-1.2-0.4-1.9-1.6-1.5-2.9l0-0.3C591.9,556.3,593.2,555.6,594.4,555.9z"/>
		</g>
		<polygon points="587.9,542.9 589.7,548.7 612.9,547.8 573.3,535.9 575.1,529.6 614.8,541.6 595.9,528 591.3,532 586.3,514.6 
			622.2,540.7 621.7,542.2 631.9,550.2 619,551.2 618.5,552.8 574.2,554.6 		"/>
		<path class="st6" d="M630.8,549.9l-12.1,1l-0.5,1.5l-42.9,1.7l12.4-10.5l1.7,5.6l26-1l-41.6-12.6l0.9-2.7l0.9-2.7l41.6,12.6
			l-21.1-15.2l-4.4,3.7l-4.5-15.6l34.9,25.3l-0.5,1.5L630.8,549.9 M632.9,550.5l-1.6-1.3l-9.1-7.2l0.3-1l0.2-0.6l-0.5-0.3
			l-34.9-25.3l-1.9-1.3l0.7,2.2l4.5,15.6l0.3,1.2l1-0.8l4-3.3l16.6,12l-37-11.1l-0.8-0.2l-0.2,0.8l-0.9,2.7l-0.8,2.7l-0.2,0.8
			l0.8,0.2l37,11.1l-20.5,0.7l-1.4-4.9l-0.3-1.2l-1,0.8l-12.4,10.5l-1.8,1.5l2.3-0.1l42.9-1.7l0.6,0l0.2-0.6l0.3-1l11.6-0.9
			L632.9,550.5L632.9,550.5z"/>
		
			<image style="overflow:visible;enable-background:new    ;" width="18" height="29" xlink:href="4D61AAC6.png"  transform="matrix(0.501 0.8655 -0.8655 0.501 483.612 489.6053)">
		</image>
		
			<rect x="522.5" y="483.1" transform="matrix(0.289 -0.9573 0.9573 0.289 -120.2405 875.1351)" class="st7" width="13" height="70.9"/>
		
			<rect x="467.5" y="496.6" transform="matrix(0.289 -0.9573 0.9573 0.289 -152.7426 815.3196)" class="st8" width="10" height="27.8"/>
		
			<image style="overflow:visible;enable-background:new    ;" width="51" height="24" xlink:href="4D61AACA.png"  transform="matrix(0.501 0.8655 -0.8655 0.501 528.6593 493.5721)">
		</image>
		
			<image style="overflow:visible;enable-background:new    ;" width="47" height="35" xlink:href="4D61AACD.png"  transform="matrix(0.501 0.8655 -0.8655 0.501 540.5031 482.095)">
		</image>
		
			<image style="overflow:visible;enable-background:new    ;" width="53" height="59" xlink:href="4D61AACE.png"  transform="matrix(0.501 0.8655 -0.8655 0.501 543.5089 487.2878)">
		</image>
		<path class="st9" d="M485.4,519.5l4.6-15.4c1.9-6.1,8.4-9.6,14.5-7.8l8.6,2.6l-3.3,10.7l-5.2-1.6c-2.4-0.7-5,0.6-5.7,3l-3.4,11.5
			L485.4,519.5z"/>
		<polygon class="st10" points="548.9,517.7 543,536.9 553.3,540 555.2,547 573.5,552.6 581.1,527.5 		"/>
		<line class="st11" x1="567.9" y1="534.5" x2="570.7" y2="547.7"/>
		<line class="st11" x1="561.7" y1="532.7" x2="564.5" y2="545.9"/>
		<line class="st11" x1="555.5" y1="530.8" x2="558.2" y2="544"/>
		<path class="st9" d="M573.4,526.4l-0.1,0.5c-0.7,2.2-2.9,3.5-5.2,2.8l-32.7-9.9c-2.2-0.7-3.5-2.9-2.8-5.2l0.1-0.5
			c0.7-2.2,2.9-3.5,5.2-2.8l32.7,9.9C572.9,521.9,574.1,524.2,573.4,526.4z"/>
		<circle id="lla1" class="st12" cx="466.9" cy="500.9" r="3"/>
		<circle id="lla2" class="st12" cx="594.5" cy="544.6" r="3"/>
	</g>
	<g id="UpperArm">
		
			<rect x="438.7" y="468.1" transform="matrix(0.498 -0.8672 0.8672 0.498 -175.0932 639.8657)" class="st13" width="52.7" height="6.2"/>
		<path class="st14" d="M469.8,491.9l-14.9-2.9c-2.3-0.4-4.8,0.6-6,2.7l0,0c-1.2,2.1-1,4.6,0.6,6.4l10.1,11.5L469.8,491.9z"/>
		
			<image style="overflow:visible;enable-background:new    ;" width="87" height="116" xlink:href="4D61AACC.png"  transform="matrix(0.501 0.8655 -0.8655 0.501 521.5175 391.4057)">
		</image>
		<path class="st14" d="M507,411.4l-23.2,40.3c-1.7,3-5.5,4-8.5,2.3l0,0c-3-1.7-4-5.5-2.3-8.5l23.2-40.3c1.7-3,5.5-4,8.5-2.3l0,0
			C507.6,404.6,508.7,408.3,507,411.4z"/>
		
			<rect x="496.9" y="427.1" transform="matrix(0.7437 -0.6686 0.6686 0.7437 -151.4004 463.9075)" class="st15" width="64.8" height="4.5"/>
		<path class="st14" d="M537.1,407l14.9,2.9c2.3,0.4,4.8-0.6,6-2.7l0,0c1.2-2.1,1-4.6-0.6-6.4l-10.1-11.5L537.1,407z"/>
		<polygon class="st16" points="474.1,487.2 527.4,394.4 537.5,400.1 507,453.2 482.2,487.9 		"/>
		
			<ellipse transform="matrix(0.9785 -0.2063 0.2063 0.9785 -69.6666 118.5708)" class="st17" cx="533.6" cy="393.3" rx="15.9" ry="15.9"/>
		
			<ellipse transform="matrix(0.9785 -0.2063 0.2063 0.9785 -69.6666 118.5708)" class="st14" cx="533.6" cy="393.3" rx="7.4" ry="7.4"/>
		
			<image style="overflow:visible;enable-background:new    ;" width="76" height="83" xlink:href="4D61AACB.png"  transform="matrix(0.501 0.8655 -0.8655 0.501 512.4534 389.7195)">
		</image>
		
			<image style="overflow:visible;enable-background:new    ;" width="79" height="70" xlink:href="4D61AAC5.png"  transform="matrix(0.501 0.8655 -0.8655 0.501 500.5648 393.1346)">
		</image>
		<path class="st14" d="M460.9,506.1l11.8-20.6c0.8-1.3,2.4-1.7,3.7-1l0,0l10.2,5.8c0.7,0.4,0.9,1.2,0.5,1.9l0,0l-6.9,12
			c-0.2,0.4-0.6,0.6-1,0.7l-16.9,3.2c-0.8,0.2-1.5-0.3-1.7-1.1C460.7,506.8,460.8,506.4,460.9,506.1z"/>
		<ellipse class="st18" cx="470.1" cy="503.9" rx="14.2" ry="14.2"/>
		<polygon class="st17" points="525.9,379.4 526,388.2 519.5,399.6 505.9,391.8 515.9,374 		"/>
		<path class="st17" d="M529.3,375.2l-9.1,15.7c0,0-3.1-1.8-6.2-1c-3.1,0.9-5.1,1-7.1,4.5l-3.4,5.9l-6.9-4l17.2-30L529.3,375.2z"/>
		<circle id="lua2" class="st12" cx="533.5" cy="393.5" r="3"/>
		<circle id="lua1" class="st12" cx="470.2" cy="504" r="3"/>
	</g>
</g>
<g id="Layer_6">
	<g id="LeftThigh">
		<path class="st19" d="M522.8,606.4c5.6,2.2,10.6,4.9,18.6,13s19,17,27.2,27.1s19.3,19,29.7,30.8s17.6,22.2,25.2,26.4
			c7.5,4.2,12.7,5.6,17.5,3s12.5-5.4,11.8-11.4c-0.7-5.9-2.1-9.8-8.9-16.1c-6.7-6.2-12.6-22.7-19.2-36c-6.5-13.3-19.3-37-28.4-46.1
			c-9.1-9.1-21.7-22.7-30.4-27.7c-8.6-5.1-20-14.9-30.1-16.7c-10.3-1.9-20.5-2.7-29.4,6.4c-7.2,7.3-10.6,12.3-6,26.9
			C505,600.5,516,603.8,522.8,606.4z"/>
		<path class="st20" d="M505.4,559.9c-6.2,7.1-9.6,12-5.1,25.9c4.7,14.6,13,24.8,19.8,27.4c5.6,2.2,9.2,1,17.1,9.1
			c7.9,8.1,20.2,17.8,28.4,27.9s22.4,15.1,32.8,26.9c10.4,11.9,17.6,22.2,25.2,26.4c7.5,4.2,4.9,3,10.1,4.4c0,0,1.7-3.2,0.5-5.1
			c-1.2-1.9-4.4-11.6-8.7-14.1s-18.5-12-21.9-15.6c-3.4-3.7-45.6-38-46-41c-0.3-3-1.5-4.9,2.1-8.2c3.7-3.4,19.5-22.3,24.4-23.9
			c4.9-1.5,10.9-4.3,10.9-4.3s-16.5-16.2-19.3-19c-2.7-2.8-27.6-20.3-32.4-21.7C538.4,553.8,517.5,546.2,505.4,559.9z"/>
		<path class="st21" d="M652.6,694.1c-0.7-5.3-2.5-9.1-8.7-14.9c-6.7-6.2-12.6-22.7-19.2-36c-6.5-13.3-19.3-37-28.4-46.1
			c-9.1-9.1-21.7-22.7-30.4-27.7c-8.6-5.1-20-14.9-30.1-16.7c-10.3-1.9-20.7-4.7-29.7,4.4c-7.2,7.3-12.6,13.5-8.9,28.2
			c3.7,14.8,9.2,22.6,16,25.4c5.6,2.2,14.3,2.4,22.4,10.6c7.9,8.1,19.6,20.2,29.4,28.9c11.2,9.8,22.9,15.5,33.3,27.4
			c10.4,11.9,18.5,20.9,25.2,26.4c3.4,2.7,9.8,4.4,10.6,4.9"/>
		<path d="M544.2,631c-2.5-1.6-4.9-3.5-7.1-5.4c-5-4.1-10.6-8.7-14.2-10c-5.4-1.9-18.5-17.5-20.9-22s-6.3-20.1-3.2-27.5
			c2.1-5,12.6-12.2,20.9-13.2c1-0.1,2-0.1,3.1-0.1c9,1,35.8,9,43.2,14.9c1.2,0.9,2.6,2,4.1,3.2c5.9,4.6,18.1,14.1,19,16.8
			C586.7,591.9,549.7,627.5,544.2,631z"/>
		<path d="M520,554.4L520,554.4c0.9-0.1,1.8-0.1,2.8-0.1c8.9,1.1,35.5,9,42.5,14.6c1.2,0.9,2.6,2,4.1,3.2c5.2,4,15.8,12.3,18,15.5
			c-5.1,6.4-36.6,36.2-43.2,41.5c-1.5-1-4.1-3.1-6-4.8c-5.3-4.3-10.8-8.8-14.5-10.2c-4.8-1.7-17.6-16.5-20.1-21.2
			c-2.3-4.3-6-19.3-3.2-26.2C501.9,562.8,511.8,555.3,520,554.4 M519.7,551.4c-8.9,1-19.9,8.7-22.1,14.1c-3.4,8.1,0.7,24.1,3.3,28.8
			c2.6,4.7,15.8,20.6,21.7,22.7c5.9,2.1,20,15.8,21.9,15.6c2-0.2,45.6-41.5,46.2-44.5c0.7-3.1-15.8-15.3-23.6-21.5
			c-7.7-6.2-34.8-14.1-44-15.2C521.9,551.2,520.8,551.2,519.7,551.4z"/>
		<circle id="lt2" class="st12" cx="524" cy="576.6" r="4"/>
		<circle id="lt1" class="st12" cx="642" cy="694" r="3"/>
	</g>
	<g id="LeftCrus">
		<path class="st19" d="M631,711.3c-0.4,4.4-0.3,8.9,0.4,13.4c1.1,6.2,6.8,19,9.2,23.5c2.4,4.4,19.4,21.3,24.9,25.2
			s19.3,16.8,23.4,22.6c4.2,5.7,9.2,23.5,12,26.5s9.9,3.7,12.6,2.3s14.5-8.9,17.5-11.7s11-9.3,15.3-11.7c4.4-2.4,11.9-7.5,12.3-8.9
			c0.4-1.3-1.2-10.7-5.2-9.7c-4,1.1-8,2-11.4,6.1c0,0-12.2,6-16.6,6c-4.5,0.2-15.1,1.3-18.8-3.4c-3.7-4.8-44.9-83.7-46.3-86.3
			c-1.5-2.6-8.7-13.9-10-18.6c-1.3-4.8-3.5-6.3-5.6-5.3C636.8,684.8,631,711.3,631,711.3z"/>
		<path class="st20" d="M732.2,806.8c-2.4-1.7-5.5-1.8-8-0.2c-3.5,1.9-10.5,10.2-14.9,10.2c-4.5,0.2-3.2-3.9-5.7-10.6
			s-12.5-14.9-18.6-24.1c-6.1-9.2-29.1-31-29.1-31c-2.8-3-12.4-20.6-14.6-27.4c-2-5.8-1.3-12.9-1.3-15.1c0-2.2-6.1-9.2-6.1-9.2
			c-1.2,3.9-2.1,7.7-2.8,11.7c-0.4,4.4-0.3,8.9,0.4,13.4c1.1,6.2,6.8,19,9.2,23.5c2.4,4.4,19.4,21.3,24.9,25.2s19.3,16.8,23.4,22.6
			c4.2,5.7,9.2,23.5,12,26.5s9.9,3.7,12.6,2.3s14.5-8.9,17.5-11.7c1.1-1.1,2.8-2.1,4.8-3.7L732.2,806.8z"/>
		<path class="st21" d="M632.4,704.3c-0.2,5.8-1.4,14.3-0.3,20.6s7.3,18.8,10,23c3.1,4.6,17.9,21.6,23.3,25.5s19.3,16.8,23.4,22.6
			c4.2,5.7,9.2,23.5,12,26.5s9.9,3.7,12.6,2.3s14.5-8.9,17.5-11.7s11-9.3,15.3-11.7c4.4-2.4,11.9-7.5,12.3-8.9
			c0.4-1.3-1.2-10.7-5.2-9.7c-4,1.1-8,2-11.4,6.1c0,0-12.2,6-16.6,6c-4.5,0.2-14.7,0-18.4-4.9c-3.7-4.8-45.3-82.4-46.7-85
			c-1.5-2.6-8.7-13.9-10-18.6c-1.3-4.8-6.6-6.7-6.6-6.7"/>
		<circle id="lc2" class="st12" cx="640.7" cy="691.3" r="3"/>
		<circle id="lc1" class="st12" cx="710.4" cy="810.6" r="3"/>
	</g>
</g>
<g id="Torso">
	<path class="st19" d="M544.5,353.5c0,0-5,8-2,20s19,12,24,15c3.3,2,7,17,12,33c1.2,3.9,1,13-1,19c-5,15-14.1,19.5-24,33
		c-8.5,11.5-15,31.7-15,46c0,26.2,8.4,27.6,12.5,41.5c0.8,2.6-5.9,6.2-8,9c-6,8-24,30-38,41c-3.7,2.9-8.4,4-13,1c-15-10-16-22-23-37
		c-2.1-4.4-8.2-9.3-6.2-14.5c6.5-17,20.5-35.5,19.7-57c-1-28-11.5-70.5-11.5-70.5c-5-14.6-5-30.4,0-45c4-12,24-19,34-27s7-43,7-43
		s3.1-0.8,4-1c2.9-0.6,5,2,10,5s14,14,15,17S544.5,353.5,544.5,353.5z"/>
	<path class="st20" d="M494.5,447.5c-1-8,5-20,5-25s1-14-3-20s-8-24-2-28s14-8,17-14s7-18,7-25s1-14,0-18s-6-5-6-5s1,41-5.5,46.5
		s-28.3,18.4-30.4,21s-16.3,14.5-8.2,43.5s12.4,61.1,12.4,61.1s20.7,3.9,26.7,5.9s17,16,19,24s3,24,8,31S545,560,537,568
		s-21,19-29,21s-3,22-3,22s21.9-18.9,28-28s17.8-22.6,13-33s-6.8-13.6-7.1-22s0.6-32.5,5.6-39.5s9-19,21.5-30s13-26.5,13.3-30.3
		S563.6,390.9,562,389s-7-4.2-8.8-4.8s-8.6-5-9.7-7.9s-8-5.8-8-1.8s10,11,18,21s13,19,12,26s-6,30-17,34s-44,11-49,5
		C496.5,456.8,494.7,452.3,494.5,447.5z"/>
	<path class="st21" d="M512,320c0,0,3,33-7,41s-30,15-34,27c-5,14.6-5,30.4,0,45c0,0,10.5,42.5,11.5,70.5
		c0.8,21.7-12.5,40.4-18.9,57.5c-1.9,4.9,3.3,9,4.9,13.5c4,11,6.5,16.4,14,26c7,9,8.3,14.9,17,13c11.9-2.6,24.9-24.1,36-31
		c8-5,10-6,15-11c4.1-4.1,1.2-9-0.4-12.8c-4.5-10.4-11.6-16.4-11.6-39.2c0-14.3,6.5-34.5,15-46c9.9-13.5,19-18,24-33
		c2-6,2.2-15.1,1-19c-5-16-15.7-33-19-35c-5-3-14-1-17-13s2-20,2-20"/>
	<path d="M543.3,490.1c-6.2-0.5-45.9-8-62.1-11.1c-1.9-4.7-7.8-31.5-11.3-52.7c-1-5.3-1.3-10.8-0.9-16.2c0.2-2.2,0.2-4.5,0-6.8
		c-1.8-15.3,10.6-24.7,16-28c3.9-2.4,8.8-3.6,14.9-3.6c2.1,0,4.2,0.1,6.4,0.4c7.4,0.8,14.4,9.2,20.5,16.5c0.8,1,1.7,2,2.5,3
		c1.9,2.2,3.3,5.6,4.8,9.2c3.1,7.4,6.9,16.6,16.8,20.2c3.4,1.1,6.9,1.6,10.5,1.5c5.1-0.1,10.1-0.6,15.1-1.6
		c0.6,3.2,1.9,10.9,0.5,15.2c-0.3,0.9-0.6,1.8-0.9,2.7c-1.8,5.6-4,12.7-9.2,17l-0.1,0.1c-5.4,4.1-10,9.2-13.6,14.9
		c-2.4,4-4.5,8-6.4,12.2C545.6,485.8,544.3,488.4,543.3,490.1z M498.8,374.8c-4.8,0-8.7,1-11.6,2.9c-6.6,4.4-8.7,12-9.7,22.1
		c-1,10.4,6.8,21.4,12,28.7l0.2,0.4c2.9,4.1,9.4,11,19.7,11c2.2,0,4.3-0.3,6.4-0.9c11.1-3,15-7.5,16.1-18.3
		c1-10.5-2.6-20.3-5.6-28.2c-3.4-9-12.9-15.7-20.1-17C503.8,375.1,501.3,374.8,498.8,374.8z"/>
	<path d="M500,373.1L500,373.1c2.1,0,4.1,0.1,6.2,0.4c2.2,0.3,4.3,1.2,6,2.4c-1.8-0.9-3.7-1.5-5.7-1.9c-2.6-0.5-5.2-0.7-7.8-0.7
		c-5.1,0-9.2,1.1-12.4,3.2c-7.1,4.8-9.3,12.7-10.3,23.2c-1.1,11,7,22.2,12.3,29.7l0.3,0.4c3.1,4.3,9.9,11.6,20.9,11.6
		c2.3,0,4.6-0.3,6.8-1c11.7-3.2,16-8.1,17.2-19.6c1.1-10.8-2.7-20.8-5.7-28.8c0.1,0.1,0.3,0.3,0.4,0.5c1.7,2,3.1,5.3,4.6,8.9
		c3.2,7.7,7.2,17.3,17.7,21c3.6,1.1,7.3,1.7,11,1.5c4.7-0.1,9.3-0.5,13.9-1.4c0.7,3.9,1.4,9.7,0.3,13c-0.3,0.9-0.6,1.8-0.9,2.8
		c-1.7,5.5-3.8,12.2-8.8,16.3l-0.1,0.1c-5.5,4.2-10.2,9.4-13.9,15.2c-2.4,4-4.5,8.2-6.5,12.5c-1.1,2.3-2.1,4.5-3,6.1
		c-7.5-0.9-39.2-6.8-60.1-10.8c-2-5.9-7.4-30.5-10.9-51.7c-1-5.2-1.3-10.6-0.8-15.9c0.2-2.3,0.2-4.7,0-7
		c-1.7-14.5,10.1-23.4,15.3-26.6C489.6,374.2,494.2,373.1,500,373.1 M500,370.1c-6.1,0-11.4,1.2-15.7,3.8
		c-5.8,3.6-18.5,13.4-16.7,29.5c0.7,6.2-1.4,9.6,0.9,23.1c3.6,21.4,10,51,11.7,53.8c0,0,58.5,11.3,63.6,11.3c0.2,0,0.3,0,0.3-0.1
		c2.5-3.8,6.2-13.5,10.3-20c3.6-5.6,8.1-10.5,13.4-14.6c6.6-5.4,8.6-14.5,10.6-20.4s-0.8-17.5-0.8-17.5c-5.4,1.2-10.8,1.8-16.3,1.9
		c-3.4,0.1-6.8-0.4-10-1.4c-14-5-15-22-21-29c-6.9-8.1-15-19-24-20C504.3,370.3,502.2,370.2,500,370.1L500,370.1z M509.5,438.4
		c-8.1,0-14.4-4.7-18.5-10.3c-5-7-13-18-12-28s3-17,9-21c3.1-2,7-2.7,10.8-2.7c2.4,0,4.8,0.2,7.2,0.7c7.2,1.3,16,8,19,16
		s6.5,17.5,5.5,27.5c-1,9.8-4,14-15,17C513.5,438,511.5,438.3,509.5,438.4L509.5,438.4z"/>
	<path d="M497.6,613.7c-4,0-7.6-1.9-10.4-5.6c-7.3-9.5-10.3-16.8-13.4-24.5c-1.1-2.6-2.2-5.4-3.5-8.2c-0.8-1.7-1.8-3.4-2.8-5
		c-2.2-3.7-4.9-8.3-4.1-10.7c1.8-5,4.2-9.8,7.2-14.2c5,0.3,31.3,2,41.1,2.9c2.1,0.2,4.6,0.3,7.6,0.3c9,0,19.5-0.9,22.7-1.2
		c1.7,2.8,7.1,12.5,9.4,18.9c1.1,3.2-5.4,7.5-11.2,11.2c-5,3.2-9.6,6.2-11.7,9.5c-1.2,2-2.2,3.6-3,5c-4.5,7.6-4.6,7.8-19.6,18.6
		C503.6,612.6,500.7,613.6,497.6,613.7z"/>
	<path d="M471.5,547.1c6.6,0.4,30.9,2,40.2,2.9c2.1,0.2,4.7,0.3,7.7,0.3c8.4,0,17.9-0.8,21.9-1.1c2,3.5,6.8,12,8.8,17.8
		c0.7,2.1-6.3,6.7-10.6,9.4c-5.1,3.3-9.9,6.4-12.1,10c-1.2,2-2.2,3.6-3,5c-4.4,7.5-4.4,7.5-19.2,18.2c-2.2,1.6-4.9,2.6-7.6,2.6
		c-3.5,0-6.7-1.7-9.2-5c-7.2-9.3-10.1-16.5-13.2-24.2c-1.1-2.7-2.2-5.4-3.5-8.3c-0.9-1.8-1.8-3.5-2.9-5.2c-1.7-2.9-4.6-7.7-4-9.4
		C466.6,555.6,468.8,551.2,471.5,547.1 M470,544c-3.3,4.7-6,9.8-7.9,15.2c-1.5,4.3,4.6,11.8,6.9,16.8c5,11,7,20,17,33
		c3.4,4.4,7.5,6.2,11.6,6.2c3.4-0.1,6.7-1.2,9.4-3.2c18-13,15-11,23-24c4.5-7.4,25.6-14.6,23-22c-2.8-7.9-10-20-10-20
		s-12.8,1.3-23.5,1.3c-2.7,0-5.2-0.1-7.5-0.3C501,546,470,544,470,544z"/>
	<g id="Targets">
		<circle id="ruaTorso" class="st12" cx="504" cy="396" r="4"/>
		<circle id="headTorso" class="st12" cx="531" cy="328" r="4"/>
		<circle id="luaTorso" class="st12" cx="545" cy="389" r="4"/>
		<circle id="rtTorso" class="st12" cx="489" cy="575" r="4"/>
		<circle id="ltTorso" class="st12" cx="513" cy="575" r="4"/>
	</g>
</g>
<g id="Layer_7">
	<g id="RightCrus">
		<path class="st19" d="M434,735.6c-3.7,2.5-7.1,5.4-10.2,8.7c-4.2,4.7-10.5,17.2-12.4,21.9c-1.9,4.6-4.4,28.5-3.9,35.2
			c0.4,6.7-1,25.6-2.8,32.5c-1.8,6.8-12.4,21.9-13.1,25.9c-0.6,4.1,3.4,10.2,6.1,11.3c2.8,1.2,16.1,5.7,20.2,6.3s14.1,2.7,18.7,4.6
			c4.6,1.9,13.3,4.5,14.6,4c1.3-0.5,7.5-7.6,4.3-10.1s-6.6-4.9-12-5c0,0-12.2-5.7-15.2-9.1c-2.9-3.4-10.6-10.9-9.2-16.9
			c1.4-5.9,36.8-87.6,38-90.3c1.2-2.8,5.3-15.5,8.1-19.5s2.7-6.7,0.6-7.7C458.2,723.4,434,735.6,434,735.6z"/>
		<path class="st20" d="M423.4,874.3c-0.2-2.9-2.1-5.4-4.9-6.4c-3.7-1.6-14.5-1.8-17.4-5.1s1.1-5,4.6-11.1c3.6-6.1,3.7-19.1,7-29.6
			s5.7-42.1,5.7-42.1c0.7-4.1,8.2-22.6,12-28.6c3.2-5.1,9.3-9.1,11-10.6s3.3-10.5,3.3-10.5c-3.7,1.5-7.4,3.2-10.9,5.2
			c-3.7,2.5-7.1,5.5-10.2,8.8c-4.2,4.7-10.5,17.2-12.4,21.9c-1.9,4.6-4.4,28.5-3.9,35.2c0.4,6.7-1,25.6-2.8,32.5
			c-1.8,6.8-12.4,21.9-13.1,25.9c-0.6,4.1,3.4,10.2,6.1,11.3c2.8,1.2,16.1,5.7,20.2,6.3c1.5,0.2,3.3,0.8,5.9,1.4L423.4,874.3z"/>
		<path class="st21" d="M440.3,732.2c-4.7,3.4-12,8-16.2,12.7c-4.2,4.8-10,17.5-11.5,22.3c-1.7,5.3-5.6,27.5-5.1,34.2
			s-1,25.6-2.8,32.5s-12.4,21.9-13.1,25.9c-0.6,4.1,3.3,10.1,6.1,11.3c2.8,1.2,16.1,5.7,20.2,6.3s14.1,2.7,18.7,4.6
			c4.6,1.9,13.3,4.5,14.6,4c1.3-0.5,7.5-7.6,4.3-10.1s-6.6-4.9-12-5c0,0-12.2-5.7-15.2-9.1c-2.9-3.4-9.3-11.5-7.9-17.4
			s35.5-87.1,36.7-89.8s5.3-15.5,8.1-19.5c2.8-4.1,1-9.4,1-9.4"/>
		<circle id="rc2" class="st12" cx="453.4" cy="732" r="4"/>
		<circle id="rc1" class="st12" cx="407.6" cy="858.2" r="4"/>
	</g>
	<g id="RightThigh">
		<path class="st19" d="M466.8,586.5c1,5.9,1.4,11.6-1.4,22.6c-2.8,11.1-4.5,25.1-8.9,37.4c-4.4,12.3-6.1,26.3-10.8,41.4
			c-4.7,15.1-9.7,26.6-9.3,35.2c0.4,8.6,1.8,13.8,6.5,16.5s8.2-1.4,13.9,0.3c5.7,1.7,9.3-3.1,11.1-12.2c1.8-9,12.8-22.7,20.7-35.2
			c8-12.5,21.5-35.8,24.5-48.3s8-30.4,7.9-40.4c-0.2-10,2.3-24.9-1.4-34.4c-3.8-9.7-8.3-18.9-20.8-21.8c-10-2.4-16-2.7-26,8.9
			C462.7,568.1,465.6,579.3,466.8,586.5z"/>
		<path class="st20" d="M497.5,547.4c-9.4-1.6-15.2-1.9-24.8,9.2c-10,11.6-14.4,24-13.1,31.2c1,5.9,4,8.3,1.2,19.4
			c-2.8,11.1-4.7,26.5-9.1,38.8s-1.2,26.9-5.9,42c-4.7,15.1-9.7,26.6-9.3,35.2c0.4,8.6,0,5.7,1.5,10.9c0,0,3.6-0.3,4.6-2.3
			s7.6-9.7,7.5-14.7s0.6-22,1.9-26.8s8.7-58.8,11.1-60.6s3.3-3.9,8.2-2.5c4.8,1.3,29.3,5,33.2,8.4c3.9,3.4,9.3,7.1,9.3,7.1
			s5.1-22.6,6.1-26.3s3-34.1,1.6-38.9C519.9,572.4,515.5,550.5,497.5,547.4z"/>
		<path class="st21" d="M459.7,742.9c4.2-3.4,6.5-6.8,8.2-15.2c1.8-9,12.8-22.7,20.7-35.2c8-12.5,21.5-35.8,24.5-48.3
			s8-30.4,7.9-40.4c-0.2-10,2.3-24.9-1.4-34.4c-3.8-9.7-6.8-20.1-19.2-23c-10-2.4-20.7-4.5-31.4,6.3c-10.7,10.8-12.6,25.6-11.3,32.8
			c1,5.9,4.1,14.4,1.3,25.5c-2.8,11-4.9,21.4-7.1,34.2c-2.5,14.6-1.3,27.6-6,42.8c-4.7,15.1-8.3,26.6-9.3,35.2
			c-0.5,4.2,1.3,10.6,1.4,11.6"/>
		<path d="M517.3,633.4c-4.8,0-53.9-12.9-60.2-15.8c0.4-1.8,1-3.6,1.6-5.3c1.7-4.9,3.7-10.9,2.9-14.9c-1-5.1-3.4-21.2-2-27.8
			c0.8-3.7,5.6-13.3,7.9-15.8c2.6-2.8,9.2-6,16.4-7.8c1.6-0.4,3.3-0.8,4.8-1c5.6-0.9,19,6.1,23.9,13.8s10.9,34.8,9.7,44.5
			c-0.2,1.5-0.4,3.3-0.6,5.2C520.9,615.9,519.1,631.3,517.3,633.4z"/>
		<path d="M483.6,544.6l0.7,2.9c1.6-0.4,3.2-0.7,4.7-1c5-0.8,17.9,6.1,22.4,13.1c4.9,7.6,10.6,34.1,9.5,43.5
			c-0.2,1.5-0.4,3.3-0.6,5.2c-0.7,6.6-2.2,19.8-3.8,23.5c-8-0.9-48.8-12-57.6-15.1c0.3-1.1,0.8-2.6,1.3-3.9c1.7-5,3.9-11.3,3-15.7
			c-1-4.8-3.4-20.9-2-27.1c0.8-3.7,5.6-13,7.5-15.1c2.4-2.7,8.8-5.6,15.7-7.4L483.6,544.6 M483.6,544.6c-7.2,1.8-14.3,5-17.2,8.3
			c-2.4,2.7-7.3,12.4-8.2,16.5c-1.6,7.3,1.2,24.4,2,28.4c1.2,6.2-5.6,19.3-4.4,20.9c1.2,1.6,58.6,17.1,62.1,16.3l0,0
			c3-1.1,4.8-21.5,6-31.3s-4.6-37.2-9.9-45.5c-5.1-7.8-18.9-15.5-25.4-14.5C486.9,543.8,485.2,544.2,483.6,544.6L483.6,544.6z"/>
		<circle id="rt2" class="st12" cx="491.1" cy="573.4" r="4"/>
		<circle id="rt1" class="st12" cx="451.2" cy="734" r="4"/>
	</g>
</g>
<g id="Layer_8">
	<path class="st19" d="M548.5,355.5c0,0-18-6-19-9s-6-26-8-27s-13-2-15-5s-4-12-3-16s7-9,10-9s9,3,12,6s11,0,13-3s8-12,13-15
		s10-10,15-9s16,6,17,9s3,10,2,15s-5,12-5,15c0,6,6,9,7,13s-2,6-4,7c-1.3,0.6-4,2-4,5s1,9-2,12c-2.5,2.5-4,8-4,10c0,5-6,7-9,7
		C562.5,361.5,548.5,355.5,548.5,355.5z"/>
	<path class="st20" d="M555.1,358.2c-3.5-1.4-6.6-2.7-6.6-2.7s-18-6-19-9s-6-26-8-27s-13-2-15-5s-4-12-3-16s7-9,10-9s9,3,12,6
		s11,0,13-3s8-12,13-15s10-10,15-9c3.5,0.9,6.8,2.1,10,3.8c0,0-24.5,22.3-26,42.2C548.5,340.5,555.1,358.2,555.1,358.2z"/>
	<path class="st21" d="M548.5,355.5c0,0-17.4-6.2-19-9c-4-7-6-26-8-27s-13-2-15-5s-4-12-3-16s7-9,10-9s9,3,12,6s11,0,13-3
		s8-12,13-15s10-10,15-9s16,6,17,9s3,10,2,15s-5,12-5,15c0,6,6,9,7,13s-2,6-4,7c-1.3,0.6-4,2-4,5s1,9-2,12c-2.5,2.5-4,8-4,10
		c0,5-6,7-9,7C562.5,361.5,548.5,355.5,548.5,355.5z"/>
	<path class="st22" d="M520.5,301.5c1-2-5.7-7.9-9,1c-3,8,3.3,9.7,5,8"/>
	<path d="M582,303l-1,10c0,0-41.6-4.2-47-13c-8.9-14.5,46-30,46-30s4.4,11,5.2,15.3S582,303,582,303z"/>
	<path class="st6" d="M488.5,268.5c0,0,4,2,4,6s-5,14-5,21s1,17,5,24s9,15,12,16s7,0.7,7.5-1.7s1.5-12.3-1.5-15.3s-7-5-8-14
		s6-16,10-16s12,3,14,6s28,0,37-5s23-13,22-18s-7-15-15-17c-8-2-19-5-27-5s-24,5-28,9c-4,4-16-1-16-1L488.5,268.5z"/>
	<circle id="h1" class="st12" cx="531" cy="328" r="4"/>
	<circle id="h2" class="st12" cx="481" cy="253" r="4"/>
	<path class="st23" d="M579,278c0,0-12-11-17-13s-25-3-25-3s7,6,8,8s-8-3-15-4c-4-0.6-8.1-0.3-12,1c0,0,6,5,9,5s7,3,7,3h-14
		c-3,0.2-6,0.5-9,1l6,6c0,0-8-2-10-2s-7,3-7,3l4,4c-1.1,0.5-2.1,1.2-3,2c-1,1-2,4-2,4l-2-6c0,0-1,14,0,17s5,10,6,14
		c0.6,2.6,0.6,5.4,0,8c0,0-2-8-5-9c-2-0.6-4-0.6-6,0c0,0,4.3,11.8,6.6,12.4s6.4,6.6,8.4,6.6s6-1,5-6c-0.6-3.6-1-7.3-1-11
		c0,0-5.4-4.4-6.2-6.7s-3.6-10-1.7-14.2s5.3-9.7,8.1-9.4c2.8,0.3,11.9,1.2,14.9,5.2S541,296,541,296s19.5-4.8,23.2-6.9
		S579,278,579,278z"/>
	<path class="st24" d="M488.5,268.5c0,0,4,2,4,6s-5,14-5,21s1,17,5,24s9,15,12,16s7,0.7,7.5-1.7s1.5-12.3-1.5-15.3s-7-5-8-14
		s6-16,10-16s12,3,14,6s28,0,37-5s23-13,22-18s-7-15-15-17c-8-2-19-5-27-5s-24,5-28,9c-4,4-16-1-16-1L488.5,268.5z"/>
	<g id="HairBand">
		<line class="st25" x1="488" y1="273" x2="504" y2="256"/>
		<line class="st25" x1="487" y1="268" x2="499" y2="254"/>
		<line class="st25" x1="480" y1="266" x2="496" y2="249"/>
		<line class="st25" x1="476" y1="262" x2="490" y2="247"/>
	</g>
</g>
<g id="Layer_9">
	<path class="st6" d="M340,319c5-3,5-8,8-17s14-15,28-23s19-15,22-21c3-6,20-19,30-26s28-10,39-13s23,5,26,9s2,13-1,15s-17,20-17,23
		s-13,20-19,24s-16,6-23,10c-4.6,2.6-12.3,11.4-17,17l-1,2c-1.7,5.1-3.7,10.1-6,15c-3,6-17,18-23,24s-21,15-21,15s4-7,5-10s0-7,0-7
		s-9,11-15,18s-25,18-36,24s-28,11-40,14c-2,0.5-7,2-7,2c-1.9,1.1-3,1.6-4,3c-3,4-7.2,6.8-12,8c-4.4,1-8.6,3-12,6c-2,2-32,13-33,10
		s14-33,19-43s20-17,25-20s20-7,27-10s26-7,30-8s6-8,6-8s-9,0-10-3s-6-3-9-3s-7,5-6-1s8-8,11-11s12-10,17-12S335.9,321.5,340,319z"
		/>
	<path class="st26" d="M296.4,339.5c0,0,8.6-2.5,13.6,0.5s4,6,7,6s8-3,10-1s1,5-3,8s-8,7-9,9s-9,6-12,5c-1.9-0.7-3.5-2.1-4.5-3.9
		c0,0,14.5-2.1,16.5-6.1s1.7-5.3-1.7-5.2c-2.7,0-5.3-1-7.3-2.8c-2.8-2.8-7.1-3.5-10.6-1.7C290,350,296.4,339.5,296.4,339.5z"/>
	<path class="st26" d="M345,311.2c0,0,10-6.2,14-9.2s11-5,12-7s3-3,5-2s-1,7-4,10s-10,10-15,12c-2.9,1.2-6,1.7-9.1,1.5L345,311.2z"
		/>
	<path class="st26" d="M294.2,382.2c0,0,3.8-3.2,4.8-1.2s-7,12-7,14s-1,4,2,3s29-11,38-20s38-38,39-43s2-8,4-7s2,6,1,9s-1,11,0,13
		s20-16,23-25s14-33,17-37s4-15,8-15s2,11,5,13s19-7,27-15s18-24,22-26s9.1,3.1,9.1,3.1s-16.3,26-19.7,29.9s-12.3,15.5-27.4,18.7
		s-24.8,22.6-27.9,29.4s-19,27.5-30.6,35.6s-15.4,10.5-15.4,10.5S371,361,370,359s-3-2-5,2s-13,19-29,28s-41.5,20.1-55.2,22.5
		s-23.4,1-23.4,1s14.2-5.9,21.9-13.7S294.2,382.2,294.2,382.2z"/>
	<path class="st26" d="M226.8,404.4c0.8,2.1,0.8,4.4,0.2,6.6c-1,4-4,13-1,15s24-8,27-11s16-1,16-1c-5.5,6.5-12.7,11.4-20.8,14
		c-13.2,4-28.4,13.1-32.3,13s-4.4-3-4.4-3L226.8,404.4z"/>
	<path class="st27" d="M419,291c0,0-1,13-2,16l-5,15c0,0,14-18,21-22s17-6,23-10s19-21,19-24s14-21,17-23s4-11,1-15s-15-12-26-9
		s-29,6-39,13s-27,20-30,26c-3,6-8,13-22,21s-25,14-28,23s-4,14-8,17"/>
	<path class="st27" d="M371,299c0,0-18,17-29,20s-16,1-21,3s-14,9-17,12s-10,5-11,11s3,1,6,1s8,0,9,3s10,3,10,3s-2,7-6,8s-23,5-30,8
		s-22,7-27,10s-20,10-25,20s-20,40-19,43s31-8,33-10c3.4-3,7.6-5,12-6c4.8-1.2,9-4,12-8c2-3,8-4,8-4"/>
	<path class="st27" d="M296,380c0,0-23,28-31,30s-11,2-11,2s13,3,25,0s29-8,40-14s30-17,36-24s15-18,15-18s1,4,0,7s-5,10-5,10
		s15-9,21-15s20-18,23-24s6-17,6-17"/>
	<circle id="hair1" class="st12" cx="481" cy="253" r="4"/>
	<circle id="hair2" class="st12" cx="271" cy="396" r="4"/>
</g>
<g id="Layer_4">
	<g id="RightLowerArm">
		<path class="st19" d="M489.8,497.5c4.8-4.8,13-4,29.7-1.3c32.4,5.1,57,19.3,67.9,18.6c3.5-0.2,9.7-3.3,13-5.2
			c2-1.5,4.6-2.1,7.1-1.9c2.6,0,6.5,5.2,12.3,4.5c5.8-0.6,7.1-1.9,9.1,0c1.1,1,1.1,2.8,0.1,3.8l-0.1,0.1c1.9,0.4,3.4,1.9,3.9,3.9
			c0.7,3.2-3.2,3.3-3.2,3.3c1.7-0.4,3.4,0.7,3.9,2.5l0,0.1c0.7,3.2-3.2,3.3-3.2,3.3s1.9-0.6,2.6,2.6c0.7,3.2-3.9,3.9-7.1,4.5
			c-4.6,1-9.6,1-14.2,0.1c-5.2-1.3-8.4-4.6-14.3-5.2c-5.8-0.6-50.8-0.5-79-6.4c-27.8-5.8-32.8-8-35.6-13.5
			C480.2,505.7,485.3,502.1,489.8,497.5z"/>
		<path class="st20" d="M484.5,503.5c0,0,4,3.2,6.4,1.9c2.4-1.5,5.4-4.8,14.3-3.5c8.9,1.2,39,4.9,48.4,8.5
			c9.4,3.5,24.6,8.5,27.8,8.2c3.2-0.3,7.3-0.2,7.8,2c0.4,2.2,1.6,5.6,2.9,4.9c1.2-0.7,0.8-7,3.3-8.5c2.4-1.5,10.7-1.3,13.1-2.8
			s5.1-3.4,5.1-3.4s-4.6-3-7.6-3.1c-3.1-0.1-12.8,6.9-16.6,6.8c-3.7-0.1-13-0.9-19.4-3.8s-44-14.3-53.5-14.9
			c-9.5-0.7-20.3-2.9-23.5-0.3C490,497.9,487.2,500.6,484.5,503.5z"/>
		<path class="st28" d="M489.8,497.5c4.8-4.8,13-4,29.7-1.3c32.4,5.1,57,19.3,67.9,18.6c3.5-0.2,9.7-3.3,13-5.2
			c2-1.5,4.6-2.1,7.1-1.9c2.6,0,6.5,5.2,12.3,4.5c5.8-0.6,7.1-1.9,9.1,0c1.1,1,1.1,2.8,0.1,3.8l-0.1,0.1c1.9,0.4,3.4,1.9,3.9,3.9
			c0.7,3.2-3.2,3.3-3.2,3.3c1.7-0.4,3.4,0.7,3.9,2.5l0,0.1c0.7,3.2-3.2,3.3-3.2,3.3s1.9-0.6,2.6,2.6c0.7,3.2-3.9,3.9-7.1,4.5
			c-4.6,1-9.6,1-14.2,0.1c-5.2-1.3-8.4-4.6-14.3-5.2c-5.8-0.6-50.8-0.5-79-6.4c-27.8-5.8-32.8-8-35.6-13.5
			C480.2,505.7,485.3,502.1,489.8,497.5z"/>
		<circle id="rla2" class="st12" cx="490.4" cy="502.3" r="3"/>
		<circle id="rla1" class="st12" cx="610.5" cy="522.1" r="3"/>
	</g>
	<g id="RightUpperArm">
		<path class="st19" d="M475.3,465.2c0,0-4-16.6-2-26.8c1.8-10.1,4.9-38.8,7.8-45.4c3-6.7,6-12,11.6-12.5c5.7-0.6,13.8,4,15.5,7.3
			c2.3,4.4,4.2,13.5,4.1,20.3c-0.3,11.5,3,26.4,1.5,36.6c-2.7,17.3-10.6,30.1-11.9,39.5c-0.4,3.1,0,5.7-1.7,9.5
			c-1.8,4-6.8,7.9-9,11.7c-1.6,2.8,0.6,8.2-2,9.9c-10.3,6.1-17.9-31.7-13-47.1"/>
		<path class="st20" d="M512.1,404.1c0,0-3.3-1.2-4.7,1.6c-1.5,2.8-2.4,8.7-2.3,13.9c0.2,5.1,0.7,26.5-2,37.2
			c-2.7,10.7-5.8,29.4-8.3,32.1c-2.5,2.6-4.4,8.4-4.9,11.4c-0.3,2.7-0.4,5.4-0.2,8.1c0,0,0.6-1.8,3.9-5.4c2.5-2.6,6.2-7.1,6.6-9
			c0,0,1.9-12.6,4.5-18.4c2.6-5.8,9-19.9,9.7-27.4c0.7-7.5-3.8-21.2-2.8-28.2C511.9,414.4,512.2,409.2,512.1,404.1z"/>
		<path class="st21" d="M476.1,468.1c-4.4,13.8,1.1,44.6,9.5,46.5c1.2,0.2,2.5,0.3,3.7,0.3"/>
		<path class="st21" d="M500.5,494.1c0.3-3.6,0.9-7.5,1.3-10c1.3-9.3,9.9-20.1,12.6-37.3c1.4-9.6-5-25.1-2.3-35.8"/>
		<path class="st21" d="M478.7,478.4c0,0-6.7-34.3-5.9-44.5c0.9-11.2,4.9-34.6,8.3-40.9c3.4-6.4,6-12,11.6-12.5
			c3.5-0.3,4.2-0.5,7.9,1.1"/>
		<line class="st29" x1="472.9" y1="424.3" x2="513.2" y2="425.7"/>
		<circle id="rua1" class="st12" cx="494.7" cy="396.4" r="4"/>
		<circle id="rua2" class="st12" cx="487.3" cy="503.6" r="3"/>
	</g>
</g>
</svg>
