<?xml version="1.0" encoding="utf-8"?>
<!-- Generator: Adobe Illustrator 28.1.0, SVG Export Plug-In . SVG Version: 6.00 Build 0)  -->
<svg version="1.1" id="Layer_1" xmlns="http://www.w3.org/2000/svg" xmlns:xlink="http://www.w3.org/1999/xlink" x="0px" y="0px"
	 viewBox="0 0 1024 1024" style="enable-background:new 0 0 1024 1024;" xml:space="preserve">
<style type="text/css">
	.st0{fill:#808080;}
	.st1{fill:none;stroke:#000000;stroke-width:2.15;stroke-miterlimit:10;}
	.st2{fill:#B3B3B3;}
	.st3{fill:none;stroke:#000000;stroke-width:2.29;stroke-miterlimit:10;}
	.st4{fill:none;stroke:#000000;stroke-width:1.21;stroke-miterlimit:10;}
	.st5{fill:none;stroke:#000000;stroke-width:1.56;stroke-miterlimit:10;}
	.st6{fill:#FFFFFF;}
	.st7{fill:#808080;stroke:#000000;stroke-width:2.14;stroke-miterlimit:10;}
	.st8{fill:#B3B3B3;stroke:#000000;stroke-width:1.86;stroke-miterlimit:10;}
	.st9{fill:#B3B3B3;stroke:#000000;stroke-width:2.6;stroke-miterlimit:10;}
	.st10{fill:#808080;stroke:#000000;stroke-width:2.44;stroke-miterlimit:10;}
	.st11{fill:none;stroke:#000000;stroke-width:3.54;stroke-linecap:round;stroke-miterlimit:10;}
	.st12{fill:#FF0000;}
	.st13{fill:#B3B3B3;stroke:#000000;stroke-width:2.27;stroke-miterlimit:10.0004;}
	.st14{fill:#808080;stroke:#000000;stroke-width:2.27;stroke-miterlimit:10;}
	.st15{fill:#B3B3B3;stroke:#000000;stroke-width:1.7;stroke-miterlimit:9.9996;}
	.st16{fill:#808080;stroke:#000000;stroke-width:2.05;stroke-miterlimit:10;}
	.st17{fill:#B3B3B3;stroke:#000000;stroke-width:2.27;stroke-miterlimit:10;}
	.st18{fill:#B3B3B3;stroke:#000000;stroke-width:2.27;stroke-miterlimit:9.9999;}
	.st19{fill:#959595;}
	.st20{fill:#828282;}
	.st21{fill:none;stroke:#000000;stroke-width:3;stroke-linecap:round;stroke-miterlimit:10;}
	.st22{fill:none;stroke:#696969;stroke-width:5;stroke-linecap:round;stroke-miterlimit:10;}
	.st23{fill:#DEDEDE;stroke:#DEDEDE;stroke-width:2;stroke-linecap:round;stroke-linejoin:round;}
	.st24{fill:none;stroke:#000000;stroke-width:4;stroke-linecap:round;stroke-miterlimit:10;}
	.st25{fill:none;stroke:#000000;stroke-width:8;stroke-linecap:round;stroke-miterlimit:10;}
	.st26{fill:#DEDEDE;}
	.st27{fill:none;stroke:#000000;stroke-width:4;stroke-linecap:round;stroke-linejoin:round;}
	.st28{fill:none;stroke:#000000;stroke-width:3;stroke-linejoin:round;}
	.st29{fill:none;stroke:#DEDEDE;stroke-width:4;stroke-linecap:round;stroke-miterlimit:10;}
</style>
<g id="Layer_10">
	<g id="LeftLowerArm">
		<g id="Hand">
			<polygon class="st0" points="663.9,503.4 667.5,515.8 690.5,517.4 695.6,515.8 688.3,490.9 			"/>
			<polygon class="st1" points="663.9,503.4 667.5,515.8 690.5,517.4 695.6,515.8 688.3,490.9 			"/>
			<polygon class="st2" points="682.9,493.6 676.2,504.7 665.7,509.6 662.7,499.4 679.4,489.6 			"/>
			<polygon class="st3" points="682.9,493.6 676.2,504.7 665.7,509.6 662.7,499.4 679.4,489.6 			"/>
			<path class="st2" d="M676.7,490.5l7.2-4.9c1.3-0.8,3-0.5,3.9,0.8l0.2,0.4c0.8,1.3,0.5,3-0.8,3.9l-7.2,4.9c-1.3,0.8-3,0.5-3.9-0.8
				l-0.2-0.4C675.1,493.2,675.5,491.4,676.7,490.5z"/>
			<path class="st4" d="M676.8,490.6l7.2-4.9c1.3-0.8,3-0.5,3.9,0.8l0,0l0.1,0.3c0.8,1.3,0.5,3-0.8,3.9l-7.2,4.9
				c-1.3,0.8-3,0.5-3.9-0.8l0,0l-0.1-0.3C675.2,493.2,675.5,491.5,676.8,490.6z"/>
			<path class="st2" d="M680.3,493.7l13.8-4c1.5-0.5,3.1,0.4,3.5,1.9l0.1,0.4c0.5,1.5-0.4,3.1-1.9,3.5l-13.8,4
				c-1.5,0.5-3.1-0.4-3.5-1.9l-0.1-0.4C677.9,495.6,678.7,494.1,680.3,493.7z"/>
			<path class="st5" d="M680.3,493.7l13.8-4c1.5-0.5,3.1,0.4,3.5,1.9l0,0l0.1,0.4c0.5,1.5-0.4,3.1-1.9,3.5l-13.8,4
				c-1.5,0.5-3.1-0.4-3.5-1.9l0,0l-0.1-0.4C677.9,495.6,678.7,494.1,680.3,493.7L680.3,493.7z"/>
			<path class="st2" d="M684.5,486.3l0.3-0.3c1.1-1.1,2.8-1.1,4-0.1l6.3,6c1.1,1.1,1.1,2.8,0.1,4l-0.3,0.3c-1.1,1.1-2.8,1.1-4,0.1
				l-6.3-6C683.4,489.1,683.4,487.3,684.5,486.3z"/>
			<path class="st4" d="M684.5,486.3l0.2-0.2c1.1-1.1,2.8-1.1,4-0.1l6.3,6c1.1,1.1,1.1,2.8,0.1,4l-0.2,0.2c-1.1,1.1-2.8,1.1-4,0.1
				l0,0l-6.3-6C683.5,489.2,683.4,487.5,684.5,486.3L684.5,486.3z"/>
			<path class="st2" d="M682.3,500.7l14.9-4.4c1.5-0.5,3.1,0.4,3.5,1.9l0.1,0.4c0.5,1.5-0.4,3.1-1.9,3.5l-14.9,4.4
				c-1.5,0.5-3.1-0.4-3.5-1.9l-0.1-0.4C679.9,502.6,680.8,501.1,682.3,500.7z"/>
			<path class="st5" d="M682.2,500.7l14.8-4.3c1.5-0.5,3.1,0.4,3.5,1.9l0.1,0.3c0.5,1.5-0.4,3.1-1.9,3.5l-14.8,4.3
				c-1.5,0.5-3.1-0.4-3.5-1.9l0,0l-0.1-0.4C679.8,502.7,680.8,501.1,682.2,500.7L682.2,500.7L682.2,500.7z"/>
			<path class="st2" d="M684.3,507.7l13.8-4c1.5-0.5,3.1,0.4,3.5,1.9l0.1,0.4c0.5,1.5-0.4,3.1-1.9,3.5l-13.8,4
				c-1.5,0.5-3.1-0.4-3.5-1.9l-0.1-0.4C681.9,509.7,682.8,508.1,684.3,507.7z"/>
			<path class="st5" d="M684.3,507.7l13.8-4c1.5-0.5,3.1,0.4,3.5,1.9l0,0l0.1,0.4c0.5,1.5-0.4,3.1-1.9,3.5l-13.8,4
				c-1.5,0.5-3.1-0.4-3.5-1.9l0,0l-0.1-0.4C681.9,509.7,682.8,508.1,684.3,507.7z"/>
			<path class="st2" d="M687.4,513.8l12-3.5c1.2-0.4,2.5,0.4,2.9,1.6l0.1,0.3c0.4,1.2-0.4,2.5-1.6,2.9l-12,3.5
				c-1.2,0.4-2.5-0.4-2.9-1.6l-0.1-0.3C685.5,515.5,686.2,514.1,687.4,513.8z"/>
			<path class="st5" d="M687.4,513.9l12-3.5c1.2-0.4,2.5,0.4,2.9,1.6l0.1,0.3c0.4,1.2-0.4,2.5-1.6,2.9l-12,3.5
				c-1.2,0.4-2.5-0.4-2.9-1.6l-0.1-0.3C685.5,515.5,686.2,514.3,687.4,513.9z"/>
		</g>
		<polygon points="674.9,506.5 679.6,510.4 698.6,497 658.8,508.5 657,502.3 696.8,490.8 673.6,489.6 671.8,495.5 658.2,483.6 
			702.5,485.9 702.9,487.5 715.8,488.7 705.6,496.5 706,498.1 669.7,523.8 		"/>
		<path class="st6" d="M714.7,489l-9.6,7.4l0.4,1.6l-35.1,24.7l4.7-15.5l4.4,3.8l21.2-14.9L659.2,508l-0.8-2.8l-0.8-2.8l41.7-12.1
			l-25.9-1.3l-1.7,5.5l-12.3-10.6l43,2.2l0.4,1.6L714.7,489 M716.8,488.4l-2.1-0.2l-11.5-1.1l-0.3-1l-0.1-0.6l-0.6,0l-43-2.2
			l-2.3-0.1l1.8,1.5l12.3,10.6l0.9,0.8l0.4-1.2l1.6-4.9l20.5,1l-37.1,10.8l-0.8,0.2l0.2,0.8l0.8,2.8l0.8,2.7l0.2,0.8l0.8-0.2
			l37.1-10.8l-16.8,11.8l-3.9-3.3l-0.9-0.8l-0.4,1.2l-4.7,15.5l-0.7,2.3l1.9-1.3l35.1-24.7l0.5-0.4l-0.1-0.6l-0.3-1l9.2-7.1
			L716.8,488.4L716.8,488.4z"/>
		
			<image style="overflow:visible;enable-background:new    ;" width="18" height="29" xlink:href="9353567F.png"  transform="matrix(0.8913 0.4535 -0.4535 0.8913 558.4265 518.5339)">
		</image>
		
			<rect x="576.8" y="511.6" transform="matrix(0.9604 -0.2785 0.2785 0.9604 -120.0651 191.0239)" class="st7" width="70.9" height="13"/>
		
			<rect x="546.6" y="537.1" transform="matrix(0.9604 -0.2785 0.2785 0.9604 -128.8047 177.5511)" class="st8" width="27.8" height="10"/>
		
			<image style="overflow:visible;enable-background:new    ;" width="51" height="24" xlink:href="9353567D.png"  transform="matrix(0.8913 0.4535 -0.4535 0.8913 598.3785 497.3482)">
		</image>
		
			<image style="overflow:visible;enable-background:new    ;" width="47" height="35" xlink:href="93535683.png"  transform="matrix(0.8913 0.4535 -0.4535 0.8913 602.0695 481.2742)">
		</image>
		
			<image style="overflow:visible;enable-background:new    ;" width="53" height="59" xlink:href="93535685.png"  transform="matrix(0.8913 0.4535 -0.4535 0.8913 607.4171 483.9951)">
		</image>
		<path class="st9" d="M576.2,542.7l-4.5-15.4c-1.8-6.2,1.8-12.7,8-14.4l8.6-2.5l3.1,10.8l-5.2,1.5c-2.4,0.7-3.8,3.2-3.1,5.7
			l3.4,11.5L576.2,542.7z"/>
		<polygon class="st10" points="628.5,506.6 634,525.9 644.3,522.9 649.7,527.8 668.1,522.4 660.8,497.2 		"/>
		<line class="st11" x1="653.6" y1="510.4" x2="663.1" y2="519.9"/>
		<line class="st11" x1="647.4" y1="512.2" x2="656.9" y2="521.8"/>
		<line class="st11" x1="641.1" y1="514" x2="650.7" y2="523.6"/>
		<path class="st9" d="M653.8,500.5l0.2,0.5c0.6,2.2-0.6,4.5-2.8,5.2l-32.8,9.5c-2.2,0.6-4.5-0.6-5.2-2.8l-0.2-0.5
			c-0.6-2.2,0.6-4.5,2.8-5.2l32.8-9.5C650.9,497.1,653.2,498.3,653.8,500.5z"/>
		<circle id="lla1" class="st12" cx="550.5" cy="537.1" r="3"/>
		<circle id="lla2" class="st12" cx="681.4" cy="504.3" r="3"/>
	</g>
	<g id="UpperArm">
		
			<rect x="529.7" y="486.8" transform="matrix(0.9985 -5.413665e-02 5.413665e-02 0.9985 -26.998 29.599)" class="st13" width="6.2" height="52.7"/>
		<path class="st14" d="M548,528l-14.1,5.7c-2.2,0.9-3.7,3.1-3.5,5.5l0,0c0.1,2.4,1.7,4.4,4,5l14.7,4.1L548,528z"/>
		
			<image style="overflow:visible;enable-background:new    ;" width="87" height="116" xlink:href="93535687.png"  transform="matrix(0.8913 0.4535 -0.4535 0.8913 536.7902 415.52)">
		</image>
		<path class="st14" d="M535.4,440.2l2.4,46.4c0.2,3.5-2.4,6.4-5.9,6.6l0,0c-3.5,0.2-6.4-2.4-6.6-5.9l-2.4-46.4
			c-0.2-3.5,2.4-6.4,5.9-6.6l0,0C532.3,434.2,535.2,436.7,535.4,440.2z"/>
		
			<rect x="531.6" y="440.9" transform="matrix(0.2601 -0.9656 0.9656 0.2601 -10.6463 872.4488)" class="st15" width="64.8" height="4.5"/>
		<path class="st14" d="M558.4,420.1l14.1-5.7c2.2-0.9,3.7-3.1,3.5-5.5l0,0c-0.1-2.4-1.7-4.4-4-5l-14.7-4.1L558.4,420.1z"/>
		<polygon class="st16" points="549.1,521.7 543.3,414.8 554.9,414.1 558.3,475.3 556.3,517.9 		"/>
		
			<ellipse transform="matrix(0.7071 -0.7071 0.7071 0.7071 -129.7849 507.6893)" class="st17" cx="547.9" cy="410.5" rx="15.9" ry="15.9"/>
		
			<ellipse transform="matrix(0.7071 -0.7071 0.7071 0.7071 -129.7849 507.6893)" class="st14" cx="547.9" cy="410.5" rx="7.4" ry="7.4"/>
		
			<image style="overflow:visible;enable-background:new    ;" width="76" height="83" xlink:href="93535684.png"  transform="matrix(0.8913 0.4535 -0.4535 0.8913 528.2681 419.0378)">
		</image>
		
			<image style="overflow:visible;enable-background:new    ;" width="79" height="70" xlink:href="9353568C.png"  transform="matrix(0.8913 0.4535 -0.4535 0.8913 520.1523 428.3724)">
		</image>
		<path class="st14" d="M548.4,544.7l-1.3-23.7c-0.1-1.5,1.1-2.8,2.6-2.8l0,0l11.7-0.7c0.8-0.1,1.4,0.6,1.5,1.3l0,0l0.7,13.8
			c0,0.4-0.1,0.8-0.4,1.1l-12.5,11.9c-0.6,0.6-1.4,0.6-2,0C548.5,545.4,548.4,545.1,548.4,544.7z"/>
		<ellipse class="st18" cx="554.8" cy="537.9" rx="14.2" ry="14.2"/>
		<polygon class="st17" points="533.9,403.1 538.8,410.4 539.6,423.5 523.9,424.3 522.6,403.9 		"/>
		<path class="st17" d="M534.5,397.7l1,18.1c0,0-3.6,0.2-5.8,2.5c-2.1,2.4-3.8,3.6-3.6,7.6l0.4,6.8l-7.9,0.4l-1.9-34.5L534.5,397.7z
			"/>
		<circle id="lua2" class="st12" cx="548" cy="410.7" r="3"/>
		<circle id="lua1" class="st12" cx="555" cy="537.9" r="3"/>
	</g>
</g>
<g id="Layer_6">
	<g id="LeftThigh">
		<path class="st19" d="M517.9,603.8c4.8,3.7,8.8,7.6,14.2,17.7c5.3,10.1,13.5,21.6,18.6,33.7c5,12,13.2,23.6,19.8,37.9
			c6.7,14.4,10.7,26.2,16.8,32.3c6.1,6.2,10.6,9,15.9,7.8c5.3-1.1,13.5-1.7,14.5-7.7s0.7-10-4-18s-5.8-25.4-8.3-40
			s-8.1-41-14.3-52.2s-14.5-27.8-21.4-35.1s-15.1-19.9-24.1-24.5c-9.3-4.7-18.9-8.4-30-2.1c-8.9,4.9-13.7,8.8-13.3,24.1
			C502.8,593,512.2,599.3,517.9,603.8z"/>
		<path class="st20" d="M514.3,554.3c-8,5.1-12.6,8.8-12.2,23.5c0.4,15.3,5.5,27.4,11.2,31.9c4.8,3.7,8.6,3.5,13.9,13.6
			c5.3,10.1,14.4,22.8,19.3,34.8c4.9,12,17.2,20.7,23.8,35.1c6.7,14.4,10.7,26.2,16.8,32.3c6.1,6.2,3.8,4.2,8.4,7
			c0,0,2.5-2.6,1.9-4.7c-0.7-2.1-0.9-12.4-4.3-16c-3.4-3.6-14.3-16.7-16.6-21.2s-33.1-49.4-32.6-52.3c0.5-2.9-0.1-5.1,4.4-7.4
			c4.5-2.2,25.1-15.9,30.2-16.1s11.7-1,11.7-1s-11.4-20.2-13.2-23.6c-1.8-3.4-20.8-27.3-25.1-29.9
			C547.7,557.6,529.7,544.4,514.3,554.3z"/>
		<path class="st21" d="M617.9,724.4c0.8-5.3,0.2-9.4-4.2-16.8c-4.7-8-5.8-25.4-8.3-40s-8.1-41-14.3-52.2s-14.5-27.8-21.4-35.1
			s-15.1-19.9-24.1-24.5c-9.3-4.7-18.5-10.3-29.7-4.2c-8.9,4.9-15.8,9.4-16.4,24.6c-0.6,15.3,2.5,24.4,8.2,28.9
			c4.8,3.7,13.2,6.4,18.5,16.4c5.3,10.1,13.2,25,20.1,36c8,12.6,17.6,21.3,24.3,35.7s11.8,25.3,16.8,32.3c2.5,3.5,8.1,7,8.8,7.6"/>
		<path d="M531.5,633.5c-1.9-2.3-3.7-4.7-5.3-7.2c-3.7-5.3-7.7-11.3-10.7-13.5c-4.6-3.4-12.8-22-13.9-26.9s-0.4-21.1,4.6-27.3
			c3.3-4.2,15.5-8.2,23.8-6.8c1,0.2,2,0.5,3,0.9c8.4,3.6,31.8,18.7,37.3,26.5c0.8,1.2,2,2.7,3,4.3c4.4,6.1,13.4,18.6,13.4,21.4
			C583.3,607.7,537.7,631.5,531.5,633.5z"/>
		<path d="M529.8,553.1L529.8,553.1c0.9,0.2,1.8,0.4,2.7,0.7c8.3,3.5,31.5,18.7,36.7,25.9c0.8,1.2,2,2.7,3,4.3
			c3.9,5.4,11.6,16.3,13,19.9c-6.7,4.8-45.3,24.5-53.1,27.7c-1.1-1.4-3.1-4.2-4.4-6.3c-3.9-5.7-7.9-11.5-11.1-13.8
			c-4.1-3.1-12.2-20.8-13.3-26.1c-1-4.7-0.4-20.3,4.3-26.1C510.2,556,521.7,551.6,529.8,553.1 M530.3,550
			c-8.8-1.5-21.5,2.8-25.2,7.4c-5.5,6.8-6.1,23.3-5,28.6s9.4,24.1,14.5,27.8c5.1,3.7,14.7,20.8,16.6,21.2c1.9,0.3,55.3-27,56.9-29.8
			c1.5-2.8-10.9-19.1-16.6-27.3c-5.7-8.1-29.4-23.4-37.9-27C532.5,550.6,531.4,550.3,530.3,550z"/>
		<circle id="lt2" class="st12" cx="527.3" cy="575.5" r="4"/>
		<circle id="lt1" class="st12" cx="607.7" cy="721.2" r="3"/>
	</g>
	<g id="LeftCrus">
		<path class="st19" d="M586.1,712.1c-4.5,0.1-9,0.7-13.3,1.8c-6.1,1.8-18.3,8.7-22.4,11.6c-4.1,2.8-19.2,21.5-22.5,27.3
			s-14.8,21-20,25.7c-5.3,4.7-22.4,11.6-25.1,14.7c-2.7,3.1-2.7,10.3-1,12.8s10.4,13.6,13.4,16.3c3.1,2.7,10.4,9.9,13.2,14
			c2.8,4.1,8.7,11,10.1,11.2s10.5-2.3,9.1-6.1s-2.9-7.7-7.2-10.8c0,0-7.2-11.5-7.7-15.9s-2.9-15,1.5-19.1c4.4-4.2,78.6-53.3,81-55.1
			c2.5-1.7,12.9-10,17.5-11.9c4.6-1.8,5.9-4.1,4.7-6.1C613.1,715,586.1,712.1,586.1,712.1z"/>
		<path class="st20" d="M501.7,822.6c1.4-2.6,1.2-5.7-0.6-8c-2.2-3.3-11.2-9.3-11.8-13.8c-0.5-4.4,3.6-3.6,10-6.7s13.5-13.9,22-21
			c8.5-7,27.7-32.1,27.7-32.1c2.7-3.1,19.2-14.5,25.7-17.4c5.6-2.6,12.7-2.5,15-2.9c2.2-0.3,8.5-7,8.5-7c-4-0.8-8-1.3-12-1.6
			c-4.5,0.1-9,0.7-13.3,1.8c-6.1,1.8-18.3,8.7-22.4,11.6c-4.1,2.8-19.2,21.5-22.5,27.3s-14.8,21-20,25.7
			c-5.3,4.7-22.4,11.6-25.1,14.7c-2.7,3.1-2.7,10.3-1,12.8s10.4,13.6,13.4,16.3c1.1,1,2.3,2.5,4.2,4.4L501.7,822.6z"/>
		<path class="st21" d="M593.2,712.7c-5.8,0.3-14.4,0.2-20.5,1.8c-6.1,1.8-17.9,9.2-21.8,12.5c-4.3,3.5-19.7,20-23,25.8
			s-14.8,21-20,25.7c-5.3,4.7-22.4,11.6-25.1,14.7c-2.7,3.1-2.7,10.3-1,12.8s10.4,13.6,13.4,16.3c3.1,2.7,10.4,9.9,13.2,14
			s8.7,11,10.1,11.2c1.4,0.2,10.5-2.3,9.1-6.1s-2.9-7.7-7.2-10.8c0,0-7.2-11.5-7.7-15.9s-1.5-14.7,2.9-18.9s77.2-53.7,79.6-55.3
			c2.5-1.7,12.9-10,17.5-11.9c4.6-1.8,5.9-7.3,5.9-7.3"/>
		<circle id="lc2" class="st12" cx="607" cy="719.6" r="3"/>
		<circle id="lc1" class="st12" cx="495.6" cy="801.3" r="3"/>
	</g>
</g>
<g id="Torso">
	<path class="st19" d="M544.5,353.5c0,0-5,8-2,20s19,12,24,15c3.3,2,7,17,12,33c1.2,3.9,1,13-1,19c-5,15-14.1,19.5-24,33
		c-8.5,11.5-15,31.7-15,46c0,26.2,8.4,27.6,12.5,41.5c0.8,2.6-5.9,6.2-8,9c-6,8-24,30-38,41c-3.7,2.9-8.4,4-13,1c-15-10-16-22-23-37
		c-2.1-4.4-8.2-9.3-6.2-14.5c6.5-17,20.5-35.5,19.7-57c-1-28-11.5-70.5-11.5-70.5c-5-14.6-5-30.4,0-45c4-12,24-19,34-27s7-43,7-43
		s3.1-0.8,4-1c2.9-0.6,5,2,10,5s14,14,15,17S544.5,353.5,544.5,353.5z"/>
	<path class="st20" d="M494.5,447.5c-1-8,5-20,5-25s1-14-3-20s-8-24-2-28s14-8,17-14s7-18,7-25s1-14,0-18s-6-5-6-5s1,41-5.5,46.5
		s-28.3,18.4-30.4,21s-16.3,14.5-8.2,43.5s12.4,61.1,12.4,61.1s20.7,3.9,26.7,5.9s17,16,19,24s3,24,8,31S545,560,537,568
		s-21,19-29,21s-3,22-3,22s21.9-18.9,28-28s17.8-22.6,13-33s-6.8-13.6-7.1-22s0.6-32.5,5.6-39.5s9-19,21.5-30s13-26.5,13.3-30.3
		S563.6,390.9,562,389s-7-4.2-8.8-4.8s-8.6-5-9.7-7.9s-8-5.8-8-1.8s10,11,18,21s13,19,12,26s-6,30-17,34s-44,11-49,5
		C496.5,456.8,494.7,452.3,494.5,447.5z"/>
	<path class="st21" d="M512,320c0,0,3,33-7,41s-30,15-34,27c-5,14.6-5,30.4,0,45c0,0,10.5,42.5,11.5,70.5
		c0.8,21.7-12.5,40.4-18.9,57.5c-1.9,4.9,3.3,9,4.9,13.5c4,11,6.5,16.4,14,26c7,9,8.3,14.9,17,13c11.9-2.6,24.9-24.1,36-31
		c8-5,10-6,15-11c4.1-4.1,1.2-9-0.4-12.8c-4.5-10.4-11.6-16.4-11.6-39.2c0-14.3,6.5-34.5,15-46c9.9-13.5,19-18,24-33
		c2-6,2.2-15.1,1-19c-5-16-15.7-33-19-35c-5-3-14-1-17-13s2-20,2-20"/>
	<path d="M543.3,490.1c-6.2-0.5-45.9-8-62.1-11.1c-1.9-4.7-7.8-31.5-11.3-52.7c-1-5.3-1.3-10.8-0.9-16.2c0.2-2.2,0.2-4.5,0-6.8
		c-1.8-15.3,10.6-24.7,16-28c3.9-2.4,8.8-3.6,14.9-3.6c2.1,0,4.2,0.1,6.4,0.4c7.4,0.8,14.4,9.2,20.5,16.5c0.8,1,1.7,2,2.5,3
		c1.9,2.2,3.3,5.6,4.8,9.2c3.1,7.4,6.9,16.6,16.8,20.2c3.4,1.1,6.9,1.6,10.5,1.5c5.1-0.1,10.1-0.6,15.1-1.6
		c0.6,3.2,1.9,10.9,0.5,15.2c-0.3,0.9-0.6,1.8-0.9,2.7c-1.8,5.6-4,12.7-9.2,17l-0.1,0.1c-5.4,4.1-10,9.2-13.6,14.9
		c-2.4,4-4.5,8-6.4,12.2C545.6,485.8,544.3,488.4,543.3,490.1z M498.8,374.8c-4.8,0-8.7,1-11.6,2.9c-6.6,4.4-8.7,12-9.7,22.1
		c-1,10.4,6.8,21.4,12,28.7l0.2,0.4c2.9,4.1,9.4,11,19.7,11c2.2,0,4.3-0.3,6.4-0.9c11.1-3,15-7.5,16.1-18.3
		c1-10.5-2.6-20.3-5.6-28.2c-3.4-9-12.9-15.7-20.1-17C503.8,375.1,501.3,374.8,498.8,374.8z"/>
	<path d="M500,373.1L500,373.1c2.1,0,4.1,0.1,6.2,0.4c2.2,0.3,4.3,1.2,6,2.4c-1.8-0.9-3.7-1.5-5.7-1.9c-2.6-0.5-5.2-0.7-7.8-0.7
		c-5.1,0-9.2,1.1-12.4,3.2c-7.1,4.8-9.3,12.7-10.3,23.2c-1.1,11,7,22.2,12.3,29.7l0.3,0.4c3.1,4.3,9.9,11.6,20.9,11.6
		c2.3,0,4.6-0.3,6.8-1c11.7-3.2,16-8.1,17.2-19.6c1.1-10.8-2.7-20.8-5.7-28.8c0.1,0.1,0.3,0.3,0.4,0.5c1.7,2,3.1,5.3,4.6,8.9
		c3.2,7.7,7.2,17.3,17.7,21c3.6,1.1,7.3,1.7,11,1.5c4.7-0.1,9.3-0.5,13.9-1.4c0.7,3.9,1.4,9.7,0.3,13c-0.3,0.9-0.6,1.8-0.9,2.8
		c-1.7,5.5-3.8,12.2-8.8,16.3l-0.1,0.1c-5.5,4.2-10.2,9.4-13.9,15.2c-2.4,4-4.5,8.2-6.5,12.5c-1.1,2.3-2.1,4.5-3,6.1
		c-7.5-0.9-39.2-6.8-60.1-10.8c-2-5.9-7.4-30.5-10.9-51.7c-1-5.2-1.3-10.6-0.8-15.9c0.2-2.3,0.2-4.7,0-7
		c-1.7-14.5,10.1-23.4,15.3-26.6C489.6,374.2,494.2,373.1,500,373.1 M500,370.1c-6.1,0-11.4,1.2-15.7,3.8
		c-5.8,3.6-18.5,13.4-16.7,29.5c0.7,6.2-1.4,9.6,0.9,23.1c3.6,21.4,10,51,11.7,53.8c0,0,58.5,11.3,63.6,11.3c0.2,0,0.3,0,0.3-0.1
		c2.5-3.8,6.2-13.5,10.3-20c3.6-5.6,8.1-10.5,13.4-14.6c6.6-5.4,8.6-14.5,10.6-20.4s-0.8-17.5-0.8-17.5c-5.4,1.2-10.8,1.8-16.3,1.9
		c-3.4,0.1-6.8-0.4-10-1.4c-14-5-15-22-21-29c-6.9-8.1-15-19-24-20C504.3,370.3,502.2,370.2,500,370.1L500,370.1z M509.5,438.4
		c-8.1,0-14.4-4.7-18.5-10.3c-5-7-13-18-12-28s3-17,9-21c3.1-2,7-2.7,10.8-2.7c2.4,0,4.8,0.2,7.2,0.7c7.2,1.3,16,8,19,16
		s6.5,17.5,5.5,27.5c-1,9.8-4,14-15,17C513.5,438,511.5,438.3,509.5,438.4L509.5,438.4z"/>
	<path d="M497.6,613.7c-4,0-7.6-1.9-10.4-5.6c-7.3-9.5-10.3-16.8-13.4-24.5c-1.1-2.6-2.2-5.4-3.5-8.2c-0.8-1.7-1.8-3.4-2.8-5
		c-2.2-3.7-4.9-8.3-4.1-10.7c1.8-5,4.2-9.8,7.2-14.2c5,0.3,31.3,2,41.1,2.9c2.1,0.2,4.6,0.3,7.6,0.3c9,0,19.5-0.9,22.7-1.2
		c1.7,2.8,7.1,12.5,9.4,18.9c1.1,3.2-5.4,7.5-11.2,11.2c-5,3.2-9.6,6.2-11.7,9.5c-1.2,2-2.2,3.6-3,5c-4.5,7.6-4.6,7.8-19.6,18.6
		C503.6,612.6,500.7,613.6,497.6,613.7z"/>
	<path d="M471.5,547.1c6.6,0.4,30.9,2,40.2,2.9c2.1,0.2,4.7,0.3,7.7,0.3c8.4,0,17.9-0.8,21.9-1.1c2,3.5,6.8,12,8.8,17.8
		c0.7,2.1-6.3,6.7-10.6,9.4c-5.1,3.3-9.9,6.4-12.1,10c-1.2,2-2.2,3.6-3,5c-4.4,7.5-4.4,7.5-19.2,18.2c-2.2,1.6-4.9,2.6-7.6,2.6
		c-3.5,0-6.7-1.7-9.2-5c-7.2-9.3-10.1-16.5-13.2-24.2c-1.1-2.7-2.2-5.4-3.5-8.3c-0.9-1.8-1.8-3.5-2.9-5.2c-1.7-2.9-4.6-7.7-4-9.4
		C466.6,555.6,468.8,551.2,471.5,547.1 M470,544c-3.3,4.7-6,9.8-7.9,15.2c-1.5,4.3,4.6,11.8,6.9,16.8c5,11,7,20,17,33
		c3.4,4.4,7.5,6.2,11.6,6.2c3.4-0.1,6.7-1.2,9.4-3.2c18-13,15-11,23-24c4.5-7.4,25.6-14.6,23-22c-2.8-7.9-10-20-10-20
		s-12.8,1.3-23.5,1.3c-2.7,0-5.2-0.1-7.5-0.3C501,546,470,544,470,544z"/>
	<g id="Targets">
		<circle id="ruaTorso" class="st12" cx="504" cy="396" r="4"/>
		<circle id="headTorso" class="st12" cx="531" cy="328" r="4"/>
		<circle id="luaTorso" class="st12" cx="545" cy="389" r="4"/>
		<circle id="rtTorso" class="st12" cx="489" cy="575" r="4"/>
		<circle id="ltTorso" class="st12" cx="513" cy="575" r="4"/>
	</g>
</g>
<g id="Layer_7">
	<g id="RightCrus">
		<path class="st19" d="M565,728.2c-0.8,4.4-1.1,8.9-0.8,13.3c0.5,6.3,5.1,19.5,7.1,24.1s17.4,23,22.6,27.3s17.7,18.5,21.4,24.6
			c3.7,6,7.1,24.1,9.5,27.4c2.5,3.3,9.6,4.7,12.4,3.5s15.3-7.6,18.5-10.1c3.3-2.5,11.7-8.3,16.3-10.2s12.5-6.4,13-7.7
			s-0.2-10.7-4.3-10.1c-4.1,0.6-8.1,1.3-12,5.1c0,0-12.6,4.8-17.1,4.6c-4.5-0.3-15.2,0-18.5-5.1s-37.3-87.4-38.5-90.1
			c-1.1-2.8-7.4-14.6-8.4-19.4s-2.9-6.6-5.1-5.8C573.1,702.3,565,728.2,565,728.2z"/>
		<path class="st20" d="M657.4,832.2c-2.2-1.8-5.4-2.2-8-0.9c-3.7,1.5-11.3,9.2-15.8,8.9c-4.4-0.3-2.8-4.2-4.7-11
			s-11.1-15.9-16.4-25.6s-26.3-33.4-26.3-33.4c-2.5-3.3-10.5-21.6-12.2-28.5c-1.4-5.9-0.1-13,0-15.2s-5.2-9.7-5.2-9.7
			c-1.5,3.7-2.8,7.5-3.8,11.4c-0.8,4.4-1,8.9-0.8,13.4c0.5,6.3,5.1,19.5,7.1,24.1s17.4,23,22.6,27.3s17.7,18.5,21.4,24.6
			c3.7,6,7.1,24.1,9.5,27.4c2.5,3.3,9.6,4.7,12.4,3.5s15.3-7.6,18.5-10.1c1.2-0.9,2.9-1.8,5.1-3.3L657.4,832.2z"/>
		<path class="st21" d="M567,721.3c-0.8,5.7-2.6,14.2-2.1,20.5s5.6,19.4,8,23.8c2.6,4.9,15.9,23.1,21,27.5
			c5.1,4.3,17.7,18.5,21.4,24.6c3.7,6,7.1,24.1,9.5,27.4c2.5,3.3,9.6,4.6,12.3,3.5s15.3-7.6,18.5-10.1c3.3-2.5,11.7-8.3,16.3-10.2
			s12.5-6.4,13-7.7s-0.2-10.7-4.3-10.1c-4.1,0.6-8.1,1.3-12,5.1c0,0-12.6,4.8-17.1,4.6c-4.5-0.3-14.7-1.3-18-6.4
			c-3.3-5.1-37.9-86.1-39-88.8c-1.1-2.8-7.4-14.6-8.4-19.4c-0.9-4.9-6-7.3-6-7.3"/>
		<circle id="rc2" class="st12" cx="576" cy="711.7" r="4"/>
		<circle id="rc1" class="st12" cx="634.8" cy="832.4" r="4"/>
	</g>
	<g id="RightThigh">
		<path class="st19" d="M480.8,600.8c5,3.4,9.3,7,15.3,16.7s14.9,20.7,20.6,32.4c5.8,11.7,14.6,22.7,22.2,36.6
			c7.6,13.9,12.3,25.5,18.8,31.2c6.4,5.7,11.2,8.2,16.4,6.8c5.2-1.5,4.7-6.9,9.9-9.8c5.2-2.9,4.2-8.8-1-16.4
			c-5.2-7.6-7.4-24.9-10.9-39.4s-10.7-40.4-17.6-51.2c-6.9-10.8-16.2-26.9-23.5-33.7s-16.3-18.9-25.7-22.9
			c-9.6-4.1-19.4-7.1-30.1-0.2c-8.7,5.5-13.1,9.6-11.7,24.9C464.7,591.1,474.8,596.8,480.8,600.8z"/>
		<path class="st20" d="M474,551.6c-7.7,5.6-12,9.6-10.7,24.2c1.4,15.2,7.2,27,13.2,31.1c5,3.4,8.7,2.9,14.7,12.6
			s15.8,21.8,21.5,33.5c5.8,11.7,18.5,19.6,26.1,33.5s12.3,25.5,18.8,31.2c6.4,5.7,4.1,4,8.9,6.5c0,0,2.3-2.8,1.5-4.9
			s-1.7-12.2-5.4-15.6c-3.7-3.4-15.4-15.7-18-20s-36.2-47.1-35.8-50.1c0.3-3-0.5-5.1,3.8-7.6c4.3-2.6,24-17.5,29.1-18
			s11.6-1.7,11.6-1.7s-12.6-19.4-14.6-22.7s-22.5-25.9-26.9-28.2C507.5,552.9,488.7,540.8,474,551.6z"/>
		<path class="st21" d="M588.2,714.8c0.4-5.4-0.4-9.4-5.3-16.5c-5.2-7.6-7.4-24.9-10.9-39.4s-10.7-40.4-17.6-51.2
			c-6.9-10.8-16.2-26.9-23.5-33.7s-16.3-18.9-25.7-22.9c-9.6-4.1-19.1-9.1-29.9-2.2c-8.7,5.5-17.7,11.7-17.3,26.9
			c0.3,15.2,9.6,26.9,15.6,30.9c5,3.4,13.2,7.1,19.2,16.8s11.9,18.4,19.6,28.9c8.8,12,19,20.1,26.5,34.1
			c7.6,13.9,13.4,24.5,18.8,31.2c2.7,3.3,8.5,6.4,9.3,7"/>
		<path d="M549.6,597.2c-3.3,3.4-46.8,29.8-53.2,32.3c-1-1.6-1.9-3.2-2.7-4.8c-2.3-4.6-5.3-10.3-8.7-12.5
			c-4.4-2.8-17.6-12.3-21.3-17.9c-2.1-3.1-5.7-13.3-5.9-16.7c-0.2-3.8,2.1-10.8,5.8-17.3c0.8-1.5,1.7-2.9,2.7-4.2
			c3.3-4.7,17.6-9.4,26.5-7.6s32.6,16.4,38.7,24c1,1.2,2.1,2.6,3.3,4C539.6,582.5,549.4,594.5,549.6,597.2z"/>
		<path d="M462.3,559.7l2.6,1.5c0.8-1.4,1.7-2.8,2.6-4.1c2.9-4.1,16.8-8.6,25-7c8.9,1.8,31.9,16,37.9,23.5c1,1.2,2.1,2.6,3.3,4
			c4.2,5.1,12.7,15.4,14.2,19.1c-6.3,5.1-42.6,26.7-50.9,30.8c-0.6-1-1.3-2.4-1.9-3.6c-2.4-4.7-5.4-10.6-9.2-13
			c-4.1-2.7-17.3-12.1-20.9-17.4c-2.1-3.2-5.4-13-5.6-15.9c-0.3-3.5,2.1-10.3,5.6-16.4L462.3,559.7 M462.3,559.7
			c-3.7,6.4-6.3,13.7-6,18.1c0.2,3.6,3.8,13.9,6.1,17.4c4.1,6.2,18.4,16.1,21.8,18.3c5.3,3.4,9.9,17.5,11.9,17.7s53-30.1,54.9-33.3
			l0,0c1.3-2.9-12.1-18.4-18.3-26.1c-6.2-7.7-29.9-22.6-39.6-24.5c-9.1-1.8-24.2,2.8-28,8.2C464.1,556.7,463.2,558.2,462.3,559.7
			L462.3,559.7z"/>
		<circle id="rt2" class="st12" cx="488.3" cy="574.3" r="4"/>
		<circle id="rt1" class="st12" cx="575.9" cy="714.7" r="4"/>
	</g>
</g>
<g id="Layer_8">
	<path class="st19" d="M548.5,355.5c0,0-18-6-19-9s-6-26-8-27s-13-2-15-5s-4-12-3-16s7-9,10-9s9,3,12,6s11,0,13-3s8-12,13-15
		s10-10,15-9s16,6,17,9s3,10,2,15s-5,12-5,15c0,6,6,9,7,13s-2,6-4,7c-1.3,0.6-4,2-4,5s1,9-2,12c-2.5,2.5-4,8-4,10c0,5-6,7-9,7
		C562.5,361.5,548.5,355.5,548.5,355.5z"/>
	<path class="st20" d="M555.1,358.2c-3.5-1.4-6.6-2.7-6.6-2.7s-18-6-19-9s-6-26-8-27s-13-2-15-5s-4-12-3-16s7-9,10-9s9,3,12,6
		s11,0,13-3s8-12,13-15s10-10,15-9c3.5,0.9,6.8,2.1,10,3.8c0,0-24.5,22.3-26,42.2C548.5,340.5,555.1,358.2,555.1,358.2z"/>
	<path class="st21" d="M548.5,355.5c0,0-17.4-6.2-19-9c-4-7-6-26-8-27s-13-2-15-5s-4-12-3-16s7-9,10-9s9,3,12,6s11,0,13-3
		s8-12,13-15s10-10,15-9s16,6,17,9s3,10,2,15s-5,12-5,15c0,6,6,9,7,13s-2,6-4,7c-1.3,0.6-4,2-4,5s1,9-2,12c-2.5,2.5-4,8-4,10
		c0,5-6,7-9,7C562.5,361.5,548.5,355.5,548.5,355.5z"/>
	<path class="st22" d="M520.5,301.5c1-2-5.7-7.9-9,1c-3,8,3.3,9.7,5,8"/>
	<path d="M582,303l-1,10c0,0-41.6-4.2-47-13c-8.9-14.5,46-30,46-30s4.4,11,5.2,15.3S582,303,582,303z"/>
	<path class="st6" d="M488.5,268.5c0,0,4,2,4,6s-5,14-5,21s1,17,5,24s9,15,12,16s7,0.7,7.5-1.7s1.5-12.3-1.5-15.3s-7-5-8-14
		s6-16,10-16s12,3,14,6s28,0,37-5s23-13,22-18s-7-15-15-17c-8-2-19-5-27-5s-24,5-28,9c-4,4-16-1-16-1L488.5,268.5z"/>
	<circle id="h1" class="st12" cx="531" cy="328" r="4"/>
	<circle id="h2" class="st12" cx="481" cy="253" r="4"/>
	<path class="st23" d="M579,278c0,0-12-11-17-13s-25-3-25-3s7,6,8,8s-8-3-15-4c-4-0.6-8.1-0.3-12,1c0,0,6,5,9,5s7,3,7,3h-14
		c-3,0.2-6,0.5-9,1l6,6c0,0-8-2-10-2s-7,3-7,3l4,4c-1.1,0.5-2.1,1.2-3,2c-1,1-2,4-2,4l-2-6c0,0-1,14,0,17s5,10,6,14
		c0.6,2.6,0.6,5.4,0,8c0,0-2-8-5-9c-2-0.6-4-0.6-6,0c0,0,4.3,11.8,6.6,12.4s6.4,6.6,8.4,6.6s6-1,5-6c-0.6-3.6-1-7.3-1-11
		c0,0-5.4-4.4-6.2-6.7s-3.6-10-1.7-14.2s5.3-9.7,8.1-9.4c2.8,0.3,11.9,1.2,14.9,5.2S541,296,541,296s19.5-4.8,23.2-6.9
		S579,278,579,278z"/>
	<path class="st24" d="M488.5,268.5c0,0,4,2,4,6s-5,14-5,21s1,17,5,24s9,15,12,16s7,0.7,7.5-1.7s1.5-12.3-1.5-15.3s-7-5-8-14
		s6-16,10-16s12,3,14,6s28,0,37-5s23-13,22-18s-7-15-15-17c-8-2-19-5-27-5s-24,5-28,9c-4,4-16-1-16-1L488.5,268.5z"/>
	<g id="HairBand">
		<line class="st25" x1="488" y1="273" x2="504" y2="256"/>
		<line class="st25" x1="487" y1="268" x2="499" y2="254"/>
		<line class="st25" x1="480" y1="266" x2="496" y2="249"/>
		<line class="st25" x1="476" y1="262" x2="490" y2="247"/>
	</g>
</g>
<g id="Layer_9">
	<path class="st6" d="M340,319c5-3,5-8,8-17s14-15,28-23s19-15,22-21c3-6,20-19,30-26s28-10,39-13s23,5,26,9s2,13-1,15s-17,20-17,23
		s-13,20-19,24s-16,6-23,10c-4.6,2.6-12.3,11.4-17,17l-1,2c-1.7,5.1-3.7,10.1-6,15c-3,6-17,18-23,24s-21,15-21,15s4-7,5-10s0-7,0-7
		s-9,11-15,18s-25,18-36,24s-28,11-40,14c-2,0.5-7,2-7,2c-1.9,1.1-3,1.6-4,3c-3,4-7.2,6.8-12,8c-4.4,1-8.6,3-12,6c-2,2-32,13-33,10
		s14-33,19-43s20-17,25-20s20-7,27-10s26-7,30-8s6-8,6-8s-9,0-10-3s-6-3-9-3s-7,5-6-1s8-8,11-11s12-10,17-12S335.9,321.5,340,319z"
		/>
	<path class="st26" d="M296.4,339.5c0,0,8.6-2.5,13.6,0.5s4,6,7,6s8-3,10-1s1,5-3,8s-8,7-9,9s-9,6-12,5c-1.9-0.7-3.5-2.1-4.5-3.9
		c0,0,14.5-2.1,16.5-6.1s1.7-5.3-1.7-5.2c-2.7,0-5.3-1-7.3-2.8c-2.8-2.8-7.1-3.5-10.6-1.7C290,350,296.4,339.5,296.4,339.5z"/>
	<path class="st26" d="M345,311.2c0,0,10-6.2,14-9.2s11-5,12-7s3-3,5-2s-1,7-4,10s-10,10-15,12c-2.9,1.2-6,1.7-9.1,1.5L345,311.2z"
		/>
	<path class="st26" d="M294.2,382.2c0,0,3.8-3.2,4.8-1.2s-7,12-7,14s-1,4,2,3s29-11,38-20s38-38,39-43s2-8,4-7s2,6,1,9s-1,11,0,13
		s20-16,23-25s14-33,17-37s4-15,8-15s2,11,5,13s19-7,27-15s18-24,22-26s9.1,3.1,9.1,3.1s-16.3,26-19.7,29.9s-12.3,15.5-27.4,18.7
		s-24.8,22.6-27.9,29.4s-19,27.5-30.6,35.6s-15.4,10.5-15.4,10.5S371,361,370,359s-3-2-5,2s-13,19-29,28s-41.5,20.1-55.2,22.5
		s-23.4,1-23.4,1s14.2-5.9,21.9-13.7S294.2,382.2,294.2,382.2z"/>
	<path class="st26" d="M226.8,404.4c0.8,2.1,0.8,4.4,0.2,6.6c-1,4-4,13-1,15s24-8,27-11s16-1,16-1c-5.5,6.5-12.7,11.4-20.8,14
		c-13.2,4-28.4,13.1-32.3,13s-4.4-3-4.4-3L226.8,404.4z"/>
	<path class="st27" d="M419,291c0,0-1,13-2,16l-5,15c0,0,14-18,21-22s17-6,23-10s19-21,19-24s14-21,17-23s4-11,1-15s-15-12-26-9
		s-29,6-39,13s-27,20-30,26c-3,6-8,13-22,21s-25,14-28,23s-4,14-8,17"/>
	<path class="st27" d="M371,299c0,0-18,17-29,20s-16,1-21,3s-14,9-17,12s-10,5-11,11s3,1,6,1s8,0,9,3s10,3,10,3s-2,7-6,8s-23,5-30,8
		s-22,7-27,10s-20,10-25,20s-20,40-19,43s31-8,33-10c3.4-3,7.6-5,12-6c4.8-1.2,9-4,12-8c2-3,8-4,8-4"/>
	<path class="st27" d="M296,380c0,0-23,28-31,30s-11,2-11,2s13,3,25,0s29-8,40-14s30-17,36-24s15-18,15-18s1,4,0,7s-5,10-5,10
		s15-9,21-15s20-18,23-24s6-17,6-17"/>
	<circle id="hair1" class="st12" cx="481" cy="253" r="4"/>
	<circle id="hair2" class="st12" cx="271" cy="396" r="4"/>
</g>
<g id="Layer_4">
	<g id="RightLowerArm">
		<path class="st19" d="M440.4,478.6c6.6-1.6,13.2,3.3,26.1,14.2c25.1,21.1,38.8,46,48.5,51.1c3.1,1.6,10,2.2,13.8,2.2
			c2.5-0.2,5,0.6,7.1,2.1c2.2,1.3,2.9,7.8,8.2,10.2c5.3,2.5,7.1,2.1,7.8,4.7c0.4,1.5-0.5,2.9-1.8,3.3l-0.1,0
			c1.4,1.3,1.9,3.4,1.3,5.3c-1.1,3.1-4.4,1.1-4.4,1.1c1.7,0.6,2.6,2.4,2,4.1l-0.1,0.1c-1.1,3.1-4.4,1.1-4.4,1.1s1.9,0.5,0.9,3.5
			s-5.3,1.3-8.4,0.2c-4.5-1.6-8.7-4.1-12.2-7.3c-3.8-3.8-4.9-8.3-9.5-11.8c-4.7-3.5-43.3-26.7-64.3-46.3
			c-20.8-19.3-23.9-23.8-23.4-30C427.9,480.5,434.2,480.1,440.4,478.6z"/>
		<path class="st20" d="M432.8,481c0,0,1.7,4.8,4.5,4.9c2.8,0,7.1-1.3,14.1,4.4c7,5.7,30.8,24.4,37.1,32.3s16.7,20,19.6,21.4
			c2.9,1.4,6.3,3.6,5.6,5.7c-0.7,2.1-1.5,5.6-0.1,5.7s4.4-5.6,7.2-5.6c2.8,0,9.8,4.4,12.7,4.4c2.8,0,6.1-0.2,6.1-0.2s-2.4-5-4.9-6.6
			c-2.6-1.7-14.6-0.7-17.7-2.7s-10.7-7.5-14.6-13.3c-3.9-5.8-30.3-35-38.1-40.4c-7.8-5.5-15.9-13-19.9-12.4
			C440.4,479,436.6,479.9,432.8,481z"/>
		<path class="st28" d="M440.4,478.6c6.6-1.6,13.2,3.3,26.1,14.2c25.1,21.1,38.8,46,48.5,51.1c3.1,1.6,10,2.2,13.8,2.2
			c2.5-0.2,5,0.6,7.1,2.1c2.2,1.3,2.9,7.8,8.2,10.2c5.3,2.5,7.1,2.1,7.8,4.7c0.4,1.5-0.5,2.9-1.8,3.3l-0.1,0
			c1.4,1.3,1.9,3.4,1.3,5.3c-1.1,3.1-4.4,1.1-4.4,1.1c1.7,0.6,2.6,2.4,2,4.1l-0.1,0.1c-1.1,3.1-4.4,1.1-4.4,1.1s1.9,0.5,0.9,3.5
			s-5.3,1.3-8.4,0.2c-4.5-1.6-8.7-4.1-12.2-7.3c-3.8-3.8-4.9-8.3-9.5-11.8c-4.7-3.5-43.3-26.7-64.3-46.3
			c-20.8-19.3-23.9-23.8-23.4-30C427.9,480.5,434.2,480.1,440.4,478.6z"/>
		<circle id="rla2" class="st12" cx="438.5" cy="483" r="3"/>
		<circle id="rla1" class="st12" cx="531" cy="562" r="3"/>
	</g>
	<g id="RightUpperArm">
		<path class="st19" d="M444.7,443.4c0,0,5.2-16.3,12.1-23.9c6.8-7.7,24.3-30.7,30.2-34.9c6-4.2,11.3-7.1,16.4-4.7
			c5.2,2.4,9.7,10.5,9.5,14.2c-0.3,4.9-3.3,13.7-7,19.4c-6.2,9.6-11.1,24.1-17.7,32.1c-11.2,13.4-24.7,20.3-30.6,27.6
			c-2,2.5-2.9,4.8-6.3,7.3c-3.6,2.5-9.9,3.3-13.8,5.4c-2.8,1.5-3.7,7.4-6.8,7.4c-12-0.1,1-36.4,13.2-47"/>
		<path class="st20" d="M507.8,410.1c0,0-2.2-2.8-4.8-1.1c-2.7,1.6-6.6,6.2-9.1,10.7c-2.4,4.4-13.1,23-20.9,30.8
			c-7.9,7.7-20.2,22.2-23.7,23.1c-3.5,1-8.1,4.9-10.1,7.2c-1.7,2.1-3.1,4.4-4.4,6.8c0,0,1.4-1.3,6.2-2.6c3.5-1,9-2.9,10.3-4.3
			c0,0,8.2-9.8,13.4-13.5c5.2-3.6,18-12.4,22.4-18.5c4.5-6.1,7.7-20.1,12.2-25.6C502.3,418.8,505.2,414.5,507.8,410.1z"/>
		<path class="st21" d="M443.9,446.2C433,455.8,421.8,485,428,491c1,0.8,2,1.5,3,2.2"/>
		<path class="st21" d="M451.3,481.2c2.1-2.9,4.6-5.9,6.3-7.9c5.9-7.3,18.9-12,30.1-25.5c6.2-7.4,8.7-24.1,16.6-31.8"/>
		<path class="st21" d="M440.8,456.5c0,0,12-32.8,18-41.2c6.5-9.1,22.1-27.1,28.2-30.8c6.2-3.8,11.3-7.1,16.4-4.7
			c3.2,1.6,3.8,1.7,6.2,5.1"/>
		<line class="st29" x1="463.7" y1="407.1" x2="497.5" y2="429.2"/>
		<circle id="rua1" class="st12" cx="496.9" cy="394.5" r="4"/>
		<circle id="rua2" class="st12" cx="435.1" cy="482.5" r="3"/>
	</g>
</g>
</svg>
