<?xml version="1.0" encoding="utf-8"?>
<!-- Generator: Adobe Illustrator 28.1.0, SVG Export Plug-In . SVG Version: 6.00 Build 0)  -->
<svg version="1.1" id="Layer_1" xmlns="http://www.w3.org/2000/svg" xmlns:xlink="http://www.w3.org/1999/xlink" x="0px" y="0px"
	 viewBox="0 0 1024 1024" style="enable-background:new 0 0 1024 1024;" xml:space="preserve">
<style type="text/css">
	.st0{fill:#808080;}
	.st1{fill:none;stroke:#000000;stroke-width:2.15;stroke-miterlimit:10;}
	.st2{fill:#B3B3B3;}
	.st3{fill:none;stroke:#000000;stroke-width:2.29;stroke-miterlimit:10;}
	.st4{fill:none;stroke:#000000;stroke-width:1.21;stroke-miterlimit:10;}
	.st5{fill:none;stroke:#000000;stroke-width:1.56;stroke-miterlimit:10;}
	.st6{fill:#FFFFFF;}
	.st7{fill:#808080;stroke:#000000;stroke-width:2.14;stroke-miterlimit:10;}
	.st8{fill:#B3B3B3;stroke:#000000;stroke-width:1.86;stroke-miterlimit:10;}
	.st9{fill:#B3B3B3;stroke:#000000;stroke-width:2.6;stroke-miterlimit:10;}
	.st10{fill:#808080;stroke:#000000;stroke-width:2.44;stroke-miterlimit:10;}
	.st11{fill:none;stroke:#000000;stroke-width:3.54;stroke-linecap:round;stroke-miterlimit:10;}
	.st12{fill:#FF0000;}
	.st13{fill:#B3B3B3;stroke:#000000;stroke-width:2.27;stroke-miterlimit:10.0004;}
	.st14{fill:#808080;stroke:#000000;stroke-width:2.27;stroke-miterlimit:10;}
	.st15{fill:#B3B3B3;stroke:#000000;stroke-width:1.7;stroke-miterlimit:9.9996;}
	.st16{fill:#808080;stroke:#000000;stroke-width:2.05;stroke-miterlimit:10;}
	.st17{fill:#B3B3B3;stroke:#000000;stroke-width:2.27;stroke-miterlimit:10;}
	.st18{fill:#B3B3B3;stroke:#000000;stroke-width:2.27;stroke-miterlimit:9.9999;}
	.st19{fill:#959595;}
	.st20{fill:#828282;}
	.st21{fill:none;stroke:#000000;stroke-width:3;stroke-linecap:round;stroke-miterlimit:10;}
	.st22{fill:none;stroke:#696969;stroke-width:5;stroke-linecap:round;stroke-miterlimit:10;}
	.st23{fill:#DEDEDE;stroke:#DEDEDE;stroke-width:2;stroke-linecap:round;stroke-linejoin:round;}
	.st24{fill:none;stroke:#000000;stroke-width:4;stroke-linecap:round;stroke-miterlimit:10;}
	.st25{fill:none;stroke:#000000;stroke-width:8;stroke-linecap:round;stroke-miterlimit:10;}
	.st26{fill:#DEDEDE;}
	.st27{fill:none;stroke:#000000;stroke-width:4;stroke-linecap:round;stroke-linejoin:round;}
	.st28{fill:none;stroke:#000000;stroke-width:3;stroke-linejoin:round;}
	.st29{fill:none;stroke:#DEDEDE;stroke-width:4;stroke-linecap:round;stroke-miterlimit:10;}
</style>
<g id="Layer_10">
	<g id="LeftLowerArm">
		<g id="Hand">
			<polygon class="st0" points="470.9,543.2 459.5,549.5 463,572.3 465.8,576.9 488.5,564.3 			"/>
			<polygon class="st1" points="470.9,543.2 459.5,549.5 463,572.3 465.8,576.9 488.5,564.3 			"/>
			<polygon class="st2" points="484.6,559.6 472.3,555.5 465.2,546.4 474.6,541.2 487.7,555.3 			"/>
			<polygon class="st3" points="484.6,559.6 472.3,555.5 465.2,546.4 474.6,541.2 487.7,555.3 			"/>
			<path class="st2" d="M486.3,553l6.3,5.9c1.1,1.1,1.1,2.9,0.1,4l-0.3,0.3c-1.1,1.1-2.9,1.1-4,0.1l-6.3-5.9c-1.1-1.1-1.1-2.9-0.1-4
				l0.3-0.3C483.3,552,485.1,551.9,486.3,553z"/>
			<path class="st4" d="M486.2,553.1l6.3,5.9c1.1,1.1,1.1,2.9,0.1,4l0,0l-0.2,0.2c-1.1,1.1-2.9,1.1-4,0.1l-6.3-5.9
				c-1.1-1.1-1.1-2.9-0.1-4l0,0l0.2-0.2C483.3,552,485,551.9,486.2,553.1z"/>
			<path class="st2" d="M484,557.1l6.9,12.6c0.8,1.3,0.3,3.1-1.1,3.8l-0.3,0.1c-1.3,0.8-3.1,0.3-3.8-1.1l-6.9-12.6
				c-0.8-1.3-0.3-3.1,1.1-3.8l0.3-0.1C481.5,555.2,483.2,555.7,484,557.1z"/>
			<path class="st5" d="M484,557.1l6.9,12.6c0.8,1.3,0.3,3.1-1.1,3.8l0,0l-0.3,0.1c-1.3,0.8-3.1,0.3-3.8-1.1l-6.9-12.6
				c-0.8-1.3-0.3-3.1,1.1-3.8l0,0l0.3-0.1C481.5,555.2,483.2,555.7,484,557.1L484,557.1z"/>
			<path class="st2" d="M492.1,559.6l0.3,0.2c1.4,0.9,1.7,2.5,1,3.8l-4.5,7.5c-0.9,1.4-2.5,1.7-3.8,1l-0.3-0.2
				c-1.4-0.9-1.7-2.5-1-3.8l4.5-7.5C489.1,559.1,490.9,558.7,492.1,559.6z"/>
			<path class="st4" d="M492.1,559.6l0.3,0.2c1.4,0.9,1.7,2.5,1,3.8l-4.5,7.5c-0.9,1.4-2.5,1.7-3.8,1l-0.3-0.2
				c-1.4-0.9-1.7-2.5-0.9-3.9l0,0l4.5-7.5C489,559.2,490.7,558.8,492.1,559.6L492.1,559.6z"/>
			<path class="st2" d="M477.6,560.6l7.5,13.5c0.8,1.3,0.3,3.1-1.1,3.8l-0.3,0.1c-1.3,0.8-3.1,0.3-3.8-1.1l-7.5-13.5
				c-0.8-1.3-0.3-3.1,1.1-3.8l0.3-0.1C475.1,558.7,476.8,559.2,477.6,560.6z"/>
			<path class="st5" d="M477.5,560.6l7.4,13.5c0.8,1.3,0.3,3.1-1.1,3.8l-0.2,0.2c-1.3,0.8-3.1,0.3-3.8-1.1l-7.4-13.5
				c-0.8-1.3-0.3-3.1,1.1-3.8l0,0l0.3-0.1C475.1,558.7,476.8,559.2,477.5,560.6L477.5,560.6L477.5,560.6z"/>
			<path class="st2" d="M471.2,564.1l6.9,12.6c0.8,1.3,0.3,3.1-1.1,3.8l-0.3,0.1c-1.3,0.8-3.1,0.3-3.8-1.1L466,567
				c-0.8-1.3-0.3-3.1,1.1-3.8l0.3-0.1C468.8,562.2,470.5,562.7,471.2,564.1z"/>
			<path class="st5" d="M471.2,564.1l6.9,12.6c0.8,1.3,0.3,3.1-1.1,3.8l0,0l-0.3,0.1c-1.3,0.8-3.1,0.3-3.8-1.1L466,567
				c-0.8-1.3-0.3-3.1,1.1-3.8l0,0l0.3-0.1C468.8,562.2,470.5,562.7,471.2,564.1z"/>
			<path class="st2" d="M466,568.5l6.1,11c0.6,1.1,0.2,2.5-1,3.2l-0.2,0.2c-1.1,0.6-2.5,0.2-3.2-1l-6.1-11c-0.6-1.1-0.2-2.5,1-3.2
				l0.2-0.2C463.9,566.9,465.4,567.4,466,568.5z"/>
			<path class="st5" d="M465.8,568.5l6.1,11c0.6,1.1,0.2,2.5-1,3.2l-0.2,0.2c-1.1,0.6-2.5,0.2-3.2-1l-6.1-11c-0.6-1.1-0.2-2.5,1-3.2
				l0.2-0.2C463.8,567,465.2,567.4,465.8,568.5z"/>
		</g>
		<polygon points="470.3,554.7 467.5,560.1 484.7,575.7 464.8,539.4 470.4,536.3 490.4,572.5 486.5,549.7 480.3,549.2 488.9,533.3 
			496.4,577.1 495,577.8 496.7,590.6 486.7,582.4 485.3,583.2 452.3,553.4 		"/>
		<path class="st6" d="M496.1,589.7l-9.3-7.7l-1.4,0.8L453.5,554l16.2,1.2l-2.7,5.2l19.3,17.4l-21-38.1l2.5-1.4l2.5-1.4l21,38.1
			l-4.5-25.6l-5.8-0.5l7.7-14.3l7.3,42.4l-1.4,0.8L496.1,589.7 M497.2,591.5l-0.2-2l-1.5-11.5l0.9-0.5l0.5-0.3l-0.1-0.6l-7.3-42.4
			L489,532l-1.1,2l-7.7,14.3l-0.6,1.1l1.3,0.1l5.2,0.4l3.5,20.2L471,536.4l-0.4-0.7l-0.7,0.4l-2.5,1.4l-2.4,1.4l-0.7,0.4l0.4,0.7
			l18.7,33.8l-15.2-13.8l2.4-4.5l0.6-1.1l-1.3-0.1l-16.2-1.2l-2.4-0.2l1.7,1.6l31.8,28.8l0.5,0.4l0.5-0.3l0.9-0.5l8.9,7.4
			L497.2,591.5L497.2,591.5z"/>
		
			<image style="overflow:visible;enable-background:new    ;" width="18" height="29" xlink:href="76FFF11.png"  transform="matrix(-0.2464 0.9691 -0.9691 -0.2464 432.9403 443.6954)">
		</image>
		
			<rect x="438.7" y="460.7" transform="matrix(0.8757 -0.4829 0.4829 0.8757 -184.2101 276.6494)" class="st7" width="13" height="70.9"/>
		
			<rect x="405.4" y="437" transform="matrix(0.8757 -0.4829 0.4829 0.8757 -166.6948 254.2131)" class="st8" width="10" height="27.8"/>
		
			<image style="overflow:visible;enable-background:new    ;" width="51" height="24" xlink:href="76FFF13.png"  transform="matrix(-0.2464 0.9691 -0.9691 -0.2464 462.3913 478.0121)">
		</image>
		
			<image style="overflow:visible;enable-background:new    ;" width="47" height="35" xlink:href="76FFF16.png"  transform="matrix(-0.2464 0.9691 -0.9691 -0.2464 478.8835 478.0787)">
		</image>
		
			<image style="overflow:visible;enable-background:new    ;" width="53" height="59" xlink:href="76FFF17.png"  transform="matrix(-0.2464 0.9691 -0.9691 -0.2464 477.4049 483.8937)">
		</image>
		<path class="st9" d="M413.3,466.4l14.1-7.8c5.6-3.1,12.7-1,15.8,4.6l4.4,7.9l-9.8,5.4l-2.7-4.8c-1.2-2.2-4-3-6.2-1.8l-10.4,5.8
			L413.3,466.4z"/>
		<polygon class="st10" points="460,509.4 442.4,519.1 447.6,528.4 444,534.8 453.3,551.6 476.2,538.9 		"/>
		<line class="st11" x1="461.8" y1="534.7" x2="454.6" y2="546.1"/>
		<line class="st11" x1="458.7" y1="529.1" x2="451.4" y2="540.5"/>
		<line class="st11" x1="455.5" y1="523.4" x2="448.3" y2="534.8"/>
		<path class="st9" d="M471.5,532.8l-0.4,0.3c-2,1.1-4.5,0.4-5.7-1.6l-16.5-29.9c-1.1-2-0.4-4.5,1.6-5.7l0.4-0.3
			c2-1.1,4.5-0.4,5.7,1.6l16.5,29.9C474.2,529.2,473.5,531.7,471.5,532.8z"/>
		<circle id="lla1" class="st12" cx="413.1" cy="440" r="3"/>
		<circle id="lla2" class="st12" cx="473.9" cy="560.5" r="3"/>
	</g>
	<g id="UpperArm">
		
			<rect x="406.2" y="414.5" transform="matrix(0.9622 -0.2723 0.2723 0.9622 -97.3679 133.5967)" class="st13" width="52.7" height="6.2"/>
		<path class="st14" d="M421.5,435.6l-8.7-12.5c-1.4-1.9-3.8-2.9-6.2-2.2l0,0c-2.3,0.7-3.9,2.6-4,5l-0.8,15.2L421.5,435.6z"/>
		
			<image style="overflow:visible;enable-background:new    ;" width="87" height="116" xlink:href="76FFF12.png"  transform="matrix(-0.2464 0.9691 -0.9691 -0.2464 528.6768 399.9402)">
		</image>
		<path class="st14" d="M504.3,404l-44.7,12.6c-3.3,1-6.7-1-7.7-4.3l0,0c-1-3.3,1-6.7,4.3-7.7l44.7-12.6c3.3-1,6.7,1,7.7,4.3l0,0
			C509.5,399.6,507.7,403.1,504.3,404z"/>
		
			<rect x="505.4" y="400.1" transform="matrix(4.145134e-02 -0.9991 0.9991 4.145134e-02 54.4787 921.8353)" class="st15" width="4.5" height="64.8"/>
		<path class="st14" d="M528.9,422l8.7,12.5c1.4,1.9,3.8,2.9,6.2,2.2l0,0c2.3-0.7,3.9-2.6,4-5l0.8-15.2L528.9,422z"/>
		<polygon class="st16" points="427.8,435.3 530.8,406.2 534,417.3 475.1,434 433.1,441.5 		"/>
		
			<ellipse transform="matrix(0.5362 -0.8441 0.8441 0.5362 -97.2234 642.5049)" class="st17" cx="536" cy="409.7" rx="15.9" ry="15.9"/>
		
			<ellipse transform="matrix(0.5362 -0.8441 0.8441 0.5362 -97.2234 642.5049)" class="st14" cx="536" cy="409.7" rx="7.4" ry="7.4"/>
		
			<image style="overflow:visible;enable-background:new    ;" width="76" height="83" xlink:href="76FFF1D.png"  transform="matrix(-0.2464 0.9691 -0.9691 -0.2464 523.3713 392.4)">
		</image>
		
			<image style="overflow:visible;enable-background:new    ;" width="79" height="70" xlink:href="76FFF1E.png"  transform="matrix(-0.2464 0.9691 -0.9691 -0.2464 512.4808 386.5351)">
		</image>
		<path class="st14" d="M405.2,439.6l22.8-6.5c1.4-0.4,2.9,0.4,3.3,1.9l0,0l3.2,11.3c0.2,0.7-0.2,1.5-1,1.7l0,0l-13.3,3.8
			c-0.4,0.1-0.9,0-1.2-0.2l-14.3-9.6c-0.7-0.4-0.9-1.3-0.4-1.9C404.5,439.9,404.9,439.8,405.2,439.6z"/>
		<ellipse class="st18" cx="413.3" cy="444.4" rx="14.2" ry="14.2"/>
		<polygon class="st17" points="540.2,394.4 534.1,400.8 521.5,404.4 517.3,389.3 536.9,383.6 		"/>
		<path class="st17" d="M545.6,393.7l-17.5,4.9c0,0-1-3.5-3.7-5.1c-2.8-1.5-4.3-2.9-8.2-1.8l-6.5,1.9l-2.1-7.6l33.2-9.4L545.6,393.7
			z"/>
		<circle id="lua2" class="st12" cx="535.8" cy="409.8" r="3"/>
		<circle id="lua1" class="st12" cx="413.3" cy="444.6" r="3"/>
	</g>
</g>
<g id="Layer_6">
	<g id="LeftThigh">
		<path class="st19" d="M508.5,597.3c3.3,5.1,5.8,10.1,7.5,21.4c1.8,11.3,5.6,24.9,6.3,37.9s4.6,26.7,6.1,42.4s1.4,28.3,5.1,36.1
			c3.7,7.8,7.1,11.9,12.4,12.7c5.4,0.7,13.3,2.8,16.2-2.4c2.9-5.3,4-9.2,2.1-18.2c-1.8-9.1,3-25.8,5.4-40.5
			c2.5-14.6,5.9-41.4,3.8-54c-2.1-12.7-4.4-31.2-8.4-40.4s-7.6-23.8-14.7-31.1c-7.3-7.5-15-14.1-27.7-12
			c-10.1,1.7-15.8,3.8-20.5,18.3C497.6,582.1,504.6,591.3,508.5,597.3z"/>
		<path class="st20" d="M521.5,549.4c-9.3,2.2-14.8,4.1-19.3,18.1c-4.7,14.6-3.9,27.7,0,33.8c3.3,5.1,6.9,6.1,8.6,17.4
			c1.8,11.3,6,26.3,6.7,39.2c0.7,12.9,9.4,25.3,10.9,41s1.4,28.3,5.1,36.1c3.7,7.8,2.2,5.2,5.6,9.4c0,0,3.2-1.6,3.3-3.9
			c0.1-2.3,3.2-12,1.2-16.5s-8.1-20.5-8.7-25.4s-14.8-57.5-13.4-60.1c1.4-2.6,1.6-4.9,6.5-5.5s28.9-6.8,33.8-5.2
			c4.9,1.6,11.3,2.9,11.3,2.9s-4-22.7-4.6-26.7c-0.5-3.9-10.6-32.6-13.7-36.5C551.9,563.7,539.3,545.3,521.5,549.4z"/>
		<path class="st21" d="M562.9,744.2c2.5-4.7,3.3-8.8,1.6-17.2c-1.8-9.1,3-25.8,5.4-40.5c2.5-14.6,5.9-41.4,3.8-54
			c-2.1-12.7-4.5-31.1-8.5-40.2s-7.6-23.8-14.7-31.1c-7.3-7.5-14.1-15.8-26.7-13.8c-10.1,1.7-18.1,3.7-23.6,17.8
			c-5.6,14.2-5.7,23.8-1.7,29.9c3.3,5.1,10.3,10.3,12,21.6c1.8,11.3,4.2,27.9,7.1,40.6c3.3,14.5,9.6,25.9,11.1,41.6
			c1.5,15.7,2.7,27.8,5.1,36.1c1.2,4,5.4,9.2,5.8,10.1"/>
		<path d="M511.6,629.8c-1.1-2.8-1.8-5.7-2.6-8.6c-1.7-6.2-3.6-13.3-5.6-16.3c-3.3-4.8-4.8-25-4.2-30.1c0.7-5.1,6.5-20,13.4-24.2
			c4.6-2.9,17.3-2.6,24.7,1.5c0.9,0.5,1.7,1.1,2.5,1.8c6.7,6.2,23.9,28.2,26.5,37.3c0.5,1.5,0.9,3.2,1.5,5c2.1,7.2,6.5,22,5.6,24.6
			C568.9,622.8,518.1,630.1,511.6,629.8z"/>
		<path d="M536.5,553.4L536.5,553.4c0.8,0.4,1.6,0.9,2.2,1.5c6.6,6.1,23.5,28,26,36.6c0.5,1.5,0.9,3.2,1.5,5
			c1.9,6.4,5.6,19.2,5.6,23.2c-7.9,2.3-50.8,8.1-59.3,8.5c-0.5-1.7-1.4-4.9-2.2-7.4c-1.8-6.7-3.7-13.5-5.9-16.8
			c-2.9-4.2-4.6-23.6-3.9-29c0.6-4.8,6.4-19.2,12.7-23.2C517.1,549.6,529.4,549.4,536.5,553.4 M538,550.8
			c-7.8-4.3-21.2-4.4-26.2-1.5c-7.5,4.7-13.4,20-14.1,25.3c-0.7,5.4,0.8,25.9,4.4,31.1c3.6,5.2,7,24.5,8.7,25.4
			c1.8,1,61.2-7.1,63.6-9.3s-3.9-21.6-6.6-31.2c-2.8-9.5-20-31.8-26.9-38.1C540,552,539,551.3,538,550.8z"/>
		<circle id="lt2" class="st12" cx="526.8" cy="573.7" r="4"/>
		<circle id="lt1" class="st12" cx="554.3" cy="738" r="3"/>
	</g>
	<g id="LeftCrus">
		<path class="st19" d="M536.3,751.3c-3,3.4-5.5,7-7.6,11c-2.8,5.6-5.8,19.4-6.5,24.3c-0.7,5,3,28.7,5.1,35c2.1,6.4,5.6,25,5.6,32.1
			s-6.5,24.3-6,28.4c0.4,4.1,5.8,8.9,8.8,9.3c3,0.4,17,1.4,21.1,1s14.2-1,19.2-0.3s14,1,15.2,0.1c1.1-0.8,5.3-9.3,1.5-10.9
			c-3.8-1.5-7.6-3.1-12.8-1.8c0,0-13.3-2.4-17-4.9c-3.7-2.6-13-7.9-13.1-13.9c-0.2-6,13.3-94.1,13.7-97.1s1.2-16.3,3-20.9
			c1.8-4.6,0.9-7.1-1.4-7.6C556.6,733.4,536.3,751.3,536.3,751.3z"/>
		<path class="st20" d="M561.4,888.1c-0.9-2.7-3.4-4.7-6.4-5c-4-0.5-14.4,2-18-0.6c-3.7-2.6-0.3-5.1,1.7-11.9s-1.3-19.3-0.7-30.4
			c0.5-11-5.1-42.1-5.1-42.1c-0.4-4.1,2.2-23.9,4.4-30.7c1.8-5.8,6.6-11.2,7.9-13c1.3-1.8,0.5-11,0.5-11c-3.2,2.4-6.3,5-9.1,7.8
			c-3,3.4-5.5,7-7.6,11c-2.8,5.6-5.8,19.4-6.5,24.3c-0.7,5,3,28.7,5.1,35c2.1,6.4,5.6,25,5.6,32.1s-6.5,24.3-6,28.4
			c0.4,4.1,5.8,8.9,8.8,9.3s17,1.4,21.1,1c1.5-0.2,3.4-0.1,6.1-0.1L561.4,888.1z"/>
		<path class="st21" d="M541.5,746.5c-3.7,4.6-9.6,10.7-12.4,16.4c-2.8,5.6-5.2,19.4-5.5,24.5c-0.2,5.5,1.7,28,3.8,34.4
			s5.6,25,5.6,32.1s-6.5,24.3-6,28.4c0.4,4.1,5.8,8.9,8.8,9.3c3,0.4,17,1.4,21.1,1s14.2-1,19.2-0.3s14,1,15.2,0.1
			c1.1-0.8,5.3-9.3,1.5-10.9c-3.8-1.5-7.6-3.1-12.8-1.8c0,0-13.3-2.4-17-4.9c-3.7-2.6-11.9-8.7-12.1-14.9
			c-0.1-6.1,12.1-93.3,12.6-96.1c0.4-3,1.2-16.3,3-20.9c1.8-4.6-1.4-9.3-1.4-9.3"/>
		<circle id="lc2" class="st12" cx="555.9" cy="741" r="3"/>
		<circle id="lc1" class="st12" cx="541.6" cy="878.3" r="3"/>
	</g>
</g>
<g id="Torso">
	<path class="st19" d="M544.5,353.5c0,0-5,8-2,20s19,12,24,15c3.3,2,7,17,12,33c1.2,3.9,1,13-1,19c-5,15-14.1,19.5-24,33
		c-8.5,11.5-15,31.7-15,46c0,26.2,8.4,27.6,12.5,41.5c0.8,2.6-5.9,6.2-8,9c-6,8-24,30-38,41c-3.7,2.9-8.4,4-13,1c-15-10-16-22-23-37
		c-2.1-4.4-8.2-9.3-6.2-14.5c6.5-17,20.5-35.5,19.7-57c-1-28-11.5-70.5-11.5-70.5c-5-14.6-5-30.4,0-45c4-12,24-19,34-27s7-43,7-43
		s3.1-0.8,4-1c2.9-0.6,5,2,10,5s14,14,15,17S544.5,353.5,544.5,353.5z"/>
	<path class="st20" d="M494.5,447.5c-1-8,5-20,5-25s1-14-3-20s-8-24-2-28s14-8,17-14s7-18,7-25s1-14,0-18s-6-5-6-5s1,41-5.5,46.5
		s-28.3,18.4-30.4,21s-16.3,14.5-8.2,43.5s12.4,61.1,12.4,61.1s20.7,3.9,26.7,5.9s17,16,19,24s3,24,8,31S545,560,537,568
		s-21,19-29,21s-3,22-3,22s21.9-18.9,28-28s17.8-22.6,13-33s-6.8-13.6-7.1-22s0.6-32.5,5.6-39.5s9-19,21.5-30s13-26.5,13.3-30.3
		S563.6,390.9,562,389s-7-4.2-8.8-4.8s-8.6-5-9.7-7.9s-8-5.8-8-1.8s10,11,18,21s13,19,12,26s-6,30-17,34s-44,11-49,5
		C496.5,456.8,494.7,452.3,494.5,447.5z"/>
	<path class="st21" d="M512,320c0,0,3,33-7,41s-30,15-34,27c-5,14.6-5,30.4,0,45c0,0,10.5,42.5,11.5,70.5
		c0.8,21.7-12.5,40.4-18.9,57.5c-1.9,4.9,3.3,9,4.9,13.5c4,11,6.5,16.4,14,26c7,9,8.3,14.9,17,13c11.9-2.6,24.9-24.1,36-31
		c8-5,10-6,15-11c4.1-4.1,1.2-9-0.4-12.8c-4.5-10.4-11.6-16.4-11.6-39.2c0-14.3,6.5-34.5,15-46c9.9-13.5,19-18,24-33
		c2-6,2.2-15.1,1-19c-5-16-15.7-33-19-35c-5-3-14-1-17-13s2-20,2-20"/>
	<path d="M543.3,490.1c-6.2-0.5-45.9-8-62.1-11.1c-1.9-4.7-7.8-31.5-11.3-52.7c-1-5.3-1.3-10.8-0.9-16.2c0.2-2.2,0.2-4.5,0-6.8
		c-1.8-15.3,10.6-24.7,16-28c3.9-2.4,8.8-3.6,14.9-3.6c2.1,0,4.2,0.1,6.4,0.4c7.4,0.8,14.4,9.2,20.5,16.5c0.8,1,1.7,2,2.5,3
		c1.9,2.2,3.3,5.6,4.8,9.2c3.1,7.4,6.9,16.6,16.8,20.2c3.4,1.1,6.9,1.6,10.5,1.5c5.1-0.1,10.1-0.6,15.1-1.6
		c0.6,3.2,1.9,10.9,0.5,15.2c-0.3,0.9-0.6,1.8-0.9,2.7c-1.8,5.6-4,12.7-9.2,17l-0.1,0.1c-5.4,4.1-10,9.2-13.6,14.9
		c-2.4,4-4.5,8-6.4,12.2C545.6,485.8,544.3,488.4,543.3,490.1z M498.8,374.8c-4.8,0-8.7,1-11.6,2.9c-6.6,4.4-8.7,12-9.7,22.1
		c-1,10.4,6.8,21.4,12,28.7l0.2,0.4c2.9,4.1,9.4,11,19.7,11c2.2,0,4.3-0.3,6.4-0.9c11.1-3,15-7.5,16.1-18.3
		c1-10.5-2.6-20.3-5.6-28.2c-3.4-9-12.9-15.7-20.1-17C503.8,375.1,501.3,374.8,498.8,374.8z"/>
	<path d="M500,373.1L500,373.1c2.1,0,4.1,0.1,6.2,0.4c2.2,0.3,4.3,1.2,6,2.4c-1.8-0.9-3.7-1.5-5.7-1.9c-2.6-0.5-5.2-0.7-7.8-0.7
		c-5.1,0-9.2,1.1-12.4,3.2c-7.1,4.8-9.3,12.7-10.3,23.2c-1.1,11,7,22.2,12.3,29.7l0.3,0.4c3.1,4.3,9.9,11.6,20.9,11.6
		c2.3,0,4.6-0.3,6.8-1c11.7-3.2,16-8.1,17.2-19.6c1.1-10.8-2.7-20.8-5.7-28.8c0.1,0.1,0.3,0.3,0.4,0.5c1.7,2,3.1,5.3,4.6,8.9
		c3.2,7.7,7.2,17.3,17.7,21c3.6,1.1,7.3,1.7,11,1.5c4.7-0.1,9.3-0.5,13.9-1.4c0.7,3.9,1.4,9.7,0.3,13c-0.3,0.9-0.6,1.8-0.9,2.8
		c-1.7,5.5-3.8,12.2-8.8,16.3l-0.1,0.1c-5.5,4.2-10.2,9.4-13.9,15.2c-2.4,4-4.5,8.2-6.5,12.5c-1.1,2.3-2.1,4.5-3,6.1
		c-7.5-0.9-39.2-6.8-60.1-10.8c-2-5.9-7.4-30.5-10.9-51.7c-1-5.2-1.3-10.6-0.8-15.9c0.2-2.3,0.2-4.7,0-7
		c-1.7-14.5,10.1-23.4,15.3-26.6C489.6,374.2,494.2,373.1,500,373.1 M500,370.1c-6.1,0-11.4,1.2-15.7,3.8
		c-5.8,3.6-18.5,13.4-16.7,29.5c0.7,6.2-1.4,9.6,0.9,23.1c3.6,21.4,10,51,11.7,53.8c0,0,58.5,11.3,63.6,11.3c0.2,0,0.3,0,0.3-0.1
		c2.5-3.8,6.2-13.5,10.3-20c3.6-5.6,8.1-10.5,13.4-14.6c6.6-5.4,8.6-14.5,10.6-20.4s-0.8-17.5-0.8-17.5c-5.4,1.2-10.8,1.8-16.3,1.9
		c-3.4,0.1-6.8-0.4-10-1.4c-14-5-15-22-21-29c-6.9-8.1-15-19-24-20C504.3,370.3,502.2,370.2,500,370.1L500,370.1z M509.5,438.4
		c-8.1,0-14.4-4.7-18.5-10.3c-5-7-13-18-12-28s3-17,9-21c3.1-2,7-2.7,10.8-2.7c2.4,0,4.8,0.2,7.2,0.7c7.2,1.3,16,8,19,16
		s6.5,17.5,5.5,27.5c-1,9.8-4,14-15,17C513.5,438,511.5,438.3,509.5,438.4L509.5,438.4z"/>
	<path d="M497.6,613.7c-4,0-7.6-1.9-10.4-5.6c-7.3-9.5-10.3-16.8-13.4-24.5c-1.1-2.6-2.2-5.4-3.5-8.2c-0.8-1.7-1.8-3.4-2.8-5
		c-2.2-3.7-4.9-8.3-4.1-10.7c1.8-5,4.2-9.8,7.2-14.2c5,0.3,31.3,2,41.1,2.9c2.1,0.2,4.6,0.3,7.6,0.3c9,0,19.5-0.9,22.7-1.2
		c1.7,2.8,7.1,12.5,9.4,18.9c1.1,3.2-5.4,7.5-11.2,11.2c-5,3.2-9.6,6.2-11.7,9.5c-1.2,2-2.2,3.6-3,5c-4.5,7.6-4.6,7.8-19.6,18.6
		C503.6,612.6,500.7,613.6,497.6,613.7z"/>
	<path d="M471.5,547.1c6.6,0.4,30.9,2,40.2,2.9c2.1,0.2,4.7,0.3,7.7,0.3c8.4,0,17.9-0.8,21.9-1.1c2,3.5,6.8,12,8.8,17.8
		c0.7,2.1-6.3,6.7-10.6,9.4c-5.1,3.3-9.9,6.4-12.1,10c-1.2,2-2.2,3.6-3,5c-4.4,7.5-4.4,7.5-19.2,18.2c-2.2,1.6-4.9,2.6-7.6,2.6
		c-3.5,0-6.7-1.7-9.2-5c-7.2-9.3-10.1-16.5-13.2-24.2c-1.1-2.7-2.2-5.4-3.5-8.3c-0.9-1.8-1.8-3.5-2.9-5.2c-1.7-2.9-4.6-7.7-4-9.4
		C466.6,555.6,468.8,551.2,471.5,547.1 M470,544c-3.3,4.7-6,9.8-7.9,15.2c-1.5,4.3,4.6,11.8,6.9,16.8c5,11,7,20,17,33
		c3.4,4.4,7.5,6.2,11.6,6.2c3.4-0.1,6.7-1.2,9.4-3.2c18-13,15-11,23-24c4.5-7.4,25.6-14.6,23-22c-2.8-7.9-10-20-10-20
		s-12.8,1.3-23.5,1.3c-2.7,0-5.2-0.1-7.5-0.3C501,546,470,544,470,544z"/>
	<g id="Targets">
		<circle id="ruaTorso" class="st12" cx="504" cy="396" r="4"/>
		<circle id="headTorso" class="st12" cx="531" cy="328" r="4"/>
		<circle id="luaTorso" class="st12" cx="545" cy="389" r="4"/>
		<circle id="rtTorso" class="st12" cx="489" cy="575" r="4"/>
		<circle id="ltTorso" class="st12" cx="513" cy="575" r="4"/>
	</g>
</g>
<g id="Layer_7">
	<g id="RightCrus">
		<path class="st19" d="M376.4,667.5c-1.2-4.3-3-8.4-5.1-12.3c-3.2-5.4-13.2-15.3-17-18.6s-25.8-13-32.3-14.6s-24.1-8.8-30-12.7
			s-17-18.6-20.7-20.4c-3.7-1.9-10.7,0.1-12.7,2.3c-2,2.3-10.4,13.5-12.2,17.2c-1.9,3.7-6.9,12.6-10.1,16.4
			c-3.3,3.8-8.4,11.3-8.3,12.7c0.1,1.4,4.9,9.5,8.3,7.2s6.7-4.7,8.5-9.9c0,0,9.2-9.9,13.3-11.6c4.1-1.7,13.7-6.7,18.9-3.5
			s72,62,74.2,64c2.3,2,13.1,9.8,16.1,13.8s5.5,4.6,7.2,2.9C380.5,694.3,376.4,667.5,376.4,667.5z"/>
		<path class="st20" d="M247.7,614.7c2.8,0.7,5.8-0.4,7.6-2.7c2.6-3,6.1-13.2,10.3-15c4.1-1.7,4.4,2.6,9.1,7.8
			c4.7,5.3,17,9.4,26,15.8c9,6.4,38.3,18.4,38.3,18.4c3.7,1.9,19,14.8,23.5,20.2c3.9,4.7,5.8,11.6,6.7,13.7s9,6.4,9,6.4
			c-0.3-4-0.8-8-1.6-11.9c-1.3-4.3-3-8.5-5.2-12.4c-3.2-5.4-13.2-15.3-17-18.6s-25.8-13-32.3-14.6s-24.1-8.8-30-12.7
			s-17-18.6-20.7-20.4c-3.7-1.9-10.7,0.1-12.7,2.3c-2,2.3-10.4,13.5-12.2,17.2c-0.7,1.4-1.8,2.9-3.2,5.2L247.7,614.7z"/>
		<path class="st21" d="M377.6,674.5c-1.8-5.5-3.9-13.9-7.1-19.3s-13.6-14.9-17.6-17.8c-4.5-3.2-24.4-13.8-30.9-15.4
			c-6.5-1.6-24.1-8.8-30-12.7s-17-18.6-20.7-20.4c-3.7-1.9-10.7,0.1-12.6,2.3c-2,2.3-10.4,13.5-12.2,17.2
			c-1.9,3.7-6.9,12.6-10.1,16.4c-3.3,3.8-8.4,11.3-8.3,12.7c0.1,1.4,4.9,9.5,8.3,7.2s6.7-4.7,8.5-9.9c0,0,9.2-9.9,13.3-11.6
			c4.1-1.7,13.8-5.3,19-2.1s71.9,60.6,74.1,62.6c2.3,2,13.1,9.8,16.1,13.8s8.6,3.9,8.6,3.9"/>
		<circle id="rc2" class="st12" cx="373.7" cy="687.1" r="4"/>
		<circle id="rc1" class="st12" cx="267.8" cy="604.6" r="4"/>
	</g>
	<g id="RightThigh">
		<path class="st19" d="M469.5,571.7c-2.5,5.5-5.3,10.4-13.8,18s-17.8,18.3-28.3,26s-19.8,18.4-32.1,28.3s-22.9,16.6-27.4,23.9
			c-4.5,7.3-6.2,12.4-3.8,17.3s7.6,3.4,11.3,8c3.8,4.7,9.4,2.6,16-3.9s23.3-11.6,36.9-17.6s37.9-17.6,47.3-26.3s23.6-20.7,29.1-29.1
			c5.4-8.4,15.8-19.4,18-29.3c2.3-10.2,3.6-20.3-5-29.7c-7-7.6-11.8-11.2-26.6-7.2S472.5,565.1,469.5,571.7z"/>
		<path class="st20" d="M516.8,556.5c-6.9-6.6-11.6-10.1-25.7-6.3c-14.8,4-25.3,11.8-28.3,18.5c-2.5,5.5-1.4,9.1-9.9,16.7
			c-8.5,7.6-18.7,19.3-29.2,27.1c-10.5,7.7-16.1,21.7-28.4,31.5c-12.3,9.9-22.9,16.6-27.4,23.9c-4.5,7.3-3.2,4.7-4.8,9.9
			c0,0,3.1,1.8,5.1,0.7c1.9-1.1,11.7-3.8,14.5-8c2.7-4.2,12.8-17.9,16.6-21.2s40.1-43.9,43.1-44.1c3-0.2,4.9-1.3,8.2,2.4
			c3.3,3.8,21.5,20.6,22.8,25.5s3.7,11.1,3.7,11.1s16.9-15.8,19.8-18.4c2.9-2.6,21.6-26.6,23.1-31.4
			C521.4,589.7,530,569.1,516.8,556.5z"/>
		<path class="st21" d="M376.1,697.4c5.4-0.5,9.2-2,15.3-8.1c6.6-6.5,23.3-11.6,36.9-17.6s37.9-17.6,47.3-26.3s23.6-20.7,29.1-29.1
			c5.4-8.4,15.8-19.4,18-29.3c2.3-10.2,5.6-20.4-3.1-29.8c-7-7.6-14.7-15.4-29.6-12.4s-24.8,14.2-27.7,20.8
			c-2.5,5.5-4.7,14.2-13.2,21.8s-16,15-25,24.4c-10.3,10.7-16.5,22.2-28.9,32.1s-21.8,17.4-27.4,23.9c-2.8,3.2-4.8,9.5-5.3,10.4"/>
		<path d="M485.1,638.9c-4-2.7-37.5-40.8-41.1-46.7c1.4-1.3,2.8-2.4,4.3-3.5c4.1-3.1,9.2-7,10.8-10.7c2-4.8,9-19.5,13.9-24.1
			c2.7-2.6,12.1-7.9,15.4-8.7c3.7-0.9,11,0.2,18,2.7c1.6,0.6,3.1,1.2,4.6,1.9c5.2,2.4,12.3,15.7,12.1,24.8s-10.4,35-16.8,42.3
			c-1,1.1-2.2,2.5-3.4,4C497.9,626.4,487.8,638.2,485.1,638.9z"/>
		<path d="M506.8,546.4l-1,2.8c1.6,0.6,3.1,1.2,4.4,1.8c4.6,2.2,11.4,15.1,11.2,23.4c-0.2,9.1-10.2,34.2-16.5,41.4
			c-1,1.1-2.2,2.5-3.4,3.9c-4.3,5.1-12.9,15.2-16.3,17.3c-6.1-5.3-33.7-37.3-39.3-44.7c0.9-0.7,2.2-1.7,3.2-2.5
			c4.2-3.2,9.5-7.2,11.2-11.3c1.9-4.5,8.9-19.2,13.5-23.6c2.7-2.6,11.9-7.6,14.7-8.3c3.4-0.9,10.5,0.3,17.1,2.7L506.8,546.4
			 M506.8,546.4c-7-2.5-14.6-3.8-18.9-2.8c-3.5,0.9-13,6.2-16,9.1c-5.4,5.1-12.7,20.9-14.2,24.6c-2.4,5.8-15.5,12.8-15.3,14.8
			c0.1,2,38.9,47,42.4,48.2l0,0c3.1,0.8,16-15.1,22.5-22.6s17-33.4,17.2-43.3c0.2-9.3-7-23.4-13-26.2
			C510,547.6,508.4,547,506.8,546.4L506.8,546.4z"/>
		<circle id="rt2" class="st12" cx="497" cy="574.5" r="4"/>
		<circle id="rt1" class="st12" cx="374" cy="685.3" r="4"/>
	</g>
</g>
<g id="Layer_8">
	<path class="st19" d="M548.5,355.5c0,0-18-6-19-9s-6-26-8-27s-13-2-15-5s-4-12-3-16s7-9,10-9s9,3,12,6s11,0,13-3s8-12,13-15
		s10-10,15-9s16,6,17,9s3,10,2,15s-5,12-5,15c0,6,6,9,7,13s-2,6-4,7c-1.3,0.6-4,2-4,5s1,9-2,12c-2.5,2.5-4,8-4,10c0,5-6,7-9,7
		C562.5,361.5,548.5,355.5,548.5,355.5z"/>
	<path class="st20" d="M555.1,358.2c-3.5-1.4-6.6-2.7-6.6-2.7s-18-6-19-9s-6-26-8-27s-13-2-15-5s-4-12-3-16s7-9,10-9s9,3,12,6
		s11,0,13-3s8-12,13-15s10-10,15-9c3.5,0.9,6.8,2.1,10,3.8c0,0-24.5,22.3-26,42.2C548.5,340.5,555.1,358.2,555.1,358.2z"/>
	<path class="st21" d="M548.5,355.5c0,0-17.4-6.2-19-9c-4-7-6-26-8-27s-13-2-15-5s-4-12-3-16s7-9,10-9s9,3,12,6s11,0,13-3
		s8-12,13-15s10-10,15-9s16,6,17,9s3,10,2,15s-5,12-5,15c0,6,6,9,7,13s-2,6-4,7c-1.3,0.6-4,2-4,5s1,9-2,12c-2.5,2.5-4,8-4,10
		c0,5-6,7-9,7C562.5,361.5,548.5,355.5,548.5,355.5z"/>
	<path class="st22" d="M520.5,301.5c1-2-5.7-7.9-9,1c-3,8,3.3,9.7,5,8"/>
	<path d="M582,303l-1,10c0,0-41.6-4.2-47-13c-8.9-14.5,46-30,46-30s4.4,11,5.2,15.3S582,303,582,303z"/>
	<path class="st6" d="M488.5,268.5c0,0,4,2,4,6s-5,14-5,21s1,17,5,24s9,15,12,16s7,0.7,7.5-1.7s1.5-12.3-1.5-15.3s-7-5-8-14
		s6-16,10-16s12,3,14,6s28,0,37-5s23-13,22-18s-7-15-15-17c-8-2-19-5-27-5s-24,5-28,9c-4,4-16-1-16-1L488.5,268.5z"/>
	<circle id="h1" class="st12" cx="531" cy="328" r="4"/>
	<circle id="h2" class="st12" cx="481" cy="253" r="4"/>
	<path class="st23" d="M579,278c0,0-12-11-17-13s-25-3-25-3s7,6,8,8s-8-3-15-4c-4-0.6-8.1-0.3-12,1c0,0,6,5,9,5s7,3,7,3h-14
		c-3,0.2-6,0.5-9,1l6,6c0,0-8-2-10-2s-7,3-7,3l4,4c-1.1,0.5-2.1,1.2-3,2c-1,1-2,4-2,4l-2-6c0,0-1,14,0,17s5,10,6,14
		c0.6,2.6,0.6,5.4,0,8c0,0-2-8-5-9c-2-0.6-4-0.6-6,0c0,0,4.3,11.8,6.6,12.4s6.4,6.6,8.4,6.6s6-1,5-6c-0.6-3.6-1-7.3-1-11
		c0,0-5.4-4.4-6.2-6.7s-3.6-10-1.7-14.2s5.3-9.7,8.1-9.4c2.8,0.3,11.9,1.2,14.9,5.2S541,296,541,296s19.5-4.8,23.2-6.9
		S579,278,579,278z"/>
	<path class="st24" d="M488.5,268.5c0,0,4,2,4,6s-5,14-5,21s1,17,5,24s9,15,12,16s7,0.7,7.5-1.7s1.5-12.3-1.5-15.3s-7-5-8-14
		s6-16,10-16s12,3,14,6s28,0,37-5s23-13,22-18s-7-15-15-17c-8-2-19-5-27-5s-24,5-28,9c-4,4-16-1-16-1L488.5,268.5z"/>
	<g id="HairBand">
		<line class="st25" x1="488" y1="273" x2="504" y2="256"/>
		<line class="st25" x1="487" y1="268" x2="499" y2="254"/>
		<line class="st25" x1="480" y1="266" x2="496" y2="249"/>
		<line class="st25" x1="476" y1="262" x2="490" y2="247"/>
	</g>
</g>
<g id="Layer_9">
	<path class="st6" d="M340,319c5-3,5-8,8-17s14-15,28-23s19-15,22-21c3-6,20-19,30-26s28-10,39-13s23,5,26,9s2,13-1,15s-17,20-17,23
		s-13,20-19,24s-16,6-23,10c-4.6,2.6-12.3,11.4-17,17l-1,2c-1.7,5.1-3.7,10.1-6,15c-3,6-17,18-23,24s-21,15-21,15s4-7,5-10s0-7,0-7
		s-9,11-15,18s-25,18-36,24s-28,11-40,14c-2,0.5-7,2-7,2c-1.9,1.1-3,1.6-4,3c-3,4-7.2,6.8-12,8c-4.4,1-8.6,3-12,6c-2,2-32,13-33,10
		s14-33,19-43s20-17,25-20s20-7,27-10s26-7,30-8s6-8,6-8s-9,0-10-3s-6-3-9-3s-7,5-6-1s8-8,11-11s12-10,17-12S335.9,321.5,340,319z"
		/>
	<path class="st26" d="M296.4,339.5c0,0,8.6-2.5,13.6,0.5s4,6,7,6s8-3,10-1s1,5-3,8s-8,7-9,9s-9,6-12,5c-1.9-0.7-3.5-2.1-4.5-3.9
		c0,0,14.5-2.1,16.5-6.1s1.7-5.3-1.7-5.2c-2.7,0-5.3-1-7.3-2.8c-2.8-2.8-7.1-3.5-10.6-1.7C290,350,296.4,339.5,296.4,339.5z"/>
	<path class="st26" d="M345,311.2c0,0,10-6.2,14-9.2s11-5,12-7s3-3,5-2s-1,7-4,10s-10,10-15,12c-2.9,1.2-6,1.7-9.1,1.5L345,311.2z"
		/>
	<path class="st26" d="M294.2,382.2c0,0,3.8-3.2,4.8-1.2s-7,12-7,14s-1,4,2,3s29-11,38-20s38-38,39-43s2-8,4-7s2,6,1,9s-1,11,0,13
		s20-16,23-25s14-33,17-37s4-15,8-15s2,11,5,13s19-7,27-15s18-24,22-26s9.1,3.1,9.1,3.1s-16.3,26-19.7,29.9s-12.3,15.5-27.4,18.7
		s-24.8,22.6-27.9,29.4s-19,27.5-30.6,35.6s-15.4,10.5-15.4,10.5S371,361,370,359s-3-2-5,2s-13,19-29,28s-41.5,20.1-55.2,22.5
		s-23.4,1-23.4,1s14.2-5.9,21.9-13.7S294.2,382.2,294.2,382.2z"/>
	<path class="st26" d="M226.8,404.4c0.8,2.1,0.8,4.4,0.2,6.6c-1,4-4,13-1,15s24-8,27-11s16-1,16-1c-5.5,6.5-12.7,11.4-20.8,14
		c-13.2,4-28.4,13.1-32.3,13s-4.4-3-4.4-3L226.8,404.4z"/>
	<path class="st27" d="M419,291c0,0-1,13-2,16l-5,15c0,0,14-18,21-22s17-6,23-10s19-21,19-24s14-21,17-23s4-11,1-15s-15-12-26-9
		s-29,6-39,13s-27,20-30,26c-3,6-8,13-22,21s-25,14-28,23s-4,14-8,17"/>
	<path class="st27" d="M371,299c0,0-18,17-29,20s-16,1-21,3s-14,9-17,12s-10,5-11,11s3,1,6,1s8,0,9,3s10,3,10,3s-2,7-6,8s-23,5-30,8
		s-22,7-27,10s-20,10-25,20s-20,40-19,43s31-8,33-10c3.4-3,7.6-5,12-6c4.8-1.2,9-4,12-8c2-3,8-4,8-4"/>
	<path class="st27" d="M296,380c0,0-23,28-31,30s-11,2-11,2s13,3,25,0s29-8,40-14s30-17,36-24s15-18,15-18s1,4,0,7s-5,10-5,10
		s15-9,21-15s20-18,23-24s6-17,6-17"/>
	<circle id="hair1" class="st12" cx="481" cy="253" r="4"/>
	<circle id="hair2" class="st12" cx="271" cy="396" r="4"/>
</g>
<g id="Layer_4">
	<g id="RightLowerArm">
		<path class="st19" d="M550.9,484.1c1.4-6.7,8.6-10.5,24.1-17.5c29.8-13.6,58.2-15.3,67-21.9c2.8-2.1,6.3-8.1,7.9-11.5
			c0.9-2.4,2.7-4.3,4.9-5.5c2.2-1.4,8.3,0.7,12.7-3c4.5-3.7,4.9-5.5,7.6-5c1.5,0.3,2.4,1.7,2.2,3.1l0,0.1c1.8-0.7,3.9-0.3,5.4,1.1
			c2.3,2.3-0.9,4.5-0.9,4.5c1.2-1.3,3.3-1.3,4.6,0l0.1,0.1c2.3,2.3-0.9,4.5-0.9,4.5s1.3-1.6,3.6,0.7c2.3,2.3-1.1,5.4-3.4,7.7
			c-3.3,3.4-7.4,6.1-11.8,7.9c-5.1,1.8-9.5,0.8-14.7,3.5c-5.2,2.7-42.7,27.6-69.4,38.2c-26.4,10.5-31.8,11.4-37.1,8.3
			S549.7,490.4,550.9,484.1z"/>
		<path class="st20" d="M549.8,492c0,0,5.1,0.5,6.4-2c1.2-2.6,1.9-6.9,10-10.8c8.2-3.9,35.3-17.4,45.1-19.6
			c9.8-2.2,25.3-6.4,27.7-8.4c2.5-2,6-4.2,7.6-2.6c1.5,1.6,4.5,3.8,5.1,2.5c0.6-1.3-3.2-6.3-2-8.9c1.2-2.6,8.2-7,9.4-9.5
			s2.4-5.6,2.4-5.6s-5.5,0-8.1,1.6c-2.7,1.6-6.9,12.8-10.1,14.8c-3.2,2-11.4,6.5-18.3,7.5c-6.9,1-44.6,12.3-52.9,17
			c-8.3,4.7-18.6,8.8-19.8,12.7C551.3,484.3,550.5,488.1,549.8,492z"/>
		<path class="st28" d="M550.9,484.1c1.4-6.7,8.6-10.5,24.1-17.5c29.8-13.6,58.2-15.3,67-21.9c2.8-2.1,6.3-8.1,7.9-11.5
			c0.9-2.4,2.7-4.3,4.9-5.5c2.2-1.4,8.3,0.7,12.7-3c4.5-3.7,4.9-5.5,7.6-5c1.5,0.3,2.4,1.7,2.2,3.1l0,0.1c1.8-0.7,3.9-0.3,5.4,1.1
			c2.3,2.3-0.9,4.5-0.9,4.5c1.2-1.3,3.3-1.3,4.6,0l0.1,0.1c2.3,2.3-0.9,4.5-0.9,4.5s1.3-1.6,3.6,0.7c2.3,2.3-1.1,5.4-3.4,7.7
			c-3.3,3.4-7.4,6.1-11.8,7.9c-5.1,1.8-9.5,0.8-14.7,3.5c-5.2,2.7-42.7,27.6-69.4,38.2c-26.4,10.5-31.8,11.4-37.1,8.3
			S549.7,490.4,550.9,484.1z"/>
		<circle id="rla2" class="st12" cx="554.1" cy="487.8" r="3"/>
		<circle id="rla1" class="st12" cx="665.3" cy="438.2" r="3"/>
	</g>
	<g id="RightUpperArm">
		<path class="st19" d="M521.1,465.1c0,0-12.5-11.7-16.4-21.2c-4-9.5-17.3-35.1-18.5-42.2c-1.2-7.3-1.6-13.3,2.8-16.8
			c4.4-3.6,13.7-4.3,16.9-2.5c4.3,2.4,11,8.9,14.5,14.7c6,9.7,17,20.4,21.4,29.7c7.3,15.9,7.7,31,11.8,39.5c1.4,2.9,3.1,4.7,3.9,8.9
			c0.7,4.3-1.3,10.4-1.1,14.8c0.2,3.2,5.1,6.5,3.7,9.4c-5.2,10.8-32.4-16.6-36.8-32.1"/>
		<path class="st20" d="M518.1,393.8c0,0-3.4,0.8-3.1,3.9c0.3,3.1,2.8,8.6,5.7,12.8c2.9,4.1,15.2,21.7,18.8,32.1
			c3.6,10.4,11.3,27.8,10.7,31.3s0.9,9.4,2.1,12.2c1.2,2.4,2.6,4.7,4.2,6.9c0,0-0.5-1.8,0.3-6.7c0.6-3.6,1.3-9.4,0.5-11.2
			c0,0-5.4-11.6-6.4-17.9c-1.1-6.2-3.5-21.5-7-28.2c-3.5-6.6-14.8-15.6-17.9-22C523.7,402.5,521,398,518.1,393.8z"/>
		<path class="st21" d="M523.3,467.1c4,14,25.5,36.6,33.5,33.6c1.1-0.6,2.2-1.1,3.3-1.8"/>
		<path class="st21" d="M558,475.4c-1.7-3.2-3.3-6.7-4.5-9.1c-4.1-8.5-2.8-22.2-10-38.1c-4.1-8.8-18-18.2-21.6-28.6"/>
		<path class="st21" d="M531.2,474.3c0,0-24.5-25-29.4-34c-5.4-9.8-15-31.6-15.6-38.7c-0.7-7.2-1.6-13.3,2.8-16.8
			c2.8-2.2,3.2-2.7,7.2-3.4"/>
		<line class="st29" x1="496.5" y1="432.3" x2="530.9" y2="411.3"/>
		<circle id="rua1" class="st12" cx="499.3" cy="397" r="4"/>
		<circle id="rua2" class="st12" cx="552.2" cy="490.6" r="3"/>
	</g>
</g>
</svg>
