<?xml version="1.0" encoding="utf-8"?>
<!-- Generator: Adobe Illustrator 28.1.0, SVG Export Plug-In . SVG Version: 6.00 Build 0)  -->
<svg version="1.1" id="Layer_1" xmlns="http://www.w3.org/2000/svg" xmlns:xlink="http://www.w3.org/1999/xlink" x="0px" y="0px"
	 viewBox="0 0 1024 1024" style="enable-background:new 0 0 1024 1024;" xml:space="preserve">
<style type="text/css">
	.st0{fill:#808080;}
	.st1{fill:none;stroke:#000000;stroke-width:2.15;stroke-miterlimit:10;}
	.st2{fill:#B3B3B3;}
	.st3{fill:none;stroke:#000000;stroke-width:2.29;stroke-miterlimit:10;}
	.st4{fill:none;stroke:#000000;stroke-width:1.21;stroke-miterlimit:10;}
	.st5{fill:none;stroke:#000000;stroke-width:1.56;stroke-miterlimit:10;}
	.st6{fill:#FFFFFF;}
	.st7{fill:#808080;stroke:#000000;stroke-width:2.1399;stroke-miterlimit:9.9996;}
	.st8{fill:#B3B3B3;stroke:#000000;stroke-width:1.8599;stroke-miterlimit:9.9996;}
	.st9{fill:#B3B3B3;stroke:#000000;stroke-width:2.6;stroke-miterlimit:10;}
	.st10{fill:#808080;stroke:#000000;stroke-width:2.44;stroke-miterlimit:10;}
	.st11{fill:none;stroke:#000000;stroke-width:3.54;stroke-linecap:round;stroke-miterlimit:10;}
	.st12{fill:#FF0000;}
	.st13{fill:#B3B3B3;stroke:#000000;stroke-width:2.27;stroke-miterlimit:10.0008;}
	.st14{fill:#808080;stroke:#000000;stroke-width:2.27;stroke-miterlimit:10;}
	.st15{fill:#B3B3B3;stroke:#000000;stroke-width:1.7;stroke-miterlimit:9.9993;}
	.st16{fill:#808080;stroke:#000000;stroke-width:2.05;stroke-miterlimit:10;}
	.st17{fill:#B3B3B3;stroke:#000000;stroke-width:2.2701;stroke-miterlimit:10.0003;}
	.st18{fill:#808080;stroke:#000000;stroke-width:2.2701;stroke-miterlimit:10.0003;}
	.st19{fill:#B3B3B3;stroke:#000000;stroke-width:2.27;stroke-miterlimit:9.9999;}
	.st20{fill:#B3B3B3;stroke:#000000;stroke-width:2.27;stroke-miterlimit:10;}
	.st21{fill:#959595;}
	.st22{fill:#828282;}
	.st23{fill:none;stroke:#000000;stroke-width:3;stroke-linecap:round;stroke-miterlimit:10;}
	.st24{fill:none;stroke:#696969;stroke-width:5;stroke-linecap:round;stroke-miterlimit:10;}
	.st25{fill:#DEDEDE;stroke:#DEDEDE;stroke-width:2;stroke-linecap:round;stroke-linejoin:round;}
	.st26{fill:none;stroke:#000000;stroke-width:4;stroke-linecap:round;stroke-miterlimit:10;}
	.st27{fill:none;stroke:#000000;stroke-width:8;stroke-linecap:round;stroke-miterlimit:10;}
	.st28{fill:#DEDEDE;}
	.st29{fill:none;stroke:#000000;stroke-width:4;stroke-linecap:round;stroke-linejoin:round;}
	.st30{fill:none;stroke:#000000;stroke-width:3;stroke-linejoin:round;}
	.st31{fill:none;stroke:#DEDEDE;stroke-width:4;stroke-linecap:round;stroke-miterlimit:10;}
</style>
<g id="Layer_10">
	<g id="LeftLowerArm">
		<g id="Hand">
			<polygon class="st0" points="614.1,466.9 618.9,479 642,478.3 646.9,476.2 637.3,452.1 			"/>
			<polygon class="st1" points="614.1,466.9 618.9,479 642,478.3 646.9,476.2 637.3,452.1 			"/>
			<polygon class="st2" points="632.2,455.3 626.4,467.1 616.5,472.9 612.5,463 628.3,451.7 			"/>
			<polygon class="st3" points="632.2,455.3 626.4,467.1 616.5,472.9 612.5,463 628.3,451.7 			"/>
			<path class="st2" d="M625.7,452.8l6.7-5.5c1.2-0.9,3-0.8,4,0.4l0.2,0.3c0.9,1.2,0.8,2.9-0.4,4l-6.7,5.5c-1.2,0.9-2.9,0.8-4-0.4
				l-0.2-0.3C624.4,455.7,624.5,453.9,625.7,452.8z"/>
			<path class="st4" d="M625.7,452.9l6.7-5.5c1.2-0.9,3-0.8,4,0.4l0,0l0.2,0.2c0.9,1.2,0.8,2.9-0.4,4l-6.7,5.5c-1.2,0.9-3,0.8-4-0.4
				l0,0l-0.2-0.2C624.4,455.7,624.6,454,625.7,452.9z"/>
			<path class="st2" d="M629.5,455.7l13.4-5.3c1.5-0.6,3.1,0.1,3.6,1.6l0.2,0.4c0.6,1.5-0.1,3.1-1.6,3.6l-13.4,5.3
				c-1.5,0.6-3.1-0.1-3.6-1.6l-0.2-0.4C627.3,457.8,628,456.2,629.5,455.7z"/>
			<path class="st5" d="M629.5,455.7l13.4-5.3c1.5-0.6,3.1,0.1,3.6,1.6l0,0l0.2,0.4c0.6,1.5-0.1,3.1-1.6,3.6l-13.4,5.3
				c-1.5,0.6-3.1-0.1-3.6-1.6l0,0l-0.2-0.4C627.3,457.8,628,456.2,629.5,455.7L629.5,455.7z"/>
			<path class="st2" d="M633,447.9l0.3-0.3c1-1.2,2.7-1.3,3.9-0.5l6.8,5.4c1.2,1,1.3,2.7,0.5,3.9l-0.3,0.3c-1,1.2-2.7,1.3-3.9,0.5
				l-6.8-5.4C632.3,450.9,632,449,633,447.9z"/>
			<path class="st4" d="M633.1,447.9l0.2-0.2c1-1.2,2.7-1.3,3.9-0.5l6.8,5.4c1.2,1,1.3,2.7,0.5,3.9l-0.2,0.2c-1,1.2-2.7,1.3-4,0.5
				l0,0l-6.8-5.4C632.3,451,632.1,449.2,633.1,447.9L633.1,447.9z"/>
			<path class="st2" d="M632.2,462.5l14.4-5.8c1.5-0.6,3.1,0.1,3.6,1.6l0.2,0.4c0.6,1.5-0.1,3.1-1.6,3.6l-14.4,5.8
				c-1.5,0.6-3.1-0.1-3.6-1.6l-0.2-0.4C630,464.6,630.7,463,632.2,462.5z"/>
			<path class="st5" d="M632.1,462.5l14.3-5.7c1.5-0.6,3.1,0.1,3.6,1.6l0.2,0.2c0.6,1.5-0.1,3.1-1.6,3.6l-14.3,5.7
				c-1.5,0.6-3.1-0.1-3.6-1.6l0,0l-0.2-0.4C629.9,464.7,630.7,463,632.1,462.5L632.1,462.5L632.1,462.5z"/>
			<path class="st2" d="M634.9,469.3l13.4-5.3c1.5-0.6,3.1,0.1,3.6,1.6l0.2,0.4c0.6,1.5-0.1,3.1-1.6,3.6l-13.4,5.3
				c-1.5,0.6-3.1-0.1-3.6-1.6l-0.2-0.4C632.7,471.4,633.4,469.8,634.9,469.3z"/>
			<path class="st5" d="M634.9,469.3l13.4-5.3c1.5-0.6,3.1,0.1,3.6,1.6l0,0l0.2,0.4c0.6,1.5-0.1,3.1-1.6,3.6l-13.4,5.3
				c-1.5,0.6-3.1-0.1-3.6-1.6l0,0l-0.2-0.4C632.7,471.4,633.4,469.8,634.9,469.3z"/>
			<path class="st2" d="M638.6,475l11.6-4.6c1.2-0.5,2.5,0.1,3,1.3l0.2,0.2c0.5,1.2-0.1,2.5-1.3,3l-11.6,4.6c-1.2,0.5-2.5-0.1-3-1.3
				l-0.2-0.2C636.8,476.8,637.4,475.5,638.6,475z"/>
			<path class="st5" d="M638.6,475.1l11.6-4.6c1.2-0.5,2.5,0.1,3,1.3l0.2,0.2c0.5,1.2-0.1,2.5-1.3,3l-11.6,4.6
				c-1.2,0.5-2.5-0.1-3-1.3l-0.2-0.2C636.8,476.9,637.5,475.6,638.6,475.1z"/>
		</g>
		<polygon points="625.5,468.9 630.4,472.4 648,457.3 609.6,472.4 607.2,466.4 645.6,451.2 622.4,452.3 621.3,458.3 606.6,447.8 
			651,445.9 651.5,447.4 664.5,447.3 655,456.1 655.5,457.6 621.9,486.6 		"/>
		<path class="st6" d="M663.4,447.8l-8.8,8.2l0.5,1.5l-32.5,28l3.2-16l4.7,3.3l19.7-16.9l-40.4,16l-1-2.7l-1-2.7l40.4-16l-25.9,1.2
			l-1.2,5.7l-13.3-9.4l43-1.9l0.5,1.5L663.4,447.8 M665.4,446.9l-2.1,0l-11.6,0.1l-0.4-0.9l-0.2-0.6l-0.5,0l-43,1.9l-2.3,0.1
			l1.8,1.3l13.3,9.4l0.9,0.7l0.3-1.2l1.1-5.1l20.5-0.9L607.4,466l-0.7,0.3l0.3,0.7l1,2.7l1.1,2.6l0.3,0.7l0.7-0.3l35.9-14.3
			l-15.6,13.3l-4.1-2.9l-0.9-0.7l-0.3,1.2l-3.2,16l-0.5,2.3l1.8-1.5l32.4-27.9l0.5-0.4l-0.2-0.6l-0.4-0.9l8.5-7.9L665.4,446.9
			L665.4,446.9z"/>
		
			<image style="overflow:visible;enable-background:new    ;" width="18" height="29" xlink:href="C17E5358.png"  transform="matrix(0.9303 0.3669 -0.3669 0.9303 510.5928 491.9685)">
		</image>
		
			<rect x="528.7" y="479.9" transform="matrix(0.9297 -0.3684 0.3684 0.9297 -139.495 242.0173)" class="st7" width="70.9" height="13"/>
		
			<rect x="500.9" y="510.3" transform="matrix(0.9297 -0.3684 0.3684 0.9297 -153.6057 225.8809)" class="st8" width="27.8" height="10"/>
		
			<image style="overflow:visible;enable-background:new    ;" width="51" height="24" xlink:href="C17E5359.png"  transform="matrix(0.9303 0.3669 -0.3669 0.9303 548.3549 467.0885)">
		</image>
		
			<image style="overflow:visible;enable-background:new    ;" width="47" height="35" xlink:href="C17E535F.png"  transform="matrix(0.9303 0.3669 -0.3669 0.9303 550.5043 450.7367)">
		</image>
		
			<image style="overflow:visible;enable-background:new    ;" width="53" height="59" xlink:href="C17E535A.png"  transform="matrix(0.9303 0.3669 -0.3669 0.9303 556.0859 452.9382)">
		</image>
		<path class="st9" d="M530.6,514.3l-5.9-15c-2.4-5.9,0.6-12.8,6.6-15.1l8.3-3.4l4.1,10.4l-5.1,2c-2.3,1-3.5,3.6-2.6,6l4.4,11.1
			L530.6,514.3z"/>
		<polygon class="st10" points="579.2,473.4 586.5,492.2 596.4,488.1 602.4,492.5 620.1,485.4 610.5,461 		"/>
		<line class="st11" x1="604.5" y1="474.8" x2="615" y2="483.4"/>
		<line class="st11" x1="598.5" y1="477.2" x2="608.9" y2="485.9"/>
		<line class="st11" x1="592.5" y1="479.6" x2="602.9" y2="488.3"/>
		<path class="st9" d="M603.8,465l0.3,0.4c0.9,2.1-0.1,4.6-2.4,5.5l-31.8,12.6c-2.1,0.9-4.6-0.1-5.5-2.4l-0.3-0.4
			c-0.9-2.1,0.1-4.6,2.4-5.5l31.8-12.6C600.6,461.8,603,462.9,603.8,465z"/>
		<circle id="lla1" class="st12" cx="504.4" cy="511.2" r="3"/>
		<circle id="lla2" class="st12" cx="631.7" cy="466.1" r="3"/>
	</g>
	<g id="UpperArm">
		
			<rect x="479.2" y="492.7" transform="matrix(0.1268 -0.9919 0.9919 0.1268 -93.7063 931.6276)" class="st13" width="6.2" height="52.7"/>
		<path class="st14" d="M499.6,506.8l3,14.9c0.5,2.3,2.4,4.1,4.7,4.5l0,0c2.4,0.2,4.6-0.8,5.6-3.1l6.7-13.7L499.6,506.8z"/>
		
			<image style="overflow:visible;enable-background:new    ;" width="87" height="116" xlink:href="C17E535B.png"  transform="matrix(0.6067 -0.7948 0.7948 0.6067 386.9731 497.5954)">
		</image>
		<path class="st14" d="M411,503.4l46.1,6c3.4,0.4,5.8,3.5,5.4,7l0,0c-0.4,3.4-3.5,5.8-7,5.4l-46-6c-3.4-0.4-5.8-3.5-5.4-7l0,0
			C404.5,505.4,407.5,503,411,503.4z"/>
		
			<rect x="416.8" y="443.5" transform="matrix(0.43 -0.9029 0.9029 0.43 -190.7699 649.664)" class="st15" width="4.5" height="64.8"/>
		<path class="st14" d="M395.4,477.1l-3-14.9c-0.5-2.3-2.4-4.1-4.7-4.5l0,0c-2.4-0.2-4.6,0.8-5.6,3.1l-6.7,13.7L395.4,477.1z"/>
		<polygon class="st16" points="493.6,504.6 387.5,491.1 388.9,479.5 449.6,487.3 491.1,496.8 		"/>
		
			<ellipse transform="matrix(0.8242 -0.5663 0.5663 0.8242 -207.5273 302.8446)" class="st17" cx="384" cy="485.7" rx="15.9" ry="15.9"/>
		
			<ellipse transform="matrix(0.8242 -0.5663 0.5663 0.8242 -207.5273 302.8446)" class="st18" cx="384" cy="485.7" rx="7.4" ry="7.4"/>
		
			<image style="overflow:visible;enable-background:new    ;" width="76" height="83" xlink:href="C17E5356.png"  transform="matrix(0.6067 -0.7948 0.7948 0.6067 388.8968 506.6121)">
		</image>
		
			<image style="overflow:visible;enable-background:new    ;" width="79" height="70" xlink:href="C17E5357.png"  transform="matrix(0.6067 -0.7948 0.7948 0.6067 396.6153 516.2778)">
		</image>
		<path class="st14" d="M516.2,509.5l-23.6-3c-1.5-0.2-2.6-1.5-2.3-3l0,0l1.4-11.7c0-0.8,0.8-1.3,1.6-1.2l0,0l13.8,1.8
			c0.4,0,0.8,0.3,1,0.6l9.4,14.4c0.4,0.7,0.3,1.4-0.3,2C516.8,509.5,516.5,509.5,516.2,509.5z"/>
		<ellipse class="st19" cx="510.6" cy="501.9" rx="14.2" ry="14.2"/>
		<polygon class="st20" points="374.2,498.2 382.3,494.7 395.3,496.3 393.3,511.9 373,509.4 		"/>
		<path class="st20" d="M369,496.6l18,2.3c0,0-0.4,3.6,1.5,6.2c2,2.5,2.9,4.3,6.8,4.9l6.7,0.8l-1,7.9l-34.2-4.3L369,496.6z"/>
		<circle id="lua2" class="st12" cx="384.2" cy="485.7" r="3"/>
		<circle id="lua1" class="st12" cx="510.7" cy="501.7" r="3"/>
	</g>
</g>
<g id="Layer_6">
	<g id="LeftThigh">
		<path class="st21" d="M529.6,621.9c5.6-2.2,11-3.8,22.4-3.4c11.4,0.4,25.5-0.8,38.4,0.8c12.9,1.6,27.1,0.4,42.8,1.9
			c15.8,1.5,28,3.9,36.4,1.8c8.4-2.2,13.1-4.7,14.8-9.8c1.7-5.1,5.4-12.6,0.7-16.4c-4.6-3.9-8.3-5.6-17.5-5.6
			c-9.2,0-24.8-7.7-38.8-12.9c-14-5.1-39.5-13.6-52.3-13.9c-12.8-0.2-31.4-1.5-41.1,0.8c-9.7,2.2-24.7,3.1-33.3,8.6
			c-8.7,5.7-16.6,12.2-16.9,24.9c-0.2,10.3,0.8,16.2,14.2,23.5C512.7,629.8,523.1,624.7,529.6,621.9z"/>
		<path class="st22" d="M485.2,600.2c0.4,9.5,1.4,15.3,14.2,22.3c13.4,7.4,26.5,9,33.3,6.3c5.6-2.2,7.4-5.6,18.7-5.2
			c11.4,0.4,26.9-1,39.8,0.8c13,1.8,26.5-4.5,42.3-3.1s28,3.9,36.4,1.8c8.4-2.2,5.6-1.2,10.3-3.8c0,0-1-3.4-3.1-3.9
			c-2.1-0.6-11.1-5.5-16-4.3c-4.9,1.1-21.6,4-26.6,3.7c-4.9-0.3-59.3,3.8-61.6,1.8c-2.3-2-4.5-2.5-4.2-7.4
			c0.3-4.9-1.2-29.6,1.3-34.1c2.5-4.5,5-10.6,5-10.6s-23.1-0.2-27.1-0.4c-3.9-0.2-34.1,4.2-38.4,6.6
			C504.8,572.9,484.3,581.9,485.2,600.2z"/>
		<path class="st23" d="M684.1,596.2c-4.2-3.3-8.1-4.8-16.7-4.8c-9.2,0-24.8-7.7-38.8-12.9c-14-5.1-39.5-13.6-52.3-13.9
			c-12.8-0.2-31.4-1.5-41.1,0.8c-9.7,2.2-24.7,3.1-33.3,8.6c-8.7,5.7-18.1,10.8-18.6,23.6c-0.2,10.3,0.2,18.4,13,26.5
			c12.9,8.2,22.3,10.1,29.1,7.4c5.6-2.2,12-8.1,23.5-7.7c11.4,0.4,28.2,1.2,41.3,0.7c14.9-0.6,27.3-4.5,43.1-3
			c15.8,1.5,27.8,2.5,36.4,1.8c4.2-0.3,10.1-3.6,11-3.8"/>
		<path d="M562.2,625.1c-2.9,0.5-5.9,0.8-8.9,1c-6.3,0.5-13.7,1-17.2,2.4c-5.3,2.3-25.4,0-30.4-1.5c-4.8-1.6-18.4-10.2-21.3-17.8
			c-1.9-5,0.8-17.5,6.1-24c0.7-0.8,1.4-1.5,2.2-2.1c7.2-5.4,32.1-18.1,41.6-18.9c1.5-0.1,3.2-0.3,5.2-0.5c7.5-0.7,22.8-2.2,25.3-0.8
			C566,567.5,563.7,618.7,562.2,625.1z"/>
		<path d="M491.9,586.2L491.9,586.2c0.6-0.7,1.2-1.3,1.9-1.9c7.2-5.3,31.9-17.8,40.9-18.7c1.5-0.1,3.2-0.3,5.2-0.5
			c6.7-0.6,19.9-2,23.8-1.2c0.8,8.2-1.6,51.4-2.7,59.9c-1.7,0.2-5.1,0.4-7.8,0.7c-6.9,0.5-13.9,1.1-17.6,2.6c-4.6,2-24.1,0-29.2-1.6
			c-4.6-1.4-17.7-9.8-20.4-16.9C484.5,604.6,486.5,592.5,491.9,586.2 M489.6,584.3c-5.8,6.8-8.5,20.1-6.4,25.5
			c3.1,8.3,17.1,16.9,22.2,18.7c5.1,1.7,25.5,4,31.4,1.5c5.8-2.5,25.3-2.2,26.6-3.7c1.2-1.5,4.5-61.4,2.9-64.1
			c-1.7-2.8-22-0.1-31.9,0.7c-9.8,0.9-35,13.7-42.4,19.3C491,582.5,490.3,583.3,489.6,584.3z"/>
		<circle id="lt2" class="st12" cx="510" cy="599.6" r="4"/>
		<circle id="lt1" class="st12" cx="676.5" cy="603.4" r="3"/>
	</g>
	<g id="LeftCrus">
		<path class="st21" d="M683.5,622.4c3.4,2.9,7.1,5.5,11,7.7c5.7,2.8,19.4,5.8,24.4,6.6c5,0.8,28.8-2.9,35.1-4.9
			c6.4-2,25-5.4,32.2-5.4c7,0.1,24.4,6.6,28.4,6.2c4.1-0.4,8.9-5.8,9.4-8.7c0.4-2.9,1.5-17,1-21.1c-0.4-4.1-0.9-14.3-0.2-19.2
			s1.1-14,0.2-15.2c-0.8-1.1-9.4-5.4-10.9-1.6c-1.6,3.9-3.2,7.6-1.9,12.8c0,0-2.5,13.3-5,16.9c-2.5,3.8-8,12.9-14,13.1
			s-94-13.9-97-14.2s-16.4-1.3-21-3c-4.7-1.8-7.1-1-7.6,1.4C665.6,602,683.5,622.4,683.5,622.4z"/>
		<path class="st22" d="M820.4,598.1c-2.7,0.9-4.8,3.4-5,6.3c-0.5,3.9,2,14.3-0.6,18.1c-2.5,3.8-5.1,0.2-11.8-1.8
			c-6.8-2-19.4,1.2-30.4,0.6c-11.1-0.7-42.1,4.9-42.1,4.9c-4.1,0.4-23.9-2.4-30.7-4.5c-5.8-1.8-11.1-6.7-12.9-8
			c-1.8-1.3-11.1-0.7-11.1-0.7c2.4,3.2,4.9,6.4,7.7,9.2c3.4,2.9,7.1,5.5,11,7.7c5.7,2.8,19.4,5.8,24.4,6.6s28.8-2.9,35.1-4.9
			c6.3-2,25-5.4,32.2-5.4c7,0.1,24.4,6.6,28.4,6.2c4.1-0.4,8.9-5.8,9.4-8.7c0.4-2.9,1.5-17,1-21.1c-0.2-1.5,0-3.4-0.1-6.1
			L820.4,598.1z"/>
		<path class="st23" d="M678.6,617.2c4.5,3.7,10.7,9.6,16.4,12.5s19.5,5.3,24.4,5.5c5.5,0.2,28-1.4,34.4-3.6c6.4-2,25-5.4,32.2-5.4
			c7,0.1,24.4,6.6,28.4,6.2c4.1-0.4,8.9-5.8,9.4-8.7c0.4-2.9,1.5-17,1-21.1c-0.5-4.1-0.9-14.3-0.2-19.2s1.1-14,0.2-15.2
			c-0.8-1.1-9.4-5.4-10.9-1.6c-1.6,3.9-3.2,7.6-1.9,12.8c0,0-2.5,13.3-5,16.9c-2.5,3.8-8.7,11.8-14.9,12
			c-6.1,0.1-93.1-12.7-96.1-13.1s-16.4-1.3-21-3c-4.7-1.8-9.3,1.3-9.3,1.3"/>
		<circle id="lc2" class="st12" cx="673.3" cy="602.7" r="3"/>
		<circle id="lc1" class="st12" cx="810.5" cy="617.9" r="3"/>
	</g>
</g>
<g id="Torso">
	<path class="st21" d="M372.1,427.2c0,0,3.3,8.8,14.6,13.8c11.3,4.9,21.1-7.8,26.5-9.9c3.6-1.4,17.7,4.8,33.5,10.6
		c3.8,1.4,10.9,7.1,14.5,12.4c8.8,13.1,6.9,23.1,11.5,39.1c3.9,13.7,16,31.2,27.3,39.9c20.8,16,27,10.2,40.5,15.4
		c2.5,1,1.3,8.5,2.3,11.8c2.7,9.6,9.2,37.3,9.4,55.1c0,4.7-1.9,9.1-7.1,10.9c-17.1,5.8-27.2-0.7-43.4-4.3c-4.8-1-12.4,0.8-15.3-3.9
		c-9.5-15.5-15.7-37.9-33.2-50.4c-22.8-16.3-62.9-33.8-62.9-33.8c-14.6-4.9-27.2-14.6-35.7-27.4c-7.1-10.5-0.4-30.6-0.7-43.4
		c-0.2-12.8-29.8-31.8-29.8-31.8s1.3-2.9,1.6-3.8c1.3-2.7,4.6-2.7,10.1-4.9s19.6-2.6,22.6-1.5C361.4,422.2,372.1,427.2,372.1,427.2z
		"/>
	<path class="st22" d="M416.2,524.2c-7-4.1-12.8-16.2-16.8-19.2c-4-3-10.5-9.3-17.7-9.8c-7.2-0.5-23.9-8.3-23.4-15.5
		c0.5-7.2,2.2-16-0.7-22c-2.9-6-10-16.5-15.6-20.8c-5.6-4.3-10.5-9.3-14.3-11c-3.8-1.6-7.6,1.7-7.6,1.7s33.1,24.2,33.5,32.7
		c0.4,8.5-2.7,33.7-1.9,36.9c0.8,3.2,1.6,21.8,29.5,33c27.9,11.2,56,27.4,56,27.4s15.7-14,20.9-17.6c5.2-3.5,23-3.7,30.6-0.4
		s20.9,12.2,29.5,12.5c8.6,0.3,17.9,0.5,19.4,11.7c1.5,11.2,2.3,28.2-1,35.8s15.6,15.8,15.6,15.8s-1.6-28.9-5.1-39.3
		c-3.5-10.4-7.1-27.9-18.2-30.4s-14.9-2.9-21.8-7.8c-6.8-4.9-25.4-20.3-27.9-28.5s-9.6-18.7-10.7-35.3c-1.1-16.6-13.1-26.5-15.9-29
		c-2.8-2.6-39.1-10.3-41.6-10.2c-2.5,0.1-7.6,3-9.2,4.1s-9.2,3.8-12.2,2.9c-3-0.9-9.5,2.8-6.3,5.2c3.2,2.4,14.8-1.2,27.6-1.5
		c12.8-0.2,23,1.3,27.9,6.3c4.9,5.1,20.1,23,16.6,34.2c-3.5,11.2-18.1,41.6-25.9,41.9C424.7,528.3,420.1,526.9,416.2,524.2z"/>
	<path class="st23" d="M325.7,432.6c0,0,28,17.7,28.2,30.5c0.2,12.8-6.4,32.9,0.7,43.4c8.5,12.9,21.1,22.5,35.7,27.4
		c0,0,40.1,17.6,62.9,33.8c17.7,12.6,24.4,34.5,34.1,50c2.7,4.5,9.1,2.9,13.7,4.3c11.2,3.5,17,4.8,29.1,4.7
		c11.4-0.1,16.9,2.5,20.7-5.6c5.2-11-3.9-34.4-2.6-47.4c0.9-9.4,1.3-11.6,0.4-18.6c-0.8-5.7-6.4-6.4-10.4-7.5
		c-11-2.8-20.1-0.8-38.1-14.7c-11.3-8.7-23.4-26.2-27.3-39.9c-4.7-16.1-2.7-26-11.5-39.1c-3.5-5.2-10.6-10.9-14.5-12.4
		c-15.7-5.8-35.7-7.7-39.3-6.3c-5.4,2.1-9.3,10.5-20.7,5.6c-11.3-4.9-14.6-13.8-14.6-13.8"/>
	<path d="M479.7,511.4c-4.2,4.6-34.3,31.5-46.6,42.5c-4.9-1.4-29.7-13-48.7-23.2c-4.8-2.4-9.4-5.6-13.4-9.2
		c-1.6-1.5-3.4-2.9-5.4-4.1c-13.2-7.9-13.1-23.5-12.5-29.7c0.5-4.6,2.5-9.2,6.2-14c1.3-1.7,2.6-3.3,4.2-4.8
		c5.1-5.4,16.1-5.8,25.6-6.2c1.3,0,2.6-0.1,3.9-0.2c2.9-0.2,6.5,0.8,10.2,1.8c7.8,2.1,17.4,4.6,26.3-1c2.9-2,5.5-4.5,7.6-7.4
		c3-4.1,5.7-8.4,7.9-12.9c2.9,1.5,9.8,5.1,12.4,8.9c0.5,0.8,1.1,1.6,1.6,2.4c3.3,4.8,7.6,10.9,7.9,17.7l0,0.1
		c0,6.8,1.2,13.5,3.5,19.9c1.7,4.3,3.6,8.4,5.8,12.5C477.7,507,478.9,509.6,479.7,511.4z M361.1,476.5c-2.9,3.8-4.5,7.5-4.8,11
		c-0.5,7.9,4.2,14.2,11.6,21.2c7.6,7.1,21.1,7.6,30.1,8l0.4,0.1c5,0.2,14.4-0.8,20.7-8.9c1.3-1.7,2.4-3.6,3.2-5.6
		c4.4-10.6,3.2-16.5-4.7-23.9c-7.7-7.2-17.7-10.3-25.8-12.7c-9.2-2.8-20.3,0.7-25.7,5.6C364.4,472.7,362.7,474.5,361.1,476.5z"/>
	<path d="M360.5,474.5L360.5,474.5c1.3-1.7,2.6-3.2,4.1-4.7c1.6-1.6,3.6-2.7,5.6-3.3c-1.8,0.9-3.4,2-5,3.4c-2,1.8-3.7,3.7-5.3,5.8
		c-3.1,4-4.7,8-5,11.8c-0.5,8.6,4.4,15.1,12.1,22.3c8.1,7.6,21.9,8,31,8.3l0.5,0c5.3,0.2,15.2-0.8,21.9-9.5c1.4-1.8,2.6-3.8,3.4-6
		c4.6-11.2,3.3-17.6-5.1-25.6c-7.9-7.5-18.1-10.5-26.3-13c0.1,0,0.4-0.1,0.6,0c2.6-0.1,6.1,0.8,9.9,1.8c8.1,2.2,18.1,4.8,27.4-1.2
		c3.1-2.2,5.8-4.8,7.9-7.8c2.8-3.8,5.3-7.7,7.4-11.9c3.5,1.8,8.5,4.8,10.5,7.7c0.5,0.8,1.1,1.6,1.7,2.4c3.3,4.7,7.4,10.4,7.6,16.9
		l0,0.1c0,6.9,1.2,13.8,3.6,20.3c1.7,4.3,3.8,8.6,6,12.8c1.2,2.3,2.3,4.4,3,6.1c-5.3,5.4-29.3,26.9-45.2,41.1
		c-5.9-2-28.7-12.7-47.6-22.9c-4.7-2.4-9.2-5.4-13.1-9.1c-1.7-1.6-3.6-3-5.6-4.3c-12.5-7.5-12.4-22.3-11.8-28.3
		C355,483.4,357,479.1,360.5,474.5 M358.1,472.6c-3.7,4.8-6,9.8-6.6,14.8c-0.7,6.8-0.6,22.8,13.2,31.2c5.3,3.2,6.8,7,18.9,13.4
		c19.2,10.2,46.5,23.1,49.8,23.5c0,0,44.6-39.5,47.7-43.5c0.1-0.2,0.2-0.2,0.1-0.3c-1.5-4.3-6.9-13.1-9.6-20.4
		c-2.2-6.3-3.4-12.8-3.4-19.5c-0.3-8.5-6.3-15.7-9.7-20.8c-3.5-5.2-14.4-10-14.4-10c-2.3,5-5.2,9.7-8.4,14.1c-2,2.8-4.5,5.1-7.2,7.1
		c-12.5,8.1-26.6-1.5-35.8-1c-10.6,0.5-24.2,0.3-30.5,6.8C360.9,469.4,359.6,471,358.1,472.6L358.1,472.6z M418.1,506.7
		c-4.9,6.4-12.5,8.6-19.4,8.4c-8.6-0.3-22.2-0.7-29.5-7.5c-7.3-6.9-11.7-12.7-11.2-19.9c0.3-3.7,2.1-7.2,4.4-10.2
		c1.5-1.9,3.1-3.7,4.9-5.3c5.4-4.9,16.1-7.8,24.3-5.3c8.2,2.5,17.8,5.5,25.2,12.4c7.2,6.8,8.7,11.7,4.3,22.3
		C420.2,503.3,419.2,505.1,418.1,506.7L418.1,506.7z"/>
	<path d="M549.8,623c-2.4,3.2-6.1,4.9-10.8,4.8c-12,0-19.6-2.1-27.6-4.3c-2.7-0.7-5.6-1.5-8.6-2.2c-1.8-0.4-3.8-0.6-5.7-0.8
		c-4.3-0.5-9.6-1.2-11-3.3c-2.9-4.5-5.2-9.3-6.9-14.4c3.3-3.8,20.7-23.6,27.3-30.8c1.4-1.5,3-3.5,4.9-5.8c5.5-7.1,11.2-16,12.9-18.7
		c3.3,0.4,14.2,2,20.7,4.1c3.2,1.1,2.7,8.9,2.1,15.7c-0.5,5.9-0.9,11.4,0.4,15.1c0.9,2.2,1.5,3.9,2.1,5.4c3.3,8.2,3.4,8.4,2.8,26.9
		C552.6,617.6,551.6,620.5,549.8,623z"/>
	<path d="M481.1,603.1c4.3-5,20.4-23.3,26.8-30.1c1.4-1.5,3.1-3.5,4.9-5.9c5.1-6.7,10.3-14.7,12.5-18c4,0.5,13.7,1.9,19.5,3.9
		c2.1,0.7,1.5,9.1,1,14.1c-0.5,6.1-1,11.7,0.6,15.7c0.9,2.2,1.5,3.9,2.1,5.4c3.3,8.1,3.3,8.1,2.7,26.3c-0.1,2.7-0.9,5.5-2.6,7.6
		c-2.1,2.8-5.4,4.3-9.6,4.2c-11.8,0-19.2-2-27.2-4.3c-2.8-0.8-5.6-1.5-8.7-2.3c-2-0.4-3.9-0.7-5.9-0.9c-3.3-0.4-8.9-1-9.9-2.6
		C484.9,612.2,482.7,607.7,481.1,603.1 M477.7,602.4c1.7,5.5,4.1,10.7,7.2,15.5c2.5,3.8,12.2,3.5,17.5,4.8
		c11.8,2.7,20.1,6.6,36.5,6.6c5.6,0,9.5-2.2,12-5.4c2-2.8,3.1-6,3.2-9.4c0.7-22.2,0.4-18.6-5-32.9c-3.1-8.1,4-29.2-3.4-31.6
		c-8-2.6-22-4.3-22-4.3s-6.8,10.9-13.3,19.4c-1.6,2.1-3.2,4.1-4.8,5.8C498.2,579,477.7,602.4,477.7,602.4z"/>
	<g id="Targets">
		<circle id="ruaTorso" class="st12" cx="381.1" cy="485.3" r="4"/>
		<circle id="headTorso" class="st12" cx="343.6" cy="422.4" r="4"/>
		<circle id="luaTorso" class="st12" cx="400.5" cy="448.5" r="4"/>
		<circle id="rtTorso" class="st12" cx="513.9" cy="606.2" r="4"/>
		<circle id="ltTorso" class="st12" cx="528.5" cy="587.2" r="4"/>
	</g>
</g>
<g id="Layer_7">
	<g id="RightCrus">
		<path class="st21" d="M631.2,506.8c-1.6,4.2-2.7,8.5-3.3,13c-0.6,6.2,1.4,20.2,2.6,25.1c1.1,4.8,12.9,25.8,17.2,30.9
			c4.3,5.1,14.1,21.5,16.6,28c2.5,6.6,2.6,25.1,4.4,28.7c1.8,3.8,8.6,6.4,11.5,5.7c2.9-0.6,16.3-4.7,20.1-6.5
			c3.8-1.8,13.1-6,17.9-7.1c4.9-1,13.5-4,14.2-5.3c0.7-1.3,1.7-10.6-2.5-10.7c-4.2-0.1-8.2-0.1-12.7,2.8c0,0-13.3,2.4-17.6,1.4
			c-4.4-1.1-15-2.7-17.2-8.4c-2.3-5.6-20.8-92.8-21.4-95.7c-0.6-2.9-4.6-15.6-4.7-20.6c-0.1-5-1.8-6.9-4-6.7
			C643.9,482.9,631.2,506.8,631.2,506.8z"/>
		<path class="st22" d="M703.1,625.9c-1.9-2.2-4.8-3.2-7.7-2.3c-3.9,0.9-12.9,7-17.2,5.9c-4.4-1.1-2-4.7-2.6-11.7
			c-0.6-7.1-8-17.7-11.5-28.2c-3.4-10.6-19.7-37.5-19.7-37.5c-1.8-3.8-6.4-23.2-6.7-30.3c-0.4-6,2.3-12.7,2.7-15
			c0.5-2.1-3.4-10.6-3.4-10.6c-2.2,3.4-4.1,6.9-5.8,10.5c-1.6,4.2-2.6,8.6-3.2,13c-0.6,6.2,1.4,20.2,2.6,25.1
			c1.1,4.8,12.9,25.8,17.2,30.9c4.3,5.2,14.1,21.5,16.6,28c2.5,6.6,2.6,25.1,4.4,28.7c1.8,3.8,8.6,6.4,11.5,5.7
			c2.9-0.6,16.3-4.7,20.1-6.5c1.4-0.7,3.2-1.2,5.6-2.3L703.1,625.9z"/>
		<path class="st23" d="M634.4,500.4c-1.9,5.4-5.1,13.5-5.9,19.8s2,20.1,3.6,24.8c1.7,5.2,11.3,25.6,15.7,30.8
			c4.3,5.2,14.1,21.5,16.6,28c2.5,6.6,2.6,25.1,4.4,28.7c1.8,3.8,8.5,6.3,11.5,5.7s16.3-4.7,20.1-6.5c3.8-1.8,13.1-6,17.9-7.1
			c4.9-1,13.5-4,14.2-5.3c0.7-1.3,1.7-10.6-2.5-10.7c-4.2-0.1-8.2-0.1-12.7,2.8c0,0-13.3,2.4-17.6,1.4c-4.4-1.1-14.3-4-16.6-9.6
			c-2.3-5.6-21.6-91.5-22.2-94.4s-4.6-15.6-4.7-20.6c-0.1-5-4.6-8.3-4.6-8.3"/>
		<circle id="rc2" class="st12" cx="645.1" cy="492.7" r="4"/>
		<circle id="rc1" class="st12" cx="680.9" cy="622" r="4"/>
	</g>
	<g id="RightThigh">
		<path class="st21" d="M550.7,603.4c2.5-5.5,5.3-10.4,13.9-17.9c8.6-7.5,17.9-18.1,28.4-25.9c10.5-7.7,19.9-18.3,32.3-28
			c12.4-9.8,23-16.5,27.5-23.7c4.6-7.2,6.3-12.3,4-17.2c-2.2-4.9-7.5-3.4-11.3-8.1c-3.8-4.7-9.4-2.6-16,3.8
			c-6.6,6.4-23.3,11.4-37,17.4c-13.7,5.9-38,17.4-47.4,26.1c-9.4,8.6-23.6,20.6-29.2,28.8c-5.5,8.3-15.9,19.2-18.3,29.2
			c-2.4,10.2-3.8,20.3,4.9,29.7c6.9,7.6,11.7,11.3,26.5,7.3C543.8,621,547.8,610,550.7,603.4z"/>
		<path class="st22" d="M503.4,618.4c6.8,6.6,11.5,10.2,25.7,6.4c14.7-3.9,25.4-11.8,28.4-18.3c2.5-5.5,1.4-9,10-16.7
			c8.5-7.6,18.8-19.2,29.3-26.9c10.6-7.6,16.1-21.6,28.6-31.4c12.5-9.8,23-16.5,27.5-23.7c4.5-7.4,3.3-4.7,4.9-9.8
			c0,0-3.1-1.8-5.1-0.6c-2,1.2-11.8,3.8-14.5,7.9c-2.7,4.2-12.9,17.9-16.7,21.2c-3.8,3.3-40.3,43.6-43.3,43.8
			c-3.1,0.2-4.9,1.3-8.2-2.5c-3.3-3.8-21.4-20.6-22.7-25.6c-1.4-4.9-3.7-11-3.7-11s-17,15.7-19.9,18.3s-21.6,26.5-23.2,31.3
			C499.1,585.7,490.2,605.6,503.4,618.4z"/>
		<path class="st23" d="M644.8,478.3c-5.4,0.5-9.2,1.9-15.4,8c-6.6,6.4-23.3,11.4-37,17.4c-13.7,5.9-38,17.4-47.4,26.1
			c-9.4,8.6-23.6,20.6-29.2,28.8c-5.5,8.3-15.9,19.2-18.3,29.2c-2.4,10.2-5.8,20.3,2.9,29.8c6.9,7.6,14.6,15.4,29.5,12.5
			s24.8-14,27.8-20.7c2.5-5.5,4.8-14.3,13.3-21.7c8.5-7.4,16.1-14.9,25.2-24.2c10.3-10.7,16.7-22,29.1-31.9
			c12.5-9.9,21.9-17.4,27.5-23.7c2.8-3.1,4.9-9.5,5.3-10.4"/>
		<path d="M535.5,536.2c3.9,2.7,37.3,41,40.8,47c-1.4,1.2-2.8,2.4-4.3,3.5c-4.2,3-9.2,7-10.9,10.6c-2,4.7-9.1,19.4-14,24.1
			c-2.8,2.6-12,7.8-15.5,8.7c-3.7,0.9-10.9-0.3-18-2.9c-1.5-0.6-3.2-1.3-4.6-2c-5.2-2.5-12.2-15.7-11.9-24.8
			c0.2-9.2,10.7-34.9,17.1-42.3c1.1-1.1,2.2-2.5,3.5-3.9C522.7,548.5,532.8,536.8,535.5,536.2z"/>
		<path d="M513.3,628.5l1-2.8c-1.5-0.6-3-1.2-4.4-1.8c-4.7-2.2-11.4-15.1-11.1-23.4c0.3-9.1,10.5-34.2,16.7-41.3
			c1.1-1.1,2.2-2.5,3.5-3.9c4.3-5,13-15.1,16.5-17.3c6.1,5.3,33.5,37.4,39,44.9c-0.9,0.7-2.2,1.8-3.2,2.4
			c-4.3,3.2-9.5,7.2-11.4,11.3c-1.9,4.5-9,19.1-13.6,23.6c-2.8,2.6-11.9,7.5-14.8,8.3c-3.4,0.9-10.5-0.3-17.1-2.8L513.3,628.5
			 M513.3,628.5c7,2.5,14.6,3.9,18.8,2.8c3.4-0.9,13-6.1,16.1-9c5.3-5.1,12.8-20.9,14.3-24.5c2.5-5.8,15.5-12.7,15.5-14.7
			c-0.2-2-38.7-47.2-42.2-48.5l0,0c-3-0.8-16.1,15.1-22.7,22.4c-6.6,7.4-17.1,33.2-17.4,43.2c-0.2,9.3,6.9,23.5,12.8,26.2
			C510,627.3,511.7,628,513.3,628.5L513.3,628.5z"/>
		<circle id="rt2" class="st12" cx="523.3" cy="600.5" r="4"/>
		<circle id="rt1" class="st12" cx="646.9" cy="490.4" r="4"/>
	</g>
</g>
<g id="Layer_8">
	<path class="st21" d="M377.5,444.7c0,0-18.8,2.4-21,0.2c-2.2-2.3-16.7-20.8-19-20.8c-2.2,0-12.6,3.9-15.7,2s-8.8-9.1-9.7-13.1
		c-0.8-4,2.4-11.1,5.1-12.5c2.7-1.3,9.4-1.2,13.4,0.2c4,1.4,9.9-4.8,10.4-8.4c0.5-3.6,2-14.3,5.2-19.2c3.2-4.9,4.7-13.4,9.6-14.6
		c4.9-1.3,17-1.6,19.2,0.7s7.1,7.7,8.3,12.6c1.3,4.9,0.7,13,2,15.7c2.6,5.4,9.3,5.5,12,8.7c2.6,3.2,0.8,6.3-0.6,8
		c-0.9,1.1-2.7,3.5-1.4,6.2c1.3,2.7,4.8,7.7,3.4,11.7c-1.2,3.3-0.1,8.9,0.7,10.7c2.2,4.5-2.4,8.9-5.1,10.2
		C392.7,444,377.5,444.7,377.5,444.7z"/>
	<path class="st22" d="M384.6,444.3c-3.8,0.3-7.1,0.4-7.1,0.4s-18.8,2.4-21,0.2c-2.2-2.3-16.7-20.8-19-20.8c-2.2,0-12.6,3.9-15.7,2
		s-8.8-9.1-9.7-13.1c-0.8-4,2.4-11.1,5.1-12.5c2.7-1.3,9.4-1.2,13.4,0.2c4,1.4,9.9-4.8,10.4-8.4c0.5-3.6,2-14.3,5.2-19.2
		c3.2-4.9,4.7-13.4,9.6-14.6c3.5-0.7,7-1.1,10.7-0.9c0,0-12.4,30.7-5,49.3C371,431.2,384.6,444.3,384.6,444.3z"/>
	<path class="st23" d="M377.5,444.7c0,0-18.4,2-21,0.2c-6.6-4.6-16.7-20.8-19-20.8c-2.2,0-12.6,3.9-15.7,2s-8.8-9.1-9.7-13.1
		c-0.8-4,2.4-11.1,5.1-12.5c2.7-1.3,9.4-1.2,13.4,0.2c4,1.4,9.9-4.8,10.4-8.4c0.5-3.6,2-14.3,5.2-19.2c3.2-4.9,4.7-13.4,9.6-14.6
		c4.9-1.3,17-1.6,19.2,0.7s7.1,7.7,8.3,12.6c1.3,4.9,0.7,13,2,15.7c2.6,5.4,9.3,5.5,12,8.7c2.6,3.2,0.8,6.3-0.6,8
		c-0.9,1.1-2.7,3.5-1.4,6.2c1.3,2.7,4.8,7.7,3.4,11.7c-1.2,3.3-0.1,8.9,0.7,10.7c2.2,4.5-2.4,8.9-5.1,10.2
		C392.7,444,377.5,444.7,377.5,444.7z"/>
	<path class="st24" d="M328.8,408.3c0-2.2-8.6-4.6-7.7,4.8c0.8,8.5,7.2,7.3,8,5"/>
	<path d="M384.8,382.9l3.5,9.4c0,0-39.3,14.3-48,8.7c-14.3-9.2,28.4-47,28.4-47s8.7,8,11.3,11.5C382.6,369,384.8,382.9,384.8,382.9z
		"/>
	<path class="st6" d="M285.6,392.5c0,0,4.5,0.1,6.2,3.7c1.7,3.6,1.6,14.8,4.6,21.1c3,6.3,8.3,14.9,14.9,19.4
		c6.6,4.6,14.6,9.6,17.8,9.2c3.1-0.4,6.6-2.4,6-4.8c-0.6-2.4-4-11.7-8-13.1s-8.5-1.5-13.3-9.1s-1.6-17,2-18.8s12.1-2.5,15.2-0.7
		c3.1,1.8,25.2-12.2,31.1-20.6c5.9-8.4,15.1-21.7,12-25.8c-3.1-4.1-12.8-10.5-20.9-8.8s-19.3,3.8-26.5,7.2
		c-7.2,3.5-19.4,14.9-21.3,20.3s-14.8,6.1-14.8,6.1L285.6,392.5z"/>
	<circle id="h1" class="st12" cx="349.8" cy="427.6" r="4"/>
	<circle id="h2" class="st12" cx="272.1" cy="381.8" r="4"/>
	<path class="st25" d="M371.3,361.6c0,0-15.6-4.7-21-4.3s-23.8,8.2-23.8,8.2s8.9,2.4,10.7,3.7s-8.5,0.8-15.2,2.9
		c-3.9,1.2-7.4,3.3-10.4,6.1c0,0,7.6,1.9,10.3,0.6c2.7-1.3,7.6-0.3,7.6-0.3l-12.6,6.1c-2.6,1.5-5.2,3.1-7.7,4.8l8,2.8
		c0,0-8.1,1.7-9.9,2.6c-1.8,0.9-5,5.7-5,5.7l5.3,1.9c-0.8,0.9-1.4,2-1.8,3.1c-0.5,1.3-0.1,4.5-0.1,4.5l-4.4-4.5c0,0,5.2,13,7.4,15.3
		s8.9,6.8,11.5,10c1.7,2.1,2.9,4.6,3.5,7.2c0,0-5.3-6.3-8.4-5.9c-2.1,0.3-3.9,1.2-5.4,2.6c0,0,9,8.8,11.3,8.3
		c2.3-0.5,8.6,3.2,10.4,2.3c1.8-0.9,5-3.5,1.9-7.6c-2.1-3-4.1-6.1-5.7-9.5c0,0-6.8-1.6-8.5-3.3c-1.7-1.7-7.6-7.4-7.7-12
		c-0.1-4.6,0.6-11,3.2-12c2.7-0.9,11.2-4.1,15.7-1.8c4.4,2.3,14.3-4.6,14.3-4.6s15.5-12.8,17.9-16.3
		C365.2,374.6,371.3,361.6,371.3,361.6z"/>
	<path class="st26" d="M285.6,392.5c0,0,4.5,0.1,6.2,3.7c1.7,3.6,1.6,14.8,4.6,21.1c3,6.3,8.3,14.9,14.9,19.4
		c6.6,4.6,14.6,9.6,17.8,9.2c3.1-0.4,6.6-2.4,6-4.8c-0.6-2.4-4-11.7-8-13.1s-8.5-1.5-13.3-9.1s-1.6-17,2-18.8s12.1-2.5,15.2-0.7
		c3.1,1.8,25.2-12.2,31.1-20.6c5.9-8.4,15.1-21.7,12-25.8c-3.1-4.1-12.8-10.5-20.9-8.8s-19.3,3.8-26.5,7.2
		c-7.2,3.5-19.4,14.9-21.3,20.3s-14.8,6.1-14.8,6.1L285.6,392.5z"/>
	<g id="HairBand">
		<line class="st27" x1="287.2" y1="396.7" x2="294.2" y2="374.5"/>
		<line class="st27" x1="284.1" y1="392.7" x2="288.8" y2="374.8"/>
		<line class="st27" x1="276.9" y1="393.9" x2="283.9" y2="371.7"/>
		<line class="st27" x1="271.6" y1="392.1" x2="277.6" y2="372.5"/>
	</g>
</g>
<g id="Layer_9">
	<path class="st6" d="M157.6,487.6c3.9-4.4,2.4-9.1,2.6-18.6s8.9-18.5,19.9-30.3s13.7-20,14.7-26.6c1.1-6.6,13.4-24.1,20.9-33.8
		s23.7-17.9,33.3-24s23.4-2.1,27.5,0.8c4.1,2.9,5.8,11.8,3.5,14.6c-2.3,2.8-10.3,24.2-9.4,27c0.9,2.9-6.4,23-11,28.6
		c-4.5,5.6-13.5,10.5-19,16.4c-3.6,3.9-8.3,14.5-11.2,21.3l-0.4,2.2c-0.1,5.4-0.5,10.7-1.3,16.1c-1.1,6.6-10.9,22.3-14.8,29.8
		c-3.9,7.5-15.6,20.6-15.6,20.6s1.7-7.9,1.8-11c0.1-3.2-2.1-6.7-2.1-6.7s-5.3,13.2-8.9,21.7c-3.6,8.5-18.5,24.6-27.2,33.6
		c-8.7,9-23.4,18.8-34,25.3c-1.8,1.1-6.1,4-6.1,4c-1.5,1.6-2.4,2.4-2.9,4.1c-1.7,4.7-4.8,8.6-9.1,11.2c-3.9,2.3-7.3,5.4-9.7,9.3
		c-1.3,2.5-26.7,22-28.5,19.4c-1.8-2.6,3.5-35.7,5.3-46.7c1.8-11,14-22.2,17.9-26.5c3.9-4.4,17-12.6,22.8-17.6s22.7-14.4,26.2-16.6
		c3.5-2.1,3.3-9.4,3.3-9.4s-8.6,2.7-10.4,0.1c-1.8-2.6-6.6-1.1-9.5-0.2c-2.9,0.9-5.2,6.9-6,0.8c-0.8-6,5.3-10,7.2-13.8
		c2-3.8,8.5-13.1,12.6-16.5C144.6,492.8,154.4,491.3,157.6,487.6z"/>
	<path class="st28" d="M122.1,520.2c0,0,7.5-5,13.1-3.6c5.7,1.4,5.6,4.5,8.5,3.6s6.7-5.2,9.2-3.9c2.5,1.3,2.4,4.5-0.5,8.5
		c-2.9,4.1-5.5,9.1-5.9,11.3c-0.4,2.2-6.8,8.4-10,8.4c-2-0.1-4-1-5.5-2.4c0,0,13.2-6.3,13.9-10.7c0.7-4.4,0-5.6-3.2-4.5
		c-2.6,0.8-5.4,0.6-7.8-0.5c-3.5-1.8-7.8-1.2-10.6,1.5C119.1,532.1,122.1,520.2,122.1,520.2z"/>
	<path class="st28" d="M160.1,478.7c0,0,7.7-8.9,10.6-13c2.9-4.1,9-8.1,9.4-10.3c0.4-2.2,2-3.8,4.2-3.4c2.2,0.4,1.1,7-0.8,10.7
		s-6.6,12.5-10.7,15.9c-2.4,2-5.2,3.4-8.2,4.1L160.1,478.7z"/>
	<path class="st28" d="M132.7,561.6c0,0,2.7-4.2,4.2-2.6c1.6,1.6-3.1,13.5-2.5,15.5c0.6,1.9,0.2,4.1,2.8,2.3s24.4-19.1,30.3-30.4
		c5.9-11.3,24.9-47.6,24.4-52.7c-0.5-5.1-0.5-8.2,1.7-7.9c2.2,0.4,3.7,5.1,3.6,8.3s2.3,10.8,3.9,12.4s14.3-21.2,14.5-30.7
		c0.2-9.5,3.5-35.7,5.2-40.4c1.7-4.7-0.7-15.5,3.2-16.7s5.2,9.9,8.6,10.9c3.5,1,16-12.3,21.3-22.4c5.3-10,10-28.3,13.2-31.4
		c3.2-3.1,9.6,0.2,9.6,0.2s-7.8,29.7-9.9,34.4c-2.1,4.7-7.1,18.5-20.6,26c-13.5,7.6-16.9,29-17.9,36.4c-0.9,7.4-9.9,31.9-18.6,43.1
		c-8.7,11.2-11.6,14.6-11.6,14.6s1.3-12.2-0.2-13.8c-1.6-1.6-3.5-1-4.2,3.4c-0.7,4.4-6.7,22-19.3,35.4c-12.6,13.4-33.6,31.6-46,37.9
		c-12.4,6.4-22,7.9-22,7.9s11.8-9.9,16.8-19.6C128.5,572.2,132.7,561.6,132.7,561.6z"/>
	<path class="st28" d="M75,602.9c1.4,1.8,2.1,4,2.2,6.2c0.2,4.1,0.1,13.6,3.5,14.6c3.5,1,20.5-14.8,22.5-18.6s15-5.7,15-5.7
		c-3.3,7.8-8.7,14.7-15.7,19.6c-11.4,7.8-23.2,21-27,22c-3.8,1.1-5.1-1.6-5.1-1.6L75,602.9z"/>
	<path class="st29" d="M224.7,437.4c0,0,2.9,12.7,2.9,15.9l-0.3,15.8c0,0,8-21.4,13.5-27.3c5.5-5.9,14.4-10.8,19-16.4
		c4.5-5.6,11.9-25.7,11-28.6c-0.9-2.9,7.1-24.2,9.4-27c2.3-2.8,0.5-11.7-3.5-14.6c-4.1-2.9-17.9-7-27.5-0.8s-25.9,14.4-33.3,24
		s-19.8,27.1-20.9,33.8c-1.1,6.6-3.8,14.8-14.7,26.6s-19.7,20.8-19.9,30.3s0.4,14.6-2.6,18.6"/>
	<path class="st29" d="M181.2,459.3c0,0-12.1,21.6-21.7,27.7c-9.6,6.1-15,5.7-19.1,9.1c-4.2,3.4-10.7,12.8-12.6,16.5
		c-2,3.8-8.1,7.8-7.2,13.8c0.8,6,3.2,0.1,6-0.8c2.9-0.9,7.6-2.4,9.5,0.2c1.8,2.6,10.4-0.1,10.4-0.1s0.2,7.3-3.3,9.4
		c-3.5,2.1-20.5,11.6-26.2,16.6S98,565,94.1,569.3c-3.9,4.4-16.1,15.5-17.9,26.5c-1.8,11-7.2,44.1-5.3,46.7
		c1.8,2.6,27.2-16.9,28.5-19.4c2.4-3.9,5.8-7,9.7-9.3c4.2-2.6,7.4-6.5,9.1-11.2c1-3.5,6.4-6.2,6.4-6.2"/>
	<path class="st29" d="M133.8,559c0,0-13.6,33.6-20.6,37.9c-7,4.3-9.9,5.2-9.9,5.2s13.3-1,23.9-7.5s25.3-16.3,34-25.3
		c8.7-9,23.6-25.2,27.2-33.6c3.6-8.5,8.9-21.7,8.9-21.7s2.1,3.5,2.1,6.7c-0.1,3.2-1.8,11-1.8,11s11.6-13.1,15.6-20.6
		c3.9-7.5,13.7-23.1,14.8-29.8c1.1-6.6,0.7-18,0.7-18"/>
	<circle id="hair1" class="st12" cx="272.5" cy="382.6" r="4"/>
	<circle id="hair2" class="st12" cx="114.7" cy="581.7" r="4"/>
</g>
<g id="Layer_4">
	<g id="RightLowerArm">
		<path class="st21" d="M368.6,590c4.9-4.7,13.1-3.7,29.8-0.6c32.3,5.9,56.5,20.8,67.4,20.4c3.5-0.1,9.8-3,13.1-4.9
			c2.1-1.4,4.7-2,7.2-1.7c2.6,0.1,6.3,5.3,12.2,4.8c5.9-0.5,7.2-1.7,9.1,0.2c1.1,1,1.1,2.8,0,3.8l-0.1,0.1c1.9,0.5,3.4,2.1,3.8,3.9
			c0.6,3.1-3.3,3.2-3.3,3.2c1.7-0.3,3.4,0.7,3.8,2.7l0,0.1c0.6,3.1-3.3,3.2-3.3,3.2s1.9-0.5,2.5,2.6c0.6,3.1-3.9,3.8-7.2,4.3
			c-4.6,0.8-9.6,0.9-14.2-0.4c-5.3-1.5-8.3-4.8-14.2-5.6c-5.8-0.7-50.8-1.7-78.8-8.4c-27.7-6.5-32.6-8.9-35.2-14.5
			C358.6,597.8,364,594.4,368.6,590z"/>
		<path class="st22" d="M363.1,595.7c0,0,3.9,3.4,6.3,2c2.5-1.4,5.5-4.7,14.4-3.2c8.9,1.5,38.8,6,48.2,9.7
			c9.3,3.8,24.3,9.1,27.6,8.9c3.1-0.2,7.3,0,7.8,2.2c0.3,2.2,1.5,5.7,2.8,4.9c1.3-0.7,1-7,3.5-8.4c2.5-1.4,10.7-1,13.2-2.5
			c2.5-1.4,5.1-3.3,5.1-3.3s-4.5-3.1-7.5-3.3c-3.1-0.2-13,6.6-16.7,6.4c-3.7-0.2-13-1.1-19.3-4.3c-6.3-3.1-43.7-15.5-53.1-16.4
			c-9.5-0.9-20.2-3.4-23.5-1C368.8,590.3,365.9,593,363.1,595.7z"/>
		<path class="st30" d="M368.6,590c4.9-4.7,13.1-3.7,29.8-0.6c32.3,5.9,56.5,20.8,67.4,20.4c3.5-0.1,9.8-3,13.1-4.9
			c2.1-1.4,4.7-2,7.2-1.7c2.6,0.1,6.3,5.3,12.2,4.8c5.9-0.5,7.2-1.7,9.1,0.2c1.1,1,1.1,2.8,0,3.8l-0.1,0.1c1.9,0.5,3.4,2.1,3.8,3.9
			c0.6,3.1-3.3,3.2-3.3,3.2c1.7-0.3,3.4,0.7,3.8,2.7l0,0.1c0.6,3.1-3.3,3.2-3.3,3.2s1.9-0.5,2.5,2.6c0.6,3.1-3.9,3.8-7.2,4.3
			c-4.6,0.8-9.6,0.9-14.2-0.4c-5.3-1.5-8.3-4.8-14.2-5.6c-5.8-0.7-50.8-1.7-78.8-8.4c-27.7-6.5-32.6-8.9-35.2-14.5
			C358.6,597.8,364,594.4,368.6,590z"/>
		<circle id="rla2" class="st12" cx="369.1" cy="594.7" r="3"/>
		<circle id="rla1" class="st12" cx="488.6" cy="617.7" r="3"/>
	</g>
	<g id="RightUpperArm">
		<path class="st21" d="M359.6,559.6c0,0-3.6-16.6-1.3-26.8c2.1-10,5.8-38.7,8.9-45.2c3.1-6.6,6.2-11.8,11.9-12.1
			c5.7-0.4,13.7,4.3,15.3,7.6c2.1,4.3,3.9,13.5,3.6,20.4c-0.6,11.4,2.4,26.4,0.6,36.6c-3.1,17.2-11.3,29.8-12.8,39.2
			c-0.4,3.1-0.1,5.7-1.8,9.6c-1.9,4-7,7.9-9.3,11.5c-1.7,2.7,0.4,8.2-2.3,9.8c-10.4,5.9-17.2-32.1-11.9-47.3"/>
		<path class="st22" d="M397.7,499.5c0,0-3.2-1.4-4.7,1.4c-1.5,2.7-2.6,8.6-2.6,13.8c0.1,5.1,0.1,26.5-2.9,37.2
			c-3,10.7-6.6,29.3-9.1,31.9c-2.6,2.5-4.6,8.3-5.1,11.2c-0.3,2.7-0.5,5.3-0.4,8.1c0,0,0.6-1.8,4-5.4c2.6-2.5,6.4-7,6.8-8.9
			c0,0,2.3-12.6,4.8-18.4c2.5-5.7,9.4-19.7,10.3-27.1c0.9-7.5-3.3-21.3-2.2-28.3C397.4,509.8,397.8,504.6,397.7,499.5z"/>
		<path class="st23" d="M360.2,562.6c-4.7,13.8,0.1,44.6,8.5,46.7c1.2,0.2,2.5,0.4,3.7,0.4"/>
		<path class="st23" d="M384.1,589.2c0.4-3.6,1.1-7.4,1.5-10c1.5-9.3,10.4-19.9,13.4-37.1c1.7-9.6-4.5-25.2-1.5-35.9"/>
		<path class="st23" d="M362.7,573c0,0-5.9-34.4-4.8-44.6c1.2-11.1,5.6-34.5,9.3-40.7c3.5-6.4,6.2-11.8,11.9-12.1
			c3.5-0.3,4.2-0.4,7.9,1.3"/>
		<line class="st31" x1="358" y1="518.8" x2="398.3" y2="521.2"/>
		<circle id="rua1" class="st12" cx="380.6" cy="491.4" r="4"/>
		<circle id="rua2" class="st12" cx="370.6" cy="598.5" r="3"/>
	</g>
</g>
</svg>
