<?xml version="1.0" encoding="utf-8"?>
<!-- Generator: Adobe Illustrator 28.1.0, SVG Export Plug-In . SVG Version: 6.00 Build 0)  -->
<svg version="1.1" id="Layer_1" xmlns="http://www.w3.org/2000/svg" xmlns:xlink="http://www.w3.org/1999/xlink" x="0px" y="0px"
	 viewBox="0 0 1024 1024" style="enable-background:new 0 0 1024 1024;" xml:space="preserve">
<style type="text/css">
	.st0{fill:#808080;}
	.st1{fill:none;stroke:#000000;stroke-width:2.15;stroke-miterlimit:10;}
	.st2{fill:#B3B3B3;}
	.st3{fill:none;stroke:#000000;stroke-width:2.29;stroke-miterlimit:10;}
	.st4{fill:none;stroke:#000000;stroke-width:1.21;stroke-miterlimit:10;}
	.st5{fill:none;stroke:#000000;stroke-width:1.56;stroke-miterlimit:10;}
	.st6{fill:#FFFFFF;}
	.st7{fill:#808080;stroke:#000000;stroke-width:2.14;stroke-miterlimit:10;}
	.st8{fill:#B3B3B3;stroke:#000000;stroke-width:1.86;stroke-miterlimit:10;}
	.st9{fill:#B3B3B3;stroke:#000000;stroke-width:2.6;stroke-miterlimit:10;}
	.st10{fill:#808080;stroke:#000000;stroke-width:2.44;stroke-miterlimit:10;}
	.st11{fill:none;stroke:#000000;stroke-width:3.54;stroke-linecap:round;stroke-miterlimit:10;}
	.st12{fill:#FF0000;}
	.st13{fill:#B3B3B3;stroke:#000000;stroke-width:2.27;stroke-miterlimit:10.001;}
	.st14{fill:#808080;stroke:#000000;stroke-width:2.27;stroke-miterlimit:10;}
	.st15{fill:#B3B3B3;stroke:#000000;stroke-width:1.7;stroke-miterlimit:9.999;}
	.st16{fill:#808080;stroke:#000000;stroke-width:2.05;stroke-miterlimit:10;}
	.st17{fill:#B3B3B3;stroke:#000000;stroke-width:2.27;stroke-miterlimit:10;}
	.st18{fill:#B3B3B3;stroke:#000000;stroke-width:2.27;stroke-miterlimit:9.9999;}
	.st19{fill:#959595;}
	.st20{fill:#828282;}
	.st21{fill:none;stroke:#000000;stroke-width:3;stroke-linecap:round;stroke-miterlimit:10;}
	.st22{fill:none;stroke:#696969;stroke-width:5;stroke-linecap:round;stroke-miterlimit:10;}
	.st23{fill:#DEDEDE;stroke:#DEDEDE;stroke-width:2;stroke-linecap:round;stroke-linejoin:round;}
	.st24{fill:none;stroke:#000000;stroke-width:4;stroke-linecap:round;stroke-miterlimit:10;}
	.st25{fill:none;stroke:#000000;stroke-width:8;stroke-linecap:round;stroke-miterlimit:10;}
	.st26{fill:#DEDEDE;}
	.st27{fill:none;stroke:#000000;stroke-width:4;stroke-linecap:round;stroke-linejoin:round;}
	.st28{fill:none;stroke:#000000;stroke-width:3;stroke-linejoin:round;}
	.st29{fill:none;stroke:#DEDEDE;stroke-width:4;stroke-linecap:round;stroke-miterlimit:10;}
</style>
<g id="Layer_10">
	<g id="LeftLowerArm">
		<g id="Hand">
			<polygon class="st0" points="647.4,607.5 638,616.5 647.1,637.7 651,641.4 669.8,623.6 			"/>
			<polygon class="st1" points="647.4,607.5 638,616.5 647.1,637.7 651,641.4 669.8,623.6 			"/>
			<polygon class="st2" points="664.8,620 651.9,619.1 642.7,612 650.4,604.6 666.7,615 			"/>
			<polygon class="st3" points="664.8,620 651.9,619.1 642.7,612 650.4,604.6 666.7,615 			"/>
			<path class="st2" d="M664.7,613.1l7.6,4.1c1.3,0.7,1.8,2.5,1.1,3.8l-0.2,0.4c-0.7,1.3-2.5,1.8-3.8,1.1l-7.6-4.1
				c-1.3-0.7-1.8-2.5-1.1-3.8l0.2-0.4C661.7,612.9,663.4,612.4,664.7,613.1z"/>
			<path class="st4" d="M664.7,613.2l7.6,4.1c1.3,0.7,1.8,2.5,1.1,3.8l0,0l-0.2,0.3c-0.7,1.3-2.5,1.8-3.8,1.1l-7.6-4.1
				c-1.3-0.7-1.8-2.5-1.1-3.8l0,0l0.2-0.3C661.6,612.9,663.3,612.4,664.7,613.2z"/>
			<path class="st2" d="M663.6,617.7l9.9,10.4c1.1,1.1,1,3-0.1,4l-0.3,0.2c-1.1,1.1-3,1-4-0.1l-9.9-10.4c-1.1-1.1-1-3,0.1-4l0.3-0.2
				C660.7,616.4,662.5,616.5,663.6,617.7z"/>
			<path class="st5" d="M663.6,617.7l9.9,10.4c1.1,1.1,1,3-0.1,4l0,0l-0.3,0.2c-1.1,1.1-3,1-4-0.1l-9.9-10.4c-1.1-1.1-1-3,0.1-4l0,0
				l0.3-0.2C660.7,616.4,662.5,616.5,663.6,617.7L663.6,617.7z"/>
			<path class="st2" d="M672.1,618l0.4,0.1c1.5,0.5,2.3,2,1.9,3.5l-2.5,8.3c-0.5,1.5-2,2.3-3.5,1.9l-0.4-0.1c-1.5-0.5-2.3-2-1.9-3.5
				l2.5-8.3C669,618.4,670.7,617.5,672.1,618z"/>
			<path class="st4" d="M672.1,618.1l0.3,0.1c1.5,0.5,2.3,2,1.9,3.5l-2.5,8.3c-0.5,1.5-2,2.3-3.5,1.9l-0.3-0.1
				c-1.5-0.5-2.3-2-1.9-3.6l0,0l2.5-8.3C669,618.5,670.5,617.6,672.1,618.1L672.1,618.1z"/>
			<path class="st2" d="M658.3,622.7l10.7,11.2c1.1,1.1,1,3-0.1,4l-0.3,0.2c-1.1,1.1-3,1-4-0.1l-10.7-11.2c-1.1-1.1-1-3,0.1-4
				l0.3-0.2C655.4,621.5,657.2,621.5,658.3,622.7z"/>
			<path class="st5" d="M658.2,622.7l10.6,11.2c1.1,1.1,1,3-0.1,4l-0.2,0.3c-1.1,1.1-3,1-4-0.1l-10.6-11.2c-1.1-1.1-1-3,0.1-4l0,0
				l0.3-0.2C655.3,621.4,657.2,621.5,658.2,622.7L658.2,622.7L658.2,622.7z"/>
			<path class="st2" d="M653,627.7l9.9,10.4c1.1,1.1,1,3-0.1,4l-0.3,0.2c-1.1,1.1-3,1-4-0.1l-9.9-10.4c-1.1-1.1-1-3,0.1-4l0.3-0.2
				C650.1,626.5,651.9,626.5,653,627.7z"/>
			<path class="st5" d="M653,627.7l9.9,10.4c1.1,1.1,1,3-0.1,4l0,0l-0.3,0.2c-1.1,1.1-3,1-4-0.1l-9.9-10.4c-1.1-1.1-1-3,0.1-4l0,0
				l0.3-0.2C650.1,626.5,651.9,626.5,653,627.7z"/>
			<path class="st2" d="M649,633.2l8.6,9.1c0.9,0.9,0.8,2.4-0.1,3.3l-0.2,0.3c-0.9,0.9-2.4,0.8-3.3-0.1l-8.6-9.1
				c-0.9-0.9-0.8-2.4,0.1-3.3l0.2-0.3C646.6,632.3,648.1,632.3,649,633.2z"/>
			<path class="st5" d="M648.9,633.3l8.6,9.1c0.9,0.9,0.8,2.4-0.1,3.3l-0.2,0.3c-0.9,0.9-2.4,0.8-3.3-0.1l-8.6-9.1
				c-0.9-0.9-0.8-2.4,0.1-3.3l0.2-0.3C646.5,632.4,648,632.4,648.9,633.3z"/>
		</g>
		<polygon points="649.8,618.8 648.4,624.7 669,635.5 640.5,605.4 645.2,600.9 673.7,631 664.1,609.9 658.1,611 662.4,593.4 
			680.6,633.9 679.4,635 684.3,646.9 672.6,641.5 671.4,642.6 632,622.1 		"/>
		<path class="st6" d="M683.5,646.2l-11-5.1l-1.2,1.1l-38-19.8l16-2.9L648,625l23,12l-29.8-31.6l2.1-1.9l2.1-1.9l29.8,31.6
			l-10.8-23.6l-5.7,1l3.8-15.8l17.7,39.2l-1.2,1.1L683.5,646.2 M685,647.7l-0.7-1.9l-4.3-10.7l0.8-0.7l0.4-0.4l-0.3-0.5l-17.7-39.2
			l-1-2.1l-0.5,2.3l-3.8,15.8l-0.3,1.2l1.2-0.2l5.1-0.9l8.5,18.7l-26.6-28l-0.5-0.6l-0.6,0.5l-2.1,1.9l-2,2l-0.6,0.5l0.5,0.6
			l26.6,28l-18.2-9.5l1.2-5l0.3-1.2l-1.2,0.2l-16,2.9l-2.3,0.4l2.1,1.1l38,19.8l0.5,0.3l0.4-0.4l0.8-0.7l10.5,5L685,647.7L685,647.7
			z"/>
		
			<image style="overflow:visible;enable-background:new    ;" width="18" height="29" xlink:href="C17E5358.png"  transform="matrix(4.939856e-03 1 -1 4.939856e-03 585.6758 520.7309)">
		</image>
		
			<rect x="604.2" y="533" transform="matrix(0.7263 -0.6874 0.6874 0.7263 -223.5967 575.3871)" class="st7" width="13" height="70.9"/>
		
			<rect x="560.6" y="519.4" transform="matrix(0.7263 -0.6874 0.6874 0.7263 -211.8028 534.7341)" class="st8" width="10" height="27.8"/>
		
			<image style="overflow:visible;enable-background:new    ;" width="51" height="24" xlink:href="C17E5359.png"  transform="matrix(4.939856e-03 1 -1 4.939856e-03 622.8033 546.5483)">
		</image>
		
			<image style="overflow:visible;enable-background:new    ;" width="47" height="35" xlink:href="C17E535F.png"  transform="matrix(4.939856e-03 1 -1 4.939856e-03 638.7833 542.4697)">
		</image>
		
			<image style="overflow:visible;enable-background:new    ;" width="53" height="59" xlink:href="C17E535A.png"  transform="matrix(4.939856e-03 1 -1 4.939856e-03 638.813 548.4696)">
		</image>
		<path class="st9" d="M572.4,547.6l11.7-11.1c4.7-4.4,12.1-4.2,16.4,0.5l6.2,6.5l-8.1,7.7l-3.8-3.9c-1.7-1.8-4.6-1.9-6.5-0.2
			l-8.6,8.2L572.4,547.6z"/>
		<polygon class="st10" points="628.4,577.5 613.8,591.3 621.1,599 619.3,606.1 632.4,620 651.5,602 		"/>
		<line class="st11" x1="636.5" y1="601.6" x2="632.4" y2="614.4"/>
		<line class="st11" x1="632" y1="596.9" x2="627.9" y2="609.7"/>
		<line class="st11" x1="627.6" y1="592.2" x2="623.4" y2="605"/>
		<path class="st9" d="M645.3,597.3l-0.3,0.4c-1.7,1.6-4.3,1.6-5.9-0.1l-23.5-24.8c-1.6-1.7-1.6-4.3,0.1-5.9l0.3-0.4
			c1.7-1.6,4.3-1.6,5.9,0.1l23.5,24.8C647.1,593.1,647,595.7,645.3,597.3z"/>
		<circle id="lla1" class="st12" cx="565.6" cy="522.2" r="3"/>
		<circle id="lla2" class="st12" cx="654.7" cy="623.5" r="3"/>
	</g>
	<g id="UpperArm">
		
			<rect x="534.6" y="474.2" transform="matrix(0.9804 -0.1972 0.1972 0.9804 -88.173 115.899)" class="st13" width="6.2" height="52.7"/>
		<path class="st14" d="M554.9,513l-13.1,7.7c-2,1.2-3.2,3.6-2.7,6l0,0c0.5,2.4,2.3,4.1,4.7,4.4l15.1,2L554.9,513z"/>
		
			<image style="overflow:visible;enable-background:new    ;" width="87" height="116" xlink:href="C17E535B.png"  transform="matrix(0.9472 0.3205 -0.3205 0.9472 527.5829 403.3424)">
		</image>
		<path class="st14" d="M529.8,427.9l9.1,45.6c0.7,3.4-1.5,6.6-4.9,7.3l0,0c-3.4,0.7-6.6-1.5-7.3-4.9l-9.1-45.6
			c-0.7-3.4,1.5-6.6,4.9-7.3l0,0C525.8,422.4,529.1,424.5,529.8,427.9z"/>
		
			<rect x="526" y="424.6" transform="matrix(0.1185 -0.993 0.993 0.1185 68.4779 930.7429)" class="st15" width="64.8" height="4.5"/>
		<path class="st14" d="M549.6,404.8l13.1-7.7c2-1.2,3.2-3.6,2.7-6l0,0c-0.5-2.4-2.3-4.1-4.7-4.4l-15.1-2L549.6,404.8z"/>
		<polygon class="st16" points="555.1,506.6 534,401.7 545.3,399.4 557.4,459.4 561.7,501.8 		"/>
		
			<ellipse transform="matrix(0.5997 -0.8002 0.8002 0.5997 -102.1993 589.2444)" class="st17" cx="537.9" cy="396.8" rx="15.9" ry="15.9"/>
		
			<ellipse transform="matrix(0.5997 -0.8002 0.8002 0.5997 -102.1993 589.2444)" class="st14" cx="537.9" cy="396.8" rx="7.4" ry="7.4"/>
		
			<image style="overflow:visible;enable-background:new    ;" width="76" height="83" xlink:href="C17E5356.png"  transform="matrix(0.9472 0.3205 -0.3205 0.9472 519.6556 408.0499)">
		</image>
		
			<image style="overflow:visible;enable-background:new    ;" width="79" height="70" xlink:href="C17E5357.png"  transform="matrix(0.9472 0.3205 -0.3205 0.9472 512.9674 418.455)">
		</image>
		<path class="st14" d="M557.6,529.5l-4.7-23.3c-0.3-1.5,0.7-2.9,2.1-3.2l0,0l11.5-2.4c0.8-0.2,1.5,0.4,1.7,1.1l0,0l2.7,13.5
			c0.1,0.4,0,0.9-0.3,1.2l-10.6,13.5c-0.5,0.6-1.3,0.8-2,0.3C557.9,530.2,557.7,529.9,557.6,529.5z"/>
		<ellipse class="st18" cx="563" cy="521.8" rx="14.2" ry="14.2"/>
		<polygon class="st17" points="522.9,391.4 528.9,398 531.5,410.8 516.1,413.9 511.9,393.9 		"/>
		<path class="st17" d="M522.7,386l3.5,17.8c0,0-3.5,0.7-5.4,3.3c-1.8,2.7-3.2,4.1-2.4,8.1l1.4,6.7l-7.8,1.5l-6.9-33.9L522.7,386z"
			/>
		<circle id="lua2" class="st12" cx="538" cy="397" r="3"/>
		<circle id="lua1" class="st12" cx="563.2" cy="521.9" r="3"/>
	</g>
</g>
<g id="Layer_6">
	<g id="LeftThigh">
		<path class="st19" d="M511.1,602c4.1,4.3,7.6,8.8,11.5,19.5c3.8,10.8,10.2,23.4,13.5,36c3.3,12.6,9.6,25.3,14.1,40.5
			c4.5,15.2,6.7,27.4,11.8,34.4c5.2,6.9,9.2,10.4,14.6,10.1s13.6,0.3,15.5-5.5c1.9-5.7,2.1-9.8-1.3-18.3c-3.4-8.6-2-25.9-2.4-40.8
			c-0.4-14.9-2.1-41.7-6.5-53.8c-4.6-12-10.3-29.7-15.9-37.8c-5.6-8.1-12-21.8-20.4-27.8c-8.5-6-17.5-10.9-29.4-6.5
			c-9.6,3.6-14.8,6.7-16.6,21.9C497.5,589.2,506.2,596.9,511.1,602z"/>
		<path class="st20" d="M514.8,552.7c-8.6,3.9-13.7,7-15.4,21.5c-1.9,15.2,1.5,27.9,6.5,33.2c4.1,4.3,8,4.8,11.8,15.4
			c3.8,10.8,10.9,24.6,14,37.3c3.2,12.7,14,23,18.5,38.2s6.7,27.4,11.8,34.4c5.2,6.9,3.1,4.7,7.3,8.2c0,0,2.8-2.2,2.5-4.4
			s1-12.3-2-16.4c-2.9-4.1-11.7-18.6-13.3-23.4c-1.6-4.7-25.5-53.6-24.5-56.6c1-2.9,0.6-5.1,5.3-6.7c4.7-1.6,27.1-12.1,32.2-11.5
			c5.1,0.6,11.7,0.7,11.7,0.7s-8.4-21.6-9.6-25.3c-1.3-3.7-16.5-30.1-20.4-33.2C547.4,560.8,531.5,545.1,514.8,552.7z"/>
		<path class="st21" d="M592.4,736c1.5-5.1,1.5-9.3-1.7-17.3c-3.4-8.6-2-25.9-2.4-40.8c-0.4-14.9-2.1-41.7-6.5-53.8
			c-4.6-12-10.3-29.7-15.9-37.8c-5.7-8.2-12-21.8-20.4-27.8c-8.5-6-16.8-12.8-28.8-8.5c-9.6,3.6-17,7-19.8,21.9
			c-2.9,15-1.1,24.4,3.9,29.7c4.1,4.3,12,8.1,15.9,18.9c3.8,10.8,9.4,26.6,14.7,38.6c6,13.6,14.3,23.7,18.8,38.9
			c4.5,15.2,8,26.8,11.8,34.4c1.8,3.8,7,8.1,7.6,8.8"/>
		<path d="M520.3,633.4c-1.5-2.5-2.9-5.2-4.2-7.9c-2.8-5.7-6-12.3-8.6-15.1c-4.1-4.1-9.4-23.6-9.8-28.8c-0.3-5,2.7-20.8,8.6-26.3
			c4-3.7,16.6-5.8,24.5-3.2c1,0.3,1.9,0.7,2.8,1.2c7.7,4.7,28.7,23.1,33,31.6c0.7,1.3,1.4,2.9,2.4,4.6c3.5,6.7,10.5,20.4,10.1,23.2
			C575.2,615.6,526.8,632.5,520.3,633.4z"/>
		<path d="M530.4,553.7L530.4,553.7c0.8,0.3,1.7,0.6,2.5,1.1c7.6,4.7,28.4,23,32.5,31.1c0.7,1.3,1.4,2.9,2.4,4.6
			c3.1,6,9.2,17.8,10,21.7c-7.3,3.7-48.3,17.6-56.6,19.7c-0.9-1.5-2.3-4.5-3.6-6.9c-3-6.2-6.2-12.6-9-15.4c-3.5-3.5-9-22.4-9.3-27.7
			c-0.4-4.8,2.6-20.1,8.1-25.2C510.5,553.7,522.5,551.1,530.4,553.7 M531.2,550.9c-8.5-2.9-21.8-0.4-26,3.5
			c-6.5,5.9-9.4,22.1-9.1,27.5c0.4,5.4,5.7,25.2,10.3,29.7c4.5,4.4,11.4,22.7,13.3,23.4c1.9,0.6,58.7-18.6,60.6-21.1
			c1.9-2.6-8-20.5-12.4-29.4c-4.5-8.8-25.8-27.4-33.6-32.2C533.4,551.6,532.4,551.2,531.2,550.9z"/>
		<circle id="lt2" class="st12" cx="524.6" cy="575.5" r="4"/>
		<circle id="lt1" class="st12" cx="582.9" cy="731.5" r="3"/>
	</g>
	<g id="LeftCrus">
		<path class="st19" d="M561.5,729.1c-4,1.9-8,4.1-11.5,6.8c-4.9,4-13.3,15.2-16.1,19.5s-9.3,27.4-10.1,34c-0.8,6.7-5.4,25-8.4,31.6
			c-3,6.3-16.1,19.5-17.4,23.3c-1.3,3.9,1.6,10.5,4.1,12.2c2.5,1.6,14.8,8.4,18.8,9.6c3.9,1.3,13.4,5.1,17.6,7.8
			c4.1,2.7,12.3,6.8,13.7,6.4c1.3-0.3,8.8-6.3,6-9.3c-2.9-3.1-5.6-6.1-10.9-7.1c0,0-11.1-7.8-13.3-11.5c-2.4-3.8-8.5-12.6-6.1-18.2
			c2.3-5.6,51.5-79.9,53.1-82.5s8-14.3,11.4-17.8c3.6-3.5,3.9-6.1,1.9-7.5C587.4,721.3,561.5,729.1,561.5,729.1z"/>
		<path class="st20" d="M527,863.8c0.3-2.9-1.2-5.8-3.7-7.1c-3.4-2.1-13.9-4.1-16.2-8.1c-2.4-3.8,1.9-4.7,6.5-10
			c4.6-5.3,6.9-18.1,12-27.9c5.2-9.8,13-40.4,13-40.4c1.3-3.9,12.1-20.8,16.8-26c4.1-4.6,10.7-7.4,12.6-8.5c1.9-1.1,5.2-9.8,5.2-9.8
			c-4,0.9-7.8,1.8-11.6,3.2c-4,1.9-8,4.1-11.5,6.8c-4.9,4-13.3,15.2-16.1,19.5s-9.3,27.4-10.1,34c-0.8,6.6-5.4,25-8.4,31.6
			c-3,6.3-16.1,19.5-17.4,23.3c-1.3,3.9,1.6,10.5,4.1,12.2c2.5,1.6,14.8,8.4,18.8,9.6c1.5,0.5,3.1,1.4,5.6,2.4L527,863.8z"/>
		<path class="st21" d="M568.3,726.8c-5.3,2.6-13.2,5.7-18.1,9.7c-4.9,4-12.9,15.6-15.1,19.9c-2.5,5-10.3,26.1-11,32.8
			c-0.8,6.7-5.4,25-8.4,31.6c-3,6.3-16.1,19.5-17.4,23.3c-1.3,3.9,1.6,10.5,4.1,12.2c2.5,1.6,14.8,8.4,18.8,9.6
			c3.9,1.2,13.4,5.1,17.6,7.8c4.1,2.7,12.3,6.8,13.7,6.4c1.3-0.3,8.8-6.3,6-9.3c-2.9-3.1-5.6-6.1-10.9-7.1c0,0-11.1-7.8-13.3-11.5
			c-2.4-3.8-7.1-12.9-4.8-18.5c2.4-5.6,50.1-79.5,51.6-82s8-14.3,11.4-17.8c3.6-3.5,2.6-9.1,2.6-9.1"/>
		<circle id="lc2" class="st12" cx="583.6" cy="728" r="3"/>
		<circle id="lc1" class="st12" cx="513.1" cy="846.6" r="3"/>
	</g>
</g>
<g id="Torso">
	<path class="st19" d="M544.5,353.5c0,0-5,8-2,20s19,12,24,15c3.3,2,7,17,12,33c1.2,3.9,1,13-1,19c-5,15-14.1,19.5-24,33
		c-8.5,11.5-15,31.7-15,46c0,26.2,8.4,27.6,12.5,41.5c0.8,2.6-5.9,6.2-8,9c-6,8-24,30-38,41c-3.7,2.9-8.4,4-13,1c-15-10-16-22-23-37
		c-2.1-4.4-8.2-9.3-6.2-14.5c6.5-17,20.5-35.5,19.7-57c-1-28-11.5-70.5-11.5-70.5c-5-14.6-5-30.4,0-45c4-12,24-19,34-27s7-43,7-43
		s3.1-0.8,4-1c2.9-0.6,5,2,10,5s14,14,15,17S544.5,353.5,544.5,353.5z"/>
	<path class="st20" d="M494.5,447.5c-1-8,5-20,5-25s1-14-3-20s-8-24-2-28s14-8,17-14s7-18,7-25s1-14,0-18s-6-5-6-5s1,41-5.5,46.5
		s-28.3,18.4-30.4,21s-16.3,14.5-8.2,43.5s12.4,61.1,12.4,61.1s20.7,3.9,26.7,5.9s17,16,19,24s3,24,8,31S545,560,537,568
		s-21,19-29,21s-3,22-3,22s21.9-18.9,28-28s17.8-22.6,13-33s-6.8-13.6-7.1-22s0.6-32.5,5.6-39.5s9-19,21.5-30s13-26.5,13.3-30.3
		S563.6,390.9,562,389s-7-4.2-8.8-4.8s-8.6-5-9.7-7.9s-8-5.8-8-1.8s10,11,18,21s13,19,12,26s-6,30-17,34s-44,11-49,5
		C496.5,456.8,494.7,452.3,494.5,447.5z"/>
	<path class="st21" d="M512,320c0,0,3,33-7,41s-30,15-34,27c-5,14.6-5,30.4,0,45c0,0,10.5,42.5,11.5,70.5
		c0.8,21.7-12.5,40.4-18.9,57.5c-1.9,4.9,3.3,9,4.9,13.5c4,11,6.5,16.4,14,26c7,9,8.3,14.9,17,13c11.9-2.6,24.9-24.1,36-31
		c8-5,10-6,15-11c4.1-4.1,1.2-9-0.4-12.8c-4.5-10.4-11.6-16.4-11.6-39.2c0-14.3,6.5-34.5,15-46c9.9-13.5,19-18,24-33
		c2-6,2.2-15.1,1-19c-5-16-15.7-33-19-35c-5-3-14-1-17-13s2-20,2-20"/>
	<path d="M543.3,490.1c-6.2-0.5-45.9-8-62.1-11.1c-1.9-4.7-7.8-31.5-11.3-52.7c-1-5.3-1.3-10.8-0.9-16.2c0.2-2.2,0.2-4.5,0-6.8
		c-1.8-15.3,10.6-24.7,16-28c3.9-2.4,8.8-3.6,14.9-3.6c2.1,0,4.2,0.1,6.4,0.4c7.4,0.8,14.4,9.2,20.5,16.5c0.8,1,1.7,2,2.5,3
		c1.9,2.2,3.3,5.6,4.8,9.2c3.1,7.4,6.9,16.6,16.8,20.2c3.4,1.1,6.9,1.6,10.5,1.5c5.1-0.1,10.1-0.6,15.1-1.6
		c0.6,3.2,1.9,10.9,0.5,15.2c-0.3,0.9-0.6,1.8-0.9,2.7c-1.8,5.6-4,12.7-9.2,17l-0.1,0.1c-5.4,4.1-10,9.2-13.6,14.9
		c-2.4,4-4.5,8-6.4,12.2C545.6,485.8,544.3,488.4,543.3,490.1z M498.8,374.8c-4.8,0-8.7,1-11.6,2.9c-6.6,4.4-8.7,12-9.7,22.1
		c-1,10.4,6.8,21.4,12,28.7l0.2,0.4c2.9,4.1,9.4,11,19.7,11c2.2,0,4.3-0.3,6.4-0.9c11.1-3,15-7.5,16.1-18.3
		c1-10.5-2.6-20.3-5.6-28.2c-3.4-9-12.9-15.7-20.1-17C503.8,375.1,501.3,374.8,498.8,374.8z"/>
	<path d="M500,373.1L500,373.1c2.1,0,4.1,0.1,6.2,0.4c2.2,0.3,4.3,1.2,6,2.4c-1.8-0.9-3.7-1.5-5.7-1.9c-2.6-0.5-5.2-0.7-7.8-0.7
		c-5.1,0-9.2,1.1-12.4,3.2c-7.1,4.8-9.3,12.7-10.3,23.2c-1.1,11,7,22.2,12.3,29.7l0.3,0.4c3.1,4.3,9.9,11.6,20.9,11.6
		c2.3,0,4.6-0.3,6.8-1c11.7-3.2,16-8.1,17.2-19.6c1.1-10.8-2.7-20.8-5.7-28.8c0.1,0.1,0.3,0.3,0.4,0.5c1.7,2,3.1,5.3,4.6,8.9
		c3.2,7.7,7.2,17.3,17.7,21c3.6,1.1,7.3,1.7,11,1.5c4.7-0.1,9.3-0.5,13.9-1.4c0.7,3.9,1.4,9.7,0.3,13c-0.3,0.9-0.6,1.8-0.9,2.8
		c-1.7,5.5-3.8,12.2-8.8,16.3l-0.1,0.1c-5.5,4.2-10.2,9.4-13.9,15.2c-2.4,4-4.5,8.2-6.5,12.5c-1.1,2.3-2.1,4.5-3,6.1
		c-7.5-0.9-39.2-6.8-60.1-10.8c-2-5.9-7.4-30.5-10.9-51.7c-1-5.2-1.3-10.6-0.8-15.9c0.2-2.3,0.2-4.7,0-7
		c-1.7-14.5,10.1-23.4,15.3-26.6C489.6,374.2,494.2,373.1,500,373.1 M500,370.1c-6.1,0-11.4,1.2-15.7,3.8
		c-5.8,3.6-18.5,13.4-16.7,29.5c0.7,6.2-1.4,9.6,0.9,23.1c3.6,21.4,10,51,11.7,53.8c0,0,58.5,11.3,63.6,11.3c0.2,0,0.3,0,0.3-0.1
		c2.5-3.8,6.2-13.5,10.3-20c3.6-5.6,8.1-10.5,13.4-14.6c6.6-5.4,8.6-14.5,10.6-20.4s-0.8-17.5-0.8-17.5c-5.4,1.2-10.8,1.8-16.3,1.9
		c-3.4,0.1-6.8-0.4-10-1.4c-14-5-15-22-21-29c-6.9-8.1-15-19-24-20C504.3,370.3,502.2,370.2,500,370.1L500,370.1z M509.5,438.4
		c-8.1,0-14.4-4.7-18.5-10.3c-5-7-13-18-12-28s3-17,9-21c3.1-2,7-2.7,10.8-2.7c2.4,0,4.8,0.2,7.2,0.7c7.2,1.3,16,8,19,16
		s6.5,17.5,5.5,27.5c-1,9.8-4,14-15,17C513.5,438,511.5,438.3,509.5,438.4L509.5,438.4z"/>
	<path d="M497.6,613.7c-4,0-7.6-1.9-10.4-5.6c-7.3-9.5-10.3-16.8-13.4-24.5c-1.1-2.6-2.2-5.4-3.5-8.2c-0.8-1.7-1.8-3.4-2.8-5
		c-2.2-3.7-4.9-8.3-4.1-10.7c1.8-5,4.2-9.8,7.2-14.2c5,0.3,31.3,2,41.1,2.9c2.1,0.2,4.6,0.3,7.6,0.3c9,0,19.5-0.9,22.7-1.2
		c1.7,2.8,7.1,12.5,9.4,18.9c1.1,3.2-5.4,7.5-11.2,11.2c-5,3.2-9.6,6.2-11.7,9.5c-1.2,2-2.2,3.6-3,5c-4.5,7.6-4.6,7.8-19.6,18.6
		C503.6,612.6,500.7,613.6,497.6,613.7z"/>
	<path d="M471.5,547.1c6.6,0.4,30.9,2,40.2,2.9c2.1,0.2,4.7,0.3,7.7,0.3c8.4,0,17.9-0.8,21.9-1.1c2,3.5,6.8,12,8.8,17.8
		c0.7,2.1-6.3,6.7-10.6,9.4c-5.1,3.3-9.9,6.4-12.1,10c-1.2,2-2.2,3.6-3,5c-4.4,7.5-4.4,7.5-19.2,18.2c-2.2,1.6-4.9,2.6-7.6,2.6
		c-3.5,0-6.7-1.7-9.2-5c-7.2-9.3-10.1-16.5-13.2-24.2c-1.1-2.7-2.2-5.4-3.5-8.3c-0.9-1.8-1.8-3.5-2.9-5.2c-1.7-2.9-4.6-7.7-4-9.4
		C466.6,555.6,468.8,551.2,471.5,547.1 M470,544c-3.3,4.7-6,9.8-7.9,15.2c-1.5,4.3,4.6,11.8,6.9,16.8c5,11,7,20,17,33
		c3.4,4.4,7.5,6.2,11.6,6.2c3.4-0.1,6.7-1.2,9.4-3.2c18-13,15-11,23-24c4.5-7.4,25.6-14.6,23-22c-2.8-7.9-10-20-10-20
		s-12.8,1.3-23.5,1.3c-2.7,0-5.2-0.1-7.5-0.3C501,546,470,544,470,544z"/>
	<g id="Targets">
		<circle id="ruaTorso" class="st12" cx="504" cy="396" r="4"/>
		<circle id="headTorso" class="st12" cx="531" cy="328" r="4"/>
		<circle id="luaTorso" class="st12" cx="545" cy="389" r="4"/>
		<circle id="rtTorso" class="st12" cx="489" cy="575" r="4"/>
		<circle id="CoM" class="st12" cx="516.4" cy="529.8" r="4"/>
		<circle id="ltTorso" class="st12" cx="513" cy="575" r="4"/>
	</g>
</g>
<g id="Layer_7">
	<g id="RightCrus">
		<path class="st19" d="M490.9,745.4c-3.2,3.2-6,6.6-8.4,10.4c-3.2,5.3-7.1,18.9-8.1,23.9c-1,4.8,1,28.8,2.7,35.3
			c1.7,6.4,3.8,25.3,3.4,32.4c-0.5,7-8.1,23.9-8,27.9c0.1,4.2,5.2,9.4,8.1,9.9c3,0.6,16.8,2.5,20.9,2.4c4.2-0.1,14.3,0,19.2,1
			c4.9,1.1,13.9,2,15.1,1.1c1.2-1,6-9,2.3-10.8c-3.7-1.8-7.4-3.5-12.7-2.8c0,0-13.1-3.4-16.5-6.1c-3.5-2.8-12.5-8.7-12.1-14.8
			c0.3-6,19.8-92.9,20.4-95.9c0.6-3,2.3-16.2,4.3-20.7c2-4.5,1.3-7-0.8-7.7C512.4,728.9,490.9,745.4,490.9,745.4z"/>
		<path class="st20" d="M506.5,883.6c-0.8-2.8-3.1-4.9-6-5.4c-3.9-0.9-14.6,0.9-18-1.8c-3.5-2.8,0.1-5.1,2.5-11.8s0.1-19.4,1.3-30.4
			c1.3-11-2.3-42.4-2.3-42.4c-0.1-4.2,3.8-23.8,6.4-30.3c2.2-5.6,7.4-10.7,8.7-12.5c1.4-1.7,1.3-11,1.3-11c-3.4,2.2-6.6,4.5-9.7,7.1
			c-3.2,3.2-6,6.7-8.3,10.5c-3.2,5.3-7.1,18.9-8.1,23.9c-1,4.8,1,28.8,2.7,35.3c1.7,6.4,3.8,25.3,3.4,32.4c-0.5,7-8.1,23.9-8,27.9
			c0.1,4.2,5.2,9.4,8.1,9.9c3,0.6,16.8,2.5,20.9,2.4c1.5,0,3.4,0.2,6,0.3L506.5,883.6z"/>
		<path class="st21" d="M496.4,741c-3.9,4.2-10.3,10-13.5,15.5c-3.3,5.4-6.6,19.1-7.2,24.1c-0.7,5.4-0.3,28,1.4,34.6
			c1.7,6.4,3.8,25.3,3.4,32.4c-0.5,7-8.1,23.9-8,27.9c0.1,4.2,5.1,9.3,8.1,9.9c3,0.6,16.8,2.5,20.9,2.4c4.2-0.1,14.3,0,19.2,1
			c4.9,1.1,13.9,2,15.1,1.1c1.2-1,6-9,2.3-10.8c-3.7-1.8-7.4-3.5-12.7-2.8c0,0-13.1-3.4-16.5-6.1c-3.5-2.8-11.3-9.5-11-15.7
			c0.3-6,18.6-92.2,19.2-95.2s2.3-16.2,4.3-20.7c2-4.5-0.7-9.4-0.7-9.4"/>
		<circle id="rc2" class="st12" cx="509.4" cy="738.3" r="4"/>
		<circle id="rc1" class="st12" cx="488" cy="870.8" r="4"/>
	</g>
	<g id="RightThigh">
		<path class="st19" d="M474.4,594.3c2.9,5.2,5.1,10.6,5.9,21.9c0.9,11.3,3.8,25.3,3.5,38.2c-0.1,13,2.6,26.9,3,42.6
			c0.4,15.8-0.6,28.3,2.4,36.3c3,8,6.1,12.5,11.4,13.6s7.2-3.9,13.3-4.2c6.1-0.1,7.8-5.9,6.5-15c-1.1-9.1,4.8-25.5,8.3-40
			c3.5-14.4,8.9-40.9,7.7-53.5c-1.2-12.7-2.1-31.3-5.5-40.7c-3.3-9.5-5.8-24.2-12.4-32.1c-6.6-8-14-15.2-26.7-14
			c-10.3,1-16.1,2.5-21.9,16.8C464.4,578.4,470.9,588,474.4,594.3z"/>
		<path class="st20" d="M490.9,547.5c-9.4,1.5-15,3-20.6,16.6c-5.7,14.1-5.9,27.4-2.5,33.7c2.9,5.2,6.3,6.5,7.4,18
			c1,11.3,4.1,26.6,3.8,39.6c-0.2,13.1,7.5,25.8,7.8,41.8c0.3,15.9-0.6,28.3,2.4,36.3c3.1,8.1,1.8,5.4,4.8,9.9c0,0,3.4-1.4,3.6-3.7
			c0.3-2.3,4.1-11.6,2.4-16.3s-6.5-21-6.9-26c-0.4-5-10.5-58.4-9-61c1.7-2.5,1.9-4.6,7-5c5-0.4,29.4-4.6,34.1-2.8
			c4.7,2,11.1,3.7,11.1,3.7s-2.3-22.9-2.6-26.9c-0.3-3.9-8.1-33.2-11.1-37.4C519.8,563.9,509,544.7,490.9,547.5z"/>
		<path class="st21" d="M517.7,744.9c2.8-4.6,4-8.5,2.9-17.1c-1.1-9.1,4.8-25.5,8.3-40c3.5-14.4,8.9-40.9,7.7-53.5
			c-1.2-12.7-2.1-31.3-5.5-40.7c-3.3-9.5-5.8-24.2-12.4-32.1c-6.6-8-12.8-16.8-25.5-15.6c-10.3,1-21.1,2.4-27.7,16
			c-6.6,13.6-3.8,28.3-0.2,34.7c2.9,5.2,8.5,12.5,9.4,23.7c0.9,11.2,2.1,21.8,4.2,34.6c2.3,14.6,7.6,26.5,8,42.4s0.7,27.9,2.4,36.3
			c0.9,4.1,4.7,9.6,5.1,10.6"/>
		<path d="M537.4,622.6c-4.6,1.5-55.2,5.1-62,4.3c-0.2-1.9-0.2-3.7-0.2-5.5c0-5.2,0.1-11.6-2-15.1c-2.6-4.5-10.1-19-10.8-25.6
			c-0.4-3.8,1-14.3,2.4-17.6c1.6-3.5,6.8-8.6,13.1-12.7c1.4-0.9,2.9-1.8,4.3-2.5c5.1-2.7,20-0.3,27,5.4c7.2,5.7,21.5,29.5,23.5,39.1
			c0.3,1.5,0.7,3.2,1,5.1C535.1,605,538.4,620.1,537.4,622.6z"/>
		<path d="M476.9,549.4l1.6,2.5c1.4-0.9,2.8-1.6,4.1-2.4c4.5-2.4,18.9,0.1,25.3,5.2c7,5.6,21,28.8,22.9,38.2c0.3,1.5,0.7,3.2,1,5.1
			c1.5,6.4,4.2,19.6,3.9,23.5c-7.8,1.7-50,4.2-59.4,4.1c-0.1-1.1,0-2.8,0-4c0-5.4,0-11.9-2.2-15.8c-2.4-4.2-9.8-18.7-10.6-25
			c-0.4-3.8,1.1-14,2.3-16.7c1.4-3.3,6.5-8.2,12.5-11.9L476.9,549.4 M476.9,549.4c-6.3,4-11.9,9.3-13.6,13.3
			c-1.4,3.3-3,14.1-2.5,18.2c0.9,7.3,8.9,22.8,11,26.2c3.1,5.5,0.9,20,2.5,21.2c1.6,1.1,60.9-2.5,64-4.5l0,0
			c2.5-1.9-2.4-21.9-4.3-31.6c-1.9-9.7-16.3-33.7-24-39.9c-7.3-5.8-22.9-8.6-28.6-5.6C479.8,547.5,478.3,548.4,476.9,549.4
			L476.9,549.4z"/>
		<circle id="rt2" class="st12" cx="493.3" cy="574.2" r="4"/>
		<circle id="rt1" class="st12" cx="506.8" cy="739.1" r="4"/>
	</g>
</g>
<g id="Layer_8">
	<path class="st19" d="M548.5,355.5c0,0-18-6-19-9s-6-26-8-27s-13-2-15-5s-4-12-3-16s7-9,10-9s9,3,12,6s11,0,13-3s8-12,13-15
		s10-10,15-9s16,6,17,9s3,10,2,15s-5,12-5,15c0,6,6,9,7,13s-2,6-4,7c-1.3,0.6-4,2-4,5s1,9-2,12c-2.5,2.5-4,8-4,10c0,5-6,7-9,7
		C562.5,361.5,548.5,355.5,548.5,355.5z"/>
	<path class="st20" d="M555.1,358.2c-3.5-1.4-6.6-2.7-6.6-2.7s-18-6-19-9s-6-26-8-27s-13-2-15-5s-4-12-3-16s7-9,10-9s9,3,12,6
		s11,0,13-3s8-12,13-15s10-10,15-9c3.5,0.9,6.8,2.1,10,3.8c0,0-24.5,22.3-26,42.2C548.5,340.5,555.1,358.2,555.1,358.2z"/>
	<path class="st21" d="M548.5,355.5c0,0-17.4-6.2-19-9c-4-7-6-26-8-27s-13-2-15-5s-4-12-3-16s7-9,10-9s9,3,12,6s11,0,13-3
		s8-12,13-15s10-10,15-9s16,6,17,9s3,10,2,15s-5,12-5,15c0,6,6,9,7,13s-2,6-4,7c-1.3,0.6-4,2-4,5s1,9-2,12c-2.5,2.5-4,8-4,10
		c0,5-6,7-9,7C562.5,361.5,548.5,355.5,548.5,355.5z"/>
	<path class="st22" d="M520.5,301.5c1-2-5.7-7.9-9,1c-3,8,3.3,9.7,5,8"/>
	<path d="M582,303l-1,10c0,0-41.6-4.2-47-13c-8.9-14.5,46-30,46-30s4.4,11,5.2,15.3S582,303,582,303z"/>
	<path class="st6" d="M488.5,268.5c0,0,4,2,4,6s-5,14-5,21s1,17,5,24s9,15,12,16s7,0.7,7.5-1.7s1.5-12.3-1.5-15.3s-7-5-8-14
		s6-16,10-16s12,3,14,6s28,0,37-5s23-13,22-18s-7-15-15-17c-8-2-19-5-27-5s-24,5-28,9c-4,4-16-1-16-1L488.5,268.5z"/>
	<circle id="h1" class="st12" cx="531" cy="328" r="4"/>
	<circle id="h2" class="st12" cx="481" cy="253" r="4"/>
	<path class="st23" d="M579,278c0,0-12-11-17-13s-25-3-25-3s7,6,8,8s-8-3-15-4c-4-0.6-8.1-0.3-12,1c0,0,6,5,9,5s7,3,7,3h-14
		c-3,0.2-6,0.5-9,1l6,6c0,0-8-2-10-2s-7,3-7,3l4,4c-1.1,0.5-2.1,1.2-3,2c-1,1-2,4-2,4l-2-6c0,0-1,14,0,17s5,10,6,14
		c0.6,2.6,0.6,5.4,0,8c0,0-2-8-5-9c-2-0.6-4-0.6-6,0c0,0,4.3,11.8,6.6,12.4s6.4,6.6,8.4,6.6s6-1,5-6c-0.6-3.6-1-7.3-1-11
		c0,0-5.4-4.4-6.2-6.7s-3.6-10-1.7-14.2s5.3-9.7,8.1-9.4c2.8,0.3,11.9,1.2,14.9,5.2S541,296,541,296s19.5-4.8,23.2-6.9
		S579,278,579,278z"/>
	<path class="st24" d="M488.5,268.5c0,0,4,2,4,6s-5,14-5,21s1,17,5,24s9,15,12,16s7,0.7,7.5-1.7s1.5-12.3-1.5-15.3s-7-5-8-14
		s6-16,10-16s12,3,14,6s28,0,37-5s23-13,22-18s-7-15-15-17c-8-2-19-5-27-5s-24,5-28,9c-4,4-16-1-16-1L488.5,268.5z"/>
	<g id="HairBand">
		<line class="st25" x1="488" y1="273" x2="504" y2="256"/>
		<line class="st25" x1="487" y1="268" x2="499" y2="254"/>
		<line class="st25" x1="480" y1="266" x2="496" y2="249"/>
		<line class="st25" x1="476" y1="262" x2="490" y2="247"/>
	</g>
</g>
<g id="Layer_9">
	<path class="st6" d="M340,319c5-3,5-8,8-17s14-15,28-23s19-15,22-21c3-6,20-19,30-26s28-10,39-13s23,5,26,9s2,13-1,15s-17,20-17,23
		s-13,20-19,24s-16,6-23,10c-4.6,2.6-12.3,11.4-17,17l-1,2c-1.7,5.1-3.7,10.1-6,15c-3,6-17,18-23,24s-21,15-21,15s4-7,5-10s0-7,0-7
		s-9,11-15,18s-25,18-36,24s-28,11-40,14c-2,0.5-7,2-7,2c-1.9,1.1-3,1.6-4,3c-3,4-7.2,6.8-12,8c-4.4,1-8.6,3-12,6c-2,2-32,13-33,10
		s14-33,19-43s20-17,25-20s20-7,27-10s26-7,30-8s6-8,6-8s-9,0-10-3s-6-3-9-3s-7,5-6-1s8-8,11-11s12-10,17-12S335.9,321.5,340,319z"
		/>
	<path class="st26" d="M296.4,339.5c0,0,8.6-2.5,13.6,0.5s4,6,7,6s8-3,10-1s1,5-3,8s-8,7-9,9s-9,6-12,5c-1.9-0.7-3.5-2.1-4.5-3.9
		c0,0,14.5-2.1,16.5-6.1s1.7-5.3-1.7-5.2c-2.7,0-5.3-1-7.3-2.8c-2.8-2.8-7.1-3.5-10.6-1.7C290,350,296.4,339.5,296.4,339.5z"/>
	<path class="st26" d="M345,311.2c0,0,10-6.2,14-9.2s11-5,12-7s3-3,5-2s-1,7-4,10s-10,10-15,12c-2.9,1.2-6,1.7-9.1,1.5L345,311.2z"
		/>
	<path class="st26" d="M294.2,382.2c0,0,3.8-3.2,4.8-1.2s-7,12-7,14s-1,4,2,3s29-11,38-20s38-38,39-43s2-8,4-7s2,6,1,9s-1,11,0,13
		s20-16,23-25s14-33,17-37s4-15,8-15s2,11,5,13s19-7,27-15s18-24,22-26s9.1,3.1,9.1,3.1s-16.3,26-19.7,29.9s-12.3,15.5-27.4,18.7
		s-24.8,22.6-27.9,29.4s-19,27.5-30.6,35.6s-15.4,10.5-15.4,10.5S371,361,370,359s-3-2-5,2s-13,19-29,28s-41.5,20.1-55.2,22.5
		s-23.4,1-23.4,1s14.2-5.9,21.9-13.7S294.2,382.2,294.2,382.2z"/>
	<path class="st26" d="M226.8,404.4c0.8,2.1,0.8,4.4,0.2,6.6c-1,4-4,13-1,15s24-8,27-11s16-1,16-1c-5.5,6.5-12.7,11.4-20.8,14
		c-13.2,4-28.4,13.1-32.3,13s-4.4-3-4.4-3L226.8,404.4z"/>
	<path class="st27" d="M419,291c0,0-1,13-2,16l-5,15c0,0,14-18,21-22s17-6,23-10s19-21,19-24s14-21,17-23s4-11,1-15s-15-12-26-9
		s-29,6-39,13s-27,20-30,26c-3,6-8,13-22,21s-25,14-28,23s-4,14-8,17"/>
	<path class="st27" d="M371,299c0,0-18,17-29,20s-16,1-21,3s-14,9-17,12s-10,5-11,11s3,1,6,1s8,0,9,3s10,3,10,3s-2,7-6,8s-23,5-30,8
		s-22,7-27,10s-20,10-25,20s-20,40-19,43s31-8,33-10c3.4-3,7.6-5,12-6c4.8-1.2,9-4,12-8c2-3,8-4,8-4"/>
	<path class="st27" d="M296,380c0,0-23,28-31,30s-11,2-11,2s13,3,25,0s29-8,40-14s30-17,36-24s15-18,15-18s1,4,0,7s-5,10-5,10
		s15-9,21-15s20-18,23-24s6-17,6-17"/>
	<circle id="hair1" class="st12" cx="481" cy="253" r="4"/>
	<circle id="hair2" class="st12" cx="271" cy="396" r="4"/>
</g>
<g id="Layer_4">
	<g id="RightLowerArm">
		<path class="st19" d="M454,481.8c6.7,0.7,11.3,7.5,19.9,22.2c16.6,28.4,21.1,56.3,28.6,64.3c2.4,2.5,8.6,5.4,12.2,6.6
			c2.4,0.7,4.6,2.2,5.9,4.3c1.6,2,0.1,8.3,4.3,12.3c4.1,4.2,5.9,4.3,5.8,7c-0.1,1.6-1.4,2.6-2.9,2.5l-0.1,0c0.9,1.7,0.6,3.9-0.6,5.4
			c-2,2.6-4.5-0.4-4.5-0.4c1.4,1.1,1.7,3.1,0.5,4.6l0,0.1c-2,2.6-4.5-0.4-4.5-0.4s1.6,1.1-0.4,3.7c-2,2.6-5.4-0.6-8-2.5
			c-3.7-3-6.8-6.7-9-11c-2.3-4.9-1.8-9.5-5-14.4c-3.3-4.9-31.9-39.7-45.1-65.1c-13.2-25.2-14.6-30.5-12.1-36.1
			C441.6,479.3,447.6,481.1,454,481.8z"/>
		<path class="st20" d="M446.1,481.4c0,0,0.1,5.2,2.6,6.1c2.7,1,7.1,1.1,11.8,8.9c4.7,7.7,20.8,33.4,24.1,42.9
			c3.2,9.6,9,24.5,11.3,26.7c2.3,2.2,4.7,5.5,3.4,7.3c-1.4,1.7-3.4,4.8-2,5.4s6-3.8,8.7-2.9c2.7,1,7.7,7.4,10.5,8.4
			c2.7,1,5.9,1.8,5.9,1.8s-0.6-5.5-2.4-7.9c-1.8-2.5-13.5-5.6-15.8-8.5c-2.3-2.9-7.6-10.6-9.3-17.4c-1.7-6.8-16.8-43.2-22.3-50.8
			c-5.6-7.8-10.6-17.5-14.6-18.4C453.9,482.1,449.9,481.7,446.1,481.4z"/>
		<path class="st28" d="M454,481.8c6.7,0.7,11.3,7.5,19.9,22.2c16.6,28.4,21.1,56.3,28.6,64.3c2.4,2.5,8.6,5.4,12.2,6.6
			c2.4,0.7,4.6,2.2,5.9,4.3c1.6,2,0.1,8.3,4.3,12.3c4.1,4.2,5.9,4.3,5.8,7c-0.1,1.6-1.4,2.6-2.9,2.5l-0.1,0c0.9,1.7,0.6,3.9-0.6,5.4
			c-2,2.6-4.5-0.4-4.5-0.4c1.4,1.1,1.7,3.1,0.5,4.6l0,0.1c-2,2.6-4.5-0.4-4.5-0.4s1.6,1.1-0.4,3.7c-2,2.6-5.4-0.6-8-2.5
			c-3.7-3-6.8-6.7-9-11c-2.3-4.9-1.8-9.5-5-14.4c-3.3-4.9-31.9-39.7-45.1-65.1c-13.2-25.2-14.6-30.5-12.1-36.1
			C441.6,479.3,447.6,481.1,454,481.8z"/>
		<circle id="rla2" class="st12" cx="450.6" cy="485.2" r="3"/>
		<circle id="rla1" class="st12" cx="511.4" cy="590.7" r="3"/>
	</g>
	<g id="RightUpperArm">
		<path class="st19" d="M451.2,446.4c0,0,3.6-16.7,9.8-24.9c6-8.3,21.1-32.9,26.7-37.6c5.5-4.8,10.5-8.1,15.9-6.2
			c5.4,1.9,10.7,9.6,10.9,13.3c0.2,4.9-2,13.9-5.1,20.1c-5.2,10.2-8.8,25.1-14.4,33.6c-9.9,14.4-22.6,22.6-27.7,30.5
			c-1.7,2.6-2.4,5.1-5.6,7.9c-3.4,2.9-9.5,4.2-13.2,6.7c-2.7,1.8-3,7.6-6.1,8c-12,1.2-2.6-36.3,8.5-48"/>
		<path class="st20" d="M510.7,407.1c0,0-2.3-2.6-4.9-0.6c-2.6,1.8-5.9,6.8-8,11.5c-2,4.6-10.8,24.3-17.8,32.7s-18,24.1-21.4,25.3
			c-3.4,1.2-7.6,5.6-9.3,8.1c-1.5,2.3-2.7,4.7-3.7,7.3c0,0,1.3-1.4,5.9-3.2c3.4-1.2,8.7-3.7,9.8-5.3c0,0,7.3-10.6,12-14.8
			s16.7-14.1,20.5-20.6c3.9-6.5,5.7-20.8,9.6-26.6C506.1,416.4,508.6,411.8,510.7,407.1z"/>
		<path class="st21" d="M450.6,449.3c-10,10.6-18.2,40.8-11.5,46.1c1,0.7,2.1,1.4,3.2,2"/>
		<path class="st21" d="M461.4,483.4c1.9-3.1,4-6.4,5.5-8.6c5.2-7.9,17.6-13.8,27.4-28.3c5.4-8,6.4-24.9,13.3-33.3"/>
		<path class="st21" d="M448.6,459.9c0,0,8.7-33.8,13.9-42.7c5.6-9.7,19.3-29.2,25.1-33.4c5.8-4.4,10.5-8.1,15.9-6.2
			c3.3,1.3,4,1.4,6.7,4.4"/>
		<line class="st29" x1="466.6" y1="408.5" x2="502.3" y2="427.1"/>
		
			<ellipse id="rua1" transform="matrix(0.1465 -0.9892 0.9892 0.1465 36.8425 828.0343)" class="st12" cx="498.3" cy="392.7" rx="4" ry="4"/>
		<circle id="rua2" class="st12" cx="445.4" cy="486.3" r="3"/>
	</g>
</g>
</svg>
