<?xml version="1.0" encoding="utf-8"?>
<!-- Generator: Adobe Illustrator 28.1.0, SVG Export Plug-In . SVG Version: 6.00 Build 0)  -->
<svg version="1.1" id="Layer_1" xmlns="http://www.w3.org/2000/svg" xmlns:xlink="http://www.w3.org/1999/xlink" x="0px" y="0px"
	 viewBox="0 0 1024 1024" style="enable-background:new 0 0 1024 1024;" xml:space="preserve">
<style type="text/css">
	.st0{fill:#808080;}
	.st1{fill:none;stroke:#000000;stroke-width:2.15;stroke-miterlimit:10;}
	.st2{fill:#B3B3B3;}
	.st3{fill:none;stroke:#000000;stroke-width:2.29;stroke-miterlimit:10;}
	.st4{fill:none;stroke:#000000;stroke-width:1.21;stroke-miterlimit:10;}
	.st5{fill:none;stroke:#000000;stroke-width:1.56;stroke-miterlimit:10;}
	.st6{fill:#FFFFFF;}
	.st7{fill:#808080;stroke:#000000;stroke-width:2.1399;stroke-miterlimit:9.9996;}
	.st8{fill:#B3B3B3;stroke:#000000;stroke-width:1.8599;stroke-miterlimit:9.9996;}
	.st9{fill:#B3B3B3;stroke:#000000;stroke-width:2.6;stroke-miterlimit:10;}
	.st10{fill:#808080;stroke:#000000;stroke-width:2.44;stroke-miterlimit:10;}
	.st11{fill:none;stroke:#000000;stroke-width:3.54;stroke-linecap:round;stroke-miterlimit:10;}
	.st12{fill:#FF0000;}
	.st13{fill:#B3B3B3;stroke:#000000;stroke-width:2.27;stroke-miterlimit:10.0008;}
	.st14{fill:#808080;stroke:#000000;stroke-width:2.27;stroke-miterlimit:10;}
	.st15{fill:#B3B3B3;stroke:#000000;stroke-width:1.7;stroke-miterlimit:9.9993;}
	.st16{fill:#808080;stroke:#000000;stroke-width:2.05;stroke-miterlimit:10;}
	.st17{fill:#B3B3B3;stroke:#000000;stroke-width:2.2701;stroke-miterlimit:10.0003;}
	.st18{fill:#808080;stroke:#000000;stroke-width:2.2701;stroke-miterlimit:10.0003;}
	.st19{fill:#B3B3B3;stroke:#000000;stroke-width:2.27;stroke-miterlimit:9.9999;}
	.st20{fill:#B3B3B3;stroke:#000000;stroke-width:2.27;stroke-miterlimit:10;}
	.st21{fill:#959595;}
	.st22{fill:#828282;}
	.st23{fill:none;stroke:#000000;stroke-width:3;stroke-linecap:round;stroke-miterlimit:10;}
	.st24{fill:none;stroke:#696969;stroke-width:5;stroke-linecap:round;stroke-miterlimit:10;}
	.st25{fill:#DEDEDE;stroke:#DEDEDE;stroke-width:2;stroke-linecap:round;stroke-linejoin:round;}
	.st26{fill:none;stroke:#000000;stroke-width:4;stroke-linecap:round;stroke-miterlimit:10;}
	.st27{fill:none;stroke:#000000;stroke-width:8;stroke-linecap:round;stroke-miterlimit:10;}
	.st28{fill:#DEDEDE;}
	.st29{fill:none;stroke:#000000;stroke-width:4;stroke-linecap:round;stroke-linejoin:round;}
	.st30{fill:none;stroke:#000000;stroke-width:3;stroke-linejoin:round;}
	.st31{fill:none;stroke:#DEDEDE;stroke-width:4;stroke-linecap:round;stroke-miterlimit:10;}
</style>
<g id="Layer_10">
	<g id="LeftLowerArm">
		<g id="Hand">
			<polygon class="st0" points="486.2,146.4 499.2,145.5 505.6,123.4 505,118 479.2,119.8 			"/>
			<polygon class="st1" points="486.2,146.4 499.2,145.5 505.6,123.4 505,118 479.2,119.8 			"/>
			<polygon class="st2" points="480.7,125.7 490.1,134.8 492.7,146 482,146.8 476,128.3 			"/>
			<polygon class="st3" points="480.7,125.7 490.1,134.8 492.7,146 482,146.8 476,128.3 			"/>
			<path class="st2" d="M476.4,131.1l-3.2-8.1c-0.5-1.5,0.1-3.1,1.6-3.6l0.4-0.1c1.5-0.5,3,0.1,3.6,1.6l3.2,8.1
				c0.5,1.5-0.1,3-1.6,3.6l-0.4,0.1C478.6,133.2,477,132.6,476.4,131.1z"/>
			<path class="st4" d="M476.5,131.1l-3.2-8.1c-0.5-1.5,0.1-3.1,1.6-3.6l0,0l0.3-0.1c1.5-0.5,3,0.1,3.6,1.6l3.2,8.1
				c0.5,1.5-0.1,3.1-1.6,3.6l0,0l-0.3,0.1C478.6,133.2,477.1,132.6,476.5,131.1z"/>
			<path class="st2" d="M480.2,128.4l-0.9-14.4c-0.1-1.6,1.1-2.9,2.7-2.9l0.4,0c1.6-0.1,2.9,1.1,2.9,2.7l0.9,14.4
				c0.1,1.6-1.1,2.9-2.7,2.9l-0.4,0C481.6,131.1,480.3,130,480.2,128.4z"/>
			<path class="st5" d="M480.2,128.4l-0.9-14.4c-0.1-1.6,1.1-2.9,2.7-2.9l0,0l0.4,0c1.6-0.1,2.9,1.1,2.9,2.7l0.9,14.4
				c0.1,1.6-1.1,2.9-2.7,2.9l0,0l-0.4,0C481.6,131.1,480.3,130,480.2,128.4L480.2,128.4z"/>
			<path class="st2" d="M473.8,122.7l-0.2-0.4c-0.8-1.3-0.5-3,0.7-3.9l7.2-4.8c1.3-0.8,3-0.5,3.9,0.7l0.2,0.4c0.8,1.3,0.5,3-0.7,3.9
				l-7.2,4.8C476.5,124.3,474.6,124,473.8,122.7z"/>
			<path class="st4" d="M473.9,122.6l-0.1-0.3c-0.8-1.3-0.5-3,0.7-3.9l7.2-4.8c1.3-0.8,3-0.5,3.9,0.7l0.1,0.3c0.8,1.3,0.5,3-0.8,4
				l0,0l-7.2,4.8C476.6,124.3,474.8,123.9,473.9,122.6L473.9,122.6z"/>
			<path class="st2" d="M487.5,127.9l-1.1-15.5c-0.1-1.6,1.1-2.9,2.7-2.9l0.4,0c1.6-0.1,2.9,1.1,2.9,2.7l1.1,15.5
				c0.1,1.6-1.1,2.9-2.7,2.9l-0.4,0C488.9,130.7,487.6,129.5,487.5,127.9z"/>
			<path class="st5" d="M487.5,128l-1-15.4c-0.1-1.6,1.1-2.9,2.7-2.9l0.3-0.1c1.6-0.1,2.9,1.1,2.9,2.7l1,15.4
				c0.1,1.6-1.1,2.9-2.7,2.9l0,0l-0.4,0C489,130.8,487.6,129.5,487.5,128L487.5,128L487.5,128z"/>
			<path class="st2" d="M494.8,127.3l-0.9-14.4c-0.1-1.6,1.1-2.9,2.7-2.9l0.4,0c1.6-0.1,2.9,1.1,2.9,2.7l0.9,14.4
				c0.1,1.6-1.1,2.9-2.7,2.9l-0.4,0C496.1,130.1,494.8,128.9,494.8,127.3z"/>
			<path class="st5" d="M494.8,127.3l-0.9-14.4c-0.1-1.6,1.1-2.9,2.7-2.9l0,0l0.4,0c1.6-0.1,2.9,1.1,2.9,2.7l0.9,14.4
				c0.1,1.6-1.1,2.9-2.7,2.9l0,0l-0.4,0C496.1,130.1,494.8,128.9,494.8,127.3z"/>
			<path class="st2" d="M501.4,125.6l-0.9-12.5c-0.1-1.3,0.9-2.4,2.2-2.5l0.3-0.1c1.3-0.1,2.4,0.9,2.5,2.2l0.9,12.5
				c0.1,1.3-0.9,2.4-2.2,2.5l-0.3,0.1C502.6,127.9,501.5,126.9,501.4,125.6z"/>
			<path class="st5" d="M501.5,125.7l-0.9-12.5c-0.1-1.3,0.9-2.4,2.2-2.5l0.3-0.1c1.3-0.1,2.4,0.9,2.5,2.2l0.9,12.5
				c0.1,1.3-0.9,2.4-2.2,2.5l-0.3,0.1C502.7,127.9,501.6,126.9,501.5,125.7z"/>
		</g>
		<polygon points="491.5,136.3 496.5,132.6 487.4,111.2 490.1,152.4 483.6,152.9 480.9,111.7 474.8,134.1 480.2,137 465.7,147.8 
			477.4,104.9 479,104.9 482.9,92.5 488.4,104.2 490,104.2 507.4,145 		"/>
		<path class="st6" d="M483,93.7l5.2,10.9l1.6,0l16.7,39.5l-14.2-7.9l4.6-3.5l-10.1-23.9l2.9,43.3l-2.9,0.1l-2.9,0.1l-2.9-43.3
			l-6.8,25.1l5.1,2.9l-13,9.7l11.3-41.5l1.6,0L483,93.7 M482.8,91.5l-0.6,2l-3.5,11l-1,0.1l-0.6,0.1l-0.2,0.5l-11.3,41.5L465,149
			l1.8-1.4l13-9.7l0.9-0.7l-1.1-0.6l-4.5-2.6l5.4-19.8l2.7,38.5l0.1,0.8l0.8-0.1l2.9-0.1l2.8-0.2l0.8-0.1l-0.1-0.8l-2.7-38.5
			l7.9,18.9l-4.1,3.1l-0.9,0.7l1.1,0.6l14.2,7.9l2,1.1l-0.9-2.1l-16.7-39.4l-0.3-0.6l-0.6,0.1l-1,0.1l-4.9-10.5L482.8,91.5
			L482.8,91.5z"/>
		
			<image style="overflow:visible;enable-background:new    ;" width="18" height="29" xlink:href="C17E5358.png"  transform="matrix(0.633 -0.7742 0.7742 0.633 478.5356 252.6932)">
		</image>
		
			<rect x="483" y="164.5" transform="matrix(0.9977 -6.749106e-02 6.749106e-02 0.9977 -12.3807 33.4951)" class="st7" width="13" height="70.9"/>
		
			<rect x="497" y="241.9" transform="matrix(0.9977 -6.749106e-02 6.749106e-02 0.9977 -16.1169 34.4648)" class="st8" width="10" height="27.8"/>
		
			<image style="overflow:visible;enable-background:new    ;" width="51" height="24" xlink:href="C17E5359.png"  transform="matrix(0.633 -0.7742 0.7742 0.633 466.3486 209.1447)">
		</image>
		
			<image style="overflow:visible;enable-background:new    ;" width="47" height="35" xlink:href="C17E535F.png"  transform="matrix(0.633 -0.7742 0.7742 0.633 451.43 202.1137)">
		</image>
		
			<image style="overflow:visible;enable-background:new    ;" width="53" height="59" xlink:href="C17E535A.png"  transform="matrix(0.633 -0.7742 0.7742 0.633 455.2279 197.4686)">
		</image>
		<path class="st9" d="M505.9,240.4l-16.1,1.1c-6.4,0.4-12-4.5-12.4-10.9l-0.7-9l11.2-0.8l0.4,5.5c0.2,2.5,2.4,4.4,4.9,4.3l11.9-0.8
			L505.9,240.4z"/>
		<polygon class="st10" points="481.8,181.7 501.9,180.4 501,169.8 507,165.4 505.7,146.4 479.5,148.1 		"/>
		<line class="st11" x1="490.8" y1="158" x2="502.2" y2="150.7"/>
		<line class="st11" x1="491.3" y1="164.5" x2="502.7" y2="157.2"/>
		<line class="st11" x1="491.7" y1="171" x2="503.1" y2="163.7"/>
		<path class="st9" d="M481.3,155.7l0.5-0.1c2.3-0.2,4.3,1.5,4.6,3.9l2.3,34.1c0.2,2.3-1.5,4.3-3.9,4.6l-0.5,0.1
			c-2.3,0.2-4.3-1.5-4.6-3.9l-2.3-34.1C477.2,157.8,479,155.8,481.3,155.7z"/>
		<circle id="lla1" class="st12" cx="495" cy="264.4" r="3"/>
		<circle id="lla2" class="st12" cx="490.8" cy="129.5" r="3"/>
	</g>
	<g id="UpperArm">
		
			<rect x="518.6" y="266" transform="matrix(0.9999 -1.116812e-02 1.116812e-02 0.9999 -3.2324 5.8447)" class="st13" width="6.2" height="52.7"/>
		<path class="st14" d="M507.2,276.9l14.3-5c2.2-0.8,3.8-2.9,3.8-5.3l0,0c-0.1-2.4-1.5-4.5-3.8-5.1l-14.5-4.8L507.2,276.9z"/>
		
			<image style="overflow:visible;enable-background:new    ;" width="87" height="116" xlink:href="C17E535B.png"  transform="matrix(-0.8709 -0.4913 0.4913 -0.8709 513.6145 389.7141)">
		</image>
		<path class="st14" d="M516.1,365.1l-0.4-46.5c-0.1-3.5,2.6-6.3,6.2-6.3l0,0c3.5-0.1,6.3,2.6,6.3,6.2l0.4,46.4
			c0.1,3.5-2.6,6.3-6.2,6.3l0,0C519,371.3,516.1,368.7,516.1,365.1z"/>
		
			<rect x="455.3" y="358.6" transform="matrix(0.3014 -0.9535 0.9535 0.3014 -3.3913 717.1597)" class="st15" width="64.8" height="4.5"/>
		<path class="st14" d="M492.2,384.2l-14.3,5c-2.2,0.8-3.8,2.9-3.8,5.3l0,0c0.1,2.4,1.5,4.5,3.8,5.1l14.5,4.8L492.2,384.2z"/>
		<polygon class="st16" points="505.8,283.1 507.1,390.1 495.5,390.3 494.8,329.1 498.5,286.7 		"/>
		
			<ellipse transform="matrix(0.7383 -0.6745 0.6745 0.7383 -134.4826 441.9411)" class="st17" cx="502.2" cy="394.3" rx="15.9" ry="15.9"/>
		
			<ellipse transform="matrix(0.7383 -0.6745 0.6745 0.7383 -134.4826 441.9412)" class="st18" cx="502.2" cy="394.3" rx="7.4" ry="7.4"/>
		
			<image style="overflow:visible;enable-background:new    ;" width="76" height="83" xlink:href="C17E5356.png"  transform="matrix(-0.8709 -0.4913 0.4913 -0.8709 522.2798 386.5655)">
		</image>
		
			<image style="overflow:visible;enable-background:new    ;" width="79" height="70" xlink:href="C17E5357.png"  transform="matrix(-0.8709 -0.4913 0.4913 -0.8709 530.7891 377.5881)">
		</image>
		<path class="st14" d="M507.6,260.1l0.3,23.8c0,1.5-1.2,2.7-2.6,2.7l0,0l-11.7,0.2c-0.8,0.1-1.4-0.6-1.4-1.4l0,0l-0.1-13.9
			c0-0.4,0.2-0.8,0.5-1.1l13-11.3c0.6-0.5,1.4-0.5,2,0.1C507.5,259.5,507.6,259.8,507.6,260.1z"/>
		<ellipse class="st19" cx="500.8" cy="266.7" rx="14.2" ry="14.2"/>
		<polygon class="st20" points="516,402.3 511.4,394.8 511.2,381.7 526.9,381.5 527.2,401.9 		"/>
		<path class="st20" d="M515.2,407.6l-0.2-18.1c0,0,3.6-0.1,5.9-2.3c2.2-2.3,3.9-3.5,3.9-7.4l-0.1-6.8l7.9,0l0.4,34.5L515.2,407.6z"
			/>
		<circle id="lua2" class="st12" cx="502.2" cy="394.1" r="3"/>
		<circle id="lua1" class="st12" cx="500.6" cy="266.6" r="3"/>
	</g>
</g>
<g id="Layer_6">
	<g id="LeftThigh">
		<path class="st21" d="M478.1,585.9c0.1,6-0.4,11.6-4.8,22.1c-4.5,10.5-8.4,24.1-14.5,35.6s-10.1,25.1-17.1,39.3
			S428,707.6,427,716.2c-0.9,8.6-0.3,13.9,3.9,17.3c4.2,3.4,9.8,9.5,15.1,6.5c5.3-2.9,8.2-5.7,11.5-14.3s16.1-20.4,25.9-31.6
			c9.8-11.2,26.8-32,31.7-43.9c4.8-11.9,12.6-28.8,14-38.6s6-24.2,3.9-34.2c-2.2-10.2-5.4-19.9-17.2-24.7c-9.5-3.9-15.4-5.1-27,4.8
			C476.8,567.3,477.9,578.8,478.1,585.9z"/>
		<path class="st22" d="M514.3,552.2c-9-3-14.8-4.2-25.9,5.3c-11.7,9.9-17.9,21.5-17.8,28.8c0.1,6,2.6,8.9-1.8,19.3
			c-4.5,10.5-8.7,25.5-15,36.9c-6.3,11.5-5.3,26.4-12.3,40.6c-7,14.2-13.7,24.7-14.7,33.3c-0.9,8.6-0.9,5.6-0.2,11
			c0,0,3.5,0.3,4.8-1.5s9.1-8.4,9.7-13.4c0.7-5,4-21.6,6.1-26.2c2-4.5,17.7-56.7,20.4-58.2c2.7-1.4,3.9-3.3,8.4-1.3
			s28.1,9.5,31.4,13.4s8.1,8.5,8.1,8.5s8.5-21.5,10.1-25.1s8.3-33.3,7.6-38.2C532.7,580.3,531.7,557.9,514.3,552.2z"/>
		<path class="st23" d="M446.8,739.4c4.6-2.7,7.4-5.8,10.5-13.9c3.3-8.6,16.1-20.4,25.9-31.6c9.8-11.2,26.8-32,31.7-43.9
			c4.8-11.9,12.6-28.8,14-38.6c1.4-9.9,6-24.2,3.9-34.2c-2.2-10.2-3.6-20.8-15.4-25.8c-9.5-3.9-17.2-6.4-29.4,2.7
			c-12.3,9.1-17.4,17.2-17.3,24.5c0.1,6,3.3,14.1-1.2,24.7c-4.5,10.5-11.2,25.9-15.4,38.3c-4.8,14.1-5.6,27.1-12.6,41.3
			s-12.3,25.1-14.7,33.3c-1.2,4-0.3,10.7-0.4,11.6"/>
		<path d="M463.5,615.2c0.6-2.9,1.4-5.8,2.3-8.7c1.8-6.1,4-13.1,3.9-16.9c-0.2-5.8,9.1-23.7,12.3-27.8c3.2-3.9,16.1-13.5,24.2-13.5
			c5.4,0,16.1,7,20.2,14.3c0.5,0.9,0.9,1.8,1.2,2.8c2.5,8.7,5.4,36.5,2.8,45.6c-0.4,1.4-0.9,3.1-1.4,5c-2,7.3-6.1,22.1-8.3,23.9
			C515.9,639.4,468.9,618.9,463.5,615.2z"/>
		<path d="M525,563.5L525,563.5c0.4,0.8,0.8,1.6,1.1,2.5c2.4,8.6,5.2,36.2,2.8,44.9c-0.4,1.4-0.9,3.1-1.4,5
			c-1.8,6.5-5.3,19.3-7.4,22.7c-7.9-2.2-47.4-19.9-54.9-24c0.4-1.7,1.4-4.9,2.1-7.5c2-6.6,4-13.4,3.9-17.4c-0.2-5,8.6-22.5,12-26.7
			c3-3.8,15.5-13,23.1-13C510.4,550,521,556.2,525,563.5 M527.6,562c-4.3-7.9-15.7-15.1-21.5-15.1c-8.8-0.1-21.9,9.9-25.4,14
			c-3.4,4.2-12.9,22.4-12.6,28.8c0.3,6.3-7,24.4-6.1,26.2c1,1.7,55.7,26.2,58.8,25.7c3.2-0.6,8-20.5,10.8-30
			c2.7-9.5-0.3-37.6-2.8-46.5C528.7,564,528.2,563,527.6,562z"/>
		<circle id="lt2" class="st12" cx="506" cy="575.6" r="4"/>
		<circle id="lt1" class="st12" cx="442.8" cy="729.7" r="3"/>
	</g>
	<g id="LeftCrus">
		<path class="st21" d="M422.6,729.4c-3.9,2.1-7.7,4.6-11.1,7.5c-4.7,4.3-12.4,16-14.9,20.4s-7.6,27.9-8,34.5
			c-0.4,6.7-3.9,25.3-6.5,32c-2.6,6.5-14.9,20.4-16,24.3c-1.1,4,2.2,10.4,4.8,11.9c2.6,1.4,15.3,7.5,19.3,8.5c4,1.1,13.7,4.3,18,6.7
			s12.7,6,14.1,5.6c1.3-0.4,8.4-6.8,5.4-9.6c-3.1-2.9-6-5.7-11.3-6.4c0,0-11.5-7.1-14-10.7c-2.6-3.7-9.2-12.1-7.2-17.8
			s46.6-82.8,48-85.5s7.1-14.8,10.3-18.5c3.4-3.7,3.5-6.3,1.4-7.6C448,720,422.6,729.4,422.6,729.4z"/>
		<path class="st22" d="M396.2,865.9c0.1-2.9-1.5-5.7-4.1-6.9c-3.5-1.9-14.1-3.3-16.7-7.1c-2.6-3.7,1.6-4.8,5.9-10.4
			c4.3-5.6,5.8-18.5,10.3-28.6c4.6-10.1,10.5-41.1,10.5-41.1c1.1-4,10.8-21.5,15.2-27c3.8-4.8,10.2-8,12.1-9.2
			c1.8-1.2,4.6-10.1,4.6-10.1c-3.9,1.1-7.7,2.3-11.4,3.9c-3.9,2.1-7.7,4.6-11.1,7.5c-4.7,4.3-12.4,16-14.9,20.4s-7.6,27.9-8,34.5
			s-3.9,25.3-6.5,32c-2.6,6.5-14.9,20.4-16,24.3c-1.1,4,2.2,10.4,4.8,11.9c2.6,1.4,15.3,7.5,19.3,8.5c1.5,0.4,3.2,1.2,5.7,2.1
			L396.2,865.9z"/>
		<path class="st23" d="M429.2,726.7c-5.1,2.9-12.8,6.5-17.5,10.8s-11.9,16.3-13.9,20.8c-2.2,5.1-8.7,26.7-9,33.4
			c-0.4,6.7-3.9,25.3-6.5,32c-2.6,6.5-14.9,20.4-16,24.3c-1.1,4,2.2,10.4,4.8,11.9c2.6,1.4,15.3,7.5,19.3,8.5s13.7,4.3,18,6.7
			s12.7,6,14.1,5.6c1.3-0.4,8.4-6.8,5.4-9.6c-3.1-2.9-6-5.7-11.3-6.4c0,0-11.5-7.1-14-10.7c-2.6-3.7-7.9-12.4-5.9-18.2
			c2.1-5.7,45.2-82.4,46.6-85s7.1-14.8,10.3-18.5c3.4-3.7,2.1-9.2,2.1-9.2"/>
		<circle id="lc2" class="st12" cx="444.6" cy="726.9" r="3"/>
		<circle id="lc1" class="st12" cx="381.3" cy="849.6" r="3"/>
	</g>
</g>
<g id="Torso">
	<path class="st21" d="M544.5,353.5c0,0-5,8-2,20s19,12,24,15c3.3,2,7,17,12,33c1.2,3.9,1,13-1,19c-5,15-14.1,19.5-24,33
		c-8.5,11.5-15,31.7-15,46c0,26.2,8.4,27.6,12.5,41.5c0.8,2.6-5.9,6.2-8,9c-6,8-24,30-38,41c-3.7,2.9-8.4,4-13,1c-15-10-16-22-23-37
		c-2.1-4.4-8.2-9.3-6.2-14.5c6.5-17,20.5-35.5,19.7-57c-1-28-11.5-70.5-11.5-70.5c-5-14.6-5-30.4,0-45c4-12,24-19,34-27s7-43,7-43
		s3.1-0.8,4-1c2.9-0.6,5,2,10,5s14,14,15,17S544.5,353.5,544.5,353.5z"/>
	<path class="st22" d="M494.5,447.5c-1-8,5-20,5-25s1-14-3-20s-8-24-2-28s14-8,17-14s7-18,7-25s1-14,0-18s-6-5-6-5s1,41-5.5,46.5
		s-28.3,18.4-30.4,21s-16.3,14.5-8.2,43.5s12.4,61.1,12.4,61.1s20.7,3.9,26.7,5.9s17,16,19,24s3,24,8,31S545,560,537,568
		s-21,19-29,21s-3,22-3,22s21.9-18.9,28-28s17.8-22.6,13-33s-6.8-13.6-7.1-22s0.6-32.5,5.6-39.5s9-19,21.5-30s13-26.5,13.3-30.3
		S563.6,390.9,562,389s-7-4.2-8.8-4.8s-8.6-5-9.7-7.9s-8-5.8-8-1.8s10,11,18,21s13,19,12,26s-6,30-17,34s-44,11-49,5
		C496.5,456.8,494.7,452.3,494.5,447.5z"/>
	<path class="st23" d="M512,320c0,0,3,33-7,41s-30,15-34,27c-5,14.6-5,30.4,0,45c0,0,10.5,42.5,11.5,70.5
		c0.8,21.7-12.5,40.4-18.9,57.5c-1.9,4.9,3.3,9,4.9,13.5c4,11,6.5,16.4,14,26c7,9,8.3,14.9,17,13c11.9-2.6,24.9-24.1,36-31
		c8-5,10-6,15-11c4.1-4.1,1.2-9-0.4-12.8c-4.5-10.4-11.6-16.4-11.6-39.2c0-14.3,6.5-34.5,15-46c9.9-13.5,19-18,24-33
		c2-6,2.2-15.1,1-19c-5-16-15.7-33-19-35c-5-3-14-1-17-13s2-20,2-20"/>
	<path d="M543.3,490.1c-6.2-0.5-45.9-8-62.1-11.1c-1.9-4.7-7.8-31.5-11.3-52.7c-1-5.3-1.3-10.8-0.9-16.2c0.2-2.2,0.2-4.5,0-6.8
		c-1.8-15.3,10.6-24.7,16-28c3.9-2.4,8.8-3.6,14.9-3.6c2.1,0,4.2,0.1,6.4,0.4c7.4,0.8,14.4,9.2,20.5,16.5c0.8,1,1.7,2,2.5,3
		c1.9,2.2,3.3,5.6,4.8,9.2c3.1,7.4,6.9,16.6,16.8,20.2c3.4,1.1,6.9,1.6,10.5,1.5c5.1-0.1,10.1-0.6,15.1-1.6
		c0.6,3.2,1.9,10.9,0.5,15.2c-0.3,0.9-0.6,1.8-0.9,2.7c-1.8,5.6-4,12.7-9.2,17l-0.1,0.1c-5.4,4.1-10,9.2-13.6,14.9
		c-2.4,4-4.5,8-6.4,12.2C545.6,485.8,544.3,488.4,543.3,490.1z M498.8,374.8c-4.8,0-8.7,1-11.6,2.9c-6.6,4.4-8.7,12-9.7,22.1
		c-1,10.4,6.8,21.4,12,28.7l0.2,0.4c2.9,4.1,9.4,11,19.7,11c2.2,0,4.3-0.3,6.4-0.9c11.1-3,15-7.5,16.1-18.3
		c1-10.5-2.6-20.3-5.6-28.2c-3.4-9-12.9-15.7-20.1-17C503.8,375.1,501.3,374.8,498.8,374.8z"/>
	<path d="M500,373.1L500,373.1c2.1,0,4.1,0.1,6.2,0.4c2.2,0.3,4.3,1.2,6,2.4c-1.8-0.9-3.7-1.5-5.7-1.9c-2.6-0.5-5.2-0.7-7.8-0.7
		c-5.1,0-9.2,1.1-12.4,3.2c-7.1,4.8-9.3,12.7-10.3,23.2c-1.1,11,7,22.2,12.3,29.7l0.3,0.4c3.1,4.3,9.9,11.6,20.9,11.6
		c2.3,0,4.6-0.3,6.8-1c11.7-3.2,16-8.1,17.2-19.6c1.1-10.8-2.7-20.8-5.7-28.8c0.1,0.1,0.3,0.3,0.4,0.5c1.7,2,3.1,5.3,4.6,8.9
		c3.2,7.7,7.2,17.3,17.7,21c3.6,1.1,7.3,1.7,11,1.5c4.7-0.1,9.3-0.5,13.9-1.4c0.7,3.9,1.4,9.7,0.3,13c-0.3,0.9-0.6,1.8-0.9,2.8
		c-1.7,5.5-3.8,12.2-8.8,16.3l-0.1,0.1c-5.5,4.2-10.2,9.4-13.9,15.2c-2.4,4-4.5,8.2-6.5,12.5c-1.1,2.3-2.1,4.5-3,6.1
		c-7.5-0.9-39.2-6.8-60.1-10.8c-2-5.9-7.4-30.5-10.9-51.7c-1-5.2-1.3-10.6-0.8-15.9c0.2-2.3,0.2-4.7,0-7
		c-1.7-14.5,10.1-23.4,15.3-26.6C489.6,374.2,494.2,373.1,500,373.1 M500,370.1c-6.1,0-11.4,1.2-15.7,3.8
		c-5.8,3.6-18.5,13.4-16.7,29.5c0.7,6.2-1.4,9.6,0.9,23.1c3.6,21.4,10,51,11.7,53.8c0,0,58.5,11.3,63.6,11.3c0.2,0,0.3,0,0.3-0.1
		c2.5-3.8,6.2-13.5,10.3-20c3.6-5.6,8.1-10.5,13.4-14.6c6.6-5.4,8.6-14.5,10.6-20.4s-0.8-17.5-0.8-17.5c-5.4,1.2-10.8,1.8-16.3,1.9
		c-3.4,0.1-6.8-0.4-10-1.4c-14-5-15-22-21-29c-6.9-8.1-15-19-24-20C504.3,370.3,502.2,370.2,500,370.1L500,370.1z M509.5,438.4
		c-8.1,0-14.4-4.7-18.5-10.3c-5-7-13-18-12-28s3-17,9-21c3.1-2,7-2.7,10.8-2.7c2.4,0,4.8,0.2,7.2,0.7c7.2,1.3,16,8,19,16
		s6.5,17.5,5.5,27.5c-1,9.8-4,14-15,17C513.5,438,511.5,438.3,509.5,438.4L509.5,438.4z"/>
	<path d="M497.6,613.7c-4,0-7.6-1.9-10.4-5.6c-7.3-9.5-10.3-16.8-13.4-24.5c-1.1-2.6-2.2-5.4-3.5-8.2c-0.8-1.7-1.8-3.4-2.8-5
		c-2.2-3.7-4.9-8.3-4.1-10.7c1.8-5,4.2-9.8,7.2-14.2c5,0.3,31.3,2,41.1,2.9c2.1,0.2,4.6,0.3,7.6,0.3c9,0,19.5-0.9,22.7-1.2
		c1.7,2.8,7.1,12.5,9.4,18.9c1.1,3.2-5.4,7.5-11.2,11.2c-5,3.2-9.6,6.2-11.7,9.5c-1.2,2-2.2,3.6-3,5c-4.5,7.6-4.6,7.8-19.6,18.6
		C503.6,612.6,500.7,613.6,497.6,613.7z"/>
	<path d="M471.5,547.1c6.6,0.4,30.9,2,40.2,2.9c2.1,0.2,4.7,0.3,7.7,0.3c8.4,0,17.9-0.8,21.9-1.1c2,3.5,6.8,12,8.8,17.8
		c0.7,2.1-6.3,6.7-10.6,9.4c-5.1,3.3-9.9,6.4-12.1,10c-1.2,2-2.2,3.6-3,5c-4.4,7.5-4.4,7.5-19.2,18.2c-2.2,1.6-4.9,2.6-7.6,2.6
		c-3.5,0-6.7-1.7-9.2-5c-7.2-9.3-10.1-16.5-13.2-24.2c-1.1-2.7-2.2-5.4-3.5-8.3c-0.9-1.8-1.8-3.5-2.9-5.2c-1.7-2.9-4.6-7.7-4-9.4
		C466.6,555.6,468.8,551.2,471.5,547.1 M470,544c-3.3,4.7-6,9.8-7.9,15.2c-1.5,4.3,4.6,11.8,6.9,16.8c5,11,7,20,17,33
		c3.4,4.4,7.5,6.2,11.6,6.2c3.4-0.1,6.7-1.2,9.4-3.2c18-13,15-11,23-24c4.5-7.4,25.6-14.6,23-22c-2.8-7.9-10-20-10-20
		s-12.8,1.3-23.5,1.3c-2.7,0-5.2-0.1-7.5-0.3C501,546,470,544,470,544z"/>
	<g id="Targets">
		<circle id="ruaTorso" class="st12" cx="504" cy="396" r="4"/>
		<circle id="headTorso" class="st12" cx="531" cy="328" r="4"/>
		<circle id="luaTorso" class="st12" cx="545" cy="389" r="4"/>
		<circle id="rtTorso" class="st12" cx="489" cy="575" r="4"/>
		<circle id="ltTorso" class="st12" cx="513" cy="575" r="4"/>
	</g>
</g>
<g id="Layer_7">
	<g id="RightCrus">
		<path class="st21" d="M535.5,735.5c-4.5-0.5-8.9-0.5-13.4,0c-6.2,0.9-19.2,6.3-23.7,8.6c-4.4,2.2-21.9,18.8-25.8,24.2
			s-17.4,18.9-23.1,22.9c-5.8,4-23.7,8.6-26.8,11.3c-3.2,2.7-4.1,9.9-2.7,12.5c1.3,2.7,8.5,14.7,11.2,17.9s9,11.2,11.2,15.6
			c2.2,4.5,7.2,12.1,8.6,12.5s10.7-0.9,9.8-5s-1.9-8-5.8-11.6c0,0-5.6-12.3-5.6-16.7c0-4.5-1-15.2,4-18.7
			c4.9-3.6,84.9-42.8,87.6-44.1s14-8.3,18.8-9.6s6.3-3.4,5.5-5.5C561.8,742,535.5,735.5,535.5,735.5z"/>
		<path class="st22" d="M437.5,834.2c1.7-2.4,1.9-5.4,0.4-8c-1.8-3.6-9.9-10.8-9.9-15.2c0-4.5,4.1-3.1,10.7-5.4
			c6.7-2.3,15.2-12.1,24.6-18s31.6-28.3,31.6-28.3c3.2-2.7,20.9-11.9,27.7-13.9c5.7-1.8,12.9-0.9,15.2-1c2.2,0,9.4-5.9,9.4-5.9
			c-3.8-1.3-7.7-2.3-11.6-3.1c-4.5-0.5-9-0.4-13.4,0.1c-6.2,0.9-19.2,6.3-23.7,8.6c-4.4,2.2-21.9,18.8-25.8,24.2
			c-4,5.4-17.4,18.9-23.1,22.9c-5.8,4-23.7,8.6-26.8,11.3c-3.2,2.7-4.1,9.9-2.7,12.5c1.3,2.7,8.5,14.7,11.2,17.9
			c1,1.2,1.9,2.8,3.6,4.9L437.5,834.2z"/>
		<path class="st23" d="M542.5,737c-5.7-0.5-14.3-1.7-20.6-0.9s-19,6.8-23.2,9.5c-4.6,2.9-22.1,17.2-26.1,22.7
			c-4,5.4-17.4,18.9-23.1,22.9c-5.8,4-23.7,8.6-26.8,11.3c-3.2,2.7-4,9.8-2.7,12.5s8.5,14.7,11.2,17.9s9,11.2,11.2,15.6
			c2.2,4.5,7.2,12.1,8.6,12.5s10.7-0.9,9.8-5s-1.9-8-5.8-11.6c0,0-5.6-12.3-5.6-16.7c0-4.5,0.4-14.8,5.3-18.4
			c4.9-3.6,83.5-43.2,86.2-44.5s14-8.3,18.8-9.6s6.9-6.5,6.9-6.5"/>
		<circle id="rc2" class="st12" cx="552.6" cy="745.5" r="4"/>
		<circle id="rc1" class="st12" cx="435.9" cy="811.7" r="4"/>
	</g>
	<g id="RightThigh">
		<path class="st21" d="M490.4,613.1c4.1,4.4,7.6,8.9,11.2,19.7c3.7,10.8,9.9,23.5,13.1,36.1c3.1,12.6,9.3,25.4,13.6,40.5
			c4.3,15.2,6.5,27.6,11.4,34.5c4.9,7,9,10.5,14.4,10.3s6-5.6,11.8-7.4c5.8-1.7,6-7.7,2.6-16.2s-1.7-25.9-2-40.8
			c-0.2-14.9-1.6-41.8-6-53.8s-10-29.7-15.5-38c-5.6-8.3-11.7-22-20-28c-8.5-6.1-17.3-11.2-29.3-6.8c-9.7,3.5-14.9,6.5-16.9,21.7
			S485.4,607.9,490.4,613.1z"/>
		<path class="st22" d="M494.6,563.7c-8.7,3.8-13.8,6.7-15.7,21.3c-2,15.1,1.2,28,6.1,33.2c4.1,4.4,7.8,4.7,11.6,15.6
			c3.8,10.8,10.6,24.7,13.7,37.4c3,12.7,13.8,23.1,18.1,38.4c4.3,15.3,6.5,27.6,11.4,34.5c5.1,7,3.1,4.8,7.2,8.3
			c0,0,2.9-2.2,2.5-4.5c-0.3-2.3,1-12.3-1.8-16.4c-2.8-4.1-11.6-18.7-13.2-23.5c-1.6-4.8-24.9-53.9-24-56.7c1-2.9,0.7-5,5.4-6.6
			c4.8-1.6,27.2-11.9,32.3-11.2c5.1,0.6,11.6,0.8,11.6,0.8s-8-21.7-9.3-25.4s-16.2-30.1-20.1-33.4S511.4,556.4,494.6,563.7z"/>
		<path class="st23" d="M570.2,747.9c1.6-5.2,1.7-9.2-1.5-17.3c-3.4-8.5-1.7-25.9-2-40.8c-0.2-14.9-1.6-41.8-6-53.8
			s-10-29.7-15.5-38c-5.6-8.3-11.7-22-20-28c-8.5-6.1-16.6-13.1-28.7-8.7c-9.7,3.5-19.8,7.6-22.8,22.5s3.5,28.3,8.5,33.6
			c4.1,4.4,11.4,9.9,15,20.6c3.6,10.7,7.6,20.6,12.8,32.5c6,13.6,14,23.8,18.4,39.1s7.7,26.9,11.4,34.5c1.8,3.8,6.9,8.1,7.6,8.9"/>
		<path d="M558.4,624.7c-4,2.6-52.1,18.8-59,19.8c-0.6-1.8-1.2-3.5-1.6-5.3c-1.2-5-2.9-11.2-5.7-14.1c-3.6-3.7-14.5-15.8-16.9-22.1
			c-1.3-3.6-2.6-14.1-2.1-17.6c0.6-3.8,4.4-10,9.5-15.5c1.1-1.2,2.4-2.5,3.6-3.5c4.3-3.9,19.2-5.3,27.5-1.5
			c8.4,3.7,28.2,23.2,32.6,31.9c0.6,1.4,1.5,3,2.3,4.7C551.8,608.2,558.8,622,558.4,624.7z"/>
		<path d="M481.5,569l2.2,2c1.1-1.2,2.3-2.3,3.4-3.4c3.8-3.5,18.3-4.8,25.9-1.3c8.3,3.7,27.6,22.7,31.8,31.2c0.6,1.4,1.5,3,2.3,4.7
			c3,5.9,9,17.8,9.7,21.8c-7.2,3.6-47.4,16.7-56.4,18.9c-0.3-1.1-0.8-2.7-1-3.9c-1.3-5.2-3-11.5-6.1-14.8
			c-3.4-3.5-14.2-15.6-16.6-21.6c-1.3-3.6-2.4-13.9-2-16.8c0.5-3.5,4.3-9.6,9.1-14.7L481.5,569 M481.5,569c-5,5.5-9.2,12-9.8,16.3
			c-0.5,3.5,0.7,14.4,2.2,18.3c2.7,6.9,14.4,19.8,17.2,22.6c4.4,4.5,5.8,19.2,7.7,19.9c1.9,0.6,58.4-17.8,60.9-20.5l0,0
			c1.9-2.5-7.8-20.6-12.1-29.5s-24.2-28.5-33.3-32.6c-8.5-3.7-24.3-2.6-29.1,1.8C483.8,566.4,482.6,567.7,481.5,569L481.5,569z"/>
		<circle id="rt2" class="st12" cx="503.6" cy="588.9" r="4"/>
		<circle id="rt1" class="st12" cx="558.2" cy="745.2" r="4"/>
	</g>
</g>
<g id="Layer_8">
	<path class="st21" d="M548.5,355.5c0,0-18-6-19-9s-6-26-8-27s-13-2-15-5s-4-12-3-16s7-9,10-9s9,3,12,6s11,0,13-3s8-12,13-15
		s10-10,15-9s16,6,17,9s3,10,2,15s-5,12-5,15c0,6,6,9,7,13s-2,6-4,7c-1.3,0.6-4,2-4,5s1,9-2,12c-2.5,2.5-4,8-4,10c0,5-6,7-9,7
		C562.5,361.5,548.5,355.5,548.5,355.5z"/>
	<path class="st22" d="M555.1,358.2c-3.5-1.4-6.6-2.7-6.6-2.7s-18-6-19-9s-6-26-8-27s-13-2-15-5s-4-12-3-16s7-9,10-9s9,3,12,6
		s11,0,13-3s8-12,13-15s10-10,15-9c3.5,0.9,6.8,2.1,10,3.8c0,0-24.5,22.3-26,42.2C548.5,340.5,555.1,358.2,555.1,358.2z"/>
	<path class="st23" d="M548.5,355.5c0,0-17.4-6.2-19-9c-4-7-6-26-8-27s-13-2-15-5s-4-12-3-16s7-9,10-9s9,3,12,6s11,0,13-3
		s8-12,13-15s10-10,15-9s16,6,17,9s3,10,2,15s-5,12-5,15c0,6,6,9,7,13s-2,6-4,7c-1.3,0.6-4,2-4,5s1,9-2,12c-2.5,2.5-4,8-4,10
		c0,5-6,7-9,7C562.5,361.5,548.5,355.5,548.5,355.5z"/>
	<path class="st24" d="M520.5,301.5c1-2-5.7-7.9-9,1c-3,8,3.3,9.7,5,8"/>
	<path d="M582,303l-1,10c0,0-41.6-4.2-47-13c-8.9-14.5,46-30,46-30s4.4,11,5.2,15.3S582,303,582,303z"/>
	<path class="st6" d="M488.5,268.5c0,0,4,2,4,6s-5,14-5,21s1,17,5,24s9,15,12,16s7,0.7,7.5-1.7s1.5-12.3-1.5-15.3s-7-5-8-14
		s6-16,10-16s12,3,14,6s28,0,37-5s23-13,22-18s-7-15-15-17c-8-2-19-5-27-5s-24,5-28,9c-4,4-16-1-16-1L488.5,268.5z"/>
	<circle id="h1" class="st12" cx="531" cy="328" r="4"/>
	<circle id="h2" class="st12" cx="481" cy="253" r="4"/>
	<path class="st25" d="M579,278c0,0-12-11-17-13s-25-3-25-3s7,6,8,8s-8-3-15-4c-4-0.6-8.1-0.3-12,1c0,0,6,5,9,5s7,3,7,3h-14
		c-3,0.2-6,0.5-9,1l6,6c0,0-8-2-10-2s-7,3-7,3l4,4c-1.1,0.5-2.1,1.2-3,2c-1,1-2,4-2,4l-2-6c0,0-1,14,0,17s5,10,6,14
		c0.6,2.6,0.6,5.4,0,8c0,0-2-8-5-9c-2-0.6-4-0.6-6,0c0,0,4.3,11.8,6.6,12.4s6.4,6.6,8.4,6.6s6-1,5-6c-0.6-3.6-1-7.3-1-11
		c0,0-5.4-4.4-6.2-6.7s-3.6-10-1.7-14.2s5.3-9.7,8.1-9.4c2.8,0.3,11.9,1.2,14.9,5.2S541,296,541,296s19.5-4.8,23.2-6.9
		S579,278,579,278z"/>
	<path class="st26" d="M488.5,268.5c0,0,4,2,4,6s-5,14-5,21s1,17,5,24s9,15,12,16s7,0.7,7.5-1.7s1.5-12.3-1.5-15.3s-7-5-8-14
		s6-16,10-16s12,3,14,6s28,0,37-5s23-13,22-18s-7-15-15-17c-8-2-19-5-27-5s-24,5-28,9c-4,4-16-1-16-1L488.5,268.5z"/>
	<g id="HairBand">
		<line class="st27" x1="488" y1="273" x2="504" y2="256"/>
		<line class="st27" x1="487" y1="268" x2="499" y2="254"/>
		<line class="st27" x1="480" y1="266" x2="496" y2="249"/>
		<line class="st27" x1="476" y1="262" x2="490" y2="247"/>
	</g>
</g>
<g id="Layer_9">
	<path class="st6" d="M340,319c5-3,5-8,8-17s14-15,28-23s19-15,22-21c3-6,20-19,30-26s28-10,39-13s23,5,26,9s2,13-1,15s-17,20-17,23
		s-13,20-19,24s-16,6-23,10c-4.6,2.6-12.3,11.4-17,17l-1,2c-1.7,5.1-3.7,10.1-6,15c-3,6-17,18-23,24s-21,15-21,15s4-7,5-10s0-7,0-7
		s-9,11-15,18s-25,18-36,24s-28,11-40,14c-2,0.5-7,2-7,2c-1.9,1.1-3,1.6-4,3c-3,4-7.2,6.8-12,8c-4.4,1-8.6,3-12,6c-2,2-32,13-33,10
		s14-33,19-43s20-17,25-20s20-7,27-10s26-7,30-8s6-8,6-8s-9,0-10-3s-6-3-9-3s-7,5-6-1s8-8,11-11s12-10,17-12S335.9,321.5,340,319z"
		/>
	<path class="st28" d="M296.4,339.5c0,0,8.6-2.5,13.6,0.5s4,6,7,6s8-3,10-1s1,5-3,8s-8,7-9,9s-9,6-12,5c-1.9-0.7-3.5-2.1-4.5-3.9
		c0,0,14.5-2.1,16.5-6.1s1.7-5.3-1.7-5.2c-2.7,0-5.3-1-7.3-2.8c-2.8-2.8-7.1-3.5-10.6-1.7C290,350,296.4,339.5,296.4,339.5z"/>
	<path class="st28" d="M345,311.2c0,0,10-6.2,14-9.2s11-5,12-7s3-3,5-2s-1,7-4,10s-10,10-15,12c-2.9,1.2-6,1.7-9.1,1.5L345,311.2z"
		/>
	<path class="st28" d="M294.2,382.2c0,0,3.8-3.2,4.8-1.2s-7,12-7,14s-1,4,2,3s29-11,38-20s38-38,39-43s2-8,4-7s2,6,1,9s-1,11,0,13
		s20-16,23-25s14-33,17-37s4-15,8-15s2,11,5,13s19-7,27-15s18-24,22-26s9.1,3.1,9.1,3.1s-16.3,26-19.7,29.9s-12.3,15.5-27.4,18.7
		s-24.8,22.6-27.9,29.4s-19,27.5-30.6,35.6s-15.4,10.5-15.4,10.5S371,361,370,359s-3-2-5,2s-13,19-29,28s-41.5,20.1-55.2,22.5
		s-23.4,1-23.4,1s14.2-5.9,21.9-13.7S294.2,382.2,294.2,382.2z"/>
	<path class="st28" d="M226.8,404.4c0.8,2.1,0.8,4.4,0.2,6.6c-1,4-4,13-1,15s24-8,27-11s16-1,16-1c-5.5,6.5-12.7,11.4-20.8,14
		c-13.2,4-28.4,13.1-32.3,13s-4.4-3-4.4-3L226.8,404.4z"/>
	<path class="st29" d="M419,291c0,0-1,13-2,16l-5,15c0,0,14-18,21-22s17-6,23-10s19-21,19-24s14-21,17-23s4-11,1-15s-15-12-26-9
		s-29,6-39,13s-27,20-30,26c-3,6-8,13-22,21s-25,14-28,23s-4,14-8,17"/>
	<path class="st29" d="M371,299c0,0-18,17-29,20s-16,1-21,3s-14,9-17,12s-10,5-11,11s3,1,6,1s8,0,9,3s10,3,10,3s-2,7-6,8s-23,5-30,8
		s-22,7-27,10s-20,10-25,20s-20,40-19,43s31-8,33-10c3.4-3,7.6-5,12-6c4.8-1.2,9-4,12-8c2-3,8-4,8-4"/>
	<path class="st29" d="M296,380c0,0-23,28-31,30s-11,2-11,2s13,3,25,0s29-8,40-14s30-17,36-24s15-18,15-18s1,4,0,7s-5,10-5,10
		s15-9,21-15s20-18,23-24s6-17,6-17"/>
	<circle id="hair1" class="st12" cx="481" cy="253" r="4"/>
	<circle id="hair2" class="st12" cx="271" cy="396" r="4"/>
</g>
<g id="Layer_4">
	<g id="RightLowerArm">
		<path class="st21" d="M542.9,310.2c-6.6-1.8-9.9-9.3-15.9-25.2c-11.6-30.7-11.4-59.1-17.4-68.3c-1.9-2.9-7.6-6.8-11-8.7
			c-2.3-1.1-4.2-3-5.1-5.3c-1.3-2.3,1.3-8.2-2.2-12.9c-3.4-4.8-5.1-5.3-4.5-7.9c0.3-1.5,1.9-2.4,3.3-2l0.1,0c-0.5-1.9,0-4,1.4-5.3
			c2.4-2.2,4.4,1.2,4.4,1.2c-1.2-1.2-1.1-3.3,0.3-4.7l0.1-0.1c2.4-2.2,4.4,1.2,4.4,1.2s-1.4-1.4,1-3.5c2.4-2.2,5.3,1.4,7.4,3.9
			c3.1,3.5,5.7,7.8,7,12.4c1.5,5.3,0.2,9.6,2.5,15c2.4,5.3,24.8,44.4,33.5,71.8c8.8,27,9.2,32.5,5.8,37.6
			C554.7,314.7,549.1,311.8,542.9,310.2z"/>
		<path class="st22" d="M550.6,311.9c0,0,0.9-5.1-1.6-6.5c-2.5-1.4-6.8-2.2-10.2-10.7c-3.3-8.4-14.9-36.4-16.6-46.3
			c-1.6-9.9-4.8-25.6-6.7-28.2c-1.8-2.6-3.8-6.2-2.1-7.8c1.7-1.4,4.1-4.2,2.8-4.9c-1.2-0.7-6.5,2.8-9,1.3c-2.5-1.4-6.4-8.6-8.9-10
			c-2.5-1.4-5.4-2.7-5.4-2.7s-0.4,5.5,1,8.2c1.4,2.7,12.4,7.7,14.1,11c1.7,3.3,5.8,11.7,6.3,18.7c0.6,7.1,9.3,45.4,13.4,53.9
			c4.1,8.6,7.5,19.1,11.3,20.6C543,309.9,546.9,311,550.6,311.9z"/>
		<path class="st30" d="M542.9,310.2c-6.6-1.8-9.9-9.3-15.9-25.2c-11.6-30.7-11.4-59.1-17.4-68.3c-1.9-2.9-7.6-6.8-11-8.7
			c-2.3-1.1-4.2-3-5.1-5.3c-1.3-2.3,1.3-8.2-2.2-12.9c-3.4-4.8-5.1-5.3-4.5-7.9c0.3-1.5,1.9-2.4,3.3-2l0.1,0c-0.5-1.9,0-4,1.4-5.3
			c2.4-2.2,4.4,1.2,4.4,1.2c-1.2-1.2-1.1-3.3,0.3-4.7l0.1-0.1c2.4-2.2,4.4,1.2,4.4,1.2s-1.4-1.4,1-3.5c2.4-2.2,5.3,1.4,7.4,3.9
			c3.1,3.5,5.7,7.8,7,12.4c1.5,5.3,0.2,9.6,2.5,15c2.4,5.3,24.8,44.4,33.5,71.8c8.8,27,9.2,32.5,5.8,37.6
			C554.7,314.7,549.1,311.8,542.9,310.2z"/>
		<circle id="rla2" class="st12" cx="546.7" cy="307.4" r="3"/>
		<circle id="rla1" class="st12" cx="504.6" cy="193.2" r="3"/>
	</g>
	<g id="RightUpperArm">
		<path class="st21" d="M549,338.8c0,0-2.2,16.9-7.7,25.7c-5.3,8.8-18.4,34.5-23.4,39.6c-5.1,5.2-9.8,9-15.3,7.5
			c-5.5-1.5-11.4-8.6-11.9-12.3c-0.6-4.8,0.8-14,3.4-20.4c4.4-10.5,6.6-25.7,11.6-34.7c8.6-15.2,20.6-24.3,25.1-32.7
			c1.4-2.8,2-5.3,4.9-8.4c3.1-3.2,9.2-5.1,12.6-7.8c2.5-2,2.3-7.9,5.4-8.5c11.8-2.1,5.6,36-4.5,48.6"/>
		<path class="st22" d="M492.9,382.7c0,0,2.6,2.4,4.9,0.2c2.3-2,5.3-7.3,7.1-12.2c1.6-4.9,8.8-25,15.2-34c6.4-9,16-25.4,19.2-27
			c3.3-1.5,7.1-6.3,8.6-8.9c1.2-2.5,2.3-4.9,3.1-7.5c0,0-1.2,1.5-5.6,3.7c-3.3,1.5-8.4,4.4-9.4,6.1c0,0-6.4,11.2-10.7,15.7
			c-4.3,4.5-15.5,15.4-18.7,22.2c-3.4,6.8-4,21.1-7.4,27.4C496.7,373.2,494.6,378,492.9,382.7z"/>
		<path class="st23" d="M549.4,335.8c9-11.4,14.8-42.1,7.6-46.8c-1.1-0.6-2.2-1.2-3.4-1.6"/>
		<path class="st23" d="M535.7,302.7c-1.6,3.2-3.5,6.6-4.7,9c-4.5,8.3-16.5,15.3-25,30.5c-4.8,8.5-4.2,25.3-10.6,34.3"/>
		<path class="st23" d="M550.5,325.1c0,0-6,34.4-10.4,43.7c-4.8,10.1-16.8,30.6-22.4,35.3c-5.5,4.9-9.8,9-15.3,7.5
			c-3.4-0.9-4.1-1.1-7-3.8"/>
		<line class="st31" x1="536.8" y1="377.8" x2="499.7" y2="362.1"/>
		<circle id="rua1" class="st12" cx="506.4" cy="396.1" r="4"/>
		<circle id="rua2" class="st12" cx="551.5" cy="298.5" r="3"/>
	</g>
</g>
</svg>
